<svg width="16" height="16" viewBox="0 0 16 16" fill="none" xmlns="http://www.w3.org/2000/svg">
  <g clip-path="url(#clip0_2368_66558)">
  <path d="M4.146 0.146977C4.19252 0.100576 4.24773 0.0637975 4.30847 0.0387458C4.36921 0.0136941 4.4343 0.000860013 4.5 0.00097736H11.5C11.6326 0.00097736 11.7598 0.0536558 11.8536 0.147424C11.9473 0.241192 12 0.368369 12 0.500977C12 1.18098 11.658 1.67498 11.354 1.97998C11.228 2.10498 11.104 2.20398 11 2.27798V6.70898L11.078 6.75698C11.281 6.88398 11.554 7.07098 11.829 7.31198C12.36 7.77598 13 8.52798 13 9.50098C13 9.63359 12.9473 9.76076 12.8536 9.85453C12.7598 9.9483 12.6326 10.001 12.5 10.001H8.5V14.501C8.5 14.777 8.276 16.001 8 16.001C7.724 16.001 7.5 14.777 7.5 14.501V10.001H3.5C3.36739 10.001 3.24021 9.9483 3.14645 9.85453C3.05268 9.76076 3 9.63359 3 9.50098C3 8.52798 3.64 7.77598 4.17 7.31198C4.4287 7.08734 4.70641 6.88559 5 6.70898V2.27798C4.8739 2.18869 4.75548 2.08901 4.646 1.97998C4.342 1.67498 4 1.17998 4 0.500977C3.99988 0.435272 4.01272 0.370189 4.03777 0.309447C4.06282 0.248705 4.0996 0.193496 4.146 0.146977Z" fill="#666666"/>
  </g>
  <defs>
  <clipPath id="clip0_2368_66558">
  <rect width="16" height="16" fill="white"/>
  </clipPath>
  </defs>
  </svg>