<svg width="64" height="64" viewBox="0 0 64 64" fill="none" xmlns="http://www.w3.org/2000/svg">
    <rect width="64" height="64" fill="{% if bg %}{{ bg }}{% else %}#8CAD6A{% endif %}"/>
    <path d="M30.0267 36.5921V24.3526C30.0267 23.5788 29.9803 22.8038 30.0336 22.0305C30.0848 21.286 30.2965 20.5814 30.6677 19.9318C31.3115 18.8065 32.3813 17.9494 33.6224 17.5718C34.1056 17.4246 34.6101 17.351 35.1152 17.351C36.4347 17.351 37.7216 17.8705 38.6709 18.7873C39.6528 19.735 40.1264 20.9574 40.2315 22.2977C40.2896 23.039 40.2661 23.7862 40.2661 24.5302V28.8604C40.2661 30.0625 40.2299 31.2646 40.2256 32.4673C40.2224 33.3254 40.1136 34.1937 40.2021 35.0502C40.248 35.4966 40.4075 35.9596 40.7616 36.2348C41.2176 36.5889 41.9579 36.5868 42.3717 36.1692C42.5877 35.951 42.7456 35.5601 42.7728 35.2545C42.872 34.1388 42.7728 33.0913 42.7728 31.9708V19.2934C42.7728 18.3484 42.7621 17.3846 42.7829 16.4326C42.7984 15.7121 42.8507 15.0188 43.0965 14.335C43.5365 13.1148 44.4459 12.0881 45.6027 11.5014C46.3168 11.1393 47.1136 10.951 47.9147 10.951C49.232 10.951 50.5163 11.4689 51.4656 12.3825C52.4096 13.2913 52.9957 14.5686 53.0315 15.8822C53.0523 16.6358 53.0128 17.3937 53.0128 18.1478V43.1436C53.0128 43.4689 53.0128 43.7937 53.0128 44.119C53.0128 44.9553 53.0912 45.99 54.1733 46.0764C54.6848 46.1174 55.1435 45.8289 55.384 45.3857C55.6693 44.8604 55.5504 44.2449 55.5504 43.6742C55.5504 41.999 55.5728 40.3244 55.5728 38.6497V29.9537C55.5728 29.1825 55.5291 28.4028 55.7067 27.646C55.8555 27.0124 56.128 26.4102 56.5035 25.879C57.2581 24.8118 58.4139 24.0582 59.6939 23.7948C60.0011 23.7313 60.3141 23.6961 60.6277 23.6886C60.6709 23.6876 60.7141 23.687 60.7579 23.687H63.9989V27.527H60.7579C60.7381 27.527 60.7179 27.5275 60.6981 27.5286C60.0299 27.5585 59.4933 28.0881 59.4629 28.7478C59.4619 28.7697 59.4613 28.7921 59.4613 28.814V30.8241C59.4613 32.5324 59.4128 34.2406 59.4123 35.9484C59.4123 36.1644 59.4123 36.3804 59.4123 36.5964V42.8769C59.4123 44.1361 59.5163 45.4518 59.0523 46.6497C58.9349 46.9521 58.7888 47.2433 58.6165 47.5174C58.4459 47.79 58.2491 48.046 58.0304 48.2817C57.8123 48.5169 57.5717 48.7318 57.3136 48.9228C57.0539 49.1142 56.776 49.2817 56.4848 49.4209C56.1893 49.5622 55.8805 49.6753 55.5637 49.7574C55.2384 49.8417 54.9051 49.8934 54.5696 49.9126C54.4715 49.9179 54.3739 49.9212 54.2757 49.9212C52.9573 49.9212 51.672 49.4028 50.7227 48.4876C50.0784 47.8668 49.6112 47.0753 49.3627 46.2166C49.088 45.2678 49.1717 44.3137 49.1717 43.3404V18.0998C49.1717 17.3985 49.3061 16.5804 49.1723 15.894C49.0517 15.2758 48.5616 14.7905 47.9136 14.7905C47.5077 14.7905 47.1195 14.9878 46.88 15.3153C46.4752 15.8684 46.6331 16.686 46.6331 17.3265C46.6331 18.2044 46.6288 19.0822 46.6267 19.9601C46.6224 21.7158 46.6181 23.4716 46.6144 25.2268C46.6144 27.1137 46.6053 29.0012 46.6011 30.8886C46.5968 32.6364 46.8016 34.5388 46.4976 36.2614C46.4053 36.7841 46.2352 37.2918 45.9701 37.7516C45.5013 38.5649 44.8091 39.2438 43.9851 39.695C43.2347 40.1057 42.3851 40.3212 41.5301 40.3212C39.3285 40.3212 37.2421 38.8188 36.6539 36.6801C36.2965 35.3809 36.4256 34.0502 36.4256 32.7249C36.4256 31.0033 36.4091 29.2796 36.4059 27.5606C36.4059 26.5926 36.4027 25.6241 36.4011 24.6561C36.4 24.167 36.3995 23.678 36.3984 23.1889C36.3979 22.7841 36.4523 22.3462 36.2864 21.9644C36.0864 21.5046 35.6165 21.191 35.1141 21.191C34.6901 21.191 34.2864 21.407 34.0501 21.759C33.84 22.0721 33.8229 22.4705 33.8304 22.8353C33.8603 24.2236 33.8661 25.6102 33.8656 26.9985C33.8656 27.4476 33.8656 27.8961 33.8656 28.3451V39.5734C33.8656 40.4956 33.9077 41.4412 33.7797 42.3644C33.6853 43.0454 33.4229 43.7084 33.0549 44.2881C32.3365 45.4193 31.1787 46.2417 29.8715 46.5393C29.4971 46.6246 29.1136 46.6673 28.7296 46.6673C26.744 46.6673 24.8955 45.479 24.0699 43.6726C23.5979 42.6396 23.6256 41.5318 23.6256 40.4257V21.678C23.6256 20.7281 23.6272 19.7596 23.6304 18.8022C23.632 18.3132 23.6341 17.8241 23.6373 17.335C23.64 16.8689 23.7045 16.3564 23.6427 15.8945C23.56 15.2758 22.9851 14.79 22.3675 14.79C21.9947 14.79 21.6352 14.9564 21.3931 15.2396C21.0832 15.6028 21.0923 16.07 21.0939 16.5206C21.096 17.1244 21.0939 17.7281 21.0939 18.3313C21.0939 18.8572 21.0923 19.3825 21.0923 19.9084C21.0923 20.1713 21.0923 20.4342 21.0933 20.6966C21.0944 21.022 21.0656 21.3468 21.0656 21.6732C21.0656 22.031 21.0656 22.3894 21.0656 22.7473V45.878C21.0656 46.2508 21.0656 46.6236 21.0656 46.9964C21.0656 47.7937 21.0933 48.5692 20.8741 49.3446C20.696 49.9745 20.3941 50.5681 19.992 51.0844C19.1819 52.1233 17.9781 52.822 16.6725 53.0012C16.4405 53.0332 16.2069 53.0486 15.9728 53.0486C15.5872 53.0486 15.2016 53.0054 14.8256 52.919C14.5019 52.8444 14.1856 52.7377 13.8827 52.6012C13.5845 52.4668 13.2992 52.3036 13.032 52.1142C12.7648 51.9249 12.5195 51.7132 12.2944 51.478C12.0693 51.2428 11.8667 50.9868 11.6901 50.7132C11.512 50.4374 11.3611 50.1446 11.2395 49.8401C11.1157 49.5297 11.0229 49.2076 10.9627 48.879C10.9067 48.5745 10.8789 48.2652 10.8789 47.9553C10.8789 47.9254 10.8789 47.8955 10.88 47.8657C10.8795 47.8566 10.8789 47.8481 10.8789 47.839V33.7894C10.8731 33.7916 10.8677 33.7926 10.8619 33.7942V31.622C10.8619 30.6689 10.9237 29.7036 10.864 28.7516C10.8219 28.0865 10.2571 27.5542 9.5888 27.5542C9.1264 27.5542 8.7136 27.8022 8.49333 28.2081C8.27733 28.606 8.31573 29.0422 8.31573 29.4785C8.31787 29.4934 8.31893 29.5084 8.31893 29.5238V40.959C8.31893 41.7158 8.29973 42.4417 8.0592 43.1665C7.85333 43.7862 7.52693 44.3649 7.10453 44.8625C6.24907 45.8705 5.01493 46.5201 3.69867 46.6476C3.57493 46.6593 3.4512 46.6668 3.32747 46.67C3.2848 46.671 3.24213 46.6716 3.19893 46.6716H0V42.8316H3.2C3.21973 42.8316 3.23947 42.831 3.2592 42.83C3.91893 42.8001 4.44853 42.2705 4.4784 41.6108C4.47947 41.5889 4.48 41.5665 4.48 41.5446V32.3916C4.48 31.67 4.48 30.9489 4.48 30.2273C4.48 29.4438 4.41333 28.6369 4.5616 27.863C4.6848 27.2214 4.93227 26.606 5.28693 26.0577C5.99147 24.9681 7.1056 24.1702 8.36587 23.8609C8.76587 23.7628 9.1776 23.7137 9.58933 23.7137C10.9077 23.7137 12.1941 24.2326 13.1435 25.1478C14.0976 26.0678 14.6539 27.3313 14.7067 28.654C14.7195 28.9697 14.72 29.2849 14.72 29.6012V45.8406C14.72 46.2822 14.7291 46.7243 14.7264 47.166C14.7232 47.7041 14.6245 48.3286 14.9979 48.7729C15.2384 49.0593 15.5995 49.2273 15.9733 49.2273C16.3653 49.2273 16.7419 49.0422 16.9813 48.7318C17.3099 48.3068 17.2267 47.7889 17.2267 47.2913V16.6134C17.2267 15.207 17.5227 13.879 18.4464 12.7793C19.2901 11.7745 20.5093 11.1201 21.8144 10.9798C21.9984 10.9601 22.1835 10.95 22.3685 10.95C23.7547 10.95 25.1019 11.5244 26.0624 12.5244C26.6043 13.0886 27.008 13.7793 27.2437 14.5249C27.4907 15.3073 27.4672 16.0545 27.4672 16.8609C27.4672 17.094 27.4672 17.3276 27.4672 17.5606V39.7116C27.4672 40.175 27.4629 40.639 27.4699 41.1025C27.4768 41.6129 27.5739 42.3996 28.048 42.6278C28.5221 42.8561 29.1504 42.9052 29.528 42.527C29.9739 42.0801 30.0272 41.5446 30.0272 40.9601C30.0272 40.199 30.0272 37.3478 30.0272 36.5868" fill="{% if line %}{{ line }}{% else %}#F6B7C1{% endif %}"/>
    </svg>    