<svg width="64" height="64" viewBox="0 0 64 64" fill="none" xmlns="http://www.w3.org/2000/svg">
<g id="Group 27">
<rect id="Rectangle 41" y="0.000488281" width="64" height="64" fill="#F8AD39"/>
<g id="&#195;&#173;cone cidades">
<path id="Vector" d="M31.9938 44.7173C24.9828 44.7173 19.2988 39.0333 19.2988 32.0223C19.2988 25.0113 24.9828 19.3273 31.9938 19.3273C39.0048 19.3273 44.6888 25.0113 44.6888 32.0223C44.6888 39.0333 39.0048 44.7173 31.9938 44.7173ZM31.9815 29.791C30.7503 29.791 29.752 30.7893 29.752 32.0205C29.752 33.2516 30.7503 34.2499 31.9815 34.2499C33.2127 34.2499 34.2109 33.2516 34.2109 32.0205C34.2109 30.7893 33.2127 29.791 31.9815 29.791Z" fill="#233D90"/>
<path id="Vector_2" d="M31.942 51.7441C21.0286 51.7441 12.1816 42.8972 12.1816 31.9838C12.1816 21.0705 21.0286 12.2235 31.942 12.2235C42.8553 12.2235 51.7023 21.0705 51.7023 31.9838C51.7023 42.8972 42.8553 51.7441 31.942 51.7441ZM31.9117 18.1571C24.2459 18.1571 18.0312 24.3718 18.0312 32.0376C18.0312 39.7034 24.2459 45.918 31.9117 45.918C39.5775 45.918 45.7921 39.7034 45.7921 32.0376C45.7921 24.3718 39.5775 18.1571 31.9117 18.1571Z" fill="#233D90"/>
<path id="Vector_3" d="M31.9942 58.5222C17.3589 58.5222 5.49414 46.6575 5.49414 32.0221C5.49414 17.3868 17.3589 5.52206 31.9942 5.52206C46.6296 5.52206 58.4943 17.3868 58.4943 32.0221C58.4943 46.6575 46.6296 58.5222 31.9942 58.5222ZM31.9942 11.022C20.3964 11.022 10.9941 20.4243 10.9941 32.0221C10.9941 43.62 20.3964 53.0223 31.9942 53.0223C43.5921 53.0223 52.9944 43.62 52.9944 32.0221C52.9944 20.4243 43.5921 11.022 31.9942 11.022Z" fill="#233D90"/>
<path id="Vector_4" d="M32 64C14.3271 64 0 49.6729 0 32C0 14.3271 14.3271 0 32 0C49.6729 0 64 14.3271 64 32C64 49.6729 49.6729 64 32 64ZM31.9938 3.77205C16.3917 3.77205 3.74363 16.4201 3.74363 32.0222C3.74363 47.6244 16.3923 60.2724 31.9938 60.2724C47.5954 60.2724 60.244 47.6244 60.244 32.0222C60.244 16.4201 47.596 3.77205 31.9938 3.77205Z" fill="#233D90"/>
</g>
</g>
</svg>
