<svg width="64" height="64" viewBox="0 0 64 64" fill="none" xmlns="http://www.w3.org/2000/svg">
<g id="Group 28">
<rect id="Rectangle 41" y="0.000488281" width="64" height="64" fill="#E02437"/>
<path id="Vector" d="M64 30.4242H39.9412L62.177 21.2382L60.9739 18.3255L38.7018 27.5267L55.7418 10.4867L53.5133 8.25818L36.5067 25.2649L45.74 3.05697L42.8297 1.84727L33.5758 24.1049V0H30.4242V24.0588L21.2382 1.82303L18.3255 3.02607L27.5267 25.2982L10.4867 8.25818L8.25818 10.4867L25.2648 27.4933L3.05697 18.26L1.84727 21.1703L24.1048 30.4242H0V33.5758H24.0588L1.82303 42.7618L3.02606 45.6745L25.2982 36.4733L8.25818 53.5133L10.4867 55.7418L27.4933 38.7352L18.26 60.943L21.1703 62.1527L30.4242 39.8952V64H33.5758V39.9412L42.7618 62.177L45.6745 60.9739L36.4733 38.7018L53.5133 55.7418L55.7418 53.5133L38.7351 36.5067L60.943 45.74L62.1527 42.8297L39.8951 33.5758H64V30.4242Z" fill="#F6B7C1"/>
</g>
</svg>
