<svg width="72" height="72" viewBox="0 0 72 72" fill="none" xmlns="http://www.w3.org/2000/svg">
<g id="Group 18">
<rect id="Rectangle 41" y="0.000488281" width="72" height="72" fill="#8CAD6A"/>
<path id="Vector" d="M72 34.2273H44.9339L69.9491 23.893L68.5957 20.6161L43.5395 30.9675L62.7095 11.7975L60.2025 9.29045L41.07 28.423L51.4575 3.43909L48.1834 2.07818L37.7727 27.118V0H34.2273V27.0661L23.893 2.05091L20.6161 3.40433L30.9675 28.4605L11.7975 9.29045L9.29045 11.7975L28.423 30.93L3.43909 20.5425L2.07818 23.8166L27.118 34.2273H0V37.7727H27.0661L2.05091 48.107L3.40432 51.3839L28.4605 41.0325L9.29045 60.2025L11.7975 62.7095L30.93 43.577L20.5425 68.5609L23.8166 69.9218L34.2273 44.882V72H37.7727V44.9339L48.107 69.9491L51.3839 68.5957L41.0325 43.5395L60.2025 62.7095L62.7095 60.2025L43.577 41.07L68.5609 51.4575L69.9218 48.1834L44.882 37.7727H72V34.2273Z" fill="#233D90"/>
</g>
</svg>
