<svg width="72" height="72" viewBox="0 0 72 72" fill="none" xmlns="http://www.w3.org/2000/svg">
<g id="Group 18">
<rect id="Rectangle 41" y="0.000488281" width="72" height="72" fill="#EB5E3B"/>
<g id="Group">
<path id="Vector" d="M64.4712 20.2758C61.4278 15.8407 55.1035 12.7931 49.1389 11.4119C47.959 11.1395 46.7934 10.9304 45.671 10.791C40.6921 10.1701 37.0156 10.3855 34.2527 11.4119C29.0724 13.338 27.1154 18.1342 25.8203 25.6739C25.921 25.6612 26.0146 25.6485 26.1153 25.6359C32.972 24.7679 37.6559 25.4521 40.8432 27.7837C44.527 30.4701 46.2754 35.3424 46.6999 44.0542H46.6423C46.6423 44.8651 46.6351 45.6318 46.6207 46.3604C55.6287 45.277 61.3774 40.0689 64.464 32.9031C65.0468 31.5409 65.5433 30.109 65.939 28.6264C66.788 25.4711 66.1045 22.6707 64.4712 20.2758Z" fill="#91CEC1"/>
<path id="Vector_2" d="M40.5837 28.0625C38.3533 26.4342 35.353 25.6359 31.3382 25.6359C29.777 25.6359 28.0646 25.7562 26.1795 25.997C21.582 26.5799 15.9916 28.392 11.8185 31.3254C9.4514 33.0678 7.58073 35.1143 6.51589 37.3572C5.60933 39.4353 5.45104 41.6339 6.05541 43.9338C7.08428 47.8493 8.94776 52.2147 12.2862 55.6804C15.4016 58.7786 19.517 60.9011 24.7621 61.6044C25.201 61.6614 25.6471 61.7121 26.1004 61.7501C27.7624 61.8895 29.2877 61.9592 30.6835 61.9592H30.6979C32.5614 61.9592 34.2018 61.8325 35.648 61.5981C40.1376 60.8694 42.7493 59.0637 44.2747 56.5104C46.059 53.2791 46.2461 48.8694 46.2461 43.9718H46.2964C45.8647 35.4247 44.1523 30.6665 40.5837 28.0625Z" fill="#91CEC1"/>
</g>
</g>
</svg>
