<svg width="{% firstof width 50 %}" height="{% firstof width 50 %}" viewBox="0 0 171 171" fill="none" xmlns="http://www.w3.org/2000/svg">
<g id="icon_05_atv 4" clip-path="url(#clip0_2474_5176)">
<g id="Camada_2">
<g id="Group">
<path id="Vector" d="M54.7132 4.17597L46.9307 8.43091L57.6759 28.0847L65.4585 23.8297L54.7132 4.17597Z" fill="#91CEC1"/>
<path id="Vector_2" d="M116.386 6.47996L102.739 22.5214L109.496 28.2691L123.142 12.2277L116.386 6.47996Z" fill="#91CEC1"/>
<path id="Vector_3" d="M88.6854 -0.00396206L79.8154 0.0240479L79.8861 22.414L88.7561 22.386L88.6854 -0.00396206Z" fill="#91CEC1"/>
</g>
<path id="Vector_4" d="M150.66 45.8901C136.74 33.7101 110.53 24.8001 82.9003 61.2901C73.1303 74.1901 59.9703 81.6201 65.8703 88.3901C75.2103 99.1201 87.0303 90.0601 87.2403 89.8901L87.2503 89.8801V89.9201C88.8603 95.1601 91.3303 100.27 95.0903 104.49C108.61 119.67 119.63 126.23 115.73 136.57C114.37 140.18 106.86 136.5 106.86 136.5C106.86 136.5 118.33 146.2 113.01 152.99C110.64 156.02 102.77 151.48 102.77 151.48C104.46 154.9 104.35 159.1 101.35 161.65C99.0903 163.56 94.1303 161.84 85.9803 158.78C85.9803 158.78 91.8703 166.29 85.2503 168.58V168.72C85.2503 168.72 87.8003 168.93 90.5603 168.72C93.3203 168.51 122.1 159.66 150.53 123.96C178.37 89.0101 164.59 58.0801 150.66 45.8901Z" fill="#F9AE29"/>
<path id="Vector_5" d="M87.2505 89.91C87.2505 89.9 87.2505 89.89 87.2405 89.89C87.0205 90.06 74.4605 97.52 65.8705 88.39C62.1605 84.45 66.8305 79.2 71.4305 74.5C78.0005 67.78 84.7705 58.89 84.7705 58.89C65.3705 28.62 33.3405 33.71 19.4205 45.89C5.49049 58.08 -8.28951 89.01 19.5405 123.96C47.9705 159.66 76.7805 168.27 79.5105 168.72C80.8505 168.94 83.5505 169.09 84.8205 168.72C84.9705 168.68 85.1105 168.63 85.2505 168.58C91.8705 166.29 85.9805 158.78 85.9805 158.78C94.1305 161.83 99.0905 163.56 101.35 161.65C104.35 159.11 104.46 154.91 102.77 151.48C102.77 151.48 110.64 156.01 113.01 152.99C118.33 146.2 110.45 140.49 110.45 140.49C110.45 140.49 110.26 137.55 112.44 138.3C115.52 139.37 117.47 137.22 118.45 134.93C121.99 126.65 108.6 119.67 95.0905 104.49C91.8005 100.79 89.5005 96.42 87.8905 91.87" fill="#EB603B"/>
<g id="Vector_6">
<path d="M87.89 92.43C94.77 88.26 101.27 82.59 103.11 80.95C122.28 89.62 141.66 81.71 142.48 81.36C142.99 81.15 143.23 80.56 143.02 80.05C142.81 79.54 142.22 79.3 141.71 79.51C141.51 79.59 121.89 87.58 103.35 78.85C102.98 78.68 102.55 78.74 102.25 79.02C102.16 79.1 94.91 85.74 87.25 90.47" fill="#EB603B"/>
<path d="M87.89 92.43C94.77 88.26 101.27 82.59 103.11 80.95C122.28 89.62 141.66 81.71 142.48 81.36C142.99 81.15 143.23 80.56 143.02 80.05C142.81 79.54 142.22 79.3 141.71 79.51C141.51 79.59 121.89 87.58 103.35 78.85C102.98 78.68 102.55 78.74 102.25 79.02C102.16 79.1 94.91 85.74 87.25 90.47" stroke="#EB603B" stroke-miterlimit="10"/>
</g>
<g id="Group_2">
<path id="Vector_7" d="M114.011 142.33C113.821 142.34 113.631 142.29 113.451 142.18L92.9505 129.63C90.3405 128.03 87.8805 126.16 85.6505 124.06L75.0805 114.12C74.6805 113.74 74.6605 113.11 75.0405 112.71C75.4205 112.31 76.0505 112.29 76.4505 112.67L87.0205 122.61C89.1505 124.61 91.5005 126.4 93.9905 127.93L114.491 140.48C114.961 140.77 115.111 141.38 114.821 141.85C114.641 142.15 114.331 142.32 114.011 142.33Z" fill="#F9AE29" stroke="#F9AE29" stroke-miterlimit="10"/>
</g>
<g id="Group_3">
<path id="Vector_8" d="M105.871 155.77C105.701 155.77 105.521 155.73 105.361 155.63L84.4007 143.31C82.7407 142.34 81.3407 141.4 80.1007 140.44C78.5307 139.23 77.0307 137.9 75.6407 136.49L65.4407 126.18C65.0507 125.79 65.0507 125.15 65.4507 124.77C65.8407 124.38 66.4807 124.39 66.8607 124.78L77.0607 135.09C78.3907 136.44 79.8307 137.71 81.3207 138.86C82.4907 139.76 83.8307 140.66 85.4107 141.59L106.371 153.92C106.851 154.2 107.011 154.81 106.721 155.29C106.541 155.6 106.211 155.77 105.871 155.77Z" fill="#F9AE29" stroke="#F9AE29" stroke-miterlimit="10"/>
</g>
<g id="Group_4">
<path id="Vector_9" d="M88.5005 162.57C88.3405 162.57 88.1805 162.53 88.0305 162.45L76.2405 156.13C71.9205 153.81 67.7905 151.08 63.9705 148L54.7405 140.56C54.3105 140.21 54.2405 139.58 54.5905 139.15C54.9405 138.72 55.5705 138.65 56.0005 139L65.2305 146.44C68.9505 149.44 72.9805 152.11 77.1905 154.37L88.9805 160.69C89.4705 160.95 89.6505 161.56 89.3905 162.04C89.2105 162.38 88.8605 162.57 88.5005 162.57Z" fill="#F9AE29" stroke="#F9AE29" stroke-miterlimit="10"/>
</g>
</g>
</g>
<defs>
<clipPath id="clip0_2474_5176">
<rect width="170.08" height="170.08" fill="white"/>
</clipPath>
</defs>
</svg>
