<svg width="{% firstof width 50 %}" height="{% firstof width 50 %}" viewBox="0 0 171 171" fill="none" xmlns="http://www.w3.org/2000/svg">
<g id="icon_03_atv 1">
<g id="Camada_2_00000025419969794886741940000003409444451637811853_">
<path id="Vector" d="M98.1416 85.1758L101.91 87.2412L98.1416 89.3066C93.7187 91.7246 90.0715 95.3717 87.6535 99.7947L85.5881 103.563L83.5227 99.7947C81.1047 95.3717 77.4576 91.7246 73.0347 89.3066L69.2666 87.2412L73.0347 85.1758C77.4576 82.7578 81.1047 79.1107 83.5227 74.6877L85.5881 70.9197L87.6535 74.6877C90.0816 79.1107 93.7187 82.7578 98.1416 85.1758Z" fill="#F9AE29"/>
<g id="Group">
<path id="Vector_2" d="M58.7938 139.518L49.1934 157.405L56.73 161.45L66.3304 143.563L58.7938 139.518Z" fill="#F9AE29"/>
<path id="Vector_3" d="M81.3208 144.86L81.2051 166.44L89.7588 166.486L89.8745 144.906L81.3208 144.86Z" fill="#F9AE29"/>
<path id="Vector_4" d="M112.36 139.541L104.823 143.586L114.424 161.474L121.96 157.428L112.36 139.541Z" fill="#F9AE29"/>
</g>
<g id="Group_2">
<path id="Vector_5" d="M126.887 126.09H121.184L101.508 127.068L97.7295 125.415L139.752 85.8307L154.633 96.6512L152.497 110.877L126.887 126.09Z" fill="#BC3A20"/>
<path id="Vector_6" d="M142.885 13.2604C116.832 5.9056 103.512 28.5744 99.3715 34.3675C95.2307 40.1606 93.0142 45.0773 87.3319 52.3111C83.2011 57.5703 91.2309 70.9197 101.91 57.6811C114.272 42.3671 139.47 54.5075 123.239 83.0198C107.804 108.933 87.8356 108.782 86.8281 119.874C86.2136 126.584 90.6566 128.922 94.5254 127.048C99.3816 124.71 111.038 118.313 122.03 107.764C133.546 96.7117 137.465 90.9891 137.505 90.9286C137.838 90.445 139.128 90.4047 139.611 90.7372C140.095 91.0697 140.316 92.2082 139.984 92.6918C139.823 92.9336 135.934 98.6159 124.216 109.87C115.35 118.383 105.729 124.529 101.497 127.068C100.711 131.4 104.036 134.171 109.305 132.418C115.27 130.433 125.889 122.937 125.889 122.937C125.889 122.937 125.889 122.947 125.889 122.957C128.77 120.872 138.775 113.346 147.55 102.988C147.933 102.535 149.444 102.676 149.888 103.059C150.341 103.442 150.301 104.731 149.918 105.175C139.803 117.114 127.854 125.415 126.876 126.101C127.481 127.481 130.534 128.942 133.778 126.675C139.339 122.806 165.03 107.875 169.282 72.7029C173.544 37.5311 158.089 17.5523 142.885 13.2604Z" fill="#EB603B"/>
</g>
<g id="Group_3">
<path id="Vector_7" d="M43.9985 126.09H49.701L69.3775 127.068L73.1556 125.415L31.1327 85.8307L16.252 96.6512L18.3879 110.877L43.9985 126.09Z" fill="#BC3A20"/>
<path id="Vector_8" d="M1.60317 72.6929C5.85483 107.865 31.5461 122.796 37.1075 126.665C40.3517 128.932 43.4044 127.471 44.0089 126.09C43.0316 125.405 31.0827 117.104 20.9673 105.165C20.5845 104.721 20.5442 103.432 20.9976 103.049C21.4409 102.666 22.9521 102.525 23.335 102.978C32.1103 113.335 42.1148 120.861 44.9963 122.947C44.9963 122.937 44.9963 122.927 44.9963 122.927C44.9963 122.927 55.6153 130.423 61.5797 132.407C66.849 134.161 70.1737 131.39 69.3879 127.058C65.1564 124.519 55.5347 118.373 46.6687 109.86C34.9414 98.6159 31.0524 92.9336 30.8912 92.6917C30.5588 92.2082 30.7804 91.0697 31.264 90.7372C31.7476 90.4047 33.0372 90.445 33.3697 90.9286C33.41 90.9891 37.3292 96.7117 48.8449 107.764C59.8368 118.313 71.4935 124.71 76.3497 127.048C80.2286 128.911 84.6616 126.584 84.047 119.874C83.0395 108.782 63.0708 108.933 47.6359 83.0197C31.4051 54.5075 56.6027 42.3671 68.9647 57.6811C79.6543 70.9196 87.6841 57.5602 83.5433 52.3111C77.8609 45.0772 75.6444 40.1606 71.5036 34.3675C67.3628 28.5744 54.0537 5.9056 27.9997 13.2604C12.7965 17.5523 -2.65856 37.5311 1.60317 72.6929Z" fill="#EB603B"/>
</g>
</g>
</g>
</svg>
