<svg width="{% firstof width 50 %}" height="{% firstof width 50 %}" viewBox="0 0 171 171" fill="none" xmlns="http://www.w3.org/2000/svg">
<g id="icon_08_atv 4" clip-path="url(#clip0_2476_5655)">
<g id="Camada_2_00000124865833281561299790000007424772430927834761_">
<g id="Group">
<path id="Vector" d="M44.4599 79.2299C44.4599 79.2299 45.2799 78.6799 51.0499 67.0799C56.4999 56.1099 60.9599 46.9599 58.3499 38.3499C58.3499 38.3499 64.3899 28.4299 57.4099 25.5799C57.4099 25.5799 63.0999 13.8099 53.3699 11.5499L15.6999 48.1199L8.3999 65.1399L9.7599 95.6999L14.5299 102.14L50.5099 107.81L44.4599 79.2299Z" fill="#BC3A20"/>
<g id="Group_2">
<path id="Vector_2" d="M40.3599 62.7599C49.4199 47.9799 56.2899 36.5799 60.1899 27.9199C62.3599 31.9199 58.3499 38.3499 58.3499 38.3499L58.3699 38.5799C56.4799 42.4499 53.8699 46.8799 50.5199 52.5699C48.0399 56.7899 45.0399 61.8699 41.6699 67.8699C41.2499 66.2299 40.7599 64.5799 40.1899 62.9599C40.2399 62.8799 40.3099 62.8299 40.3599 62.7599Z" fill="#EB603B"/>
<path id="Vector_3" d="M53.3297 54.21C55.5997 50.35 57.5697 47.02 59.2097 44.01C60.8297 50.63 49.8897 70.11 44.4597 79.23C44.4597 79.23 43.2697 75.63 42.7197 72.65C46.8097 65.28 50.4097 59.14 53.3297 54.21Z" fill="#EB603B"/>
<path id="Vector_4" d="M56.3597 12.8199C62.1097 15.4999 57.4097 25.5699 57.4097 25.5699C57.4797 25.5999 57.5497 25.6399 57.6297 25.6699C53.7897 34.4799 46.6197 46.2899 38.6897 59.2399C37.5297 56.7799 36.1497 54.5399 34.4697 52.7599C45.1297 35.3499 53.0197 22.1199 56.3597 12.8199Z" fill="#EB603B"/>
<path id="Vector_5" d="M14.27 146.48C0.619956 128.27 -0.830045 102.06 1.83995 76.28C4.34995 51.94 12.85 39.61 23.31 27.87C33.77 16.13 42.92 -1.04004 49.61 0.399957C49.63 0.409957 49.66 0.409956 49.68 0.419956C53.1 1.18996 55.2 4.66996 54.41 8.07996C52.26 17.35 42.44 33.53 31.97 50.61C30.41 49.56 28.63 48.87 26.63 48.69C23.65 48.41 21.39 49 19.74 50.5C15.49 54.36 15.45 63.54 15.35 83.67C15.33 87.0499 15.31 90.72 15.27 94.71C15.26 95.5 15.81 96.15 16.55 96.32C16.65 96.33 16.77 96.35 16.88 96.35C17.78 96.36 18.52 95.63 18.53 94.74C18.57 90.74 18.58 87.07 18.6 83.69C18.68 65.71 18.73 55.82 21.91 52.92C22.5 52.38 23.61 51.69 26.3 51.94C33.61 52.64 37.51 63.2 39.38 72.5C39.39 72.64 39.41 72.78 39.46 72.91C40.32 77.34 42.74 83.85 43.36 85.7C46.84 96.16 52.75 109.33 52.56 124.92C52.22 152.66 22.58 157.6 14.27 146.48Z" fill="#EB603B"/>
</g>
<path id="Vector_6" d="M124.4 94.6399C124.4 94.6399 123.89 93.7999 123.58 80.8499C123.28 68.5999 123.12 58.4299 129.13 51.7299C129.13 51.7299 127.86 40.1799 135.39 40.5599C135.39 40.5599 135.22 27.4899 144.99 29.5599L163.63 78.6399L163.03 97.1499L148.86 124.27L141.81 128.08L106.81 117.99L124.4 94.6399Z" fill="#BC3A20"/>
<g id="Group_3">
<path id="Vector_7" d="M135.16 81.7099C133.96 82.9399 132.81 84.2099 131.74 85.5299C131.23 78.6699 130.66 72.7999 130.2 67.9199C129.57 61.3499 129.08 56.2299 129.01 51.9199L129.13 51.7199C129.13 51.7199 128.22 44.1999 131.88 41.4999C131.75 50.9899 133.14 64.2299 135.09 81.4499C135.11 81.5499 135.15 81.6199 135.16 81.7099Z" fill="#EB603B"/>
<path id="Vector_8" d="M128.76 89.4199C127 91.8799 124.4 94.6399 124.4 94.6399C123.34 84.0799 121.68 61.8099 125.95 56.4899C126.16 59.9199 126.53 63.7599 126.96 68.2199C127.51 73.9199 128.18 81.0099 128.76 89.4199Z" fill="#EB603B"/>
<path id="Vector_9" d="M144.66 74.8999C142.38 75.8099 140.18 77.2399 138.09 78.9899C136.38 63.8999 134.89 50.1599 135.14 40.5499C135.22 40.5499 135.3 40.5499 135.38 40.5499C135.38 40.5499 135.38 29.4399 141.73 29.4399C140.82 39.2799 142.37 54.5999 144.66 74.8999Z" fill="#EB603B"/>
<path id="Vector_10" d="M97.7298 132.59C104.16 118.39 115.09 108.95 122.67 100.95C124.01 99.5299 128.96 94.6599 131.62 91.0099C131.71 90.9099 131.8 90.7899 131.86 90.6699C137.49 83.0399 145.49 75.1199 152.41 77.5799C154.95 78.4899 155.66 79.5899 155.97 80.3299C157.63 84.2999 153.49 93.2799 145.95 109.61C144.54 112.68 142.99 116.01 141.34 119.65C140.97 120.47 141.33 121.44 142.15 121.81C142.25 121.85 142.36 121.89 142.46 121.92C143.2 122.09 143.97 121.73 144.3 121.01C145.96 117.38 147.49 114.05 148.9 110.98C157.33 92.6999 161.18 84.3699 158.97 79.0799C158.11 77.0199 156.31 75.5299 153.49 74.5199C151.6 73.8399 149.7 73.7099 147.84 73.9999C145.58 54.0799 143.54 35.2799 145.52 25.9699C146.25 22.5399 149.63 20.2799 153.05 21.0299C153.07 21.0399 153.1 21.0399 153.12 21.0499C159.79 22.5699 160.8 41.9899 165.31 57.0599C169.82 72.1299 172.3 86.8899 164.27 110.01C155.77 134.5 143.36 157.62 123.28 168.35C111.04 174.91 86.2798 157.88 97.7298 132.59Z" fill="#EB603B"/>
</g>
</g>
<g id="Group_4">
<path id="Vector_11" d="M102.272 48.5398C103.624 41.6067 99.6756 35.0026 93.4527 33.7891C87.2298 32.5756 81.0891 37.2122 79.7371 44.1452C78.3851 51.0783 82.3337 57.6824 88.5567 58.8959C94.7796 60.1094 100.92 55.4728 102.272 48.5398Z" fill="#F6B7C1"/>
<path id="Vector_12" d="M88.4099 60.51C81.7199 59.41 75.3899 53.88 65.3299 62.92C55.2699 71.96 50.6499 74.28 53.2899 79.08C57.6599 87.04 68.0499 70.04 76.8299 70.19C76.8299 70.19 77.8799 79.25 72.5599 86C63.3799 97.63 59.3899 104.18 57.7599 119.51C56.1199 134.81 59.9099 135.17 63.7399 134.38C67.5499 133.58 68.6899 112 75.3999 103.28C82.1099 94.56 83.1599 97.85 82.5399 99.65C81.9199 101.46 74.6299 116.63 78.7899 130.17C82.9499 143.71 90.8599 135.8 89.3699 129.53C87.8899 123.26 89.1699 109.48 94.0399 101.79C101.76 89.58 98.4899 71.89 98.4899 71.89C98.4899 71.89 102.73 71.94 107.67 75.22C112.62 78.5 117.47 82.34 120.49 77.72C123.51 73.1 117.63 70.24 111.65 65.69C98.5999 55.79 96.9799 61.92 88.4099 60.51Z" fill="#F6B7C1"/>
</g>
</g>
<g id="Group_5">
<path id="Vector_13" d="M74.1304 0.523669L66.6792 3.43567L74.032 22.2499L81.4832 19.3379L74.1304 0.523669Z" fill="#F9AD26"/>
<path id="Vector_14" d="M125.958 12.3426L113.453 26.6345L119.474 31.9025L131.979 17.6106L125.958 12.3426Z" fill="#F9AD26"/>
<path id="Vector_15" d="M99.06 -0.0023586L94.0537 19.1328L101.793 21.1576L106.799 2.02244L99.06 -0.0023586Z" fill="#F9AD26"/>
</g>
</g>
<defs>
<clipPath id="clip0_2476_5655">
<rect width="170.08" height="170.08" fill="white"/>
</clipPath>
</defs>
</svg>
