<svg width="425" height="1023" viewBox="0 0 425 1023" fill="none" xmlns="http://www.w3.org/2000/svg">
<g clip-path="url(#clip0_3002_25512)">
<path d="M304.545 90.45C305.994 137.555 365.183 116.195 363.716 159.389C361.804 215.654 301.652 216.421 303.205 259.652C304.746 302.893 410.117 295.779 410.117 413.566C410.117 580.031 244.704 595.926 244.704 801.103C244.704 903.697 308.82 980.233 356.561 1022.99H54.2325L54.878 1021.64C54.878 1021.64 0 949.041 0 840.726C0 732.411 43.2776 642.519 121.71 574.945C200.135 507.37 239.96 484.532 229.06 411.255C219.195 344.969 146.317 383.539 114.116 383.539C81.9151 383.539 33.9121 382.81 33.9121 287.557C33.9121 192.305 94.5385 184.85 123.877 184.85C153.216 184.85 184.071 178.494 184.071 164.163C184.071 151.034 158.532 150.996 143.924 149.481C90.9944 144.015 70.5096 119.587 71.2647 82.5501C71.7701 57.373 76.8365 41.1281 122.252 23.1972C149.569 12.4083 157.747 4.54637 159.933 -0.00976562H425.006C424.866 48.3459 302.87 35.7479 304.551 90.4405L304.545 90.45Z" fill="#0049E8"/>
<path d="M190.271 810.547C193.973 923.598 227.727 988.559 255.062 1023H54.2325L54.878 1021.65C54.878 1021.65 0 949.041 0 840.726C0 732.411 43.2776 642.519 121.71 574.945C200.135 507.37 239.96 484.532 229.06 411.255C219.195 344.969 146.317 383.539 114.116 383.539C81.9151 383.539 33.9121 382.81 33.9121 287.557C33.9121 192.305 94.5385 184.85 123.877 184.85C153.216 184.85 184.071 178.494 184.071 164.163C184.071 151.034 158.532 150.996 143.924 149.481C90.9945 144.015 70.5096 119.587 71.2647 82.5501C71.7701 57.373 76.8365 41.1281 122.252 23.1972C149.569 12.4083 157.747 4.54637 159.933 -0.00976562H300.361C305.081 12.4841 307.492 30.1119 291.215 41.9427C263.612 61.9765 234.151 69.6774 238.682 95.1482C244.15 125.904 299.113 109.366 299.113 161.927C299.113 214.489 243.949 205.736 243.949 249.934C243.949 307.951 323.958 291.299 327.934 412.619C333.719 589.191 184.254 626.635 190.277 810.538L190.271 810.547Z" fill="#367BDF"/>
<path d="M78.6877 837.496C83.1756 921.922 100.872 982.279 118.841 1023H54.2264L54.8719 1021.65C54.8719 1021.65 0 949.041 0 840.726C0 732.411 43.2776 642.519 121.71 574.945C200.135 507.37 239.96 484.532 229.06 411.255C219.195 344.969 146.317 383.539 114.116 383.539C81.9151 383.539 33.9121 382.81 33.9121 287.557C33.9121 192.305 94.5385 184.85 123.877 184.85C153.216 184.85 184.071 178.494 184.071 164.163C184.071 151.034 158.532 150.996 143.924 149.481C90.9944 144.015 70.5096 119.587 71.2647 82.5501C71.7701 57.373 76.8365 41.1281 122.252 23.1972C149.569 12.4083 157.747 4.54637 159.933 -0.00976562H231.021C231.051 7.89007 226.466 18.9252 202.102 22.411C162.734 28.0659 132.896 42.0753 132.896 83.4784C132.896 112.558 152.181 123.622 172.203 129.921C195.623 137.281 213.459 144.887 213.459 164.636C213.459 226.84 87.1703 201.37 84.0038 289.101C81.7994 350.017 120.492 353.759 139.235 347.469C157.978 341.189 239.424 316.031 254.447 396.479C280.607 536.554 67.0508 618.555 78.6999 837.486L78.6877 837.496Z" fill="#6BADD5"/>
</g>
<defs>
<clipPath id="clip0_3002_25512">
<rect width="425" height="1023" fill="white"/>
</clipPath>
</defs>
</svg>
