<svg width="210" height="76" viewBox="0 0 210 76" fill="none" xmlns="http://www.w3.org/2000/svg">
<path d="M9.83265 24.7346C8.88033 27.2071 6.48894 28.3499 4.61605 30.2228C2.83838 32.004 1.49808 34.8539 0.799712 37.2347C-0.653458 42.1797 -0.127918 47.5832 2.39044 52.0909C4.72891 56.2811 8.71808 59.2051 13.3351 60.4254C22.167 62.7569 32.6707 58.6125 40.1023 63.9243C44.4336 67.0247 46.6592 72.8021 51.5725 74.8548C57.7414 77.4332 64.8097 72.4952 67.6526 66.4392C71.5148 58.2069 70.178 48.3839 66.8343 39.9259C63.4871 31.4678 58.2987 23.881 54.2813 15.7228C51.6995 10.4815 49.2693 4.61945 44.1761 1.75191C39.0442 -1.14385 32.5226 -0.103333 27.1684 2.36212C22.6678 4.43606 18.3153 7.44115 14.9611 11.1094C12.8131 13.4584 11.1095 16.3118 10.6086 19.4615C10.3793 20.8936 10.4005 22.3679 10.1078 23.7893C10.0407 24.1103 9.94904 24.4242 9.83265 24.7311V24.7346Z" fill="#FF4C15"/>
<path d="M62.9578 61.726C61.5751 64.5018 59.1167 66.9496 56.3197 68.2229C54.1118 69.2281 51.6886 69.5032 49.4031 68.5968C45.2834 66.9673 43.3117 62.3467 39.6541 59.8531C33.4147 55.5817 24.7133 58.8584 17.4016 56.8374C13.4547 55.7475 10.1005 53.2044 8.13938 49.6315C6.02312 45.7799 5.58928 41.1735 6.81319 36.9445C6.98954 36.3343 7.19764 35.7382 7.43749 35.1492C8.06531 33.6008 8.94356 32.0418 10.0123 30.9272C11.5713 29.3083 13.5606 28.2819 14.4071 26.1973C14.5129 25.9399 14.5975 25.6753 14.6645 25.4037C14.9502 24.2081 14.9926 22.9771 15.2324 21.7814C15.7509 19.1784 17.2146 16.8329 19.0452 14.9141C21.9233 11.9196 25.6056 9.5247 29.4008 7.9375C33.8908 6.03639 39.3085 5.34154 43.5974 7.8211C47.8159 10.2478 49.8933 15.094 52.0766 19.4535C55.4838 26.2608 59.7834 32.6308 62.5274 39.6639C63.1412 41.2334 63.6561 42.8347 64.0723 44.4713C65.5396 50.2769 65.5784 56.46 62.9613 61.726H62.9578Z" fill="#FE5C29"/>
<path d="M58.256 57.0204C57.0744 59.1931 55.0569 61.0589 52.7925 62.036C51.0149 62.8049 49.0714 63.0235 47.2267 62.3534C43.9042 61.1471 42.1794 57.6941 39.2026 55.8C34.1447 52.5798 27.2633 54.9782 21.4612 53.2711C18.181 52.3046 15.4686 50.1461 13.8814 47.1974C12.1672 44.0018 11.8251 40.1925 12.8162 36.6795C12.9608 36.1752 13.1266 35.6779 13.3206 35.1876C13.8285 33.9037 14.5375 32.6128 15.3946 31.6605C16.6361 30.2884 18.2268 29.3784 18.971 27.6854C19.0628 27.4773 19.1403 27.2621 19.2038 27.0399C19.4825 26.07 19.5883 25.0824 19.8352 24.1195C20.3678 22.0597 21.5882 20.215 23.1048 18.7407C25.5033 16.4092 28.526 14.6527 31.6157 13.5311C35.2451 12.212 39.5517 11.8487 43.0013 13.912C46.3414 15.9084 48.0732 19.7282 49.858 23.206C52.6585 28.6518 56.0657 33.8085 58.2102 39.4166C58.6934 40.6793 59.0955 41.9667 59.42 43.2788C60.5451 47.931 60.471 52.9043 58.2525 57.0204H58.256Z" fill="#FD7B51"/>
<path d="M53.5592 52.3388C52.5857 53.9119 51.0056 55.1852 49.2702 55.8659C47.9193 56.395 46.4556 56.5572 45.0518 56.1234C42.5229 55.3368 41.0485 53.0477 38.7524 51.7603C34.8831 49.5911 29.8041 51.1008 25.5257 49.7146C22.9156 48.8716 20.8382 47.101 19.6284 44.7696C18.3092 42.2301 18.0659 39.2179 18.8277 36.4174C18.9335 36.0329 19.0605 35.6308 19.2157 35.2323C19.6037 34.2094 20.1363 33.1865 20.7888 32.3965C21.7164 31.2784 22.898 30.4777 23.5435 29.1762C23.6246 29.014 23.6951 28.8482 23.7586 28.6789C24.0302 27.9347 24.1995 27.1869 24.457 26.4603C25.0002 24.9437 25.9842 23.6034 27.187 22.5664C29.1057 20.9051 31.4618 19.7694 33.8426 19.1275C36.6114 18.3797 39.807 18.3515 42.4171 20.0022C44.886 21.5612 46.2651 24.3652 47.6513 26.9577C49.8416 31.0562 52.3565 34.9924 53.9013 39.1791C54.254 40.1349 54.5433 41.1049 54.7725 42.096C55.5732 45.6055 55.3933 49.3795 53.5663 52.3388H53.5592Z" fill="#FD8B64"/>
<path d="M48.8384 47.7253C48.066 48.6953 46.9267 49.3866 45.724 49.764C44.7999 50.0567 43.8158 50.1626 42.8564 49.965C41.1246 49.6088 39.9042 48.4731 38.2818 47.7923C35.6047 46.6637 32.3351 47.2738 29.5663 46.2333C29.1113 46.064 28.6739 45.856 28.2542 45.602C27.838 45.3516 27.4465 45.0588 27.0867 44.7343C26.727 44.4063 26.3989 44.0501 26.1062 43.6586C25.8134 43.267 25.5595 42.8544 25.3479 42.417C24.4308 40.5336 24.2756 38.322 24.8117 36.2305C24.8823 35.9448 24.974 35.645 25.0798 35.3487C25.3408 34.5868 25.697 33.8708 26.152 33.2077C26.7658 32.3436 27.5452 31.6523 28.0849 30.7458C28.1519 30.6329 28.2154 30.5165 28.2789 30.3966C28.5434 29.8781 28.7727 29.3738 29.0443 28.887C29.3123 28.4073 29.6298 27.9629 30.0001 27.5573C30.3705 27.1517 30.7796 26.7919 31.2311 26.478C32.6772 25.4869 34.3561 24.9684 36.035 24.8061C37.9361 24.6227 40.0348 24.9366 41.8018 26.1747C43.3961 27.2963 44.426 29.081 45.4101 30.7952C46.9937 33.5322 48.6268 36.2552 49.565 39.0169C49.7872 39.6624 49.9636 40.3184 50.0976 40.9885C50.5632 43.3552 50.274 45.923 48.8384 47.7253Z" fill="#FC9B78"/>
<path d="M30.913 35.7613C31.3856 34.1635 32.3344 32.6574 33.6042 31.6028C36.0661 29.5536 38.8878 30.5553 41.1593 32.6433C43.4272 34.7278 45.1449 37.8952 45.3953 40.1772C45.5294 41.3941 45.1202 42.752 44.0868 43.4081C43.5154 43.7714 42.8205 43.8842 42.1469 43.9618C40.7607 44.1205 39.2546 44.2193 37.7768 44.117C36.2989 44.0147 34.8493 43.7043 33.576 43.0448C30.712 41.5598 30.1053 38.5195 30.9165 35.7613H30.913Z" fill="#FBBAA0"/>
<path d="M69.1328 11.5234H73.4948L78.6446 22.5649H78.6903L83.8401 11.5234H88.2249L80.9969 25.8425H76.3095L69.1328 11.5234Z" fill="#FAF0E6"/>
<path d="M92.2174 27.1775C90.9528 26.4783 89.9677 25.5026 89.2712 24.2505C88.5748 22.9984 88.2266 21.5457 88.2266 19.8762C88.2266 18.2068 88.5748 16.7704 89.2712 15.5128C89.9677 14.2553 90.9436 13.2796 92.1991 12.575C93.4545 11.8758 94.907 11.5234 96.561 11.5234C98.2151 11.5234 99.6905 11.8758 100.95 12.575C102.211 13.2742 103.191 14.2499 103.887 15.502C104.584 16.7541 104.932 18.2068 104.932 19.8762C104.932 21.5457 104.579 22.9984 103.874 24.2505C103.168 25.5026 102.192 26.4728 100.937 27.1775C99.6813 27.8767 98.2243 28.229 96.5565 28.229C94.8886 28.229 93.4774 27.8767 92.2128 27.1775H92.2174ZM99.1819 24.4293C99.9425 23.9957 100.529 23.3886 100.95 22.5973C101.372 21.8059 101.583 20.9007 101.583 19.8817C101.583 18.8626 101.372 17.9357 100.95 17.1552C100.529 16.3747 99.9425 15.7676 99.1819 15.334C98.4213 14.9003 97.5507 14.6889 96.561 14.6889C95.5713 14.6889 94.7191 14.9058 93.9677 15.334C93.2117 15.7676 92.6298 16.3693 92.2082 17.1552C91.7867 17.9357 91.5805 18.8464 91.5805 19.8817C91.5805 20.9169 91.7913 21.8113 92.2082 22.5973C92.6252 23.3832 93.2162 23.9957 93.9677 24.4293C94.7191 24.863 95.5851 25.0744 96.561 25.0744C97.537 25.0744 98.4213 24.8576 99.1819 24.4293Z" fill="#FAF0E6"/>
<path d="M110.22 14.4181H104.93V11.5234H119.249V14.4181H113.958V25.8425H110.225V14.4181H110.22Z" fill="#FAF0E6"/>
<path d="M121.637 11.5234H135.723V14.1983H125.66V17.3356H134.802V19.7072H125.66V23.1477H135.956V25.8425H121.642V11.5284L121.637 11.5234Z" fill="#FAF0E6"/>
<path d="M143.117 11.5234H151.695C152.871 11.5234 153.894 11.7173 154.766 12.1051C155.638 12.493 156.3 13.0498 156.755 13.7757C157.211 14.5016 157.436 15.3419 157.436 16.3114C157.436 17.2809 157.206 18.146 156.746 18.8868C156.285 19.6227 155.619 20.1795 154.757 20.5574C153.89 20.9352 152.866 21.1192 151.675 21.1192H146.703V25.8425H143.117V11.5284V11.5234ZM150.901 18.5985C151.509 18.5985 152.033 18.509 152.474 18.33C152.915 18.151 153.258 17.8825 153.493 17.5345C153.733 17.1864 153.85 16.7688 153.85 16.2865C153.85 15.5755 153.596 15.0187 153.086 14.616C152.577 14.2132 151.857 14.0144 150.916 14.0144H146.679V18.5985H150.896H150.901Z" fill="#FAF0E6"/>
<path d="M159.82 11.5234H171.559V14.1983H163.173V17.3356H170.792V19.7072H163.173V23.1477H171.753V25.8425H159.825V11.5284L159.82 11.5234Z" fill="#FAF0E6"/>
<path d="M174.141 11.5234H178.054V22.9081H186.073V25.8425H174.141V11.5234Z" fill="#FAF0E6"/>
<path d="M190.635 27.1775C189.19 26.4783 188.064 25.5026 187.268 24.2505C186.472 22.9984 186.074 21.5457 186.074 19.8762C186.074 18.2068 186.472 16.7704 187.268 15.5128C188.064 14.2553 189.179 13.2796 190.614 12.575C192.049 11.8758 193.709 11.5234 195.599 11.5234C197.49 11.5234 199.176 11.8758 200.616 12.575C202.056 13.2742 203.176 14.2499 203.972 15.502C204.768 16.7541 205.166 18.2068 205.166 19.8762C205.166 21.5457 204.763 22.9984 203.957 24.2505C203.15 25.5026 202.035 26.4728 200.6 27.1775C199.165 27.8767 197.5 28.229 195.594 28.229C193.688 28.229 192.075 27.8767 190.63 27.1775H190.635ZM198.595 24.4293C199.464 23.9957 200.134 23.3886 200.616 22.5973C201.098 21.8059 201.338 20.9007 201.338 19.8817C201.338 18.8626 201.098 17.9357 200.616 17.1552C200.134 16.3747 199.464 15.7676 198.595 15.334C197.725 14.9003 196.73 14.6889 195.599 14.6889C194.468 14.6889 193.494 14.9058 192.635 15.334C191.771 15.7676 191.106 16.3693 190.625 17.1552C190.143 17.9357 189.907 18.8464 189.907 19.8817C189.907 20.9169 190.148 21.8113 190.625 22.5973C191.106 23.3886 191.777 23.9957 192.635 24.4293C193.494 24.863 194.484 25.0744 195.599 25.0744C196.715 25.0744 197.725 24.8576 198.595 24.4293Z" fill="#FAF0E6"/>
<path d="M80.5293 64.0308C77.8709 64.0308 75.3579 63.5215 72.9737 62.5085C70.5895 61.4955 68.6698 59.9507 67.2034 57.8855C65.7371 55.8203 65.0039 53.2962 65.0039 50.3131C65.0039 47.33 65.7427 44.7779 67.2202 42.7183C68.6978 40.6587 70.6287 39.1308 73.0073 38.1122C75.3859 37.0992 77.9045 36.5898 80.5629 36.5898C82.3931 36.5898 84.1504 36.7466 85.8463 37.06C87.5365 37.3734 88.9469 37.754 90.0718 38.2073L89.9207 47.3804C89.1204 46.7312 87.9898 46.1771 86.5403 45.7238C85.0851 45.2704 83.6579 45.0466 82.2531 45.0466C80.6245 45.0466 79.1749 45.2536 77.9101 45.6678C76.6452 46.082 75.649 46.6864 74.9214 47.4923C74.1938 48.2927 73.83 49.2609 73.83 50.3859C73.83 51.5108 74.2162 52.507 74.9941 53.2962C75.7721 54.0853 76.7907 54.6618 78.0556 55.0256C79.3204 55.3894 80.7308 55.5685 82.2811 55.5685C84.1337 55.5685 85.8743 55.283 87.5029 54.701C89.1316 54.1245 90.4972 53.3745 91.5997 52.4455V62.3294C89.82 62.8555 88.0794 63.2696 86.378 63.5718C84.6765 63.8741 82.7177 64.0252 80.5126 64.0252L80.5293 64.0308Z" fill="#FAF0E6"/>
<path d="M94.3945 37.5547H104.827V55.3636H116.698V63.4565H94.3945V37.5547Z" fill="#FAF0E6"/>
<path d="M119.246 37.5547H129.645V63.4565H119.246V37.5547Z" fill="#FAF0E6"/>
<path d="M133.42 63.4723C133.755 62.4145 134.03 61.0433 134.248 59.3531C134.466 57.6629 134.573 56.0118 134.573 54.4055V47.3536C134.573 45.7921 134.472 44.169 134.265 42.4788C134.058 40.7886 133.778 39.3894 133.42 38.2869H145.973L151.475 48.3219C151.665 48.5849 151.839 48.8535 151.995 49.1334C152.152 49.4076 152.303 49.6763 152.443 49.9449C152.633 50.4486 152.857 50.9803 153.109 51.5456C153.361 52.1109 153.596 52.7377 153.809 53.4317H154.24C154.48 52.6146 154.732 51.9206 154.995 51.3441C155.258 50.7676 155.549 50.1072 155.857 49.3629C155.952 49.2173 156.064 49.0662 156.198 48.8927C156.333 48.7248 156.445 48.5233 156.54 48.2827L162.114 38.2812H174.382C174.024 39.3838 173.744 40.7718 173.554 42.4341C173.364 44.1019 173.269 45.7361 173.269 47.3424V54.3943C173.269 56.0006 173.369 57.6517 173.576 59.3419C173.778 61.0321 174.052 62.4033 174.388 63.4611H162.769C163.032 62.4761 163.278 61.0769 163.508 59.2523C163.737 57.4278 163.849 55.7264 163.849 54.1425V49.0326H163.346L155.074 63.4947H152.555L144.35 49.0326H143.992V54.1425C143.992 55.7711 144.098 57.5005 144.317 59.3195C144.535 61.144 144.798 62.5208 145.106 63.4555H133.414L133.42 63.4723Z" fill="#FAF0E6"/>
<path d="M187.059 37.5547H199.506L209.939 63.4565H199.109L197.816 59.4996H188.498L187.132 63.4565H176.375L187.059 37.5547ZM196.16 53.3823L193.21 44.3548H193.137L190.081 53.3823H196.16Z" fill="#FAF0E6"/>
</svg>
