<svg width="94" height="48" viewBox="0 0 94 48" fill="none" xmlns="http://www.w3.org/2000/svg">
<rect width="94" height="48" fill="#E5E5E5"/>
<g id="Candidata-01" clip-path="url(#clip0_1010_3436)">
<rect width="1440" height="864" transform="translate(-62 -10)" fill="white"/>
<g id="Navbar">
<g id="Navbar_2">
<g id="Logo">
<g id="Clip path group">
<mask id="mask0_1010_3436" style="mask-type:luminance" maskUnits="userSpaceOnUse" x="1" y="18" width="93" height="30">
<g id="1177fc471d">
<path id="Vector" d="M1.64111 18.908H93.0943V47.9999H1.64111V18.908Z" fill="white"/>
</g>
</mask>
<g mask="url(#mask0_1010_3436)">
<g id="Group">
<path id="Vector_2" d="M92.8705 35.31C92.9433 36.9476 93.0162 38.6213 93.0885 40.2956C93.1252 41.0596 92.3617 41.7508 91.3803 41.7875C86.4728 42.006 81.602 42.4786 76.7679 43.2065C74.9864 43.4612 73.1693 43.5708 71.3878 43.7159C68.1895 44.0073 64.9907 44.2986 61.7919 44.5166C58.3383 44.7713 54.8493 45.0259 51.3958 45.0988C46.1613 45.2445 40.8907 45.4263 35.693 45.8995C33.0758 46.1181 30.4585 46.1542 27.8413 46.336C22.4979 46.7002 17.155 46.9188 11.8477 47.6828C10.2486 47.9375 8.61275 47.9736 6.97691 47.7918C6.46815 47.7189 5.95939 47.61 5.48677 47.4643C4.75947 47.2096 4.28684 46.8459 4.14173 46.1181C3.41443 41.4961 2.61487 36.9108 1.77917 32.2895C1.59735 31.0155 1.74246 29.7055 2.25122 28.5049C2.72384 27.2677 3.30545 26.0305 3.41443 24.6837C3.48728 23.8101 4.32355 23.3375 5.5229 23.3375C6.86794 23.3375 8.17626 23.3736 9.5213 23.3375C12.4655 23.2647 15.4463 23.1551 18.3905 23.0461C20.7169 22.9733 23.0434 22.7914 25.3698 22.8276C32.7121 22.9004 40.0183 22.5729 47.3245 22.2454C51.0321 22.1003 54.7403 21.6271 58.4479 21.2996C60.6648 21.1177 62.8461 20.9353 65.0635 20.6806C68.1528 20.317 71.2065 19.9166 74.2597 19.5524C75.7865 19.3706 77.3495 19.2616 78.9125 19.1888C82.0746 19.0798 85.2735 19.0069 88.4362 18.9341C88.9811 18.9341 89.5266 19.0069 90.0714 19.0798C90.5441 19.1159 90.9439 19.4434 91.0167 19.9166C91.4532 22.5729 91.962 25.1931 92.3979 27.8499C92.6164 29.2328 92.6887 30.6152 92.7615 31.9981C92.8344 33.0902 92.7615 34.1456 92.7615 35.2371H92.8705V35.31Z" fill="#FFC60B"/>
</g>
</g>
</g>
<g id="Clip path group_2">
<mask id="mask1_1010_3436" style="mask-type:luminance" maskUnits="userSpaceOnUse" x="82" y="40" width="7" height="5">
<g id="11ed9d0f62">
<path id="Vector_3" d="M82.502 40.2812H88.7679V44.6077H82.502V40.2812Z" fill="white"/>
</g>
</mask>
<g mask="url(#mask1_1010_3436)">
<g id="Group_2">
<g id="Clip path group_3">
<mask id="mask2_1010_3436" style="mask-type:luminance" maskUnits="userSpaceOnUse" x="78" y="25" width="17" height="21">
<g id="9336f19886">
<path id="Vector_4" d="M94.2872 29.774L88.1926 45.4127L78.1841 41.5122L84.2787 25.8735L94.2872 29.774Z" fill="white"/>
</g>
</mask>
<g mask="url(#mask2_1010_3436)">
<g id="Group_3">
<g id="Clip path group_4">
<mask id="mask3_1010_3436" style="mask-type:luminance" maskUnits="userSpaceOnUse" x="75" y="25" width="20" height="29">
<g id="89286febbe">
<path id="Vector_5" d="M94.2876 29.774L85.2273 53.0231L75.2188 49.1226L84.2791 25.8735L94.2876 29.774Z" fill="white"/>
</g>
</mask>
<g mask="url(#mask3_1010_3436)">
<g id="Group_4">
<path id="Vector_6" d="M84.67 42.4893C84.6665 42.456 84.6636 42.4222 84.6688 42.4083C84.6129 42.3861 84.5651 42.3838 84.5085 42.3616C84.4666 42.3453 84.4159 42.3092 84.3792 42.2789C84.3652 42.2736 84.3564 42.2538 84.3337 42.2288C84.311 42.2037 84.3022 42.1839 84.2743 42.1734C84.2183 42.1513 84.1781 42.0872 84.0971 42.0877C84.0831 42.0825 84.0744 42.0627 84.0604 42.0574C84.0173 41.9595 83.9048 41.9158 83.8285 41.8208C83.8197 41.8016 83.7999 41.8098 83.7778 41.7847C83.7352 41.7684 83.6985 41.7381 83.6676 41.6932C83.6274 41.6291 83.5575 41.6017 83.4922 41.5603C83.4642 41.5493 83.4555 41.5294 83.4328 41.5044C83.4019 41.4601 83.3704 41.4152 83.3086 41.4076C83.2946 41.4024 83.2667 41.3913 83.2719 41.3773C83.2346 41.2654 83.1023 41.2299 83.0458 41.1267C83.0371 41.1069 83.0143 41.0819 83.0056 41.0626C82.9747 41.0178 82.938 40.9875 82.9065 40.9426C82.875 40.8983 82.8581 40.8587 82.8267 40.8144C82.7474 40.6862 82.6676 40.5574 82.6023 40.435C82.5936 40.4152 82.5848 40.3954 82.5767 40.3761C82.6046 40.3872 82.6384 40.3837 82.6384 40.3837C82.6798 40.319 82.7165 40.3493 82.7783 40.3575C83.0283 40.4222 83.2731 40.5014 83.526 40.5999C83.6105 40.6331 83.6898 40.6803 83.7684 40.727C83.7964 40.738 83.8389 40.7544 83.8722 40.7514C83.9398 40.745 83.9677 40.7561 83.9934 40.815C84.0109 40.854 84.0616 40.8901 84.1175 40.9117C84.1828 40.9531 84.2475 40.995 84.3122 41.0364C84.3407 41.0475 84.3687 41.058 84.3967 41.0691C84.4474 41.1052 84.5173 41.0516 84.5569 41.1157C84.5884 41.16 84.6391 41.1961 84.67 41.241C84.6787 41.2602 84.7067 41.2713 84.7154 41.2905C84.7883 41.2707 84.839 41.3062 84.8897 41.3424C84.9404 41.3785 84.9882 41.3808 85.0284 41.4449C85.068 41.509 85.1467 41.5562 85.2423 41.5609C85.304 41.5685 85.346 41.5854 85.3914 41.6355C85.4736 41.7159 85.561 41.7824 85.6485 41.8488C85.6712 41.8739 85.6992 41.8849 85.7277 41.896C85.7644 41.9263 85.8151 41.9624 85.8518 41.9933C85.9025 42.0289 85.9532 42.065 86.0179 42.1064C86.0407 42.1314 86.0832 42.1483 86.1053 42.1734C86.1566 42.209 86.1875 42.2538 86.2633 42.2672C86.3816 42.297 86.4637 42.3774 86.5512 42.4438C86.6019 42.4799 86.6415 42.544 86.7371 42.5487C86.7511 42.5545 86.765 42.5598 86.7738 42.5796C86.8274 42.6489 86.9008 42.7101 86.9801 42.7573C86.9941 42.7626 87.0028 42.7824 87.0168 42.7876C87.2138 42.8646 87.2138 42.8646 87.3635 43.0202C87.3863 43.0452 87.4201 43.0423 87.4568 43.0726C87.4988 43.0889 87.5495 43.1251 87.592 43.1414C87.606 43.1472 87.6141 43.1664 87.6287 43.1723C87.7126 43.2049 87.7721 43.2609 87.8373 43.3022C87.9475 43.3937 88.0932 43.4345 88.2202 43.4835C88.2762 43.5056 88.3047 43.5167 88.2768 43.5872C88.2966 43.5785 88.3164 43.5697 88.3304 43.5756C88.3444 43.5808 88.3782 43.5779 88.3863 43.5971C88.4178 43.642 88.4685 43.6781 88.5052 43.7084C88.5332 43.7195 88.5308 43.7673 88.5396 43.7865C88.5483 43.8063 88.5285 43.8151 88.5373 43.8343C88.5681 43.8792 88.5996 43.9235 88.6311 43.9683C88.648 44.0074 88.6456 44.0552 88.6521 44.1222C88.5984 44.1338 88.5343 44.1741 88.4615 44.1945C88.465 44.2277 88.4627 44.2755 88.4597 44.3232C88.3956 44.3635 88.3175 44.3978 88.2534 44.4375L88.0856 44.4532C88.0378 44.4509 88.018 44.4596 88.0104 44.5214C87.9259 44.4882 87.8467 44.4416 87.7546 44.4701C87.7406 44.4649 87.7266 44.459 87.7126 44.4538C87.6841 44.4427 87.6613 44.4177 87.6194 44.4013C87.5629 44.3792 87.5209 44.3629 87.4894 44.3186C87.4813 44.2988 87.4585 44.2737 87.4195 44.2912C87.3606 44.3168 87.3292 44.272 87.2983 44.2277C87.2359 44.1385 87.1374 44.1 87.0279 44.0896C87.0139 44.0843 86.9801 44.0872 86.9521 44.0762C86.9317 44.0033 86.8863 43.9532 86.8163 43.9258C86.7004 43.8483 86.585 43.7708 86.469 43.6933C86.455 43.688 86.4323 43.663 86.4183 43.6577C86.3425 43.6443 86.2918 43.6082 86.2464 43.5581C86.1642 43.4776 86.0657 43.4392 85.9672 43.4007C85.9393 43.3896 85.9136 43.3308 85.8548 43.357C85.8355 43.3652 85.7848 43.3296 85.7761 43.3098C85.7615 43.223 85.6572 43.1985 85.6117 43.1484C85.6036 43.1292 85.561 43.1128 85.5558 43.1268C85.4637 43.1554 85.4346 43.0633 85.3641 43.0359C85.3361 43.0248 85.3582 42.9683 85.3157 42.952C85.2259 42.9333 85.1665 42.878 85.1018 42.836C85.0738 42.8255 85.0511 42.8005 85.0284 42.7754C85.0144 42.7696 84.9969 42.7305 84.9777 42.7393C84.8477 42.6559 84.8017 42.5248 84.67 42.4893Z" fill="#93AB72"/>
</g>
</g>
</g>
</g>
</g>
</g>
</g>
</g>
</g>
<g id="Clip path group_5">
<mask id="mask4_1010_3436" style="mask-type:luminance" maskUnits="userSpaceOnUse" x="83" y="31" width="8" height="3">
<g id="2746b26f6a">
<path id="Vector_7" d="M83.5459 31.479H90.1102V33.866H83.5459V31.479Z" fill="white"/>
</g>
</mask>
<g mask="url(#mask4_1010_3436)">
<g id="Group_5">
<g id="Clip path group_6">
<mask id="mask5_1010_3436" style="mask-type:luminance" maskUnits="userSpaceOnUse" x="78" y="25" width="17" height="21">
<g id="9101244c57">
<path id="Vector_8" d="M94.2872 29.7738L88.1926 45.4125L78.1841 41.512L84.2787 25.8733L94.2872 29.7738Z" fill="white"/>
</g>
</mask>
<g mask="url(#mask5_1010_3436)">
<g id="Group_6">
<g id="Clip path group_7">
<mask id="mask6_1010_3436" style="mask-type:luminance" maskUnits="userSpaceOnUse" x="75" y="25" width="20" height="29">
<g id="72d93da680">
<path id="Vector_9" d="M94.2876 29.7738L85.2273 53.0229L75.2188 49.1224L84.2791 25.8733L94.2876 29.7738Z" fill="white"/>
</g>
</mask>
<g mask="url(#mask6_1010_3436)">
<g id="Group_7">
<path id="Vector_10" d="M87.5255 31.8753C87.5424 31.9143 87.5651 31.9394 87.568 31.9732C87.6181 31.9277 87.663 31.8962 87.7073 31.8654C87.7359 31.8758 87.758 31.9009 87.7866 31.912C87.8588 31.8916 87.8833 31.7879 87.9736 31.8065C88.0016 31.8176 88.0243 31.8426 88.0471 31.8677C88.0937 31.7884 88.2062 31.8327 88.2761 31.7785C88.3513 31.7103 88.4439 31.7628 88.5366 31.7342C88.5471 31.7057 88.5721 31.683 88.603 31.6462C88.6485 31.6964 88.6875 31.6795 88.7458 31.6538C88.7994 31.6416 88.8466 31.6439 88.8944 31.6468C88.8938 31.5652 88.9871 31.6177 89.0086 31.5612C89.0261 31.6002 89.0343 31.62 89.057 31.6451C89.1497 31.6159 89.2476 31.5734 89.3536 31.5495C89.4457 31.5209 89.4545 31.5402 89.4941 31.6043C89.5559 31.6124 89.6036 31.6148 89.6514 31.6171C89.6654 31.6223 89.6852 31.6142 89.7045 31.6054C89.7971 31.5763 89.8 31.6101 89.8706 31.6375C89.9405 31.6649 89.9242 31.7074 89.9556 31.7517C89.9585 31.7855 89.976 31.8246 90.0127 31.8549C90.0349 31.8799 90.0326 31.9277 90.05 31.9668C90.0669 32.0064 90.0699 32.0396 90.0821 32.0932C90.071 32.1212 90.0349 32.1719 90.0326 32.2197C90.0302 32.2675 89.9993 32.3042 89.9551 32.3357C89.93 32.3584 89.9137 32.4003 89.8968 32.4429C89.8688 32.4318 89.8461 32.4068 89.8321 32.4009C89.7767 32.4604 89.6759 32.4697 89.6147 32.5437C89.5646 32.5886 89.5028 32.581 89.4853 32.542C89.4603 32.5647 89.441 32.5734 89.416 32.5956C89.3962 32.6043 89.3822 32.5991 89.3822 32.5991C89.3688 32.6748 89.293 32.6614 89.2511 32.6451C89.1753 32.6317 89.1502 32.6544 89.1141 32.7051C89.0244 32.6865 88.9428 32.6871 88.8816 32.7605C88.8513 32.7972 88.8175 32.8007 88.6998 32.771C88.6939 32.785 88.6887 32.799 88.6636 32.8217C88.6578 32.8357 88.6473 32.8636 88.6473 32.8636C88.5937 32.8759 88.5459 32.8736 88.5127 32.8765C88.4649 32.8741 88.4224 32.8578 88.3891 32.8607C88.3414 32.8584 88.2936 32.8561 88.2574 32.9068C88.1747 33.0367 88.1409 33.0396 87.9917 32.9656C87.9806 32.9936 87.9695 33.0216 87.9445 33.0443C87.9253 33.053 87.8915 33.056 87.8664 33.0787C87.8577 33.0595 87.8495 33.0396 87.832 33.0006C87.7061 33.0327 87.589 33.0839 87.4777 33.2028C87.455 33.1778 87.4182 33.1475 87.3815 33.1172C87.3034 33.1515 87.2253 33.1859 87.1327 33.2145C87.0936 33.232 87.0377 33.2098 86.9899 33.2075C86.945 33.239 86.9147 33.2757 86.8699 33.3071C86.853 33.2675 86.8361 33.2285 86.8244 33.1754C86.7661 33.2827 86.6991 33.2891 86.6088 33.2698C86.5948 33.2646 86.5668 33.2535 86.5616 33.2675C86.4666 33.3444 86.329 33.3229 86.2341 33.3998C86.2288 33.4138 86.2096 33.4225 86.195 33.4167C86.1478 33.4144 86.1111 33.3841 86.0715 33.401C86.0324 33.4184 86.0021 33.4552 85.9596 33.4388C85.9316 33.4278 85.9176 33.4225 85.8896 33.4115C85.7807 33.4826 85.7807 33.4826 85.7072 33.4214C85.6711 33.4721 85.621 33.5175 85.5709 33.563C85.5487 33.5379 85.54 33.5187 85.5312 33.4989C85.4922 33.5158 85.4473 33.5472 85.4001 33.5449C85.3325 33.5513 85.2597 33.5717 85.1979 33.5636C85.0411 33.5513 84.8954 33.5915 84.7672 33.6714C84.7585 33.6521 84.7445 33.6463 84.7218 33.6213C84.5545 33.7186 84.3692 33.6947 84.1903 33.7384L84.1815 33.7192C84.2066 33.6964 84.2404 33.6929 84.2655 33.6702C84.1722 33.6178 84.0632 33.6894 83.9647 33.651C83.8808 33.6178 83.7713 33.6078 83.6617 33.5974C83.692 33.5606 83.7229 33.5239 83.7532 33.4872C83.7194 33.4901 83.7054 33.4849 83.6582 33.4826C83.7107 33.3893 83.7433 33.3048 83.8045 33.2314C83.8709 33.144 83.9659 33.067 84.0405 32.9989C84.0463 32.9849 84.0743 32.9959 84.0883 33.0012C84.1081 32.993 84.1559 32.9954 84.167 32.9668C84.2748 32.8147 84.4572 32.8042 84.5994 32.7302C84.6833 32.6818 84.7783 32.6865 84.8395 32.6131C84.8506 32.5845 84.9123 32.5927 84.9403 32.6037C84.9968 32.6253 85.0499 32.6136 85.0942 32.5822C85.139 32.5513 85.1891 32.5058 85.2422 32.4942C85.3593 32.4423 85.4799 32.4242 85.6117 32.3782C85.6624 32.4143 85.7125 32.3689 85.7603 32.3712C85.8471 32.3566 85.9392 32.3275 86.0173 32.2931C86.1297 32.3374 86.202 32.2354 86.3081 32.2121C86.3757 32.2057 86.4339 32.1801 86.5068 32.1597C86.5266 32.1509 86.5826 32.1731 86.6303 32.1754C86.6752 32.1439 86.7393 32.1043 86.804 32.1457C86.8792 32.0775 87.0231 32.1661 87.0867 32.0449C87.1735 32.0303 87.2481 31.9621 87.3664 31.9918C87.3862 31.9831 87.473 31.9685 87.5255 31.8753Z" fill="#93AB72"/>
</g>
</g>
</g>
</g>
</g>
</g>
</g>
</g>
</g>
<g id="Clip path group_8">
<mask id="mask7_1010_3436" style="mask-type:luminance" maskUnits="userSpaceOnUse" x="83" y="36" width="8" height="3">
<g id="9db58173d1">
<path id="Vector_11" d="M83.6953 36.8499H90.7072V38.6401H83.6953V36.8499Z" fill="white"/>
</g>
</mask>
<g mask="url(#mask7_1010_3436)">
<g id="Group_8">
<g id="Clip path group_9">
<mask id="mask8_1010_3436" style="mask-type:luminance" maskUnits="userSpaceOnUse" x="78" y="25" width="17" height="21">
<g id="b98b3b778f">
<path id="Vector_12" d="M94.2872 29.774L88.1926 45.4127L78.1841 41.5122L84.2787 25.8735L94.2872 29.774Z" fill="white"/>
</g>
</mask>
<g mask="url(#mask8_1010_3436)">
<g id="Group_9">
<g id="Clip path group_10">
<mask id="mask9_1010_3436" style="mask-type:luminance" maskUnits="userSpaceOnUse" x="75" y="25" width="20" height="29">
<g id="a920e95064">
<path id="Vector_13" d="M94.2876 29.774L85.2273 53.0231L75.2188 49.1226L84.2791 25.8735L94.2876 29.774Z" fill="white"/>
</g>
</mask>
<g mask="url(#mask9_1010_3436)">
<g id="Group_10">
<path id="Vector_14" d="M90.6405 37.728C90.6469 37.7956 90.6446 37.8434 90.6562 37.8965C90.6032 37.9081 90.5694 37.9116 90.5164 37.9233C90.5385 37.9483 90.5612 37.9734 90.598 38.0037C90.5589 38.0212 90.5397 38.0293 90.5199 38.0381C90.5513 38.083 90.5962 38.1331 90.6277 38.1774C90.5886 38.1948 90.5356 38.2065 90.4966 38.2234C90.5187 38.2485 90.5554 38.2793 90.5921 38.3096C90.4802 38.3469 90.3631 38.3988 90.2512 38.4361C90.2879 38.467 90.3107 38.4921 90.3334 38.5171C90.2856 38.5148 90.2466 38.5317 90.2128 38.5346C90.1935 38.5433 90.1737 38.5521 90.1207 38.5637C90.1119 38.5439 90.084 38.5334 90.0612 38.5084C89.9977 38.6296 89.919 38.5824 89.8205 38.5439C89.778 38.5276 89.7308 38.5253 89.697 38.5282C89.5233 38.5579 89.5233 38.5579 89.4493 38.4157C89.4493 38.4157 89.4353 38.4099 89.4208 38.4046C89.4103 38.4326 89.4132 38.4664 89.4021 38.4944L89.3969 38.509C89.2873 38.4985 89.1917 38.4938 89.088 38.4693C89.0594 38.4583 89.0227 38.428 88.9808 38.4116C88.9697 38.4396 88.9446 38.4623 88.9394 38.4763C88.9254 38.4711 88.9196 38.4851 88.9114 38.4652C88.866 38.4151 88.8042 38.4076 88.7313 38.428C88.6585 38.4483 88.6329 38.3895 88.5763 38.3673C88.4679 38.4384 88.4679 38.4384 88.4446 38.3324C88.3438 38.3417 88.4982 38.4017 88.3974 38.4111C88.3834 38.4058 88.3496 38.4087 88.3415 38.3895C88.3152 38.3306 88.2482 38.337 88.2004 38.3347C88.1194 38.3353 88.06 38.2799 87.9924 38.2858C87.9452 38.2834 87.9114 38.2869 87.8951 38.3289C87.8892 38.3429 87.87 38.3516 87.8642 38.3656C87.8415 38.3405 87.8275 38.3353 87.8187 38.3155C87.7511 38.2403 87.6806 38.2129 87.5745 38.2362C87.5069 38.2426 87.4259 38.2432 87.3694 38.2217C87.3187 38.1855 87.2657 38.1972 87.1981 38.2036C87.1899 38.1838 87.1812 38.1645 87.1783 38.1307C87.1083 38.1849 87.0652 38.087 86.9929 38.1074C86.9055 38.0404 86.7627 38.115 86.6864 38.02C86.6275 38.0462 86.6048 38.0212 86.5541 37.985C86.5174 37.9542 86.4614 37.9326 86.4276 37.9355C86.307 37.9536 86.1887 37.8423 86.0518 37.9029C86.0343 37.8632 86.0284 37.7962 85.9498 37.8306C85.8717 37.865 85.7872 37.8324 85.7312 37.8102C85.6188 37.7665 85.5144 37.742 85.3967 37.7123C85.3682 37.7012 85.3373 37.6564 85.2982 37.6738C85.3093 37.6459 85.3006 37.6261 85.3058 37.6121C85.2388 37.6185 85.1712 37.6243 85.0844 37.6395C85.0902 37.6255 85.0762 37.6196 85.0675 37.6004C84.9917 37.587 84.9159 37.5736 84.8402 37.5602C84.8262 37.555 84.8116 37.5491 84.8035 37.5299C84.7772 37.471 84.744 37.474 84.7079 37.5247C84.6991 37.5054 84.705 37.4914 84.7015 37.4576C84.6345 37.464 84.5639 37.4367 84.4993 37.3947C84.4287 37.3673 84.353 37.3545 84.2772 37.3411C84.1397 37.3195 83.8949 37.2408 83.751 37.1523C83.8326 37.1511 83.8996 37.1453 83.9812 37.1441C83.9864 37.1301 83.9864 37.1301 83.9922 37.1161C83.9357 37.0946 83.8938 37.0777 83.8034 37.059C83.8961 37.0299 83.9491 37.0182 84.022 36.9978C84.1478 36.9658 84.2854 36.9873 84.4083 36.9215C84.4672 36.8958 84.543 36.9092 84.6047 36.9168C84.6519 36.9192 84.7056 36.9075 84.7475 36.9238C84.804 36.946 84.8291 36.9232 84.8821 36.9116C84.9014 36.9028 84.9241 36.9279 84.9527 36.939C84.9666 36.9442 84.9917 36.9221 85.0109 36.9133C85.0587 36.9157 85.0844 36.9745 85.1345 36.9291C85.2697 36.9978 85.4125 36.9232 85.5582 36.964C85.6625 36.9885 85.7633 36.9792 85.867 37.0037C85.8956 37.0147 85.9346 36.9972 86.0016 36.9908L86.0244 37.0159C86.1001 37.0293 86.1619 37.0375 86.2289 37.031C86.2627 37.0281 86.3018 37.0107 86.3356 37.0077C86.395 37.0631 86.462 37.0567 86.532 37.0031C86.5547 37.0281 86.5687 37.0334 86.5768 37.0532C86.6019 37.0305 86.6217 37.0217 86.627 37.0077C86.6555 37.0188 86.6975 37.0351 86.7254 37.0462C86.768 37.0625 86.8158 37.0648 86.8577 37.0812C86.8997 37.0981 86.9475 37.1004 86.9953 37.1027C87.0483 37.0911 87.1188 37.1185 87.1806 37.126C87.2225 37.1424 87.2651 37.1587 87.2902 37.1365C87.349 37.1103 87.4108 37.1185 87.4615 37.1546C87.4755 37.1598 87.4895 37.1651 87.5093 37.1569C87.5874 37.1225 87.6544 37.1161 87.7301 37.1295C87.7727 37.1459 87.8397 37.1394 87.8822 37.1563C87.8962 37.1616 87.9242 37.1727 87.9434 37.1639C88.0891 37.1231 88.2214 37.1587 88.3642 37.1657C88.4598 37.1703 88.5553 37.175 88.6451 37.1936C88.7966 37.2204 88.6841 37.1767 88.8217 37.1977C88.8357 37.2035 88.8496 37.2088 88.8496 37.2088C88.9563 37.1855 89.035 37.2327 89.1282 37.2851C89.1562 37.2956 89.204 37.298 89.2238 37.2898C89.2821 37.2636 89.3438 37.2717 89.4004 37.2939C89.4563 37.3154 89.4989 37.3318 89.563 37.2921C89.5822 37.2834 89.6247 37.2997 89.6527 37.3108C89.7034 37.3469 89.7652 37.3545 89.824 37.3288C89.8771 37.3172 89.9301 37.3055 89.9616 37.3504C89.9843 37.3755 90.0484 37.3353 90.0601 37.3883C90.0601 37.3883 90.1271 37.3825 90.1469 37.3737C90.2063 37.4291 90.2407 37.5078 90.3357 37.5124C90.3503 37.5177 90.3783 37.5287 90.3724 37.5427C90.3713 37.6721 90.461 37.6907 90.5059 37.7409C90.5426 37.7712 90.5904 37.7735 90.6405 37.728Z" fill="#93AB72"/>
</g>
</g>
</g>
</g>
</g>
</g>
</g>
</g>
</g>
<g id="Clip path group_11">
<mask id="mask10_1010_3436" style="mask-type:luminance" maskUnits="userSpaceOnUse" x="82" y="26" width="5" height="6">
<g id="61da6ffaba">
<path id="Vector_15" d="M82.353 26.7051H86.9779V31.0316H82.353V26.7051Z" fill="white"/>
</g>
</mask>
<g mask="url(#mask10_1010_3436)">
<g id="Group_11">
<g id="Clip path group_12">
<mask id="mask11_1010_3436" style="mask-type:luminance" maskUnits="userSpaceOnUse" x="78" y="25" width="17" height="21">
<g id="69fa65d0d9">
<path id="Vector_16" d="M94.2872 29.774L88.1926 45.4127L78.1841 41.5122L84.2787 25.8735L94.2872 29.774Z" fill="white"/>
</g>
</mask>
<g mask="url(#mask11_1010_3436)">
<g id="Group_12">
<g id="Clip path group_13">
<mask id="mask12_1010_3436" style="mask-type:luminance" maskUnits="userSpaceOnUse" x="75" y="25" width="20" height="29">
<g id="16fd98ad51">
<path id="Vector_17" d="M94.2876 29.774L85.2273 53.0231L75.2188 49.1226L84.2791 25.8735L94.2876 29.774Z" fill="white"/>
</g>
</mask>
<g mask="url(#mask12_1010_3436)">
<g id="Group_13">
<path id="Vector_18" d="M82.4593 30.9878C82.4278 30.9429 82.4109 30.9039 82.3853 30.845C82.4319 30.7663 82.4756 30.6538 82.5286 30.5606C82.6026 30.4108 82.7192 30.278 82.7996 30.1148C82.8048 30.1002 82.8299 30.0781 82.8497 30.0693C82.9331 30.021 82.9744 29.9557 83.0216 29.877C83.0578 29.8257 83.0653 29.764 83.1382 29.7436C83.158 29.7354 83.1883 29.6987 83.2134 29.676C83.2332 29.6672 83.2355 29.6194 83.2495 29.6247C83.3474 29.5821 83.3748 29.5116 83.3934 29.4219C83.4016 29.3595 83.4576 29.3817 83.4686 29.3537C83.4989 29.317 83.4931 29.2494 83.5741 29.2488C83.5625 29.1958 83.5963 29.1923 83.6213 29.1695C83.6516 29.1328 83.6907 29.1159 83.7408 29.0705C83.774 28.986 83.8684 28.909 83.9576 28.8467C83.9378 28.7738 83.9541 28.7319 84.0357 28.7307C84.0829 28.733 84.1079 28.7109 84.1248 28.6683C84.1301 28.6544 84.1411 28.6264 84.1551 28.6316C84.2361 28.631 84.2192 28.592 84.2076 28.5384C84.2664 28.5127 84.3562 28.5314 84.3748 28.4416C84.3859 28.4137 84.4308 28.3822 84.464 28.3793C84.503 28.3618 84.4296 28.3006 84.4914 28.3088C84.4768 28.2219 84.5386 28.2295 84.5975 28.2039C84.6114 28.2091 84.6167 28.1951 84.6365 28.1864C84.6278 28.1672 84.619 28.1473 84.619 28.1473C84.6388 28.1386 84.6586 28.1304 84.6726 28.1357C84.6359 28.1054 84.6942 28.0792 84.6942 28.0792C84.781 28.0646 84.8142 27.9801 84.8784 27.9405C84.9564 27.9061 85.0036 27.8268 85.059 27.7674C85.0951 27.7167 85.168 27.6963 85.1674 27.6147C85.1727 27.6007 85.1977 27.578 85.2315 27.5751C85.3574 27.543 85.3924 27.4107 85.4675 27.3425C85.4873 27.3338 85.5037 27.2918 85.5375 27.2889C85.6103 27.2685 85.6797 27.2143 85.7385 27.1887C85.8306 27.1595 85.886 27.1001 85.9192 27.0156C85.9244 27.0016 85.9303 26.9876 85.9355 26.9736C86.0503 26.9696 86.0899 26.9527 86.0946 26.8571C86.1587 26.8169 86.2683 26.8274 86.2782 26.7178C86.3399 26.7254 86.379 26.7085 86.4128 26.7056C86.4355 26.7306 86.467 26.7749 86.4839 26.814C86.5177 26.811 86.5427 26.7883 86.5707 26.7994C86.5987 26.8105 86.6273 26.821 86.6494 26.846C86.6442 26.8606 86.6331 26.8886 86.6418 26.9084C86.6949 26.8961 86.7479 26.8845 86.7869 26.8676C86.8044 26.9066 86.8213 26.9457 86.833 26.9987C86.858 26.976 86.8778 26.9678 86.9029 26.9451C86.9623 27.0004 86.9315 27.0372 86.8924 27.0546C86.9379 27.1048 86.9833 27.1549 86.9134 27.2085C86.9081 27.2225 86.8971 27.251 86.9111 27.2563C86.9932 27.3367 86.893 27.4276 86.9076 27.5145C86.9163 27.5343 86.886 27.571 86.8662 27.5797C86.7858 27.6619 86.7193 27.7493 86.6611 27.8565C86.6447 27.8985 86.5999 27.93 86.5608 27.9469C86.4437 27.9987 86.4221 28.1363 86.2997 28.2021C86.2158 28.2505 86.1575 28.3577 86.0771 28.4399C86.0218 28.4993 85.9437 28.5337 85.8685 28.6019C85.7875 28.6841 85.6616 28.7161 85.6039 28.8234C85.5981 28.8373 85.5649 28.8403 85.5398 28.863C85.5089 28.8997 85.4361 28.9201 85.4372 29.0017C85.4349 29.0489 85.4098 29.0716 85.351 29.0978C85.2781 29.1177 85.1861 29.1468 85.1301 29.2062C85.0998 29.243 85.0695 29.2797 85.0246 29.3111C84.9384 29.4073 84.855 29.4557 84.693 29.5384C84.6289 29.5786 84.573 29.6381 84.5089 29.6777C84.4838 29.7004 84.4448 29.7179 84.4057 29.7348C84.415 29.8356 84.323 29.8648 84.253 29.919C84.1726 30.0011 84.052 30.0186 83.9797 30.1206C83.9745 30.1346 83.9407 30.1375 83.9267 30.1323C83.9075 30.141 83.8935 30.1352 83.8876 30.1492C83.7851 30.2879 83.7798 30.3019 83.6819 30.345C83.57 30.3823 83.4896 30.4644 83.3806 30.5355C83.3754 30.5501 83.3608 30.5443 83.3556 30.5583C83.1545 30.6585 82.9931 30.8228 82.7611 30.8782C82.6831 30.9126 82.5712 30.9499 82.4593 30.9878Z" fill="#93AB72"/>
</g>
</g>
</g>
</g>
</g>
</g>
</g>
</g>
</g>
<g id="Clip path group_14">
<mask id="mask13_1010_3436" style="mask-type:luminance" maskUnits="userSpaceOnUse" x="2" y="0" width="7" height="5">
<g id="4d6a3d6fa8">
<path id="Vector_19" d="M2.38721 0H8.35479V4.62488H2.38721V0Z" fill="white"/>
</g>
</mask>
<g mask="url(#mask13_1010_3436)">
<g id="Group_14">
<g id="Clip path group_15">
<mask id="mask14_1010_3436" style="mask-type:luminance" maskUnits="userSpaceOnUse" x="-4" y="-1" width="17" height="20">
<g id="98ae16ce35">
<path id="Vector_20" d="M-3.87939 14.5419L2.78693 -0.495361L12.6066 3.85794L5.94089 18.8952L-3.87939 14.5419Z" fill="white"/>
</g>
</mask>
<g mask="url(#mask14_1010_3436)">
<g id="Group_15">
<g id="Clip path group_16">
<mask id="mask15_1010_3436" style="mask-type:luminance" maskUnits="userSpaceOnUse" x="-4" y="-9" width="21" height="28">
<g id="ab04fd5f0c">
<path id="Vector_21" d="M-3.87939 14.5419L6.23286 -8.26953L16.0532 -3.91623L5.9409 18.8952L-3.87939 14.5419Z" fill="white"/>
</g>
</mask>
<g mask="url(#mask15_1010_3436)">
<g id="Group_16">
<path id="Vector_22" d="M6.30917 2.27867C6.31033 2.31247 6.31208 2.34627 6.30567 2.35968C6.36103 2.38415 6.40882 2.38882 6.46419 2.41329C6.50556 2.43194 6.55451 2.46982 6.58948 2.50246C6.60347 2.50828 6.61104 2.5281 6.63261 2.55432C6.65417 2.58055 6.66175 2.60036 6.68914 2.6126C6.7445 2.63708 6.78121 2.70293 6.8628 2.70584C6.87679 2.71225 6.88436 2.73207 6.89777 2.7379C6.93623 2.83755 7.04696 2.8865 7.11922 2.98499C7.1268 3.00481 7.14661 2.99723 7.16817 3.02287C7.20955 3.04152 7.24452 3.07357 7.27366 3.11961C7.31095 3.18546 7.37972 3.21635 7.44266 3.26064C7.47005 3.27288 7.47821 3.29269 7.49919 3.31892C7.52833 3.36496 7.55747 3.411 7.61924 3.42149C7.63264 3.42732 7.66062 3.43955 7.65421 3.45354C7.68684 3.56718 7.8168 3.60856 7.86925 3.71404C7.87682 3.73385 7.89839 3.76008 7.90596 3.77989C7.9351 3.82593 7.97065 3.85798 7.99979 3.90402C8.02893 3.95006 8.04408 3.99027 8.07322 4.03631C8.14723 4.16802 8.22066 4.29972 8.28069 4.4256C8.28826 4.44542 8.29584 4.46523 8.30341 4.48563C8.27602 4.47339 8.24222 4.47456 8.24222 4.47456C8.19793 4.5375 8.16238 4.50544 8.10119 4.49495C7.8541 4.41861 7.61341 4.32828 7.36515 4.21814C7.2824 4.18142 7.20547 4.13072 7.12855 4.08002C7.10115 4.06778 7.05978 4.04972 7.02598 4.05146C6.95838 4.05438 6.93099 4.04214 6.90767 3.98211C6.89252 3.94249 6.84357 3.90402 6.78821 3.87955C6.72527 3.83526 6.66233 3.79096 6.59939 3.74667C6.572 3.73444 6.54461 3.7222 6.51663 3.70996C6.46768 3.6715 6.39542 3.7222 6.3587 3.65634C6.32956 3.61031 6.28061 3.57184 6.25147 3.5258C6.2439 3.50599 6.21592 3.49375 6.20835 3.47394C6.13492 3.49084 6.08597 3.45237 6.03643 3.41449C5.98748 3.37603 5.94027 3.37137 5.90298 3.30552C5.86626 3.23966 5.78992 3.18896 5.69434 3.18022C5.63315 3.16915 5.59178 3.15108 5.54865 3.09863C5.47056 3.01471 5.38606 2.9442 5.30214 2.87368C5.28058 2.84746 5.2526 2.83522 5.22521 2.82298C5.18966 2.79093 5.14071 2.75247 5.10574 2.72041C5.05621 2.68195 5.00726 2.64407 4.94432 2.5992C4.92275 2.57355 4.88138 2.55491 4.8604 2.52926C4.81086 2.4908 4.78172 2.44476 4.70655 2.42786C4.58999 2.39289 4.5119 2.30839 4.4274 2.23788C4.37844 2.2 4.34173 2.13356 4.24674 2.12482C4.23275 2.11841 4.21877 2.11258 4.21119 2.09277C4.16049 2.0205 4.08997 1.9564 4.01363 1.9057C3.99964 1.89929 3.99207 1.87947 3.97808 1.87365C3.7846 1.78798 3.7846 1.78798 3.6424 1.62538C3.62084 1.59916 3.58704 1.60091 3.55149 1.56886C3.51011 1.55021 3.46116 1.51233 3.41978 1.49368C3.4058 1.48785 3.39822 1.46745 3.38424 1.46163C3.30148 1.42491 3.24495 1.36663 3.18201 1.32234C3.07595 1.2256 2.932 1.1784 2.80787 1.12304C2.75251 1.09856 2.72512 1.08632 2.75542 1.01755C2.73561 1.02513 2.7158 1.03271 2.70181 1.02688C2.68782 1.02047 2.65461 1.02222 2.64645 1.0024C2.61731 0.956363 2.56836 0.9179 2.53339 0.885847C2.50542 0.873609 2.51008 0.825822 2.5025 0.806008C2.49493 0.786193 2.51474 0.778617 2.50716 0.75822C2.47803 0.712181 2.44889 0.666725 2.41975 0.620686C2.40401 0.580475 2.40868 0.53327 2.40576 0.465669C2.45938 0.456344 2.52523 0.419047 2.59866 0.402147C2.59749 0.368346 2.60157 0.321141 2.60624 0.273354C2.67209 0.23664 2.75193 0.205753 2.81778 0.169038L2.98679 0.160879C3.03399 0.165541 3.0538 0.157965 3.06488 0.0961914C3.14763 0.132906 3.22397 0.183607 3.3178 0.159131C3.33179 0.164959 3.34519 0.171369 3.35918 0.177197C3.38657 0.189435 3.40813 0.21566 3.44951 0.233726C3.50487 0.258202 3.54625 0.276851 3.57538 0.32289C3.58296 0.342704 3.60452 0.368929 3.64473 0.353194C3.70418 0.330466 3.73332 0.376505 3.76245 0.422544C3.82073 0.514039 3.91747 0.557164 4.02645 0.572316C4.04044 0.578726 4.07365 0.576978 4.10163 0.589216C4.11853 0.662646 4.16165 0.715095 4.23042 0.745399C4.34231 0.828153 4.45421 0.910906 4.5661 0.99366C4.58008 0.999488 4.60165 1.02571 4.61563 1.03212C4.69081 1.04844 4.73976 1.0869 4.78289 1.13877C4.86098 1.22327 4.95772 1.2664 5.05388 1.30894C5.08185 1.32118 5.10458 1.3812 5.1646 1.35789C5.18442 1.35032 5.23337 1.38878 5.24153 1.40859C5.25202 1.49601 5.35459 1.52515 5.39771 1.57701C5.40529 1.59683 5.44667 1.61548 5.45308 1.60149C5.54632 1.57701 5.5708 1.67026 5.64015 1.70115C5.66754 1.71338 5.64306 1.76875 5.68444 1.78681C5.7736 1.80954 5.83013 1.86782 5.89307 1.91269C5.92104 1.92493 5.94202 1.95057 5.96358 1.9768C5.97757 1.98262 5.99272 2.02284 6.01312 2.01526C6.13842 2.10384 6.17863 2.2373 6.30917 2.27867Z" fill="#93AB72"/>
</g>
</g>
</g>
</g>
</g>
</g>
</g>
</g>
</g>
<g id="Clip path group_17">
<mask id="mask16_1010_3436" style="mask-type:luminance" maskUnits="userSpaceOnUse" x="0" y="11" width="8" height="3">
<g id="bc4f0e4bcb">
<path id="Vector_23" d="M0.29834 11.04H7.01187V13.1287H0.29834V11.04Z" fill="white"/>
</g>
</mask>
<g mask="url(#mask16_1010_3436)">
<g id="Group_17">
<g id="Clip path group_18">
<mask id="mask17_1010_3436" style="mask-type:luminance" maskUnits="userSpaceOnUse" x="-4" y="-1" width="17" height="20">
<g id="0343137773">
<path id="Vector_24" d="M-3.87939 14.5419L2.78693 -0.495361L12.6066 3.85794L5.94089 18.8952L-3.87939 14.5419Z" fill="white"/>
</g>
</mask>
<g mask="url(#mask17_1010_3436)">
<g id="Group_18">
<g id="Clip path group_19">
<mask id="mask18_1010_3436" style="mask-type:luminance" maskUnits="userSpaceOnUse" x="-4" y="-9" width="21" height="28">
<g id="a803255cc7">
<path id="Vector_25" d="M-3.87939 14.5419L6.23286 -8.26953L16.0532 -3.91623L5.9409 18.8952L-3.87939 14.5419Z" fill="white"/>
</g>
</mask>
<g mask="url(#mask18_1010_3436)">
<g id="Group_19">
<path id="Vector_26" d="M2.97105 12.7512C2.95589 12.7115 2.93433 12.6853 2.93258 12.6515C2.88072 12.6946 2.83468 12.7238 2.78864 12.7529C2.76125 12.7407 2.73968 12.715 2.71171 12.7028C2.63828 12.7197 2.60914 12.8223 2.52056 12.7995C2.49259 12.7873 2.47103 12.7611 2.44946 12.7354C2.39935 12.8118 2.28862 12.7628 2.21694 12.8135C2.13826 12.8782 2.04793 12.8217 1.95469 12.8462C1.94245 12.8741 1.91623 12.8957 1.88418 12.9307C1.84105 12.8788 1.80142 12.8939 1.7414 12.9173C1.68778 12.9266 1.63999 12.9219 1.59279 12.9173C1.58988 12.9988 1.49896 12.9417 1.47449 12.9971C1.45934 12.9575 1.45176 12.9377 1.4302 12.9114C1.33637 12.9359 1.2373 12.9744 1.12949 12.993C1.03624 13.0175 1.02867 12.9977 0.991369 12.9318C0.930178 12.9213 0.882974 12.9167 0.835186 12.912C0.8212 12.9062 0.801386 12.9138 0.781571 12.9213C0.688328 12.9464 0.686579 12.9126 0.61723 12.8817C0.548463 12.8514 0.567111 12.8094 0.537973 12.764C0.536224 12.7302 0.521072 12.69 0.485523 12.6579C0.463961 12.6317 0.468623 12.5845 0.453471 12.5443C0.437736 12.5047 0.43657 12.4709 0.427246 12.4172C0.439484 12.3893 0.477364 12.3403 0.482027 12.2925C0.486689 12.2453 0.518741 12.2098 0.56478 12.1806C0.591005 12.1591 0.609654 12.1177 0.62772 12.0763C0.65511 12.0886 0.676672 12.1148 0.690659 12.1206C0.748936 12.0641 0.850339 12.0588 0.914443 11.9883C0.96631 11.9452 1.02808 11.9563 1.04324 11.9959C1.06946 11.9743 1.08927 11.9668 1.1155 11.9452C1.13531 11.9376 1.14872 11.9434 1.14872 11.9434C1.16562 11.8683 1.2408 11.8852 1.28217 11.9038C1.35735 11.9201 1.38357 11.8986 1.42204 11.8496C1.51062 11.8723 1.59221 11.8758 1.65631 11.8047C1.68836 11.7698 1.72217 11.768 1.83872 11.803C1.84513 11.7896 1.85096 11.7756 1.87718 11.754C1.88359 11.7401 1.89583 11.7127 1.89583 11.7127C1.94945 11.7033 1.99665 11.708 2.03045 11.7063C2.07824 11.7109 2.11962 11.729 2.15342 11.7278C2.20062 11.7319 2.24841 11.7366 2.28629 11.6876C2.37545 11.5617 2.40925 11.56 2.55495 11.641C2.56718 11.6136 2.57942 11.5856 2.60565 11.5641C2.62546 11.5565 2.65926 11.5553 2.6849 11.5338C2.69306 11.5536 2.70064 11.5734 2.71579 11.613C2.84284 11.5868 2.96289 11.5408 3.07886 11.4271C3.10042 11.4533 3.13597 11.4854 3.17094 11.5174C3.25078 11.4866 3.33062 11.4562 3.42386 11.4312C3.46407 11.416 3.51943 11.4405 3.56664 11.4452C3.61268 11.4155 3.64473 11.3805 3.69077 11.3513C3.7065 11.391 3.72166 11.4312 3.73098 11.4848C3.79334 11.3799 3.86094 11.377 3.9501 11.3997C3.96409 11.4061 3.99148 11.4184 3.99731 11.4044C4.09579 11.3321 4.23216 11.3595 4.33007 11.2872C4.33648 11.2738 4.35629 11.2657 4.37028 11.2721C4.41748 11.2768 4.45303 11.3088 4.49266 11.2937C4.53287 11.2779 4.56493 11.2424 4.6063 11.261C4.63369 11.2733 4.64768 11.2791 4.67507 11.2913C4.78696 11.2255 4.78696 11.2255 4.85748 11.2896C4.89594 11.2406 4.94781 11.1975 5.00026 11.1544C5.02182 11.1806 5.0294 11.2004 5.03697 11.2208C5.07718 11.2051 5.12264 11.1759 5.17043 11.1806C5.23803 11.1771 5.31146 11.1602 5.37265 11.1713C5.52941 11.1905 5.67627 11.1567 5.80798 11.0833C5.81614 11.1031 5.82954 11.1089 5.8511 11.1351C6.02302 11.046 6.20659 11.078 6.38784 11.0425L6.39541 11.0623C6.36919 11.0839 6.33539 11.0856 6.30974 11.1072C6.40007 11.1637 6.51197 11.0973 6.60871 11.1404C6.69146 11.1771 6.80044 11.1923 6.90942 11.2074C6.87678 11.243 6.84473 11.2779 6.81268 11.3135C6.84648 11.3117 6.86046 11.3181 6.90767 11.3222C6.85114 11.4131 6.81443 11.4959 6.74974 11.5664C6.67922 11.6509 6.58132 11.7232 6.50323 11.7878C6.49681 11.8018 6.46942 11.7896 6.45544 11.7832C6.43562 11.7908 6.38842 11.7867 6.37618 11.8141C6.26079 11.9615 6.07838 11.9633 5.93269 12.0309C5.84702 12.0757 5.75203 12.0664 5.68793 12.1369C5.67569 12.1649 5.61392 12.1544 5.58653 12.1422C5.53116 12.1177 5.47755 12.127 5.43151 12.1562C5.38547 12.1853 5.3336 12.2284 5.27999 12.2377C5.16052 12.2838 5.0393 12.296 4.90585 12.3362C4.85689 12.2978 4.80445 12.3409 4.75724 12.3362C4.66983 12.3473 4.576 12.3718 4.49674 12.4027C4.38602 12.3537 4.30967 12.4522 4.20186 12.4703C4.13484 12.4738 4.07482 12.4965 4.00139 12.514C3.98157 12.5216 3.92621 12.4971 3.87842 12.4924C3.83238 12.5216 3.76653 12.5583 3.70359 12.514C3.6255 12.5787 3.48622 12.4837 3.41687 12.602C3.33003 12.6131 3.25136 12.6772 3.1348 12.6422C3.11499 12.6498 3.02757 12.6608 2.97105 12.7512Z" fill="#93AB72"/>
</g>
</g>
</g>
</g>
</g>
</g>
</g>
</g>
</g>
<g id="Clip path group_20">
<mask id="mask19_1010_3436" style="mask-type:luminance" maskUnits="userSpaceOnUse" x="0" y="5" width="8" height="3">
<g id="629b0aa05d">
<path id="Vector_27" d="M0 5.81836H7.01191V7.90701H0V5.81836Z" fill="white"/>
</g>
</mask>
<g mask="url(#mask19_1010_3436)">
<g id="Group_20">
<g id="Clip path group_21">
<mask id="mask20_1010_3436" style="mask-type:luminance" maskUnits="userSpaceOnUse" x="-4" y="-1" width="17" height="20">
<g id="f7ba086574">
<path id="Vector_28" d="M-3.87939 14.5419L2.78693 -0.495361L12.6066 3.85794L5.94089 18.8952L-3.87939 14.5419Z" fill="white"/>
</g>
</mask>
<g mask="url(#mask20_1010_3436)">
<g id="Group_21">
<g id="Clip path group_22">
<mask id="mask21_1010_3436" style="mask-type:luminance" maskUnits="userSpaceOnUse" x="-4" y="-9" width="21" height="28">
<g id="ee4613ec5f">
<path id="Vector_29" d="M-3.87939 14.5419L6.23286 -8.26953L16.0532 -3.91623L5.9409 18.8952L-3.87939 14.5419Z" fill="white"/>
</g>
</mask>
<g mask="url(#mask21_1010_3436)">
<g id="Group_22">
<path id="Vector_30" d="M0.126323 6.76186C0.122826 6.69426 0.127488 6.64705 0.118164 6.59344C0.171779 6.58411 0.20558 6.58236 0.259195 6.57304C0.237632 6.54681 0.216652 6.52117 0.181103 6.48912C0.220732 6.47338 0.241129 6.46581 0.260943 6.45823C0.231805 6.41219 0.18868 6.35974 0.159541 6.31371C0.199169 6.29855 0.252784 6.28923 0.292996 6.27408C0.271433 6.24785 0.235884 6.2158 0.200918 6.18375C0.314558 6.15111 0.434026 6.10507 0.547084 6.07244C0.512118 6.04039 0.490555 6.01416 0.468993 5.98852C0.51678 5.9926 0.556409 5.97745 0.590209 5.9757C0.610024 5.96812 0.629838 5.96055 0.683453 5.95122C0.691612 5.97104 0.719002 5.98327 0.740564 6.0095C0.809331 5.8912 0.886257 5.9419 0.982415 5.98444C1.02437 6.00309 1.07158 6.00717 1.10538 6.006C1.28021 5.98444 1.28021 5.98444 1.34781 6.12955C1.34781 6.12955 1.3618 6.13596 1.3752 6.14179C1.38744 6.1144 1.38628 6.0806 1.39851 6.05321L1.40434 6.03922C1.51332 6.05437 1.60831 6.0637 1.71088 6.09225C1.73885 6.10449 1.77382 6.13713 1.8152 6.15519C1.82743 6.1278 1.85366 6.10624 1.86007 6.09225C1.87347 6.09866 1.87988 6.08468 1.88746 6.10449C1.93058 6.15694 1.99178 6.16743 2.0652 6.15053C2.13863 6.13363 2.16194 6.19307 2.21731 6.21755C2.3292 6.15169 2.3292 6.15169 2.34727 6.25892C2.44867 6.25426 2.29715 6.18666 2.39797 6.182C2.41195 6.18841 2.44575 6.18666 2.45333 6.20648C2.47606 6.2665 2.54366 6.263 2.59145 6.26767C2.67245 6.27058 2.72956 6.32886 2.79658 6.32594C2.84437 6.33061 2.87817 6.32886 2.89624 6.28748C2.90265 6.27349 2.92246 6.26592 2.92887 6.25193C2.94985 6.27816 2.96384 6.28398 2.97141 6.30438C3.0361 6.38247 3.10487 6.41278 3.2121 6.39413C3.2797 6.39121 3.36129 6.39413 3.41607 6.4186C3.46561 6.45707 3.51922 6.44774 3.58624 6.44425C3.5944 6.46464 3.60197 6.48446 3.60372 6.51826C3.6754 6.46756 3.71387 6.56721 3.7873 6.55031C3.8718 6.62083 4.01749 6.55264 4.08975 6.65113C4.1492 6.62782 4.17076 6.65404 4.21971 6.69251C4.25526 6.72456 4.31062 6.74904 4.34443 6.74729C4.46506 6.73505 4.5787 6.8516 4.71856 6.79741C4.73372 6.83762 4.73663 6.90464 4.81647 6.87433C4.89631 6.84344 4.97906 6.88016 5.03443 6.90464C5.14457 6.95359 5.24714 6.98214 5.36369 7.01769C5.39167 7.02993 5.4208 7.07597 5.46043 7.06024C5.44819 7.08821 5.45577 7.10802 5.44994 7.12201C5.51754 7.11851 5.58456 7.1156 5.67198 7.10453C5.66615 7.11851 5.68014 7.12434 5.68771 7.14474C5.76289 7.16106 5.83807 7.17796 5.91325 7.19486C5.92665 7.20068 5.94064 7.20709 5.94821 7.22691C5.97152 7.28693 6.00532 7.28519 6.0432 7.23623C6.05078 7.25605 6.04495 7.27003 6.0467 7.30383C6.11372 7.30034 6.18307 7.33122 6.24601 7.37552C6.31478 7.40582 6.38995 7.42272 6.46513 7.43962C6.6015 7.46701 6.84219 7.55734 6.98205 7.65233C6.90046 7.64942 6.83344 7.65233 6.75186 7.64942C6.74603 7.6634 6.74603 7.6634 6.73962 7.67681C6.79498 7.70129 6.83636 7.71993 6.92552 7.74266C6.8317 7.76772 6.77808 7.77646 6.70465 7.79395C6.57702 7.82017 6.44066 7.79278 6.31536 7.85281C6.25533 7.87553 6.18016 7.85863 6.11897 7.84814C6.07118 7.84348 6.01756 7.85281 5.97619 7.83474C5.92082 7.81026 5.89518 7.83183 5.84157 7.84115C5.82117 7.84873 5.80019 7.8225 5.77222 7.81026C5.75823 7.80444 5.73259 7.82542 5.71277 7.83357C5.66499 7.82891 5.64167 7.76889 5.58981 7.81201C5.4581 7.73683 5.31241 7.80444 5.16788 7.75723C5.06531 7.72809 4.96449 7.73334 4.86134 7.7042C4.83395 7.69196 4.79374 7.70711 4.72672 7.71061L4.70516 7.68438C4.62998 7.66748 4.56879 7.65699 4.50119 7.65991C4.46739 7.66166 4.42776 7.67681 4.39396 7.67856C4.33685 7.62028 4.26983 7.62378 4.19757 7.67448C4.176 7.64825 4.16202 7.64184 4.15444 7.62203C4.12822 7.64359 4.1084 7.65117 4.10257 7.66515C4.0746 7.65292 4.03322 7.63427 4.00583 7.62203C3.96446 7.60396 3.91667 7.5993 3.87529 7.58123C3.83392 7.56259 3.78671 7.55792 3.73893 7.55384C3.68531 7.56317 3.61654 7.53228 3.55477 7.52179C3.51339 7.50314 3.47202 7.48508 3.44637 7.50664C3.38635 7.52937 3.32516 7.51888 3.27562 7.48041C3.26222 7.47459 3.24823 7.46818 3.22842 7.47575C3.14858 7.50664 3.08098 7.51014 3.0058 7.49324C2.96442 7.47459 2.8974 7.47808 2.85603 7.45943C2.84204 7.45361 2.81407 7.44137 2.79425 7.44894C2.64739 7.48275 2.51685 7.44137 2.37407 7.42797C2.27908 7.41922 2.18409 7.4099 2.09493 7.38717C1.94515 7.35337 2.0553 7.40232 1.91893 7.37493C1.90494 7.36852 1.89096 7.36269 1.89096 7.36269C1.78373 7.38134 1.70738 7.33064 1.61647 7.27411C1.58908 7.26188 1.54129 7.25721 1.52148 7.26479C1.46204 7.2881 1.40026 7.27761 1.34548 7.25313C1.29012 7.22866 1.24874 7.21001 1.18289 7.24672C1.16307 7.25488 1.1217 7.23623 1.09372 7.22399C1.04477 7.18553 0.98358 7.17504 0.923555 7.19835C0.86994 7.20768 0.816325 7.217 0.787186 7.17096C0.765623 7.14474 0.69977 7.18145 0.690446 7.12784C0.690446 7.12784 0.622844 7.13133 0.60303 7.13891C0.546501 7.08063 0.515614 7.00079 0.420623 6.99205C0.406636 6.98564 0.379246 6.9734 0.385074 6.95942C0.39265 6.83062 0.304068 6.8079 0.260943 6.75545C0.225394 6.72339 0.17819 6.71873 0.126323 6.76186Z" fill="#93AB72"/>
</g>
</g>
</g>
</g>
</g>
</g>
</g>
</g>
</g>
<g id="Clip path group_23">
<mask id="mask22_1010_3436" style="mask-type:luminance" maskUnits="userSpaceOnUse" x="3" y="13" width="6" height="6">
<g id="98b2818ab9">
<path id="Vector_31" d="M3.28223 13.7253H8.20548V18.0518H3.28223V13.7253Z" fill="white"/>
</g>
</mask>
<g mask="url(#mask22_1010_3436)">
<g id="Group_23">
<g id="Clip path group_24">
<mask id="mask23_1010_3436" style="mask-type:luminance" maskUnits="userSpaceOnUse" x="-4" y="-1" width="17" height="20">
<g id="2c40b071f6">
<path id="Vector_32" d="M-3.87939 14.5417L2.78693 -0.495605L12.6066 3.8577L5.94089 18.895L-3.87939 14.5417Z" fill="white"/>
</g>
</mask>
<g mask="url(#mask23_1010_3436)">
<g id="Group_24">
<g id="Clip path group_25">
<mask id="mask24_1010_3436" style="mask-type:luminance" maskUnits="userSpaceOnUse" x="-4" y="-9" width="21" height="28">
<g id="04e4d0f2d4">
<path id="Vector_33" d="M-3.87939 14.5417L6.23286 -8.26978L16.0532 -3.91647L5.9409 18.895L-3.87939 14.5417Z" fill="white"/>
</g>
</mask>
<g mask="url(#mask24_1010_3436)">
<g id="Group_25">
<path id="Vector_34" d="M7.99131 13.8691C8.02045 13.9152 8.03618 13.9548 8.05891 14.0148C8.00821 14.0918 7.95925 14.2019 7.90273 14.2928C7.82172 14.4385 7.69876 14.5661 7.61192 14.7258C7.60551 14.7398 7.57929 14.7614 7.55947 14.7689C7.4738 14.8132 7.42951 14.8762 7.37881 14.9531C7.34035 15.002 7.32986 15.0638 7.25643 15.0807C7.23603 15.0883 7.20398 15.1238 7.17776 15.1454C7.15794 15.153 7.15328 15.2002 7.13988 15.1944C7.04022 15.2328 7.00934 15.3016 6.98661 15.3908C6.97554 15.4525 6.92075 15.4281 6.90852 15.4554C6.87588 15.491 6.87938 15.558 6.79779 15.5551C6.80711 15.6087 6.77331 15.6105 6.74767 15.632C6.71504 15.6676 6.67541 15.6827 6.62354 15.7259C6.58683 15.8086 6.48834 15.8809 6.39626 15.9391C6.41316 16.0132 6.39509 16.0545 6.31351 16.0516C6.2663 16.047 6.24008 16.0685 6.22201 16.1099C6.2156 16.1239 6.20336 16.1513 6.18938 16.1454C6.10837 16.1425 6.12352 16.1822 6.13285 16.2358C6.0734 16.2591 5.98424 16.2358 5.96151 16.3249C5.94927 16.3529 5.90323 16.3821 5.86943 16.3832C5.82922 16.399 5.90032 16.4631 5.83855 16.4526C5.84962 16.54 5.78843 16.5295 5.7284 16.5522C5.71442 16.5464 5.70859 16.5604 5.68877 16.568C5.69635 16.5878 5.70393 16.6076 5.70393 16.6076C5.68411 16.6152 5.66372 16.6233 5.65031 16.6169C5.68528 16.649 5.62584 16.6723 5.62584 16.6723C5.53842 16.6833 5.5017 16.7661 5.43585 16.8028C5.35601 16.8337 5.30531 16.9106 5.24703 16.9672C5.20857 17.0167 5.13514 17.0336 5.13223 17.1146C5.1264 17.1286 5.10018 17.1501 5.06637 17.1519C4.93933 17.1781 4.89795 17.3087 4.81986 17.3728C4.79946 17.3803 4.7814 17.4223 4.7476 17.4235C4.67417 17.4404 4.60191 17.4911 4.54188 17.5144C4.44864 17.5389 4.39036 17.596 4.35364 17.6787C4.34723 17.6927 4.34141 17.7067 4.335 17.7201C4.22019 17.7189 4.18056 17.7341 4.17124 17.8297C4.10538 17.8664 3.99641 17.8512 3.98125 17.9602C3.92006 17.9497 3.87985 17.9649 3.84605 17.9666C3.82507 17.9404 3.79593 17.8943 3.7802 17.8547C3.7464 17.8559 3.72075 17.8774 3.69278 17.8652C3.66539 17.853 3.63742 17.8407 3.61644 17.8151C3.62227 17.8011 3.6345 17.7731 3.62693 17.7533C3.57331 17.7626 3.5197 17.772 3.47949 17.7871C3.46433 17.7475 3.44918 17.7079 3.43986 17.6542C3.41363 17.6752 3.39382 17.6834 3.36759 17.7049C3.31107 17.6467 3.34312 17.6111 3.38275 17.596C3.3402 17.5435 3.29708 17.4917 3.36934 17.4409C3.37517 17.427 3.38741 17.3996 3.37342 17.3932C3.29533 17.3087 3.39965 17.223 3.38916 17.1356C3.381 17.1158 3.41363 17.0802 3.43345 17.0726C3.51737 16.994 3.58788 16.9095 3.65082 16.8051C3.66947 16.7638 3.71551 16.7346 3.75514 16.7189C3.87461 16.6729 3.902 16.5365 4.02787 16.4765C4.11354 16.4316 4.17648 16.3273 4.26098 16.2492C4.31926 16.1921 4.39852 16.1612 4.47719 16.0971C4.56111 16.0184 4.68816 15.9922 4.75109 15.8879C4.75751 15.8739 4.79131 15.8727 4.81695 15.8511C4.84958 15.8156 4.92301 15.7987 4.92593 15.7171C4.93059 15.6699 4.95681 15.6483 5.01626 15.625C5.08969 15.6081 5.18351 15.5837 5.24179 15.5265C5.27384 15.4916 5.30589 15.456 5.35193 15.4269C5.44226 15.3348 5.52851 15.2899 5.69402 15.2148C5.75987 15.1775 5.81815 15.1209 5.884 15.0842C5.90965 15.0627 5.94986 15.0469 5.98949 15.0318C5.98482 14.9304 6.07865 14.9059 6.15033 14.8552C6.23483 14.7765 6.35605 14.7643 6.43239 14.6658C6.4388 14.6518 6.4726 14.6506 6.48601 14.6565C6.5064 14.6489 6.51981 14.6553 6.52622 14.6413C6.63461 14.5079 6.64102 14.4939 6.74068 14.4554C6.85432 14.4228 6.93824 14.3447 7.05013 14.2782C7.05654 14.2648 7.06994 14.2707 7.07635 14.2567C7.28149 14.1664 7.45049 14.0096 7.68477 13.9647C7.76461 13.9338 7.87825 13.9018 7.99131 13.8691Z" fill="#93AB72"/>
</g>
</g>
</g>
</g>
</g>
</g>
</g>
</g>
</g>
<g id="Group_26">
<g id="Group_27">
<g id="Group_28">
<path id="Vector_35" d="M20.9616 43.4726C21.1207 43.4633 21.278 43.4312 21.4377 43.4446C22.052 43.4318 22.64 43.3753 23.2233 43.2278C23.538 43.1637 23.8294 43.0787 24.0934 42.9266C24.1365 42.8788 24.2041 42.8747 24.2484 42.8496C24.8662 42.518 25.4087 42.0541 25.9029 41.5477C26.0533 41.402 26.1552 41.1916 26.2823 41.025C26.5585 40.6905 26.7415 40.3157 26.9006 39.9194C27.0784 39.4538 27.2101 38.9684 27.3185 38.4841C27.4094 38.0919 27.4537 37.6799 27.5207 37.2661C27.639 36.5539 27.6652 35.8243 27.6227 35.0982C27.5953 34.6221 27.5213 34.1255 27.4706 33.6506C27.4234 33.2205 27.3767 32.8137 27.2625 32.411C27.199 32.0957 27.1349 31.781 27.0941 31.4646C27.0434 30.9896 26.8825 30.5665 26.6762 30.1458C26.3977 29.6615 26.0538 29.2262 25.7112 28.8136C25.4437 28.5105 25.1552 28.2541 24.805 28.0921C24.6872 28.0309 24.5701 27.9691 24.4751 27.9068C24.1179 27.6317 23.7204 27.4499 23.3445 27.2436C22.9698 27.0606 22.6015 26.9912 22.1959 27.06C21.9267 27.1212 21.6557 27.1597 21.3806 27.1299C21.2885 27.1125 21.2203 27.1165 21.13 27.1218C20.5187 27.1801 19.9074 27.2378 19.2954 27.2733C18.7284 27.3065 18.1823 27.3153 17.638 27.3467C17.3659 27.3625 17.0961 27.4237 16.8268 27.4848C16.624 27.5192 16.4958 27.6632 16.4847 27.8689C16.4737 28.074 16.4632 28.2797 16.4748 28.4837C16.4894 28.7331 16.504 28.9826 16.4958 29.2337C16.4579 29.3724 16.49 29.5298 16.4981 29.6662C16.5174 30.0059 16.5826 30.3439 16.6036 30.7064C16.6275 31.1149 16.6071 31.5485 16.6316 31.9798C16.6572 33.594 16.7289 35.2287 16.8676 36.836C16.9311 37.5382 16.9719 38.2411 17.0349 38.9433C17.1077 39.8041 17.1788 40.6415 17.2732 41.4784C17.3309 42.0897 17.4108 42.6765 17.49 43.264C17.5232 43.4441 17.6444 43.5734 17.8274 43.5857C17.9422 43.602 18.0559 43.595 18.1689 43.5886C18.4638 43.5717 18.7814 43.553 19.0536 43.5373C19.3496 43.5431 19.6235 43.5501 19.9184 43.5326C20.2582 43.5128 20.6212 43.4918 20.9616 43.4726ZM20.3642 35.5184C20.3369 35.0422 20.3106 34.5888 20.2832 34.1121C20.2051 33.161 20.1259 32.1866 20.0484 31.2356C20.0455 31.1901 20.0431 31.1447 20.063 31.098C20.0618 31.0753 20.1043 31.0275 20.1259 31.0036C20.2151 30.9756 20.306 30.9704 20.3963 30.9652C20.6673 30.9267 20.9394 30.911 21.2116 30.8952C21.5519 30.8754 21.8736 30.9249 22.1388 31.1825C22.2338 31.2455 22.3282 31.3084 22.4214 31.3486C22.82 31.5526 23.091 31.9011 23.2507 32.3015C23.4623 32.8131 23.6511 33.3254 23.7962 33.8633C23.9891 34.4437 24.0911 35.0294 24.1027 35.6209C24.1132 35.8022 24.1249 36.0061 24.1581 36.1862C24.1767 36.5038 24.1697 36.7777 24.119 37.0761C24.0077 37.5149 23.9407 37.9287 23.7816 38.325C23.5584 38.793 23.2391 39.1758 22.7996 39.4515C22.4249 39.6555 22.0205 39.7469 21.616 39.8384C21.345 39.8769 21.0758 39.9381 20.8048 39.9766C20.623 39.9871 20.5991 39.9655 20.5886 39.7842C20.5455 39.036 20.5006 38.2644 20.4563 37.4934C20.4179 36.8354 20.4027 36.1763 20.3642 35.5184Z" fill="#1842AC"/>
</g>
</g>
</g>
<g id="Group_29">
<g id="Group_30">
<g id="Group_31">
<path id="Vector_36" d="M39.1345 33.8626C39.1088 33.0222 38.948 32.2122 38.7423 31.4045C38.6222 30.9109 38.48 30.4184 38.3378 29.926C38.1315 29.1182 37.7055 28.4376 37.1682 27.8088C36.9246 27.5273 36.6577 27.2464 36.3045 27.0395C35.9281 26.8338 35.5096 26.6758 35.0895 26.4952C35.0895 26.4952 35.0667 26.4969 35.0656 26.4742C34.7666 26.4229 34.4904 26.3705 34.1932 26.3425C33.7369 26.3233 33.2846 26.3722 32.8306 26.3984C32.5142 26.4398 32.1756 26.4818 31.8644 26.6141C31.3976 26.8 30.9314 27.0092 30.5415 27.3507C30.2385 27.6182 29.8888 27.8665 29.6347 28.1998C29.3398 28.6037 29.1137 29.0262 28.8894 29.472C28.7489 29.7983 28.6778 30.1439 28.5828 30.4679C28.3579 31.3007 28.2466 32.1265 28.2046 32.9709C28.1801 33.3363 28.1784 33.7006 28.1755 34.0421C28.1801 34.52 28.1626 34.999 28.1673 35.4763C28.1749 35.9996 28.2279 36.52 28.3713 37.0352C28.3765 37.1255 28.4045 37.2153 28.4097 37.3056C28.475 37.6436 28.5158 37.9595 28.5583 38.2986C28.6539 38.7707 28.8153 39.1938 28.9989 39.6157C29.3422 40.438 29.8404 41.1828 30.4687 41.8064C30.5642 41.892 30.6831 41.9765 30.7793 42.0616C30.8964 42.1234 30.9926 42.2085 31.087 42.2714C31.4192 42.5028 31.77 42.6642 32.1383 42.7341C32.7386 42.8816 33.3546 42.9142 33.9688 42.9014C34.4904 42.8711 35.012 42.8408 35.4741 42.5634C35.6513 42.4853 35.8063 42.4078 35.9834 42.3291C36.072 42.2784 36.1589 42.2056 36.2451 42.1321C36.3535 42.0348 36.4619 41.9375 36.5715 41.8629C36.9409 41.5686 37.2883 41.2749 37.5138 40.8524C37.6997 40.5231 37.9083 40.1921 38.047 39.843C38.3093 39.2585 38.5261 38.6775 38.6718 38.0545C38.8769 37.2683 39.0587 36.4845 39.1024 35.6622C39.1135 35.4571 39.0785 35.2542 39.1351 35.0462C39.1898 34.8154 39.1526 34.5672 39.1625 34.3387C39.1531 34.1802 39.1438 34.0211 39.1345 33.8626ZM31.122 35.0095C31.0345 34.2863 31.0392 33.5805 31.1569 32.8678C31.3114 31.9942 31.6045 31.1579 32.1307 30.4219C32.4274 30.0408 32.8452 29.789 33.3213 29.761C33.7963 29.7109 34.2363 29.845 34.6151 30.0961C34.6635 30.1387 34.7101 30.1585 34.7363 30.2255C35.0073 30.574 35.2346 30.9703 35.396 31.3934C35.6157 32.0408 35.7911 32.7134 35.8972 33.3672C35.9537 33.9558 35.9642 34.524 35.9741 35.0922C35.9951 35.4553 35.9933 35.8195 35.945 36.164C35.8768 36.9414 35.7626 37.7223 35.5335 38.4863C35.4385 38.8103 35.273 39.093 34.9857 39.2462C34.6349 39.4718 34.2345 39.6314 33.798 39.5656C33.5457 39.5347 33.2939 39.5038 33.0404 39.4502C32.5334 39.343 32.1978 39.0434 31.9233 38.6273C31.6435 38.1197 31.4996 37.6046 31.3772 37.0655C31.2234 36.3691 31.1155 35.6925 31.122 35.0095Z" fill="#1842AC"/>
</g>
</g>
</g>
<g id="Group_32">
<g id="Group_33">
<g id="Group_34">
<path id="Vector_37" d="M54.5592 41.6404C54.7206 41.6766 54.8768 41.6218 55.0329 41.5676C55.2346 41.5105 55.4013 41.25 55.3669 41.0472C55.3121 40.891 55.2579 40.7354 55.2031 40.5792C55.1209 40.3333 55.0394 40.1106 54.9583 39.8874C54.8733 39.5966 54.8109 39.3047 54.727 39.036C54.6699 38.8344 54.6139 38.656 54.5568 38.4544C54.4915 38.1164 54.4024 37.758 54.315 37.4212C54.1448 36.8395 53.9502 36.2364 53.7573 35.6559C53.3994 34.5842 53.0404 33.4898 52.7048 32.4169C52.541 31.9483 52.3761 31.4571 52.2141 31.0112C52.0212 30.4308 51.784 29.8754 51.5695 29.3189C51.4576 28.9611 51.3248 28.6277 51.2356 28.2687C51.1214 27.8654 51.0281 27.4383 50.8475 27.0624C50.8207 26.9954 50.8166 26.9272 50.7898 26.8607C50.7047 26.5694 50.6196 26.2786 50.5118 25.9889C50.4296 25.7436 50.3096 25.6369 50.0386 25.6754C49.904 25.7057 49.7664 25.6911 49.6289 25.676C49.4686 25.6626 49.3113 25.6946 49.1539 25.7261C48.7938 25.7925 48.4121 25.8829 48.0292 25.951C47.8264 25.9854 47.6236 26.0198 47.4208 26.0542C47.3071 26.0612 47.2203 26.134 47.1813 26.25C47.1003 26.4143 47.0187 26.5781 46.9825 26.7395C46.8549 27.2932 46.7716 27.8217 46.6673 28.3736C46.6323 28.5578 46.62 28.7408 46.5612 28.9034C46.363 29.8026 46.1649 30.7018 45.9668 31.6004C45.8018 32.2928 45.6357 32.9624 45.4708 33.6547C45.31 34.4152 45.1252 35.1542 44.9632 35.892C44.8577 36.4217 44.7744 36.9497 44.7138 37.4765C44.652 37.9812 44.5664 38.4637 44.4574 38.948C44.3624 39.272 44.2686 39.6194 44.1753 39.9661C44.0693 40.4953 43.9649 41.0477 43.8361 41.5786C43.7825 41.8322 43.8385 42.0111 44.0733 42.134C44.1439 42.1754 44.2144 42.2168 44.3053 42.2115C44.4655 42.2249 44.6252 42.2383 44.807 42.2279C45.3951 42.1713 45.9825 42.0915 46.5711 42.035C46.7523 42.0245 46.9097 41.9924 47.0898 41.9592C47.2261 41.951 47.3339 41.8543 47.3718 41.715C47.4307 41.5524 47.4895 41.3898 47.5484 41.2272C47.6685 40.9469 47.7197 40.648 47.7477 40.3507C47.7745 40.0308 47.7786 40.0984 48.0508 40.0827C48.4593 40.0594 48.8672 40.0355 49.2746 39.9894C49.5904 39.9481 49.9284 39.8828 50.267 39.8408C50.5835 39.7994 50.9011 39.7814 51.2187 39.7627C51.3079 39.7348 51.3562 39.7779 51.3842 39.867C51.3918 40.0034 51.4454 40.1369 51.4757 40.2715C51.594 40.7424 51.8242 41.1841 52.055 41.6259C52.1039 41.6917 52.1762 41.7558 52.2694 41.796C52.4588 41.9213 52.6628 41.9097 52.8656 41.8753C53.1593 41.8351 53.4303 41.7966 53.7013 41.7581C53.7916 41.7529 53.8814 41.7249 53.9723 41.7197C54.1751 41.6853 54.3791 41.6736 54.5592 41.6404ZM49.0817 31.9437C49.1586 32.0987 49.1918 32.2788 49.2693 32.4338C49.4022 32.7671 49.5345 33.0783 49.6662 33.389C49.9046 33.9671 50.0771 34.5941 50.249 35.199C50.3061 35.4007 50.4075 35.5767 50.4646 35.7783C50.4897 35.822 50.4908 35.8448 50.5165 35.889C50.5975 36.1117 50.5975 36.1117 50.3492 36.149C49.922 36.2422 49.4914 36.2667 49.063 36.3372C48.8818 36.3477 48.7227 36.357 48.5414 36.3675C48.4278 36.3739 48.4051 36.3757 48.4202 36.2381C48.4628 35.8028 48.5059 35.368 48.5718 34.9321C48.6819 34.0836 48.8148 33.2339 48.9494 32.4064C48.9628 32.2467 48.9989 32.0853 49.0362 31.9466C49.0589 31.9448 49.0817 31.9437 49.0817 31.9437Z" fill="#1842AC"/>
</g>
</g>
</g>
<g id="Group_35">
<g id="Group_36">
<g id="Group_37">
<path id="Vector_38" d="M58.4277 32.9954C58.4504 32.9943 58.4492 32.9715 58.4714 32.9704C58.4731 32.9931 58.4958 32.9919 58.497 33.0141C58.7062 33.4803 59.0472 33.8702 59.3216 34.2869C59.6975 34.8795 60.0944 35.4483 60.493 36.0393C60.7902 36.4548 61.063 36.8487 61.359 37.2409C61.6801 37.6774 62.0216 38.0673 62.2745 38.5079C62.4278 38.7952 62.5793 39.0592 62.7314 39.3238C63.0537 39.783 63.3987 40.241 63.7227 40.723C63.7962 40.8098 63.8923 40.8949 63.9652 40.9817C64.0363 41.0231 64.1283 41.0406 64.1732 41.0383C64.4681 41.0208 64.7618 40.9812 65.0567 40.9643C65.2822 40.9281 65.5293 40.8687 65.7799 40.8768C66.0293 40.8623 66.2059 40.7609 66.3755 40.5464C66.4379 40.452 66.4798 40.3809 66.4717 40.2451C66.4239 39.8156 66.3977 39.3616 66.3726 38.931C66.2735 38.0032 66.1756 37.0987 66.122 36.1686C66.0136 34.6954 65.9495 33.1971 65.8417 31.7244C65.7665 30.4312 65.6692 29.1398 65.5503 27.8723C65.4722 26.9206 65.3038 25.9748 65.2712 25.0208C65.2647 24.9071 65.1913 24.8203 65.0981 24.7801C65.0514 24.7603 65.0048 24.7399 64.9366 24.744C64.774 24.6851 64.5712 24.7195 64.3894 24.73C64.0025 24.73 63.5934 24.7306 63.2064 24.7306C63.0018 24.7422 62.8218 24.7754 62.6446 24.8541C62.4896 24.931 62.4028 25.0045 62.4132 25.1863C62.4511 25.8437 62.4896 26.5016 62.549 27.1357C62.6149 27.8828 62.7489 28.6258 62.7926 29.3747C62.9057 30.9383 62.9966 32.5036 63.0858 34.0456C63.0881 34.091 63.0683 34.1377 63.0712 34.1831C63.024 34.1633 63.0001 34.1417 62.9989 34.119C62.6487 33.5706 62.2757 33.0234 61.9476 32.4733C61.7238 32.1446 61.5455 31.8136 61.3444 31.4837C60.7168 30.4732 60.0891 29.4627 59.5285 28.4253C59.173 27.786 58.7715 27.1497 58.4591 26.462C58.3018 26.1071 58.078 25.7784 57.8979 25.4246C57.8193 25.2475 57.6771 25.142 57.4941 25.1298C57.2207 25.1228 56.9468 25.1158 56.6735 25.1088C56.515 25.1181 56.3559 25.1274 56.2201 25.135C55.9928 25.1484 55.7661 25.1612 55.5167 25.1758C55.4713 25.1787 55.4031 25.1822 55.3594 25.2079C55.1402 25.357 54.9922 25.5476 55.0091 25.8425C55.0173 25.9789 55.0237 26.0919 55.0528 26.2038C55.061 26.3402 55.0913 26.4748 55.1233 26.6322C55.156 27.1998 55.2131 27.7878 55.2469 28.3776C55.3442 30.0565 55.4404 31.7122 55.536 33.3678C55.6088 34.2286 55.6811 35.0893 55.7527 35.9274C55.8472 37.5603 55.9206 39.2177 56.0138 40.8279C56.0202 40.9415 56.0255 41.0319 56.0546 41.1443C56.0878 41.3244 56.2318 41.4526 56.413 41.4421C56.9591 41.4334 57.5075 41.4695 58.0489 41.3926C58.2517 41.3582 58.4306 41.3023 58.6072 41.2014C58.7832 41.1 58.8618 40.8908 58.8502 40.6863C58.7948 40.1204 58.7394 39.5551 58.7062 38.9881C58.6631 38.2392 58.6637 37.4653 58.6206 36.717C58.5745 35.5363 58.5052 34.3341 58.437 33.1545C58.4341 33.1091 58.4317 33.0636 58.4277 32.9954Z" fill="#1842AC"/>
</g>
</g>
</g>
<g id="Group_38">
<g id="Group_39">
<g id="Group_40">
<path id="Vector_39" d="M78.01 31.6111C77.9843 30.7708 77.8235 29.9607 77.6178 29.153C77.4977 28.6594 77.3555 28.1669 77.2133 27.6745C77.007 26.8668 76.581 26.1861 76.0437 25.5573C75.8001 25.2758 75.5332 24.9949 75.18 24.788C74.8036 24.5823 74.3851 24.4244 73.965 24.2437C73.965 24.2437 73.9422 24.2455 73.9411 24.2227C73.6421 24.1715 73.3659 24.119 73.0687 24.091C72.6123 24.0718 72.1601 24.1208 71.7061 24.147C71.3897 24.1884 71.0511 24.2303 70.7399 24.3626C70.2731 24.5485 69.8069 24.7577 69.417 25.0992C69.114 25.3667 68.7643 25.615 68.5102 25.9483C68.2153 26.3522 67.9892 26.7747 67.7648 27.2205C67.6244 27.5469 67.5533 27.8925 67.4583 28.2165C67.2334 29.0493 67.122 29.875 67.0801 30.7195C67.0556 31.0849 67.0539 31.4491 67.0509 31.7906C67.0556 32.2685 67.0381 32.7475 67.0428 33.2248C67.0504 33.7481 67.1034 34.2686 67.2468 34.7837C67.252 34.8741 67.28 34.9638 67.2852 35.0541C67.3505 35.3921 67.3913 35.708 67.4338 36.0472C67.5294 36.5192 67.6908 36.9423 67.8744 37.3642C68.2177 38.1865 68.7159 38.9313 69.3442 39.5549C69.4397 39.6406 69.5586 39.7251 69.6548 39.8101C69.7719 39.8719 69.8681 39.957 69.9625 40.0199C70.2947 40.2513 70.6455 40.4127 71.0138 40.4827C71.6141 40.6301 72.23 40.6627 72.8443 40.6499C73.3659 40.6196 73.8874 40.5893 74.3496 40.3119C74.5267 40.2338 74.6818 40.1563 74.8589 40.0776C74.9475 40.0269 75.0343 39.9541 75.1206 39.8807C75.229 39.7833 75.3374 39.686 75.4469 39.6114C75.8164 39.3171 76.1638 39.0234 76.3893 38.6009C76.5752 38.2716 76.7838 37.9406 76.9225 37.5915C77.1848 37.007 77.4016 36.426 77.5473 35.803C77.7524 35.0168 77.9342 34.233 77.9779 33.4107C77.989 33.2056 77.954 33.0028 78.0106 32.7947C78.0653 32.564 78.028 32.3157 78.0379 32.0873C78.0286 31.9287 78.0193 31.7696 78.01 31.6111ZM69.9974 32.758C69.91 32.0348 69.9147 31.3291 70.0324 30.6163C70.1868 29.7428 70.48 28.9065 71.0062 28.1704C71.3029 27.7893 71.7207 27.5376 72.1968 27.5096C72.6718 27.4595 73.1118 27.5935 73.4906 27.8447C73.5389 27.8872 73.5856 27.907 73.6118 27.974C73.8828 28.3225 74.1101 28.7188 74.2715 29.1419C74.4912 29.7894 74.6666 30.4619 74.7727 31.1158C74.8292 31.7044 74.8397 32.2726 74.8496 32.8408C74.8706 33.2038 74.8688 33.5681 74.8205 33.9125C74.7523 34.6899 74.6381 35.4708 74.409 36.2348C74.314 36.5589 74.1485 36.8415 73.8612 36.9948C73.5104 37.2203 73.11 37.38 72.6735 37.3141C72.4212 37.2832 72.1694 37.2524 71.9159 37.1987C71.4089 37.0915 71.0732 36.792 70.7988 36.3759C70.519 35.8683 70.3751 35.3531 70.2527 34.814C70.0988 34.1176 69.991 33.441 69.9974 32.758Z" fill="#1842AC"/>
</g>
</g>
</g>
<g id="Group_41">
<g id="Group_42">
<g id="Group_43">
<path id="Vector_40" d="M20.5893 17.7869C20.7233 17.8247 20.8574 17.7869 20.9914 17.7484C21.1633 17.7099 21.3166 17.4995 21.2974 17.327C21.2589 17.193 21.221 17.0596 21.1826 16.9255C21.1249 16.7146 21.0678 16.5234 21.0101 16.3317C20.953 16.0834 20.9145 15.8346 20.8574 15.6044C20.8189 15.4325 20.7805 15.2792 20.7426 15.1067C20.7041 14.82 20.6464 14.5134 20.5893 14.2267C20.4745 13.729 20.3405 13.2121 20.2064 12.7144C19.9576 11.796 19.7087 10.8577 19.4791 9.93925C19.3643 9.53713 19.2495 9.11579 19.1347 8.73349C19.0007 8.23581 18.8282 7.75735 18.6755 7.27831C18.5986 6.97236 18.503 6.68505 18.4453 6.37909C18.369 6.03468 18.3113 5.67103 18.1778 5.34526C18.1586 5.28815 18.1586 5.23045 18.1393 5.17334C18.0816 4.9245 18.0245 4.67565 17.9476 4.42681C17.8905 4.21643 17.7949 4.12027 17.5653 4.1395C17.4505 4.15873 17.3351 4.1395 17.2203 4.12027C17.0863 4.10104 16.9528 4.12027 16.8188 4.1395C16.5122 4.17796 16.1871 4.23508 15.8619 4.27354C15.6894 4.29277 15.5169 4.312 15.3449 4.33123C15.2494 4.33123 15.1724 4.38835 15.134 4.48392C15.0576 4.61796 14.9813 4.752 14.9428 4.88603C14.8088 5.34526 14.7132 5.78583 14.5984 6.24506C14.56 6.39833 14.5407 6.55101 14.4836 6.68505C14.2726 7.43158 14.0623 8.17811 13.8519 8.92464C13.6794 9.49867 13.5075 10.0541 13.335 10.6281C13.163 11.2598 12.9713 11.8723 12.7994 12.4848C12.684 12.9248 12.5884 13.3654 12.5121 13.8054C12.4357 14.2267 12.3396 14.6282 12.2248 15.0303C12.1292 15.2984 12.0336 15.5857 11.9381 15.8724C11.8233 16.313 11.7079 16.7722 11.5744 17.2122C11.5167 17.4232 11.5552 17.5759 11.7463 17.6907C11.804 17.7292 11.8611 17.7676 11.9381 17.7676C12.0715 17.7869 12.2056 17.8055 12.3588 17.8055C12.8565 17.7869 13.3542 17.7484 13.8519 17.7292C14.0052 17.7292 14.1392 17.7099 14.2919 17.6907C14.4067 17.6907 14.5028 17.6144 14.5407 17.4995C14.5984 17.3655 14.6555 17.2315 14.7132 17.0974C14.828 16.8678 14.8851 16.619 14.9236 16.3701C14.9621 16.1021 14.9621 16.1598 15.1917 16.1598C15.5361 16.1598 15.8805 16.1598 16.2255 16.1405C16.493 16.1213 16.7803 16.0834 17.0676 16.0642C17.3351 16.0449 17.6032 16.0449 17.8713 16.0449C17.9476 16.0257 17.9861 16.0642 18.0053 16.1405C18.0053 16.2553 18.0438 16.3701 18.063 16.4849C18.1393 16.8871 18.3113 17.2699 18.4838 17.6528C18.5222 17.7099 18.5793 17.7676 18.6563 17.8055C18.8089 17.9203 18.9814 17.9203 19.1539 17.9017C19.4028 17.8824 19.6324 17.8632 19.862 17.844C19.9384 17.844 20.0153 17.8247 20.0916 17.8247C20.2641 17.8055 20.436 17.8055 20.5893 17.7869ZM16.4551 9.36463C16.5122 9.49867 16.5315 9.65194 16.5892 9.78598C16.6847 10.0733 16.7803 10.3408 16.8759 10.6089C17.0484 11.1065 17.1632 11.6427 17.278 12.1596C17.3165 12.3315 17.3928 12.4848 17.4313 12.6573C17.4505 12.6952 17.4505 12.7144 17.4692 12.7529C17.5268 12.944 17.5268 12.944 17.3165 12.9633C16.9528 13.0209 16.5892 13.0209 16.2255 13.0588C16.0722 13.0588 15.9382 13.0588 15.7849 13.0588C15.6894 13.0588 15.6701 13.0588 15.6894 12.944C15.7465 12.5804 15.8042 12.2167 15.8805 11.8531C16.0146 11.145 16.1678 10.4369 16.3211 9.74752C16.3403 9.61348 16.3782 9.48002 16.4167 9.36463C16.4359 9.36463 16.4551 9.36463 16.4551 9.36463Z" fill="#1842AC"/>
</g>
</g>
</g>
<g id="Group_44">
<g id="Group_45">
<g id="Group_46">
<path id="Vector_41" d="M25.0098 11.1641C24.9906 11.6041 24.9719 12.3314 24.9527 13.0587C24.9335 13.8629 24.9142 14.6473 24.895 15.4515C24.8758 16.0063 24.8758 16.5804 24.8571 17.155C24.8379 17.3654 24.9527 17.5186 25.0483 17.6719C25.0675 17.7098 25.1246 17.7482 25.1823 17.7675C25.3734 17.8054 25.5652 17.8823 25.7371 17.8823C26.12 17.9015 26.5029 17.9015 26.8665 17.8823C27.2302 17.863 27.5938 17.8246 27.9575 17.8054C28.4551 17.8054 28.9913 17.8054 29.489 17.7867C29.8334 17.7675 30.1586 17.729 30.4844 17.729C31.1347 17.7098 31.7665 17.7098 32.4174 17.6905C32.513 17.6905 32.6086 17.6905 32.6663 17.6142C32.8003 17.4609 32.8959 17.3082 32.8959 17.0973C32.9151 16.6573 32.8382 16.2167 32.8189 15.7767C32.8189 15.6235 32.8189 15.4323 32.647 15.3175C32.647 15.3175 32.647 15.2983 32.6278 15.279C32.5322 15.1065 32.3405 15.011 32.1493 15.0494C32.073 15.0494 31.9961 15.0687 31.9197 15.0494C31.6901 15.0494 31.4413 15.0302 31.2117 15.0302C30.848 15.0494 30.4844 15.0879 30.1207 15.0879C29.4697 15.1065 28.8188 15.1065 28.1871 15.1065C28.0152 15.1258 28.0152 15.1065 28.0152 14.9538C28.0152 14.5517 28.0152 14.1496 28.0152 13.7667C27.9959 13.0587 27.9959 12.3698 27.9959 11.681C27.9959 11.4322 28.0152 11.4322 28.264 11.4322C28.704 11.3937 29.1446 11.3745 29.5846 11.336C29.9867 11.3168 30.3695 11.2597 30.7711 11.2212C30.9436 11.2212 31.1347 11.2212 31.3265 11.2212C31.4791 11.202 31.5753 11.1256 31.5753 10.9531C31.5753 10.5131 31.5753 10.0918 31.5561 9.67102C31.5561 9.47987 31.5368 9.28814 31.5176 9.09699C31.4984 8.96296 31.4984 8.96296 31.3643 8.96296C31.2303 8.96296 31.1155 8.96296 30.982 8.96296C30.4651 8.96296 29.929 8.94372 29.3928 8.96296C28.9721 8.96296 28.5507 8.98219 28.1107 8.98219C27.9767 8.98219 27.9575 8.98219 27.9575 8.82892C27.9767 8.29277 27.9959 7.7572 27.9959 7.20182C28.0152 7.08701 28.0152 7.08701 28.13 7.06778C28.5699 7.01067 29.0292 6.99144 29.4697 6.97221C30.0053 6.97221 30.5222 6.97221 31.0584 6.95298C31.4413 6.93374 31.8428 6.91451 32.2257 6.89586C32.3789 6.87663 32.5322 6.8574 32.6278 6.72336C32.7041 6.60856 32.7618 6.47452 32.7426 6.34048C32.7234 5.74722 32.7041 5.15396 32.6855 4.5607C32.6663 4.23493 32.4938 4.00532 32.1493 3.98608C32.0916 3.98608 32.0153 3.98608 31.9768 4.00532C31.7857 4.04378 31.6132 4.02455 31.4413 4.02455C31.0776 4.02455 30.714 4.00532 30.3695 4.00532C30.1394 4.00532 29.929 3.98608 29.7186 3.98608C28.9144 3.98608 28.0915 4.00532 27.2879 4.00532C27.2302 4.00532 27.173 4.02455 27.0961 4.02455C26.7517 4.02455 26.3881 4.02455 26.0244 4.02455C25.8519 4.02455 25.6608 4.02455 25.4883 4.02455C25.2208 4.06301 25.0867 4.19705 25.0867 4.46512C25.0675 4.54147 25.0867 4.59858 25.0867 4.65627C25.0867 4.92435 25.106 5.19242 25.106 5.45991C25.0675 7.25951 25.0483 9.05853 25.0098 11.1641Z" fill="#1842AC"/>
</g>
</g>
</g>
<g id="Group_47">
<g id="Group_48">
<g id="Group_49">
<path id="Vector_42" d="M33.7561 12.37C33.7561 13.3076 33.7375 14.2645 33.7561 15.2028C33.7561 15.9301 33.7754 16.6574 33.7946 17.3655C33.8138 17.7099 33.9094 17.7868 34.2352 17.7868C34.6752 17.7676 35.1152 17.6907 35.5557 17.7099C35.8046 17.7099 36.0342 17.6907 36.283 17.6907C36.723 17.7099 37.1636 17.7291 37.6036 17.7484C38.2353 17.7676 38.8671 17.7484 39.4795 17.7099C39.5944 17.6907 39.7284 17.672 39.824 17.6335C39.9959 17.5951 40.0343 17.538 40.0536 17.3655C40.0536 17.327 40.0536 17.3084 40.0536 17.2507C40.0728 16.9255 40.0728 16.5997 40.092 16.2553C40.1107 16.0257 40.1107 15.8153 40.1107 15.5857C40.1107 15.4132 40.0151 15.2599 39.9003 15.222C39.7855 15.2028 39.6899 15.1836 39.5751 15.1836C39.3263 15.1643 39.0582 15.1643 38.7901 15.1451C38.0821 15.1259 37.374 15.0303 36.6659 15.0303C36.589 15.0303 36.5319 15.0303 36.455 15.0303C36.3786 15.0303 36.3594 15.0111 36.3594 14.9347C36.3594 14.6095 36.3786 14.2645 36.3786 13.9201C36.3594 12.8676 36.3594 11.7959 36.3402 10.7429C36.3209 10.2259 36.283 9.69037 36.3023 9.17345C36.3209 7.73808 36.2638 6.32136 36.2061 4.88599C36.2061 4.67561 36.2061 4.46523 36.2061 4.25427C36.2061 4.13946 36.1298 4.04389 35.9957 4.04389C35.9194 4.02466 35.8425 4.02466 35.7469 4.02466C35.23 4.04389 34.7136 4.04389 34.1775 4.06312C33.9286 4.06312 33.8138 4.08235 33.7946 4.446C33.7754 4.77119 33.7754 5.07714 33.7754 5.42215C33.7561 5.61329 33.7561 5.80503 33.7375 5.99618C33.7375 6.32136 33.7183 6.64713 33.7183 6.95309C33.7183 7.41231 33.7375 7.87212 33.7561 8.33134C33.7561 9.67113 33.7561 11.0302 33.7561 12.37Z" fill="#1842AC"/>
</g>
</g>
</g>
<g id="Group_50">
<g id="Group_51">
<g id="Group_52">
<path id="Vector_43" d="M41.086 11.1641C41.0667 11.6041 41.0481 12.3314 41.0289 13.0587C41.0096 13.8629 40.9904 14.6473 40.9712 15.4515C40.9519 16.0063 40.9519 16.5804 40.9333 17.155C40.9141 17.3654 41.0289 17.5186 41.1244 17.6719C41.1437 17.7098 41.2008 17.7482 41.2585 17.7675C41.4496 17.8054 41.6413 17.8823 41.8133 17.8823C42.1961 17.9015 42.579 17.9015 42.9427 17.8823C43.3063 17.863 43.67 17.8246 44.0336 17.8054C44.5313 17.8054 45.0675 17.8054 45.5652 17.7867C45.9096 17.7675 46.2348 17.729 46.5605 17.729C47.2109 17.7098 47.8426 17.7098 48.4936 17.6905C48.5892 17.6905 48.6847 17.6905 48.7424 17.6142C48.8765 17.4609 48.972 17.3082 48.972 17.0973C48.9913 16.6573 48.9143 16.2167 48.8951 15.7767C48.8951 15.6235 48.8951 15.4323 48.7232 15.3175C48.7232 15.3175 48.7232 15.2983 48.704 15.279C48.6084 15.1065 48.4167 15.011 48.2255 15.0494C48.1492 15.0494 48.0722 15.0687 47.9959 15.0494C47.7663 15.0494 47.5174 15.0302 47.2878 15.0302C46.9242 15.0494 46.5605 15.0879 46.1969 15.0879C45.5459 15.1065 44.895 15.1065 44.2632 15.1065C44.0913 15.1258 44.0913 15.1065 44.0913 14.9538C44.0913 14.5517 44.0913 14.1496 44.0913 13.7667C44.0721 13.0587 44.0721 12.3698 44.0721 11.681C44.0721 11.4322 44.0913 11.4322 44.3402 11.4322C44.7802 11.3937 45.2207 11.3745 45.6607 11.336C46.0628 11.3168 46.4457 11.2597 46.8473 11.2212C47.0198 11.2212 47.2109 11.2212 47.4026 11.2212C47.5553 11.202 47.6515 11.1256 47.6515 10.9531C47.6515 10.5131 47.6515 10.0918 47.6322 9.67102C47.6322 9.47987 47.613 9.28814 47.5938 9.09699C47.5745 8.96296 47.5746 8.96296 47.4405 8.96296C47.3065 8.96296 47.1917 8.96296 47.0582 8.96296C46.5413 8.96296 46.0051 8.94372 45.469 8.96296C45.0482 8.96296 44.6269 8.98219 44.1869 8.98219C44.0529 8.98219 44.0336 8.98219 44.0336 8.82892C44.0529 8.29277 44.0721 7.7572 44.0721 7.20182C44.0913 7.08701 44.0913 7.08701 44.2061 7.06778C44.6461 7.01067 45.1053 6.99144 45.5459 6.97221C46.0815 6.97221 46.5984 6.97221 47.1346 6.95298C47.5174 6.93374 47.919 6.91451 48.3018 6.89586C48.4551 6.87663 48.6084 6.8574 48.704 6.72336C48.7803 6.60856 48.838 6.47452 48.8188 6.34048C48.7995 5.74722 48.7803 5.15396 48.7617 4.5607C48.7424 4.23493 48.5699 4.00532 48.2255 3.98608C48.1678 3.98608 48.0915 3.98608 48.053 4.00532C47.8619 4.04378 47.6894 4.02455 47.5174 4.02455C47.1538 4.02455 46.7901 4.00532 46.4457 4.00532C46.2155 4.00532 46.0051 3.98608 45.7948 3.98608C44.9905 3.98608 44.1677 4.00532 43.364 4.00532C43.3063 4.00532 43.2492 4.02455 43.1723 4.02455C42.8279 4.02455 42.4642 4.02455 42.1006 4.02455C41.9281 4.02455 41.7369 4.02455 41.5644 4.02455C41.2969 4.06301 41.1629 4.19705 41.1629 4.46512C41.1437 4.54147 41.1629 4.59858 41.1629 4.65627C41.1629 4.92435 41.1821 5.19242 41.1821 5.45991C41.1437 7.25951 41.1244 9.05853 41.086 11.1641Z" fill="#1842AC"/>
</g>
</g>
</g>
<g id="Group_53">
<g id="Group_54">
<g id="Group_55">
<path id="Vector_44" d="M52.2064 5.67088C52.1872 5.67088 52.1872 5.67088 52.1872 5.67088C52.1872 5.21108 52.1872 4.73262 52.1872 4.2734C52.1872 4.04379 52.0916 3.96744 51.862 3.98609C51.7087 4.00532 51.5555 4.00532 51.4214 4.00532C51.1539 4.00532 50.8666 4.00532 50.5986 4.00532C50.4266 4.00532 50.2734 4.02455 50.1009 4.04379C49.9476 4.06302 49.8713 4.13936 49.852 4.29263C49.8328 4.52224 49.8142 4.75185 49.8142 4.98147C49.8142 5.34512 49.8328 5.70877 49.8328 6.07241C49.8328 6.5701 49.8328 7.08702 49.8328 7.60394C49.8328 7.81432 49.852 8.0247 49.852 8.23566C49.852 9.28815 49.8713 10.3406 49.852 11.3937C49.852 12.1595 49.852 12.9439 49.8142 13.7289C49.7949 14.5133 49.7949 15.3175 49.8142 16.1211C49.8328 16.504 49.8142 16.9061 49.8142 17.289C49.8142 17.4038 49.7949 17.4994 49.7949 17.6142C49.7949 17.7675 49.852 17.8054 50.0053 17.8246C50.0438 17.8246 50.0816 17.8246 50.1201 17.8246C50.6941 17.8246 51.2688 17.8246 51.8428 17.8054C51.9384 17.8054 52.0532 17.7482 52.0916 17.6142C52.0916 17.5757 52.1109 17.5186 52.1109 17.4609C52.1301 16.8292 52.1487 16.1788 52.168 15.5279C52.168 15.3746 52.1872 15.2027 52.1872 15.0494C52.2064 14.7621 52.2257 14.4754 52.2257 14.1881C52.2449 13.48 52.2449 12.772 52.2449 12.0825C52.2449 11.8337 52.2257 11.5849 52.2257 11.336C52.2064 10.9916 52.1872 10.6279 52.1872 10.2835C52.1872 9.93911 52.2064 9.59469 52.2064 9.26892C52.2064 8.65642 52.1872 8.06316 52.1872 7.4699C52.1872 7.33586 52.2064 7.20183 52.2064 7.04856C52.2064 6.58933 52.2064 6.13011 52.2064 5.67088Z" fill="#1842AC"/>
</g>
</g>
</g>
<g id="Group_56">
<g id="Group_57">
<g id="Group_58">
<path id="Vector_45" d="M58.0816 17.8823C58.598 17.9015 59.0957 17.8631 59.5933 17.7098C59.8422 17.6527 60.1103 17.5565 60.3591 17.4417C60.7035 17.2891 61.0479 17.1166 61.3352 16.8485C61.5841 16.5996 61.8329 16.3316 62.0241 16.0256C62.1581 15.8152 62.1389 15.6235 61.9477 15.4516C61.7752 15.3175 61.6033 15.1835 61.4116 15.0495C61.2204 14.8962 61.0101 14.7429 60.7991 14.6095C60.6651 14.5133 60.5316 14.5133 60.3783 14.571C60.1295 14.6666 59.9378 14.8583 59.7274 14.9918C59.5741 15.0879 59.4401 15.1835 59.2682 15.2406C59.1533 15.2791 59.0385 15.3368 58.9237 15.3747C58.8276 15.3939 58.7512 15.3939 58.6557 15.4131C58.4261 15.4323 58.2151 15.3554 57.9855 15.2983C57.8328 15.2598 57.6795 15.2027 57.5455 15.1066C57.373 14.9731 57.2011 14.8391 57.0286 14.7243C56.8374 14.6095 56.6649 14.437 56.5693 14.2266C56.493 14.0733 56.3782 13.9393 56.3013 13.786C56.1865 13.4993 56.0717 13.212 55.9761 12.9054C55.8992 12.7335 55.8228 12.5418 55.8036 12.3506C55.7657 12.0633 55.7465 11.7766 55.7465 11.4893C55.7465 10.762 55.7465 10.0539 55.8992 9.34587C55.9376 9.15414 55.9761 8.94376 56.0332 8.75203C56.1101 8.52242 56.2057 8.29281 56.3013 8.06319C56.3782 7.81435 56.493 7.58474 56.6649 7.41224C56.9138 7.10628 57.2203 6.8959 57.6026 6.76186C57.6988 6.7234 57.7943 6.68494 57.8899 6.66629C58.2535 6.57013 58.598 6.57013 58.943 6.74263C59.1918 6.87667 59.3637 7.10628 59.5362 7.29743C59.6126 7.39359 59.6889 7.48916 59.7658 7.56551C59.9762 7.71878 60.0526 7.71878 60.2828 7.54628C60.3399 7.5084 60.3976 7.4507 60.4547 7.41224C60.6464 7.2782 60.8183 7.14475 61.0101 7.02994C61.2012 6.8959 61.3545 6.7234 61.4885 6.5509C61.6033 6.39822 61.6989 6.22571 61.6604 6.0538C61.5841 5.80495 61.4501 5.57476 61.2589 5.38361C61.1249 5.24957 60.9524 5.13477 60.7804 5.00073C60.5503 4.79035 60.2828 4.57997 59.9955 4.4267C59.517 4.15862 59.0001 3.94824 58.4261 3.94824C58.2151 3.94824 58.0239 3.94824 57.8328 3.98612C57.6603 4.00535 57.507 4.06305 57.3543 4.12016C56.7797 4.33112 56.2249 4.56074 55.7465 4.94362C55.3059 5.30727 54.8851 5.68956 54.5594 6.14937C54.2726 6.5509 54.0809 6.99148 53.909 7.43147C53.7749 7.75724 53.6794 8.08243 53.5832 8.38838C53.4684 8.75203 53.3728 9.11568 53.3536 9.47991C53.3344 9.6326 53.2965 9.76664 53.2773 9.91991C53.258 9.99625 53.2196 10.0732 53.2003 10.1687C53.1625 10.4747 53.1048 10.762 53.0855 11.0685C53.0476 11.4893 53.0669 11.8914 53.124 12.3122C53.1625 12.5995 53.2196 12.9054 53.2773 13.1928C53.3157 13.4031 53.3728 13.6333 53.4305 13.8437C53.4684 13.997 53.5453 14.1689 53.5832 14.3222C53.6217 14.5325 53.7173 14.7429 53.8321 14.9347C53.8898 15.0495 53.9661 15.145 54.0238 15.2598C54.2342 15.6427 54.4446 16.0448 54.7126 16.3893C55.0192 16.7914 55.4015 17.1166 55.8228 17.3654C55.9376 17.4231 56.0524 17.461 56.148 17.5187C56.359 17.595 56.5693 17.6527 56.799 17.729C57.1434 17.8246 57.507 17.9015 57.8899 17.8823C57.9476 17.8823 58.0239 17.8823 58.0816 17.8823ZM57.5455 22.3801C57.7559 22.3417 57.9476 22.323 58.1387 22.2653C58.4639 22.189 58.6749 21.9973 58.8089 21.6913C58.9045 21.4425 58.943 21.1744 58.9808 20.9063C59.0193 20.6767 59.0001 20.4471 58.9045 20.2367C58.7705 19.9109 58.5601 19.6429 58.2535 19.4902C58.1772 19.4517 58.1964 19.4133 58.2151 19.3754C58.2343 19.2413 58.2728 19.1265 58.292 19.0117C58.3305 18.8392 58.292 18.7815 58.1387 18.7437C57.9091 18.686 57.6988 18.6288 57.4691 18.5712C57.2774 18.5519 57.1434 18.6288 57.0863 18.8008C57.0286 18.954 56.9907 19.0881 56.9522 19.2413C56.8566 19.5094 56.799 19.7769 56.7226 20.045C56.6841 20.1219 56.7226 20.1983 56.7605 20.2746C56.8182 20.3515 56.8945 20.3702 56.9715 20.3894C57.1055 20.4279 57.2389 20.4663 57.373 20.5042C57.4691 20.5427 57.4878 20.5619 57.4878 20.6767C57.4691 20.7152 57.4691 20.7531 57.4691 20.7915C57.4499 20.8871 57.3922 20.9448 57.2966 20.9256C57.0863 20.9256 56.8945 20.9256 56.7034 20.8871C56.5309 20.8679 56.4161 20.9256 56.3782 21.0981C56.3013 21.3463 56.2442 21.5952 56.1865 21.8632C56.148 22.0165 56.1672 22.055 56.3013 22.1121C56.4545 22.1698 56.6078 22.2269 56.7605 22.2461C57.0286 22.3038 57.2966 22.3417 57.5455 22.3801Z" fill="#1842AC"/>
</g>
</g>
</g>
<g id="Group_59">
<g id="Group_60">
<g id="Group_61">
<path id="Vector_46" d="M71.9772 17.7868C72.1113 17.8247 72.2453 17.7868 72.3788 17.7483C72.5513 17.7099 72.7045 17.4995 72.6853 17.327C72.6468 17.193 72.609 17.0595 72.5705 16.9255C72.5128 16.7145 72.4557 16.5234 72.398 16.3316C72.3409 16.0834 72.3024 15.8345 72.2453 15.6043C72.2068 15.4324 72.1684 15.2791 72.1299 15.1066C72.092 14.8199 72.0343 14.5134 71.9772 14.2266C71.8624 13.729 71.7284 13.212 71.5943 12.7144C71.3455 11.7959 71.0967 10.8576 70.867 9.9392C70.7522 9.53708 70.6374 9.11574 70.5226 8.73344C70.3886 8.23575 70.2161 7.7573 70.0628 7.27826C69.9865 6.9723 69.8909 6.685 69.8332 6.37904C69.7569 6.03462 69.6992 5.67097 69.5651 5.3452C69.5465 5.28809 69.5465 5.2304 69.5273 5.17329C69.4696 4.92444 69.4124 4.6756 69.3355 4.42676C69.2784 4.21638 69.1828 4.12022 68.9526 4.13945C68.8378 4.15868 68.723 4.13945 68.6082 4.12022C68.4742 4.10099 68.3401 4.12022 68.2067 4.13945C67.9002 4.17791 67.575 4.23502 67.2492 4.27349C67.0773 4.29272 66.9048 4.31195 66.7329 4.33118C66.6367 4.33118 66.5604 4.38829 66.5219 4.48387C66.4456 4.61791 66.3692 4.75194 66.3308 4.88598C66.1967 5.3452 66.1011 5.78578 65.9863 6.245C65.9479 6.39827 65.9286 6.55096 65.8715 6.685C65.6606 7.43153 65.4502 8.17806 65.2398 8.92459C65.0673 9.49862 64.8954 10.054 64.7229 10.628C64.5504 11.2598 64.3592 11.8722 64.1867 12.4847C64.0719 12.9247 63.9764 13.3653 63.9 13.8053C63.8231 14.2266 63.7275 14.6282 63.6127 15.0303C63.5171 15.2984 63.4216 15.5857 63.3254 15.8724C63.2106 16.313 63.0958 16.7722 62.9617 17.2122C62.9046 17.4232 62.9431 17.5758 63.1342 17.6906C63.1919 17.7291 63.2491 17.7676 63.3254 17.7676C63.4594 17.7868 63.5935 17.8055 63.7467 17.8055C64.2444 17.7868 64.7421 17.7483 65.2398 17.7291C65.3931 17.7291 65.5265 17.7099 65.6798 17.6906C65.7946 17.6906 65.8902 17.6143 65.9286 17.4995C65.9863 17.3655 66.0434 17.2314 66.1011 17.0974C66.2159 16.8678 66.2731 16.6189 66.3115 16.3701C66.35 16.102 66.35 16.1597 66.5796 16.1597C66.924 16.1597 67.2684 16.1597 67.6128 16.1405C67.8809 16.1212 68.1682 16.0834 68.4555 16.0641C68.723 16.0449 68.9911 16.0449 69.2592 16.0449C69.3355 16.0257 69.374 16.0641 69.3932 16.1405C69.3932 16.2553 69.4317 16.3701 69.4503 16.4849C69.5273 16.887 69.6992 17.2699 69.8717 17.6528C69.9101 17.7099 69.9672 17.7676 70.0442 17.8055C70.1969 17.9203 70.3694 17.9203 70.5413 17.9016C70.7901 17.8824 71.0203 17.8631 71.2499 17.8439C71.3263 17.8439 71.4026 17.8247 71.4795 17.8247C71.6515 17.8055 71.824 17.8055 71.9772 17.7868ZM67.843 9.36458C67.9002 9.49862 67.9194 9.65189 67.9765 9.78593C68.0727 10.0732 68.1682 10.3407 68.2638 10.6088C68.4363 11.1065 68.5511 11.6426 68.6659 12.1596C68.7038 12.3315 68.7807 12.4847 68.8192 12.6572C68.8378 12.6951 68.8378 12.7144 68.8571 12.7528C68.9148 12.944 68.9148 12.944 68.7038 12.9632C68.3401 13.0209 67.9765 13.0209 67.6128 13.0588C67.4602 13.0588 67.3261 13.0588 67.1729 13.0588C67.0773 13.0588 67.058 13.0588 67.0773 12.944C67.1344 12.5803 67.1921 12.2167 67.2684 11.853C67.4025 11.1449 67.5557 10.4369 67.709 9.74746C67.7277 9.61343 67.7661 9.47997 67.8046 9.36458C67.8238 9.36458 67.843 9.36458 67.843 9.36458ZM69.1251 2.81889C69.4317 2.79966 69.6228 2.78043 69.814 2.66562C70.0442 2.51235 70.2546 2.39754 70.4078 2.16793C70.5226 2.01525 70.6567 1.84275 70.7715 1.67025C70.9049 1.4791 70.9049 1.28736 70.7522 1.09621C70.599 0.885834 70.4078 0.694102 70.2161 0.522185C70.1205 0.445259 70.0249 0.42661 69.9101 0.46449C69.8332 0.483722 69.7569 0.522185 69.6805 0.560065C69.5273 0.636991 69.374 0.732565 69.2015 0.808908C69.1251 0.847371 69.0296 0.866603 68.9526 0.923714C68.8571 0.981409 68.7615 0.981409 68.6659 0.923714C68.589 0.885834 68.5126 0.847371 68.4363 0.808908C68.3401 0.771028 68.2446 0.713334 68.1682 0.656222C68.0913 0.617759 68.015 0.560065 67.9194 0.541416C67.6898 0.483722 67.4602 0.445259 67.2305 0.407379C66.8669 0.349684 66.5027 0.368916 66.1582 0.522185C65.9671 0.598528 65.7567 0.674871 65.565 0.79026C65.2013 1.00064 64.9717 1.36429 64.7992 1.74717C64.7229 1.93832 64.7613 2.03389 64.9525 2.13005C65.2398 2.30197 65.5458 2.47447 65.8331 2.64639C65.9671 2.72331 66.1967 2.68485 66.3115 2.58928C66.3879 2.51235 66.4648 2.43601 66.5604 2.39754C66.7329 2.3212 66.8855 2.24486 67.0773 2.26351C67.2305 2.28274 67.364 2.3212 67.5173 2.3789C67.6705 2.45524 67.843 2.51235 67.9957 2.57004C68.1105 2.60851 68.2253 2.66562 68.3401 2.68485C68.6275 2.74255 68.9148 2.78043 69.1251 2.81889Z" fill="#1842AC"/>
</g>
</g>
</g>
<g id="Group_62">
<g id="Group_63">
<g id="Group_64">
<path id="Vector_47" d="M82.8289 10.494C82.8476 9.78592 82.752 9.09709 82.618 8.40767C82.5416 7.98691 82.4461 7.56556 82.3499 7.1448C82.2164 6.45538 81.8907 5.86212 81.4699 5.30732C81.2782 5.05848 81.0678 4.80964 80.7805 4.6179C80.4745 4.42676 80.1301 4.27349 79.7851 4.10099C79.7851 4.10099 79.7665 4.10099 79.7665 4.08234C79.5176 4.02464 79.2874 3.96753 79.0392 3.92907C78.6563 3.89061 78.2734 3.90984 77.8905 3.90984C77.6224 3.92907 77.3351 3.9483 77.0676 4.04387C76.6655 4.17791 76.2634 4.33118 75.919 4.59867C75.6509 4.80964 75.345 5.00079 75.1154 5.26886C74.8473 5.59405 74.6369 5.93847 74.4259 6.30212C74.2919 6.57019 74.2156 6.8575 74.12 7.12557C73.8904 7.81441 73.7563 8.50324 73.6794 9.21189C73.6415 9.51785 73.6223 9.82439 73.6031 10.1111C73.5838 10.5132 73.5454 10.9153 73.5267 11.3169C73.5075 11.7574 73.5267 12.1974 73.6223 12.638C73.6223 12.7144 73.6415 12.7907 73.6415 12.8676C73.6794 13.1543 73.6986 13.4224 73.7179 13.7097C73.7756 14.1118 73.8904 14.4755 74.0244 14.8391C74.2727 15.5472 74.6556 16.1982 75.1532 16.753C75.2302 16.8293 75.3257 16.9062 75.4021 16.9826C75.4977 17.0403 75.5746 17.1166 75.6509 17.1743C75.919 17.3847 76.2063 17.538 76.5123 17.6143C77.01 17.7676 77.5269 17.8247 78.0438 17.8439C78.4838 17.8439 78.9238 17.8439 79.3259 17.6335C79.4792 17.5758 79.6132 17.5187 79.7665 17.461C79.8428 17.4231 79.9192 17.3655 79.9961 17.3083C80.0917 17.2314 80.1872 17.1551 80.2828 17.0974C80.6086 16.8678 80.9145 16.6382 81.1249 16.2937C81.2974 16.0257 81.4886 15.7576 81.6226 15.4709C81.8714 14.9918 82.0824 14.5134 82.2351 13.997C82.4461 13.3461 82.6372 12.6951 82.7135 12.0063C82.7328 11.8338 82.7135 11.6619 82.7712 11.4894C82.8289 11.2982 82.8097 11.0873 82.8289 10.8961C82.8289 10.7621 82.8289 10.628 82.8289 10.494ZM76.0338 11.0686C75.9953 10.4561 76.0338 9.86227 76.1678 9.26901C76.3404 8.54171 76.6271 7.85287 77.1055 7.25961C77.3736 6.95307 77.7373 6.76192 78.1394 6.76192C78.5415 6.74269 78.9051 6.87673 79.2111 7.10634C79.2495 7.1448 79.2874 7.16345 79.3067 7.22115C79.5176 7.5271 79.6895 7.8721 79.8043 8.23575C79.9576 8.79055 80.0724 9.36458 80.1301 9.91996C80.1488 10.4176 80.1301 10.8961 80.1109 11.3746C80.1109 11.6811 80.0917 11.9871 80.034 12.2744C79.9384 12.9247 79.8043 13.5757 79.5747 14.2074C79.4792 14.4755 79.3259 14.7051 79.077 14.8199C78.7711 14.9918 78.4267 15.1066 78.0624 15.0303C77.8521 14.9918 77.6417 14.9539 77.4313 14.8963C77.01 14.7814 76.7419 14.5134 76.5315 14.1497C76.3211 13.7097 76.2255 13.2697 76.1486 12.8099C76.053 12.2167 75.9953 11.6426 76.0338 11.0686Z" fill="#1842AC"/>
</g>
</g>
</g>
</g>
</g>
</g>
</g>
<defs>
<clipPath id="clip0_1010_3436">
<rect width="1440" height="864" fill="white" transform="translate(-62 -10)"/>
</clipPath>
</defs>
</svg>
