<svg width="95" height="32" viewBox="0 0 95 32" fill="none" xmlns="http://www.w3.org/2000/svg">
<path d="M23.7279 2.03741C22.5004 1.36436 21.1771 0.863883 19.7991 0.539436C17.3783 -0.140521 14.9575 -0.154327 12.6768 0.366858C12.2904 0.456599 11.8904 0.563597 11.2817 0.753433C4.69965 2.63108 -0.275386 8.50563 0.0118328 15.5434C0.220408 19.6127 2.37797 23.0781 5.19886 25.8014C5.25357 25.8808 5.54079 26.1396 5.86904 26.4227C6.22464 26.7402 6.59051 27.0508 6.95979 27.3442C6.72386 27.4167 6.49134 27.4133 6.26225 27.3684C5.97162 27.3028 5.65704 27.1682 5.23306 26.9369C5.11338 26.8679 4.9937 26.8023 4.87745 26.7402C4.24147 26.3743 3.84825 26.0326 3.84825 26.0326C3.84825 26.0326 3.87219 26.1051 4.20728 26.5607C4.22437 26.5814 4.23805 26.6056 4.25173 26.6298C4.29618 26.7057 4.37824 26.8092 4.49449 26.9404C4.6381 27.1268 4.86377 27.3546 5.12364 27.5962C5.75962 28.2209 6.46057 28.7939 7.21281 29.3047C7.21623 29.3082 7.21965 29.3116 7.21965 29.3116C8.33775 30.1158 9.57894 30.6784 10.762 31.0719C12.3315 31.6173 13.9453 31.921 15.5524 31.9866C15.6276 31.99 15.6858 31.9935 15.7234 31.9935C15.7541 31.9935 15.7712 31.9935 15.7712 31.9935C21.0403 32.1419 26.1966 29.7534 29.3081 25.1007C34.331 17.352 31.6366 6.40708 23.7245 2.03396L23.7279 2.03741Z" fill="#0049EA"/>
<path d="M27.8654 8.82448C27.6328 8.47933 27.3319 8.06859 26.7028 7.24367C24.2443 4.17869 20.8661 2.02146 16.722 1.35876C16.0552 1.31389 15.3543 1.30699 14.6533 1.34496C9.65776 1.56586 5.41444 4.2201 3.06199 8.83139C0.709531 13.4427 1.65667 19.0238 5.14774 22.9517C11.1725 29.6857 21.2764 26.6483 25.2154 19.262C25.2565 23.6938 21.9808 26.9141 18.4555 28.8573C18.3085 28.9367 16.3219 30.0101 15.5628 30.0032C15.5628 30.0032 17.2075 30.2276 18.6094 29.9239C18.6128 29.9239 18.6197 29.9239 18.6231 29.9239C22.6134 29.344 26.2549 26.9831 28.409 23.214C30.9803 18.5889 30.676 12.9836 27.8654 8.82448Z" fill="#358E38"/>
<path d="M12.7226 8.09076C12.7226 8.09076 12.7157 8.09076 12.7089 8.09421C8.77332 9.51625 7.54239 13.6029 8.27069 17.3444C8.2912 17.4479 8.18521 17.5308 8.09289 17.4824C5.5045 16.1674 5.59682 12.3362 6.40718 9.66122C6.83459 8.43937 8.09631 6.03018 11.6523 4.38034C11.6523 4.38034 11.0471 4.13528 10.0214 4.38724C9.7991 4.44246 9.55633 4.52185 9.29305 4.62885V4.62195C9.29305 4.62195 9.25886 4.6392 9.24176 4.64956C8.89983 4.79797 8.52713 4.99817 8.12708 5.26739C3.98976 7.91818 3.40849 12.6434 3.40849 12.6434C2.59813 17.6516 5.65153 23.0809 11.1189 24.5305C15.6084 25.7213 20.7681 23.6021 22.3341 19.1323C22.594 18.3143 22.7752 17.4272 22.8265 16.5402C23.1958 10.9659 18.2071 6.54101 12.7192 8.08386L12.7226 8.09076Z" fill="#6200B0"/>
<path d="M20.7403 13.67C20.7403 13.67 20.7403 13.6631 20.7369 13.6562C20.7369 13.6562 20.7369 13.6562 20.7369 13.6493C19.8786 11.6267 18.3194 10.505 18.3194 10.505C15.7858 8.50996 13.0127 9.53852 13.0127 9.53852C10.7184 10.1184 9.07716 12.1755 8.78652 14.7124C8.45485 18.0432 12.1511 20.2832 15.1429 20.0899C12.6503 23.8383 7.52481 20.5904 5.18945 18.2606C6.64948 23.9557 13.8812 25.9645 18.2955 22.368C19.7863 21.1634 20.7984 19.5342 21.1438 17.7567C21.1438 17.7498 21.1438 17.7429 21.1472 17.7325C21.1506 17.7084 21.1574 17.6842 21.1609 17.66C21.1677 17.6255 21.1745 17.5876 21.1814 17.553C21.4446 16.0344 21.1916 14.7297 20.7437 13.67H20.7403Z" fill="#EE7029"/>
<path d="M86.6587 11.7601C84.7844 11.7601 83.4229 10.434 83.4229 8.57733C83.4229 6.72954 84.7844 5.39453 86.6587 5.39453C88.5418 5.39453 89.9034 6.7207 89.9034 8.57733C89.9034 10.4251 88.5418 11.7601 86.6587 11.7601ZM86.6587 10.9556C88.0202 10.9556 88.9751 9.9919 88.9751 8.57733C88.9751 7.16275 88.0202 6.19023 86.6587 6.19023C85.306 6.19023 84.3423 7.16275 84.3423 8.57733C84.3423 9.9919 85.306 10.9556 86.6587 10.9556Z" fill="#FAF0E6"/>
<path d="M83.1275 11.6731H78.7246V5.48438H79.591V10.8863H83.1275V11.6731Z" fill="#FAF0E6"/>
<path d="M73.4435 8.8882V10.8863H77.422V11.6731H72.5859V5.48438H77.3336V6.26239H73.4435V8.10134H76.9004V8.8882H73.4435Z" fill="#FAF0E6"/>
<path d="M68.8147 5.48438C70.4238 5.48438 71.3963 6.27123 71.3963 7.57971C71.3963 8.91472 70.4061 9.70158 68.797 9.70158H67.3206V11.6731H66.4453V5.48438H68.8147ZM67.3206 8.92356H68.7882C69.8845 8.92356 70.5211 8.48151 70.5211 7.57971C70.5211 6.70445 69.8845 6.26239 68.797 6.26239H67.3206V8.92356Z" fill="#FAF0E6"/>
<path d="M58.5841 8.8882V10.8863H62.5626V11.6731H57.7266V5.48438H62.4742V6.26239H58.5841V8.10134H62.041V8.8882H58.5841Z" fill="#FAF0E6"/>
<path d="M51.4961 5.48438H56.6593V6.26239H54.5197V11.6731H53.6356V6.26239H51.4961V5.48438Z" fill="#FAF0E6"/>
<path d="M47.8755 11.7601C46.0012 11.7601 44.6396 10.434 44.6396 8.57733C44.6396 6.72954 46.0012 5.39453 47.8755 5.39453C49.7586 5.39453 51.1202 6.7207 51.1202 8.57733C51.1202 10.4251 49.7586 11.7601 47.8755 11.7601ZM47.8755 10.9556C49.237 10.9556 50.1919 9.9919 50.1919 8.57733C50.1919 7.16275 49.237 6.19023 47.8755 6.19023C46.5228 6.19023 45.5591 7.16275 45.5591 8.57733C45.5591 9.9919 46.5228 10.9556 47.8755 10.9556Z" fill="#FAF0E6"/>
<path d="M41.7398 11.6731H40.5993L38 5.48438H38.9372L41.1563 10.7714H41.1828L43.4108 5.48438H44.3391L41.7398 11.6731Z" fill="#FAF0E6"/>
<path d="M94.8497 26.3866H90.6063L90.2015 25.127H86.6029L86.183 26.3866H82.0146L86.1081 15.8906H90.7563L94.8497 26.3866ZM88.4172 19.7141L87.4575 22.578H89.3768L88.4472 19.7141H88.4172Z" fill="#FAF0E6"/>
<path d="M76.0277 15.8906H80.0761L80.6759 26.3866H76.6275L76.3276 21.9933L74.6632 26.4016H73.1638L71.4245 21.9933L71.1246 26.3866H67.0762L67.6759 15.8906H71.7394L73.8685 20.5538L76.0277 15.8906Z" fill="#FAF0E6"/>
<path d="M64.982 26.3866H60.9336V15.8906H64.982V26.3866Z" fill="#FAF0E6"/>
<path d="M58.969 26.3866H50.3623V15.8906H54.3658V23.1178H58.969V26.3866Z" fill="#FAF0E6"/>
<path d="M44.1026 26.6098C40.4141 26.6098 38 24.4357 38 21.1369C38 17.8382 40.4141 15.6641 44.1026 15.6641C45.5121 15.6641 46.8316 16.0689 48.0911 16.9386L46.4117 19.8624C45.662 19.3077 44.9873 19.0378 44.1776 19.0378C42.9031 19.0378 42.0634 19.8624 42.0634 21.1369C42.0634 22.4115 42.9031 23.2361 44.1776 23.2361C44.9423 23.2361 45.662 22.9662 46.4117 22.4115L48.0911 25.3353C46.8316 26.205 45.5121 26.6098 44.1026 26.6098Z" fill="#FAF0E6"/>
</svg>
