<svg width="97" height="32" viewBox="0 0 97 32" fill="none" xmlns="http://www.w3.org/2000/svg">
<path d="M4.16447 10.476C3.76113 11.5231 2.74829 12.0072 1.95506 12.8004C1.20215 13.5548 0.634489 14.7618 0.338706 15.7702C-0.276762 17.8646 -0.0541777 20.1531 1.01243 22.0623C2.00286 23.837 3.69241 25.0754 5.64786 25.5923C9.38847 26.5797 13.8372 24.8244 16.9847 27.0742C18.8192 28.3873 19.7618 30.8342 21.8427 31.7036C24.4555 32.7956 27.4492 30.7042 28.6532 28.1393C30.289 24.6526 29.7228 20.4923 28.3066 16.91C26.889 13.3277 24.6915 10.1144 22.99 6.65916C21.8965 4.43929 20.8673 1.9565 18.7101 0.741996C16.5366 -0.484459 13.7744 -0.0437653 11.5068 1.00044C9.6006 1.87883 7.75719 3.15159 6.33653 4.7052C5.42677 5.7001 4.70524 6.90863 4.49311 8.24264C4.39601 8.84915 4.40498 9.47358 4.28099 10.0756C4.2526 10.2115 4.21376 10.3445 4.16447 10.4745V10.476Z" fill="#FF4C15"/>
<path d="M26.6633 26.1423C26.0777 27.318 25.0365 28.3547 23.8519 28.894C22.9167 29.3198 21.8905 29.4363 20.9225 29.0524C19.1776 28.3622 18.3426 26.4053 16.7934 25.3491C14.1508 23.54 10.4655 24.9278 7.36871 24.0719C5.69709 23.6103 4.27644 22.5332 3.44585 21.0199C2.54954 19.3886 2.3658 17.4377 2.88416 15.6465C2.95886 15.3881 3.04699 15.1356 3.14858 14.8861C3.41448 14.2303 3.78645 13.5701 4.23909 13.098C4.89937 12.4123 5.74191 11.9776 6.10043 11.0947C6.14525 10.9857 6.1811 10.8737 6.20948 10.7586C6.33049 10.2522 6.34841 9.73086 6.45 9.22444C6.66959 8.12198 7.28954 7.12856 8.06485 6.3159C9.28384 5.04762 10.8434 4.0333 12.4508 3.36106C14.3525 2.55588 16.647 2.26158 18.4636 3.31176C20.2502 4.33954 21.1301 6.39209 22.0548 8.23849C23.4979 11.1216 25.3189 13.8195 26.4811 16.7983C26.741 17.463 26.9591 18.1413 27.1354 18.8344C27.7568 21.2933 27.7733 23.912 26.6648 26.1423H26.6633Z" fill="#FE5C29"/>
<path d="M24.6777 24.1512C24.1773 25.0714 23.3228 25.8616 22.3638 26.2754C21.6109 26.6011 20.7878 26.6937 20.0065 26.4099C18.5993 25.899 17.8688 24.4365 16.6079 23.6343C14.4658 22.2704 11.5512 23.2862 9.09386 22.5632C7.70457 22.1539 6.5558 21.2397 5.88357 19.9908C5.15755 18.6374 5.01265 17.024 5.43242 15.5361C5.49367 15.3225 5.56388 15.1119 5.64604 14.9042C5.86116 14.3605 6.16142 13.8137 6.52443 13.4104C7.05027 12.8293 7.72399 12.4438 8.0392 11.7268C8.07804 11.6387 8.1109 11.5475 8.13779 11.4534C8.25581 11.0426 8.30062 10.6243 8.40519 10.2165C8.63076 9.3441 9.14764 8.56281 9.79 7.93838C10.8058 6.95094 12.086 6.207 13.3947 5.73195C14.9318 5.17325 16.7558 5.01939 18.2168 5.89329C19.6315 6.73881 20.365 8.35665 21.1209 9.82959C22.307 12.1361 23.7501 14.3201 24.6583 16.6954C24.863 17.2302 25.0333 17.7754 25.1707 18.3311C25.6473 20.3015 25.6159 22.4078 24.6763 24.1512H24.6777Z" fill="#FD7B51"/>
<path d="M22.6887 22.1685C22.2764 22.8348 21.6071 23.3741 20.8722 23.6624C20.3 23.8865 19.6801 23.9552 19.0855 23.7714C18.0144 23.4383 17.39 22.4688 16.4175 21.9235C14.7787 21.0048 12.6276 21.6442 10.8155 21.0571C9.71007 20.7001 8.83019 19.9501 8.3178 18.9627C7.7591 17.8871 7.65602 16.6114 7.97869 15.4253C8.02351 15.2624 8.07729 15.0921 8.14302 14.9233C8.30734 14.4901 8.53292 14.0569 8.80928 13.7223C9.20216 13.2487 9.7026 12.9096 9.97598 12.3584C10.0103 12.2897 10.0402 12.2194 10.0671 12.1477C10.1821 11.8325 10.2538 11.5158 10.3629 11.2081C10.5929 10.5657 11.0097 9.99809 11.5191 9.55889C12.3318 8.85529 13.3297 8.37427 14.338 8.10239C15.5107 7.78569 16.8641 7.77373 17.9696 8.47286C19.0153 9.13314 19.5994 10.3208 20.1865 11.4187C21.1142 13.1546 22.1793 14.8217 22.8336 16.5949C22.983 16.9998 23.1055 17.4106 23.2026 17.8304C23.5417 19.3167 23.4655 20.9152 22.6917 22.1685H22.6887Z" fill="#FD8B64"/>
<path d="M20.6854 20.2139C20.3583 20.6247 19.8757 20.9175 19.3663 21.0773C18.975 21.2013 18.5582 21.2461 18.1518 21.1625C17.4184 21.0116 16.9015 20.5306 16.2143 20.2423C15.0805 19.7642 13.6957 20.0226 12.523 19.582C12.3303 19.5103 12.1451 19.4221 11.9673 19.3146C11.791 19.2085 11.6252 19.0845 11.4728 18.9471C11.3204 18.8081 11.1815 18.6573 11.0575 18.4915C10.9335 18.3256 10.826 18.1509 10.7363 17.9656C10.3479 17.1679 10.2822 16.2312 10.5093 15.3454C10.5392 15.2244 10.578 15.0974 10.6228 14.9719C10.7334 14.6493 10.8842 14.346 11.0769 14.0652C11.3369 13.6992 11.667 13.4064 11.8956 13.0225C11.924 12.9746 11.9509 12.9254 11.9777 12.8746C12.0898 12.655 12.1869 12.4413 12.3019 12.2352C12.4154 12.032 12.5499 11.8438 12.7067 11.672C12.8636 11.5002 13.0369 11.3478 13.2281 11.2149C13.8406 10.7951 14.5517 10.5755 15.2627 10.5068C16.0679 10.4291 16.9568 10.5621 17.7052 11.0864C18.3804 11.5615 18.8166 12.3174 19.2334 13.0434C19.9041 14.2026 20.5958 15.3559 20.9932 16.5255C21.0873 16.7989 21.162 17.0768 21.2187 17.3606C21.4159 18.363 21.2934 19.4505 20.6854 20.2139Z" fill="#FC9B78"/>
<path d="M13.0956 15.1468C13.2957 14.4701 13.6976 13.8322 14.2354 13.3855C15.2781 12.5176 16.4732 12.9418 17.4352 13.8262C18.3958 14.7091 19.1233 16.0505 19.2293 17.0171C19.2861 17.5324 19.1128 18.1076 18.6751 18.3854C18.4331 18.5393 18.1388 18.5871 17.8535 18.62C17.2664 18.6872 16.6285 18.729 16.0026 18.6857C15.3767 18.6424 14.7627 18.5109 14.2234 18.2316C13.0104 17.6027 12.7535 16.315 13.097 15.1468H13.0956Z" fill="#FBBAA0"/>
<path d="M26.5352 3.99805H28.5291L30.8831 9.04522H30.904L33.258 3.99805H35.2624L31.9584 10.5435H29.8157L26.5352 3.99805Z" fill="#FAF0E6"/>
<path d="M37.086 11.1537C36.5079 10.8341 36.0576 10.3881 35.7393 9.81572C35.4209 9.24337 35.2617 8.57934 35.2617 7.81621C35.2617 7.05307 35.4209 6.39648 35.7393 5.82165C36.0576 5.24682 36.5037 4.80083 37.0776 4.47872C37.6515 4.1591 38.3154 3.99805 39.0715 3.99805C39.8276 3.99805 40.502 4.1591 41.078 4.47872C41.6539 4.79835 42.1022 5.24434 42.4205 5.81669C42.7389 6.38904 42.898 7.05307 42.898 7.81621C42.898 8.57934 42.7368 9.24337 42.4142 9.81572C42.0917 10.3881 41.6456 10.8316 41.0717 11.1537C40.4978 11.4733 39.8318 11.6344 39.0694 11.6344C38.307 11.6344 37.6619 11.4733 37.0839 11.1537H37.086ZM40.2695 9.89749C40.6172 9.69927 40.8853 9.42177 41.078 9.06002C41.2707 8.69827 41.367 8.28449 41.367 7.81868C41.367 7.35287 41.2707 6.92918 41.078 6.57239C40.8853 6.2156 40.6172 5.9381 40.2695 5.73988C39.9218 5.54166 39.5239 5.44503 39.0715 5.44503C38.6191 5.44503 38.2295 5.54414 37.886 5.73988C37.5405 5.9381 37.2745 6.21312 37.0818 6.57239C36.8891 6.92918 36.7948 7.34544 36.7948 7.81868C36.7948 8.29193 36.8912 8.70075 37.0818 9.06002C37.2724 9.41929 37.5426 9.69927 37.886 9.89749C38.2295 10.0957 38.6254 10.1923 39.0715 10.1923C39.5176 10.1923 39.9218 10.0932 40.2695 9.89749Z" fill="#FAF0E6"/>
<path d="M45.3167 5.32123H42.8984V3.99805H49.4439V5.32123H47.0256V10.5435H45.3191V5.32123H45.3167Z" fill="#FAF0E6"/>
<path d="M50.5352 3.99805H56.9741V5.22077H52.3741V6.65485H56.5533V7.73893H52.3741V9.31165H57.0806V10.5435H50.5378V4.00032L50.5352 3.99805Z" fill="#FAF0E6"/>
<path d="M60.3555 3.99805H64.2764C64.8139 3.99805 65.2819 4.08668 65.6805 4.26395C66.0791 4.44123 66.3814 4.69577 66.5896 5.02759C66.7979 5.3594 66.9009 5.74349 66.9009 6.18667C66.9009 6.62985 66.7956 7.0253 66.5851 7.36394C66.3747 7.7003 66.0701 7.95484 65.676 8.12757C65.2796 8.30029 64.8116 8.38438 64.2675 8.38438H61.9946V10.5435H60.3555V4.00032V3.99805ZM63.9137 7.23212C64.1914 7.23212 64.431 7.19121 64.6325 7.10939C64.834 7.02757 64.9908 6.90485 65.0983 6.74576C65.208 6.58667 65.2617 6.39576 65.2617 6.17531C65.2617 5.85031 65.1453 5.59576 64.9124 5.41168C64.6795 5.22759 64.3503 5.13668 63.9204 5.13668H61.9834V7.23212H63.9114H63.9137Z" fill="#FAF0E6"/>
<path d="M67.9922 3.99805H73.358V5.22077H69.5246V6.65485H73.0073V7.73893H69.5246V9.31165H73.4467V10.5435H67.9944V4.00032L67.9922 3.99805Z" fill="#FAF0E6"/>
<path d="M74.5352 3.99805H76.324V9.20209H79.9897V10.5435H74.5352V3.99805Z" fill="#FAF0E6"/>
<path d="M82.0731 11.1537C81.4125 10.8341 80.8979 10.3881 80.534 9.81572C80.1702 9.24337 79.9883 8.57934 79.9883 7.81621C79.9883 7.05307 80.1702 6.39648 80.534 5.82165C80.8979 5.24682 81.4077 4.80083 82.0636 4.47872C82.7194 4.1591 83.4782 3.99805 84.3423 3.99805C85.2064 3.99805 85.9772 4.1591 86.6354 4.47872C87.2937 4.79835 87.8059 5.24434 88.1698 5.81669C88.5336 6.38904 88.7155 7.05307 88.7155 7.81621C88.7155 8.57934 88.5312 9.24337 88.1626 9.81572C87.794 10.3881 87.2841 10.8316 86.6282 11.1537C85.9724 11.4733 85.2112 11.6344 84.3399 11.6344C83.4686 11.6344 82.7314 11.4733 82.0708 11.1537H82.0731ZM85.7115 9.89749C86.1088 9.69927 86.4152 9.42177 86.6354 9.06002C86.8556 8.69827 86.9657 8.28449 86.9657 7.81868C86.9657 7.35287 86.8556 6.92918 86.6354 6.57239C86.4152 6.2156 86.1088 5.9381 85.7115 5.73988C85.3141 5.54166 84.8593 5.44503 84.3423 5.44503C83.8253 5.44503 83.3801 5.54414 82.9875 5.73988C82.5926 5.9381 82.2886 6.21312 82.0684 6.57239C81.8481 6.92918 81.7404 7.34544 81.7404 7.81868C81.7404 8.29193 81.8505 8.70075 82.0684 9.06002C82.2886 9.42177 82.595 9.69927 82.9875 9.89749C83.3801 10.0957 83.8325 10.1923 84.3423 10.1923C84.8522 10.1923 85.3141 10.0932 85.7115 9.89749Z" fill="#FAF0E6"/>
<path d="M31.7453 28.0006C30.5301 28.0006 29.3814 27.7678 28.2915 27.3047C27.2017 26.8417 26.3242 26.1356 25.6539 25.1915C24.9836 24.2475 24.6484 23.0937 24.6484 21.7301C24.6484 20.3665 24.9861 19.1999 25.6615 18.2584C26.3369 17.3169 27.2196 16.6185 28.3069 16.1529C29.3942 15.6898 30.5454 15.457 31.7606 15.457C32.5972 15.457 33.4005 15.5287 34.1757 15.6719C34.9483 15.8152 35.593 15.9892 36.1073 16.1964L36.0382 20.3895C35.6724 20.0928 35.1556 19.8395 34.493 19.6322C33.8278 19.425 33.1754 19.3227 32.5333 19.3227C31.7888 19.3227 31.1262 19.4174 30.548 19.6067C29.9698 19.796 29.5144 20.0723 29.1818 20.4407C28.8492 20.8065 28.683 21.2491 28.683 21.7634C28.683 22.2776 28.8595 22.733 29.2151 23.0937C29.5707 23.4544 30.0363 23.7179 30.6145 23.8842C31.1927 24.0505 31.8374 24.1324 32.5461 24.1324C33.3929 24.1324 34.1885 24.0019 34.933 23.7358C35.6775 23.4723 36.3017 23.1295 36.8057 22.7048V27.2229C35.9921 27.4633 35.1965 27.6527 34.4188 27.7908C33.641 27.929 32.7456 27.998 31.7376 27.998L31.7453 28.0006Z" fill="#FAF0E6"/>
<path d="M38.082 15.8984H42.8508V24.0391H48.277V27.7385H38.082V15.8984Z" fill="#FAF0E6"/>
<path d="M49.4453 15.8984H54.1987V27.7385H49.4453V15.8984Z" fill="#FAF0E6"/>
<path d="M55.9205 27.7436C56.074 27.2601 56.1994 26.6333 56.2992 25.8607C56.3989 25.0881 56.4475 24.3334 56.4475 23.5991V20.3756C56.4475 19.6618 56.4015 18.9199 56.3068 18.1473C56.2122 17.3747 56.0843 16.7351 55.9205 16.2311H61.6589L64.1737 20.8182C64.2607 20.9384 64.34 21.0612 64.4117 21.1891C64.4833 21.3145 64.5524 21.4373 64.6163 21.5601C64.7033 21.7904 64.8057 22.0334 64.9208 22.2918C65.0359 22.5502 65.1434 22.8367 65.2406 23.154H65.4376C65.5476 22.7804 65.6627 22.4632 65.783 22.1997C65.9032 21.9362 66.0362 21.6343 66.1769 21.294C66.2204 21.2275 66.2716 21.1585 66.333 21.0791C66.3944 21.0024 66.4456 20.9103 66.4891 20.8003L69.0372 16.2285H74.6451C74.4813 16.7325 74.3534 17.367 74.2664 18.1268C74.1794 18.8892 74.1359 19.6362 74.1359 20.3705V23.594C74.1359 24.3282 74.182 25.083 74.2767 25.8556C74.3688 26.6282 74.4941 27.255 74.6476 27.7385H69.3365C69.4567 27.2882 69.5693 26.6487 69.6742 25.8146C69.7791 24.9806 69.8303 24.2029 69.8303 23.4789V21.1431H69.6L65.8188 27.7539H64.6675L60.917 21.1431H60.7532V23.4789C60.7532 24.2233 60.8019 25.0139 60.9016 25.8453C61.0014 26.6794 61.1216 27.3087 61.2623 27.736H55.918L55.9205 27.7436Z" fill="#FAF0E6"/>
<path d="M80.4425 15.8984H86.1322L90.901 27.7385H85.9506L85.3596 25.9297H81.1L80.4757 27.7385H75.5586L80.4425 15.8984ZM84.6023 23.1334L83.2541 19.0068H83.2208L81.824 23.1334H84.6023Z" fill="#FAF0E6"/>
</svg>
