<svg width="72" height="72" viewBox="0 0 72 72" fill="none" xmlns="http://www.w3.org/2000/svg">
<g id="Cobogo-74 3" clip-path="url(#clip0_460_11372)">
<rect id="Rectangle 41" width="72" height="72" fill="#F6B7C1"/>
<path id="Vector" d="M33.78 41.1658V27.3964C33.78 26.5258 33.7278 25.654 33.7878 24.784C33.8454 23.9464 34.0836 23.1538 34.5012 22.423C35.2254 21.157 36.429 20.1928 37.8252 19.768C38.3688 19.6024 38.9364 19.5196 39.5046 19.5196C40.989 19.5196 42.4368 20.104 43.5048 21.1354C44.6094 22.2016 45.1422 23.5768 45.2604 25.0846C45.3258 25.9186 45.2994 26.7592 45.2994 27.5962V32.4676C45.2994 33.82 45.2586 35.1724 45.2538 36.5254C45.2502 37.4908 45.1278 38.4676 45.2274 39.4312C45.279 39.9334 45.4584 40.4542 45.8568 40.7638C46.3698 41.1622 47.2026 41.1598 47.6682 40.69C47.9112 40.4446 48.0888 40.0048 48.1194 39.661C48.231 38.4058 48.1194 37.2274 48.1194 35.9668V21.7048C48.1194 20.6416 48.1074 19.5574 48.1308 18.4864C48.1482 17.6758 48.207 16.8958 48.4836 16.1266C48.9786 14.7538 50.0016 13.5988 51.303 12.9388C52.1064 12.5314 53.0028 12.3196 53.904 12.3196C55.386 12.3196 56.8308 12.9022 57.8988 13.93C58.9608 14.9524 59.6202 16.3894 59.6604 17.8672C59.6838 18.715 59.6394 19.5676 59.6394 20.416V48.5362C59.6394 48.9022 59.6394 49.2676 59.6394 49.6336C59.6394 50.5744 59.7276 51.7384 60.945 51.8356C61.5204 51.8818 62.0364 51.5572 62.307 51.0586C62.628 50.4676 62.4942 49.7752 62.4942 49.1332C62.4942 47.2486 62.5194 45.3646 62.5194 43.4806V33.6976C62.5194 32.83 62.4702 31.9528 62.67 31.1014C62.8374 30.3886 63.144 29.7112 63.5664 29.1136C64.4154 27.913 65.7156 27.0652 67.1556 26.7688C67.5012 26.6974 67.8534 26.6578 68.2062 26.6494C68.2548 26.6482 68.3034 26.6476 68.3526 26.6476H71.9988V30.9676H68.3526C68.3304 30.9676 68.3076 30.9682 68.2854 30.9694C67.5336 31.003 66.93 31.5988 66.8958 32.341C66.8946 32.3656 66.894 32.3908 66.894 32.4154V34.6768C66.894 36.5986 66.8394 38.5204 66.8388 40.4416C66.8388 40.6846 66.8388 40.9276 66.8388 41.1706V48.2362C66.8388 49.6528 66.9558 51.133 66.4338 52.4806C66.3018 52.8208 66.1374 53.1484 65.9436 53.4568C65.7516 53.7634 65.5302 54.0514 65.2842 54.3166C65.0388 54.5812 64.7682 54.823 64.4778 55.0378C64.1856 55.2532 63.873 55.4416 63.5454 55.5982C63.213 55.7572 62.8656 55.8844 62.5092 55.9768C62.1432 56.0716 61.7682 56.1298 61.3908 56.1514C61.2804 56.1574 61.1706 56.161 61.0602 56.161C59.577 56.161 58.131 55.5778 57.063 54.5482C56.3382 53.8498 55.8126 52.9594 55.533 51.9934C55.224 50.926 55.3182 49.8526 55.3182 48.7576V20.362C55.3182 19.573 55.4694 18.6526 55.3188 17.8804C55.1832 17.185 54.6318 16.639 53.9028 16.639C53.4462 16.639 53.0094 16.861 52.74 17.2294C52.2846 17.8516 52.4622 18.7714 52.4622 19.492C52.4622 20.4796 52.4574 21.4672 52.455 22.4548C52.4502 24.43 52.4454 26.4052 52.4412 28.3798C52.4412 30.5026 52.431 32.626 52.4262 34.7494C52.4214 36.7156 52.6518 38.8558 52.3098 40.7938C52.206 41.3818 52.0146 41.953 51.7164 42.4702C51.189 43.3852 50.4102 44.149 49.4832 44.6566C48.639 45.1186 47.6832 45.361 46.7214 45.361C44.2446 45.361 41.8974 43.6708 41.2356 41.2648C40.8336 39.8032 40.9788 38.3062 40.9788 36.8152C40.9788 34.8784 40.9602 32.9392 40.9566 31.0054C40.9566 29.9164 40.953 28.8268 40.9512 27.7378C40.95 27.1876 40.9494 26.6374 40.9482 26.0872C40.9476 25.6318 41.0088 25.1392 40.8222 24.7096C40.5972 24.1924 40.0686 23.8396 39.5034 23.8396C39.0264 23.8396 38.5722 24.0826 38.3064 24.4786C38.07 24.8308 38.0508 25.279 38.0592 25.6894C38.0928 27.2512 38.0994 28.8112 38.0988 30.373C38.0988 30.8782 38.0988 31.3828 38.0988 31.888V44.5198C38.0988 45.5572 38.1462 46.621 38.0022 47.6596C37.896 48.4258 37.6008 49.1716 37.1868 49.8238C36.3786 51.0964 35.076 52.0216 33.6054 52.3564C33.1842 52.4524 32.7528 52.5004 32.3208 52.5004C30.087 52.5004 28.0074 51.1636 27.0786 49.1314C26.5476 47.9692 26.5788 46.723 26.5788 45.4786V24.3874C26.5788 23.3188 26.5806 22.2292 26.5842 21.1522C26.586 20.602 26.5884 20.0518 26.592 19.5016C26.595 18.9772 26.6676 18.4006 26.598 17.881C26.505 17.185 25.8582 16.6384 25.1634 16.6384C24.744 16.6384 24.3396 16.8256 24.0672 17.1442C23.7186 17.5528 23.7288 18.0784 23.7306 18.5854C23.733 19.2646 23.7306 19.9438 23.7306 20.6224C23.7306 21.214 23.7288 21.805 23.7288 22.3966C23.7288 22.6924 23.7288 22.9882 23.73 23.2834C23.7312 23.6494 23.6988 24.0148 23.6988 24.382C23.6988 24.7846 23.6988 25.1878 23.6988 25.5904V51.6124C23.6988 52.0318 23.6988 52.4512 23.6988 52.8706C23.6988 53.7676 23.73 54.64 23.4834 55.5124C23.283 56.221 22.9434 56.8888 22.491 57.4696C21.5796 58.6384 20.2254 59.4244 18.7566 59.626C18.4956 59.662 18.2328 59.6794 17.9694 59.6794C17.5356 59.6794 17.1018 59.6308 16.6788 59.5336C16.3146 59.4496 15.9588 59.3296 15.618 59.176C15.2826 59.0248 14.9616 58.8412 14.661 58.6282C14.3604 58.4152 14.0844 58.177 13.8312 57.9124C13.578 57.6478 13.35 57.3598 13.1514 57.052C12.951 56.7418 12.7812 56.4124 12.6444 56.0698C12.5052 55.7206 12.4008 55.3582 12.333 54.9886C12.27 54.646 12.2388 54.298 12.2388 53.9494C12.2388 53.9158 12.2388 53.8822 12.24 53.8486C12.2394 53.8384 12.2388 53.8288 12.2388 53.8186V38.0128C12.2322 38.0152 12.2262 38.0164 12.2196 38.0182V35.5744C12.2196 34.5022 12.2892 33.4162 12.222 32.3452C12.1746 31.597 11.5392 30.9982 10.7874 30.9982C10.2672 30.9982 9.8028 31.2772 9.555 31.7338C9.312 32.1814 9.3552 32.6722 9.3552 33.163C9.3576 33.1798 9.3588 33.1966 9.3588 33.214V46.0786C9.3588 46.93 9.3372 47.7466 9.0666 48.562C8.835 49.2592 8.4678 49.9102 7.9926 50.47C7.0302 51.604 5.6418 52.3348 4.161 52.4782C4.0218 52.4914 3.8826 52.4998 3.7434 52.5034C3.6954 52.5046 3.6474 52.5052 3.5988 52.5052H0V48.1852H3.6C3.6222 48.1852 3.6444 48.1846 3.6666 48.1834C4.4088 48.1498 5.0046 47.554 5.0382 46.8118C5.0394 46.7872 5.04 46.762 5.04 46.7374V36.4402C5.04 35.6284 5.04 34.8172 5.04 34.0054C5.04 33.124 4.965 32.2162 5.1318 31.3456C5.2704 30.6238 5.5488 29.9314 5.9478 29.3146C6.7404 28.0888 7.9938 27.1912 9.4116 26.8432C9.8616 26.7328 10.3248 26.6776 10.788 26.6776C12.2712 26.6776 13.7184 27.2614 14.7864 28.291C15.8598 29.326 16.4856 30.7474 16.545 32.2354C16.5594 32.5906 16.56 32.9452 16.56 33.301V51.5704C16.56 52.0672 16.5702 52.5646 16.5672 53.0614C16.5636 53.6668 16.4526 54.3694 16.8726 54.8692C17.1432 55.1914 17.5494 55.3804 17.97 55.3804C18.411 55.3804 18.8346 55.1722 19.104 54.823C19.4736 54.3448 19.38 53.7622 19.38 53.2024V18.6898C19.38 17.1076 19.713 15.6136 20.7522 14.3764C21.7014 13.246 23.073 12.5098 24.5412 12.352C24.7482 12.3298 24.9564 12.3184 25.1646 12.3184C26.724 12.3184 28.2396 12.9646 29.3202 14.0896C29.9298 14.7244 30.384 15.5014 30.6492 16.3402C30.927 17.2204 30.9006 18.061 30.9006 18.9682C30.9006 19.2304 30.9006 19.4932 30.9006 19.7554V44.6752C30.9006 45.1966 30.8958 45.7186 30.9036 46.24C30.9114 46.8142 31.0206 47.6992 31.554 47.956C32.0874 48.2128 32.7942 48.268 33.219 47.8426C33.7206 47.3398 33.7806 46.7374 33.7806 46.0798C33.7806 45.2236 33.7806 42.016 33.7806 41.1598" fill="#E02437"/>
</g>
<defs>
<clipPath id="clip0_460_11372">
<rect width="72" height="72" fill="white"/>
</clipPath>
</defs>
</svg>
