<svg width="96" height="96" viewBox="0 0 96 96" fill="none" xmlns="http://www.w3.org/2000/svg">
<g id="Group 21">
<circle id="Ellipse 1" cx="48" cy="48" r="48" fill="#8CAD6A"/>
<path id="Vector" d="M75.8708 46.6277H54.9164L74.283 38.6269L73.2352 36.09L53.8369 44.104L68.6782 29.2627L66.7373 27.3218L51.925 42.134L59.967 22.7917L57.4322 21.7381L49.3723 41.1237V20.1292H46.6274V41.0836L38.6267 21.717L36.0898 22.7648L44.1037 42.1631L29.2625 27.3218L27.3215 29.2627L42.1338 44.075L22.7914 36.033L21.7378 38.5678L41.1235 46.6277H20.1289V49.3726H41.0833L21.7167 57.3733L22.7645 59.9102L42.1628 51.8963L27.3215 66.7375L29.2625 68.6785L44.0747 53.8662L36.0328 73.2086L38.5676 74.2622L46.6274 54.8765V75.8711H49.3723V54.9167L57.3731 74.2833L59.91 73.2355L51.896 53.8372L66.7373 68.6785L68.6782 66.7375L53.866 51.9253L73.2083 59.9672L74.2619 57.4324L54.8763 49.3726H75.8708V46.6277Z" fill="#233D90"/>
</g>
</svg>
