<svg{% if classnames %} class="{{classnames}}"{% endif %} width="200" height="200" viewBox="0 0 200 200" fill="none" xmlns="http://www.w3.org/2000/svg">
    <path class="background" fill-rule="evenodd" clip-rule="evenodd" d="M0 0H200V200H0V0ZM179.086 58.6681C170.632 45.6885 153.065 36.7696 136.496 32.7273C133.219 31.93 129.981 31.3181 126.863 30.9102C113.033 29.093 102.82 29.7235 95.1458 32.7273C80.756 38.3642 75.3199 52.4008 71.7224 74.4662C71.8623 74.4477 71.9972 74.4292 72.1321 74.4106C72.267 74.3921 72.4019 74.3735 72.5418 74.355C91.5883 71.8147 104.599 73.8173 113.453 80.6409C123.686 88.5028 128.542 102.762 129.721 128.258H129.561C129.561 130.631 129.541 132.875 129.501 135.007C154.524 131.836 170.492 116.595 179.066 95.6231C180.685 91.6365 182.064 87.4459 183.163 83.107C185.522 73.8729 183.623 65.6772 179.086 58.6681ZM87.0507 74.3545C98.2028 74.3545 106.537 76.6908 112.732 81.4562C122.645 89.0771 127.402 103.002 128.601 128.016H128.461C128.461 142.349 127.942 155.255 122.985 164.712C118.748 172.184 111.493 177.469 99.0222 179.601C95.0051 180.287 90.4483 180.658 85.272 180.658H85.232C81.3548 180.658 77.1178 180.454 72.5011 180.046C71.2419 179.935 70.0028 179.786 68.7837 179.62C54.214 177.561 42.7822 171.35 34.1283 162.282C24.8549 152.14 19.6786 139.364 16.8206 127.905C15.1418 121.174 15.5815 114.74 18.0997 108.658C21.0576 102.094 26.2539 96.1047 32.8292 91.0056C44.421 82.4204 59.95 77.1173 72.7209 75.4114C77.9572 74.7068 82.7138 74.3545 87.0507 74.3545Z" fill="#EB5E3B"/>
    <path class="secondary" d="M179.086 58.6681C170.632 45.6885 153.065 36.7696 136.496 32.7273C133.219 31.93 129.981 31.3181 126.863 30.9102C113.033 29.093 102.82 29.7235 95.1458 32.7273C80.756 38.3642 75.3199 52.4008 71.7224 74.4662C72.0022 74.4292 72.262 74.3921 72.5418 74.355C91.5883 71.8147 104.599 73.8173 113.453 80.6409C123.686 88.5028 128.542 102.762 129.721 128.258H129.561C129.561 130.631 129.541 132.875 129.501 135.007C154.524 131.836 170.492 116.595 179.066 95.6231C180.685 91.6365 182.064 87.4459 183.163 83.107C185.522 73.8729 183.623 65.6772 179.086 58.6681Z" fill="#91CEC1"/>
    <path d="M112.732 81.4562C106.537 76.6908 98.2028 74.3545 87.0507 74.3545C82.7138 74.3545 77.9572 74.7068 72.7209 75.4114C59.95 77.1173 44.421 82.4204 32.8292 91.0056C26.2539 96.1047 21.0576 102.094 18.0997 108.658C15.5815 114.74 15.1418 121.174 16.8206 127.905C19.6786 139.364 24.8549 152.14 34.1283 162.282C42.7822 171.35 54.214 177.561 68.7837 179.62C70.0028 179.786 71.2419 179.935 72.5011 180.046C77.1178 180.454 81.3548 180.658 85.232 180.658H85.272C90.4483 180.658 95.0051 180.287 99.0222 179.601C111.493 177.469 118.748 172.184 122.985 164.712C127.942 155.255 128.461 142.349 128.461 128.016H128.601C127.402 103.002 122.645 89.0771 112.732 81.4562Z" fill="#91CEC1"/>
</svg>