<svg{% if classnames %} class="{{ classnames }}"{% endif %} width="96" height="96" viewBox="0 0 96 96" fill="none" xmlns="http://www.w3.org/2000/svg">
    <g clip-path="url(#clip0_128_1741)">
    <circle cx="48" cy="48" r="48" fill="#233D90"/>
    <path d="M57.0099 21.363C55.2955 21.1208 53.7479 21 52.351 21C42.8617 21 40.255 26.5669 38.6694 37.3964C38.7768 37.3793 38.8841 37.3636 38.9907 37.3487C53.2873 35.3271 57.0673 41.6692 57.6972 56.1029L57.645 56.003C57.645 56.8886 57.6398 57.757 57.6234 58.6046C67.6539 57.3553 73.3467 49.8473 75.6643 40.0181C78.1749 29.3719 66.0788 22.6459 57.0099 21.363Z" fill="#8CAD6A"/>
    <path d="M57.697 56.1021C57.0671 41.6684 53.2871 35.3263 38.9905 37.3479C38.8839 37.3628 38.7766 37.3785 38.6692 37.3956C30.4695 38.6606 20 44.2953 20 53.1965C20 54.0984 20.1073 55.0339 20.3354 56.0022C22.6999 66.0305 28.5769 73.6428 38.9905 74.6573C40.5157 74.8057 41.9163 74.878 43.2029 74.878C55.7932 74.878 57.4369 67.9857 57.6232 58.6038C57.6396 57.7562 57.6448 56.8878 57.6448 56.0022L57.697 56.1021Z" fill="#F6B7C1"/>
    </g>
    <defs>
    <clipPath id="clip0_128_1741">
    <rect width="96" height="96" fill="white"/>
    </clipPath>
    </defs>
</svg>