<svg{% if classnames %} class="{{classnames}}"{% endif %} width="200" height="200" viewBox="0 0 200 200" fill="none" xmlns="http://www.w3.org/2000/svg">
    <path fill-rule="evenodd" clip-rule="evenodd" d="M118.435 103.992H174.291V96.6746H118.328L170.003 75.1892L167.195 68.4319L115.637 89.8693L155.12 50.3866L149.947 45.2133L110.387 84.7732L131.749 33.0665L124.987 30.2745L103.661 81.8986V26.0425H96.344V82.0052L74.8586 30.3306L68.1013 33.1385L89.5386 84.6959L50.0559 45.2133L44.8826 50.3866L84.4426 89.9465L32.7361 68.5839L29.9441 75.3466L81.5681 96.6719H25.7119V103.989H81.6746L30 125.475L32.8081 132.232L84.3652 110.795L44.8826 150.277L50.0559 155.451L89.616 115.891L68.2534 167.597L75.0161 170.389L96.3413 118.765V174.621H103.659V118.659L125.144 170.333L131.901 167.525L110.464 115.968L149.947 155.451L155.12 150.277L115.56 110.717L167.267 132.08L170.059 125.317L118.435 103.992Z" fill="#E02437"/>
    <path class="background" d="M0 0V200H200V0H0ZM174.291 103.992H118.435L170.059 125.317L167.267 132.08L115.56 110.717L155.12 150.277L149.947 155.451L110.464 115.968L131.901 167.525L125.144 170.333L103.659 118.659V174.621H96.3413V118.765L75.016 170.389L68.2533 167.597L89.616 115.891L50.056 155.451L44.8827 150.277L84.3653 110.795L32.808 132.232L30 125.475L81.6747 103.989H25.712V96.672H81.568L29.944 75.3467L32.736 68.584L84.4427 89.9467L44.8827 50.3867L50.056 45.2133L89.5387 84.696L68.1013 33.1387L74.8587 30.3307L96.344 82.0053V26.0427H103.661V81.8987L124.987 30.2747L131.749 33.0667L110.387 84.7733L149.947 45.2133L155.12 50.3867L115.637 89.8693L167.195 68.432L170.003 75.1893L118.328 96.6747H174.291V103.992Z" fill="#F6B7C1"/>
</svg>    