<svg{% if classnames %} class="{{classnames}}"{% endif %} width="96" height="96" viewBox="0 0 96 96" fill="none" xmlns="http://www.w3.org/2000/svg">
    <circle class="background" cx="48" cy="48" r="48" fill="#8CAD6A"/>
    <path d="M75.8704 46.6277H54.9159L74.2826 38.6269L73.2347 36.09L53.8365 44.104L68.6777 29.2627L66.7368 27.3218L51.9245 42.134L59.9665 22.7917L57.4317 21.7381L49.3718 41.1237V20.1292H46.627V41.0836L38.6262 21.717L36.0893 22.7648L44.1033 42.1631L29.262 27.3218L27.321 29.2627L42.1333 44.075L22.7909 36.033L21.7373 38.5678L41.123 46.6277H20.1284V49.3726H41.0828L21.7162 57.3733L22.764 59.9102L42.1623 51.8963L27.321 66.7375L29.262 68.6785L44.0742 53.8662L36.0323 73.2086L38.5671 74.2622L46.627 54.8765V75.8711H49.3718V54.9167L57.3726 74.2833L59.9095 73.2355L51.8955 53.8372L66.7368 68.6785L68.6777 66.7375L53.8655 51.9253L73.2078 59.9672L74.2614 57.4324L54.8758 49.3726H75.8704V46.6277Z" fill="#233D90"/>
</svg>    