<svg{% if classnames %} class="{{ classnames }}"{% endif %} width="200" height="200" viewBox="0 0 200 200" fill="none" xmlns="http://www.w3.org/2000/svg">
    <path d="M99.9834 65.6899C81.0684 65.6899 65.7334 81.0249 65.7334 99.9399C65.7334 118.855 81.0684 134.19 99.9834 134.19C118.898 134.19 134.233 118.855 134.233 99.9399C134.233 81.0249 118.898 65.6899 99.9834 65.6899ZM99.9501 105.96C96.6284 105.96 93.9351 103.267 93.9351 99.9449C93.9351 96.6233 96.6284 93.9299 99.9501 93.9299C103.272 93.9299 105.965 96.6233 105.965 99.9449C105.965 103.267 103.272 105.96 99.9501 105.96Z" fill="#233D90"/>
    <path d="M99.8434 46.7317C70.4001 46.7317 46.5317 70.6 46.5317 100.043C46.5317 129.487 70.4001 153.355 99.8434 153.355C129.287 153.355 153.155 129.487 153.155 100.043C153.155 70.6 129.287 46.7317 99.8434 46.7317ZM99.7617 137.347C79.0801 137.347 62.3134 120.58 62.3134 99.8984C62.3134 79.2167 79.0801 62.45 99.7617 62.45C120.443 62.45 137.21 79.2167 137.21 99.8984C137.21 120.58 120.443 137.347 99.7617 137.347Z" fill="#233D90"/>
    <path d="M99.9833 28.4451C60.4983 28.4451 28.4883 60.4551 28.4883 99.9401C28.4883 139.425 60.4983 171.435 99.9833 171.435C139.468 171.435 171.478 139.425 171.478 99.9401C171.478 60.4551 139.468 28.4451 99.9833 28.4451ZM99.9833 156.597C68.6933 156.597 43.3266 131.23 43.3266 99.9401C43.3266 68.6501 68.6933 43.2834 99.9833 43.2834C131.273 43.2834 156.64 68.6501 156.64 99.9401C156.64 131.23 131.273 156.597 99.9833 156.597Z" fill="#233D90"/>
    <path d="M100 13.6667C52.3201 13.6667 13.6667 52.3201 13.6667 100C13.6667 147.68 52.3201 186.333 100 186.333C147.68 186.333 186.333 147.68 186.333 100C186.333 52.3201 147.68 13.6667 100 13.6667ZM99.9834 176.157C57.8901 176.157 23.7667 142.033 23.7667 99.9401C23.7667 57.8468 57.8918 23.7234 99.9834 23.7234C142.075 23.7234 176.2 57.8468 176.2 99.9401C176.2 142.033 142.077 176.157 99.9834 176.157Z" fill="#233D90"/>
</svg>    