<svg{% if classnames %} class="{{ classnames }}"{% endif %} width="154" height="114" viewBox="0 0 154 114" fill="none" xmlns="http://www.w3.org/2000/svg">
    <path d="M97.055 0.72168C93.6317 0.72168 90.2817 1.02668 87.0267 1.61335C83.7733 1.02668 80.4217 0.72168 76.9983 0.72168C73.575 0.72168 70.225 1.02668 66.97 1.61335C63.7167 1.02668 60.365 0.72168 56.9417 0.72168C25.86 0.72168 0.66333 25.9183 0.66333 57.0017C0.66333 88.085 25.86 113.28 56.9417 113.28C60.365 113.28 63.715 112.975 66.97 112.388C70.2233 112.975 73.575 113.28 76.9983 113.28C80.4217 113.28 83.7717 112.975 87.0267 112.388C90.28 112.975 93.6317 113.28 97.055 113.28C128.138 113.28 153.335 88.0833 153.335 57.0017C153.335 25.92 128.138 0.72168 97.055 0.72168ZM87.66 9.83502C87.87 9.97168 88.0783 10.11 88.2867 10.25C109.397 15.3267 125.083 34.3317 125.083 57.0017C125.083 79.6717 109.397 98.6733 88.2867 103.752C88.08 103.892 87.87 104.03 87.66 104.167C87.4483 104.125 87.2383 104.082 87.0283 104.037C87.45 103.947 87.8683 103.853 88.285 103.752C103.327 93.65 113.223 76.4817 113.223 57.0017C113.223 37.5217 103.327 20.3533 88.285 10.25C87.8683 10.1483 87.4483 10.0533 87.0283 9.96502C87.2383 9.92002 87.4483 9.87668 87.66 9.83502ZM77.0017 13.2884C93.5433 20.89 105.028 37.6033 105.028 57.0017C105.028 76.4 93.5417 93.1133 77.0017 100.713C60.46 93.1133 48.9733 76.3983 48.9733 57.0017C48.9733 37.605 60.46 20.8883 77.0017 13.2884ZM8.86166 57C8.86166 34.3317 24.5483 15.3267 45.6583 10.2483C30.6183 20.35 20.7217 37.5183 20.7217 57C20.7217 76.4817 30.6183 93.6483 45.6583 103.75C24.5483 98.6733 8.86166 79.6667 8.86166 57ZM66.34 104.165C66.13 104.03 65.92 103.892 65.7133 103.75C44.6033 98.6733 28.9167 79.6667 28.9167 57C28.9167 34.3333 44.6033 15.3267 65.7133 10.2483C65.92 10.1083 66.13 9.97001 66.34 9.83335C66.5517 9.87501 66.7633 9.91835 66.9733 9.96335C66.5517 10.0533 66.1317 10.1483 65.7133 10.2483C50.6733 20.35 40.7767 37.5183 40.7767 57C40.7767 76.4817 50.6733 93.6483 65.7133 103.75C66.13 103.85 66.55 103.947 66.9733 104.035C66.7633 104.08 66.5517 104.123 66.34 104.165ZM108.34 103.75C123.382 93.6483 133.278 76.48 133.278 57C133.278 37.52 123.382 20.3517 108.34 10.2483C129.45 15.325 145.137 34.33 145.137 57C145.137 79.67 129.45 98.6717 108.34 103.75Z" fill="#233D90"/>
</svg>