<svg{% if classnames %} class="{{ classnames }}"{% endif %} width="200" height="200" viewBox="0 0 200 200" fill="none" xmlns="http://www.w3.org/2000/svg">
    <path class="foreground" fill-rule="evenodd" clip-rule="evenodd" d="M110.026 155.389C113.281 155.973 116.632 156.28 120.054 156.28C151.137 156.28 176.333 131.085 176.333 100.003C176.333 68.9199 151.137 43.7227 120.054 43.7227C116.632 43.7227 113.281 44.0266 110.026 44.6133C106.771 44.0293 103.42 43.7227 99.9973 43.7227C96.5745 43.7227 93.2236 44.0266 89.9688 44.6133C86.7139 44.0293 83.363 43.7227 79.9404 43.7227C48.8577 43.7227 23.6611 68.9226 23.6611 100.003C23.6611 131.083 48.8577 156.28 79.9404 156.28C83.363 156.28 86.7139 155.976 89.9688 155.389C93.2236 155.973 96.5745 156.28 99.9973 156.28C103.42 156.28 106.771 155.976 110.026 155.389ZM89.0806 53.0039C89.1667 52.947 89.2534 52.8906 89.3401 52.8347H89.3428L89.3662 52.8398L89.7383 52.9158C89.8171 52.9319 89.896 52.9485 89.9746 52.9653C89.5508 53.0535 89.1321 53.1494 88.7134 53.2507C88.8342 53.1675 88.957 53.0852 89.0806 53.0039ZM43.7207 100C43.7207 80.52 53.6187 63.3521 68.656 53.248C47.5461 58.3254 31.8608 77.3308 31.8608 100C31.8608 122.669 47.5461 141.672 68.656 146.75C53.616 136.648 43.7207 119.48 43.7207 100ZM88.7131 53.248C73.6758 63.3521 63.7778 80.52 63.7778 100C63.7778 119.48 73.6731 136.648 88.7131 146.75C67.6033 141.672 51.918 122.669 51.918 100C51.918 77.3308 67.6033 58.3254 88.7131 53.248ZM88.7131 146.75L88.874 146.788L89.0627 146.833L89.2942 146.886C89.3982 146.91 89.5022 146.933 89.6064 146.956L89.7815 146.994L89.9719 147.035L89.7185 147.088L89.3401 147.165H89.3374C89.1294 147.029 88.9187 146.891 88.7107 146.749L88.7131 146.75ZM100 56.2881C116.541 63.8882 128.028 80.6028 128.028 100C128.028 119.397 116.541 136.112 100 143.712C83.4592 136.112 71.9724 119.397 71.9724 100C71.9724 80.6028 83.4592 63.8882 100 56.2881ZM111.174 146.826L111.004 146.94C110.924 146.993 110.844 147.046 110.765 147.098L110.661 147.165C110.45 147.123 110.239 147.08 110.029 147.035C110.449 146.947 110.867 146.851 111.284 146.75L111.174 146.826ZM131.341 53.2507C146.381 63.3521 156.279 80.52 156.279 100.003C156.279 119.485 146.381 136.651 131.341 146.752C152.451 141.675 168.139 122.669 168.139 100.003C168.139 77.3362 152.451 58.3281 131.341 53.2507ZM111.287 53.2507C110.869 53.1494 110.45 53.0535 110.029 52.9653C110.239 52.9202 110.45 52.8774 110.661 52.8347C110.871 52.9734 111.079 53.1121 111.287 53.2507Z" fill="#233D90"/>
    <path class="background" d="M63.7779 100C63.7779 80.5201 73.6758 63.352 88.7132 53.248C67.6032 58.3254 51.918 77.3307 51.918 100C51.918 122.669 67.6032 141.672 88.7132 146.749C73.6731 136.648 63.7779 119.48 63.7779 100Z" fill="#EB5E3B"/>
    <path class="background" d="M128.028 100C128.028 80.6027 116.541 63.8881 100 56.2881C83.4591 63.8881 71.9724 80.6027 71.9724 100C71.9724 119.397 83.4591 136.112 100 143.712C116.541 136.112 128.028 119.397 128.028 100Z" fill="#EB5E3B"/>
    <path class="background" d="M89.34 147.165C89.5507 147.123 89.764 147.08 89.972 147.035C89.5507 146.947 89.1294 146.851 88.7107 146.749C88.9187 146.891 89.1294 147.029 89.3374 147.165H89.34Z" fill="#EB5E3B"/>
    <path class="background" d="M110.661 147.165C110.871 147.029 111.079 146.891 111.287 146.749C110.869 146.851 110.45 146.947 110.029 147.035C110.239 147.08 110.45 147.123 110.661 147.165Z" fill="#EB5E3B"/>
    <path class="background" d="M43.7207 100C43.7207 80.5201 53.6186 63.352 68.6561 53.248C47.5461 58.3254 31.8608 77.3307 31.8608 100C31.8608 122.669 47.5461 141.672 68.6561 146.749C53.616 136.648 43.7207 119.48 43.7207 100Z" fill="#EB5E3B"/>
    <path class="background" d="M89.34 52.8347C89.1293 52.9707 88.9187 53.1094 88.7134 53.2507C89.132 53.1494 89.5507 53.0534 89.9747 52.9654C89.764 52.92 89.5533 52.8774 89.3427 52.8347H89.34Z" fill="#EB5E3B"/>
    <path class="background" d="M131.341 53.2507C146.381 63.3521 156.279 80.5201 156.279 100.003C156.279 119.485 146.381 136.651 131.341 146.752C152.451 141.675 168.139 122.669 168.139 100.003C168.139 77.3361 152.451 58.3281 131.341 53.2507Z" fill="#EB5E3B"/>
    <path class="background" d="M0 0V200H200V0H0ZM120.054 156.28C116.632 156.28 113.281 155.973 110.026 155.389C106.771 155.976 103.42 156.28 99.9974 156.28C96.5745 156.28 93.2237 155.973 89.9688 155.389C86.7139 155.976 83.3631 156.28 79.9403 156.28C48.8578 156.28 23.6611 131.083 23.6611 100.003C23.6611 68.9227 48.8578 43.7227 79.9403 43.7227C83.3631 43.7227 86.7139 44.0293 89.9688 44.6133C93.2237 44.0267 96.5745 43.7227 99.9974 43.7227C103.42 43.7227 106.771 44.0293 110.026 44.6133C113.281 44.0267 116.632 43.7227 120.054 43.7227C151.137 43.7227 176.334 68.92 176.334 100.003C176.334 131.085 151.137 156.28 120.054 156.28Z" fill="#EB5E3B"/>
    <path class="background" d="M148.082 100C148.082 77.3307 132.394 58.3254 111.284 53.248C126.324 63.3494 136.222 80.5174 136.222 100C136.222 119.483 126.324 136.648 111.284 146.749C132.394 141.672 148.082 122.667 148.082 100Z" fill="#EB5E3B"/>
    <path class="background" d="M110.029 52.9654C110.45 53.0534 110.869 53.1494 111.287 53.2507C111.079 53.112 110.871 52.9734 110.661 52.8347C110.45 52.8774 110.239 52.92 110.029 52.9654Z" fill="#EB5E3B"/>
</svg>    