<svg{% if classnames %} class="{{classnames}}"{% endif %} width="200" height="200" viewBox="0 0 200 200" fill="none" xmlns="http://www.w3.org/2000/svg">
    <path fill-rule="evenodd" clip-rule="evenodd" d="M90.9866 58.6455H81.9761V94.6665H90.9866V58.6455ZM18.8879 94.6665H9.87744V58.6455H18.8879V94.6665ZM36.9146 94.6665H27.9014V58.6455H36.9146V94.6665ZM54.9387 94.6665H45.928V58.6455H54.9387V94.6665ZM72.9626 94.6665H63.9519V58.6455H72.9626V94.6665ZM190.131 94.6641L100.003 94.6665V58.6455H190.131V94.6641Z" fill="#F8AD39"/>
    <path class="secondary" fill-rule="evenodd" clip-rule="evenodd" d="M9.87744 141.021H100.005V104.971H9.87744V141.021ZM109.019 141.021H118.029V104.971H109.019V141.021ZM127.043 141.021H136.056V104.971H127.043V141.021ZM145.069 141.021H154.08V104.971H145.069V141.021ZM163.093 141.021H172.104V104.971H163.093V141.021ZM181.117 141.021H190.131V104.971H181.117V141.021Z" fill="#1D1D1B"/>
    <path class="background" d="M0 0V200H200V0H0ZM81.976 58.6453H90.9867V94.696H81.976V58.6453ZM63.952 58.6453H72.9627V94.696H63.952V58.6453ZM45.928 58.6453H54.9387V94.696H45.928V58.6453ZM27.9013 58.6453H36.9147V94.696H27.9013V58.6453ZM9.87733 58.6453H18.888V94.696H9.87733V58.6453ZM100.005 141.021H9.87733V104.971H100.005V141.021ZM118.029 141.021H109.019V104.971H118.029V141.021ZM136.056 141.021H127.043V104.971H136.056V141.021ZM154.08 141.021H145.069V104.971H154.08V141.021ZM172.104 141.021H163.093V104.971H172.104V141.021ZM190.131 141.021H181.117V104.971H190.131V141.021ZM190.131 94.6933H100.003V58.6453H190.131V94.696V94.6933Z" fill="#F7F7ED"/>
</svg>    