<svg{% if classnames %} class="{{ classnames }}"{% endif %} width="200" height="200" viewBox="0 0 200 200" fill="none" xmlns="http://www.w3.org/2000/svg">
    <path fill-rule="evenodd" clip-rule="evenodd" d="M199.963 0H200V200H199.968V86.2065H190.155C190.093 86.2065 190.029 86.2065 189.968 86.2148C187.883 86.3081 186.208 87.9639 186.115 90.0249C186.112 90.0938 186.109 90.1631 186.109 90.23V96.5112C186.109 99.1802 186.071 101.849 186.033 104.518C185.995 107.187 185.957 109.855 185.957 112.524V114.548V134.176C185.957 134.784 185.965 135.396 185.973 136.01C186.016 139.373 186.059 142.8 184.835 145.965C184.469 146.909 184.013 147.818 183.475 148.677C182.941 149.527 182.328 150.327 181.645 151.066C180.965 151.802 180.213 152.474 179.408 153.068C178.597 153.668 177.731 154.19 176.821 154.625C175.901 155.068 174.936 155.419 173.947 155.675C172.933 155.939 171.891 156.1 170.845 156.161C170.539 156.179 170.235 156.188 169.928 156.188C165.813 156.188 161.803 154.566 158.84 151.708C156.829 149.768 155.371 147.296 154.597 144.614C153.904 142.213 153.944 139.802 153.984 137.356C153.993 136.781 154.003 136.205 154.003 135.626V56.7515C154.003 56.0322 154.048 55.2739 154.094 54.5034C154.187 52.9263 154.284 51.2993 154.003 49.8594C153.627 47.9292 152.099 46.4092 150.075 46.4092C148.808 46.4092 147.597 47.0254 146.851 48.0488C145.857 49.4077 145.949 51.2778 146.034 52.9888C146.058 53.4531 146.08 53.9058 146.08 54.333C146.08 57.0767 146.067 59.8198 146.061 62.5635L146.021 79.0215C146.021 83.2344 146.008 87.4473 145.994 91.6602L145.979 96.7139C145.975 98.2915 146.025 99.9092 146.077 101.542C146.202 105.563 146.331 109.674 145.656 113.502C145.368 115.137 144.837 116.721 144.011 118.16C142.549 120.701 140.387 122.823 137.816 124.234C135.475 125.516 132.824 126.191 130.155 126.191C123.285 126.191 116.773 121.496 114.939 114.812C114.058 111.603 114.125 108.333 114.191 105.059C114.209 104.189 114.227 103.32 114.227 102.452C114.227 99.542 114.211 96.6309 114.195 93.7212C114.182 91.25 114.169 88.7803 114.165 86.3135C114.165 83.2871 114.155 80.2612 114.149 77.2354C114.149 75.7075 114.144 74.1797 114.141 72.6523C114.141 72.4048 114.148 72.1533 114.154 71.9004C114.181 70.8584 114.208 69.7871 113.792 68.8262C113.168 67.3892 111.701 66.4106 110.133 66.4106C108.811 66.4106 107.549 67.0854 106.813 68.1865C106.157 69.165 106.104 70.4097 106.128 71.5483C106.221 75.8862 106.24 80.2212 106.237 84.5591V88.769V123.858C106.237 124.426 106.242 124.997 106.247 125.569C106.268 127.901 106.289 130.262 105.968 132.579C105.675 134.709 104.856 136.778 103.707 138.591C101.464 142.126 97.8533 144.696 93.7733 145.627C92.6053 145.894 91.408 146.027 90.2107 146.027C84.016 146.027 78.2453 142.313 75.672 136.668C74.2765 133.608 74.2807 130.338 74.2849 127.061L74.2853 126.521V67.9355C74.2853 64.9683 74.2907 61.9395 74.3014 58.9507L74.3092 57.0386L74.3227 54.3652C74.3253 53.8911 74.3482 53.4019 74.3713 52.9077C74.4193 51.8828 74.4682 50.8379 74.3387 49.8647C74.08 47.9316 72.288 46.4121 70.36 46.4121C69.1973 46.4121 68.0747 46.9321 67.32 47.8169C66.3746 48.9268 66.3805 50.3433 66.3863 51.7231L66.3867 51.8218C66.392 53.0781 66.3902 54.3359 66.3885 55.5938L66.3867 57.4819L66.3848 59.4492C66.3833 60.4355 66.3813 61.4224 66.3813 62.4087C66.3813 63.23 66.3813 64.0513 66.384 64.8726C66.3854 65.3872 66.3628 65.9019 66.3401 66.417C66.3181 66.9189 66.296 67.4214 66.296 67.9253V71.2817V147.059L66.2977 147.806C66.3054 150.035 66.3129 152.215 65.6987 154.396C65.1413 156.366 64.2027 158.219 62.944 159.832C60.416 163.08 56.6613 165.263 52.5867 165.823C51.864 165.921 51.1333 165.972 50.4027 165.972C49.2 165.972 47.9947 165.836 46.8213 165.567C45.8107 165.335 44.824 165.001 43.8773 164.575C42.9467 164.154 42.056 163.645 41.224 163.053C40.3973 162.466 39.624 161.8 38.9227 161.066C38.2214 160.333 37.5893 159.531 37.0373 158.678C36.4827 157.816 36.0107 156.902 35.632 155.95C35.2453 154.979 34.9573 153.972 34.768 152.945C34.5947 151.994 34.5067 151.026 34.5067 150.058C34.5067 149.965 34.5067 149.872 34.5093 149.778L34.508 149.734L34.5067 149.695V105.79C34.4951 105.794 34.4845 105.797 34.4737 105.8L34.4533 105.806V99.0176C34.4533 98.0171 34.4753 97.0122 34.4973 96.0059C34.5408 94.0176 34.5844 92.0244 34.4587 90.0488C34.328 87.9717 32.5653 86.3052 30.48 86.3052C29.0373 86.3052 27.7493 87.0786 27.0613 88.3477C26.4753 89.4268 26.4889 90.5986 26.5025 91.7803C26.5046 91.959 26.5067 92.1382 26.5067 92.3174C26.512 92.3628 26.5173 92.4106 26.5173 92.459V128.193C26.5173 130.558 26.4587 132.827 25.7067 135.09C25.064 137.029 24.0453 138.833 22.728 140.391C20.0587 143.539 16.208 145.571 12.1013 145.968C11.7173 146.005 11.3307 146.029 10.9413 146.038L10.7668 146.041L10.5413 146.043H0.565338V134.042H10.5493C10.6107 134.042 10.672 134.042 10.7333 134.037C12.792 133.944 14.4453 132.288 14.5387 130.227C14.5413 130.158 14.544 130.089 14.544 130.022V94.6558C14.544 94.0791 14.5325 93.498 14.5209 92.9155C14.4833 91.0254 14.4453 89.1162 14.8 87.2681C15.184 85.2632 15.9573 83.3408 17.064 81.6265C19.2613 78.2217 22.7387 75.729 26.672 74.7612C27.92 74.4546 29.2053 74.3022 30.4907 74.3022C34.6053 74.3022 38.6187 75.9233 41.5787 78.7842C44.5547 81.6582 46.2907 85.6069 46.456 89.7393C46.496 90.7261 46.496 91.7124 46.496 92.6987V143.449C46.496 144.033 46.5013 144.618 46.5065 145.202C46.5137 145.998 46.5208 146.794 46.5147 147.589C46.5129 147.867 46.5031 148.151 46.4932 148.439C46.4429 149.9 46.3894 151.452 47.3627 152.612C48.112 153.505 49.24 154.033 50.4053 154.033C51.5707 154.033 52.8027 153.455 53.5493 152.484C54.4015 151.377 54.3654 150.072 54.3292 148.768C54.322 148.505 54.3147 148.242 54.3147 147.981V52.1069C54.3147 47.7129 55.24 43.562 58.12 40.1255C60.752 36.9844 64.5573 34.9424 68.6293 34.5024C69.2027 34.4409 69.7813 34.4092 70.36 34.4092C74.6853 34.4092 78.888 36.2036 81.8854 39.3281C83.576 41.0933 84.8347 43.25 85.5707 45.5801C86.2823 47.8374 86.2754 50.0024 86.2681 52.3042L86.2667 52.8799V55.0664V124.287L86.2646 125.496C86.2619 126.542 86.2593 127.588 86.2747 128.636C86.296 130.23 86.6 132.688 88.0774 133.403C89.6133 134.144 91.5173 134.269 92.696 133.088C94.088 131.691 94.2533 130.017 94.2533 128.19V114.54V76.2915C94.2533 75.5234 94.2388 74.7549 94.2243 73.9863C94.1931 72.3345 94.1619 70.6826 94.2747 69.0342C94.4347 66.7065 95.0933 64.5044 96.2533 62.4756C98.2613 58.959 101.6 56.2793 105.472 55.1011C106.979 54.6426 108.555 54.4106 110.131 54.4106C114.248 54.4106 118.264 56.0342 121.227 58.8975C124.291 61.8599 125.768 65.6777 126.096 69.8687C126.237 71.6729 126.225 73.4888 126.212 75.3018C126.209 75.8169 126.205 76.332 126.205 76.8462V90.3765C126.205 92.3711 126.173 94.3652 126.141 96.3599C126.112 98.1221 126.084 99.8843 126.077 101.646C126.074 102.577 126.03 103.512 125.987 104.447C125.906 106.207 125.824 107.97 126.005 109.719C126.149 111.114 126.645 112.562 127.752 113.42C129.176 114.526 131.485 114.519 132.776 113.215C133.451 112.532 133.941 111.311 134.027 110.356C134.232 108.041 134.165 105.821 134.096 103.564C134.062 102.423 134.027 101.272 134.027 100.095V60.4785C134.027 59.7285 134.024 58.9746 134.022 58.2183C134.016 55.9985 134.009 53.7583 134.059 51.5391C134.107 49.2886 134.269 47.1211 135.037 44.9829C136.411 41.1704 139.248 37.9604 142.859 36.1289C145.088 34.9985 147.573 34.4092 150.072 34.4092C154.181 34.4092 158.189 36.0273 161.152 38.8828C164.096 41.7222 165.925 45.7134 166.037 49.8193C166.076 51.2402 166.047 52.667 166.017 54.0933C165.998 55.0298 165.979 55.9663 165.979 56.9004V135.013V138.061C165.979 140.673 166.224 143.907 169.6 144.176C171.197 144.305 172.627 143.403 173.379 142.017C174.068 140.746 174.002 139.306 173.937 137.894C173.918 137.481 173.899 137.071 173.899 136.668C173.899 134.05 173.916 131.432 173.933 128.814C173.951 126.198 173.968 123.583 173.968 120.968V93.792C173.968 93.3955 173.964 92.9985 173.961 92.6016C173.942 90.5825 173.923 88.5562 174.387 86.5801C174.851 84.6016 175.701 82.7192 176.875 81.0586C179.229 77.7231 182.837 75.3691 186.829 74.5449C187.789 74.3477 188.765 74.2358 189.744 74.2119C189.88 74.209 190.013 74.2065 190.149 74.2065H199.963V0Z" fill="#F6B7C1"/>
    <path class="background" d="M189.968 86.2148C187.883 86.3081 186.208 87.9637 186.115 90.0247C186.112 90.094 186.109 90.1633 186.109 90.23V96.5114C186.109 101.849 185.957 107.187 185.957 112.524C185.957 113.199 185.957 113.873 185.957 114.548V134.176C185.957 138.111 186.283 142.222 184.835 145.965C184.469 146.909 184.013 147.818 183.475 148.677C182.941 149.527 182.328 150.327 181.645 151.066C180.965 151.802 180.213 152.473 179.408 153.068C178.597 153.668 177.731 154.19 176.821 154.625C175.901 155.068 174.936 155.42 173.947 155.676C172.933 155.939 171.891 156.099 170.845 156.161C170.539 156.179 170.235 156.187 169.928 156.187C165.813 156.187 161.803 154.566 158.84 151.708C156.829 149.767 155.371 147.296 154.597 144.614C153.741 141.649 154.003 138.668 154.003 135.626V56.7513C154.003 54.5597 154.421 52.0029 154.003 49.8594C153.627 47.9291 152.099 46.4094 150.075 46.4094C148.808 46.4094 147.597 47.0253 146.851 48.0491C145.587 49.7767 146.08 52.3309 146.08 54.3331C146.08 57.0766 146.067 59.82 146.061 62.5635C146.048 68.0504 146.035 73.5373 146.021 79.0215C146.021 84.919 145.995 90.8165 145.979 96.714C145.965 102.177 146.605 108.12 145.656 113.503C145.368 115.137 144.837 116.721 144.011 118.16C142.549 120.701 140.387 122.823 137.816 124.234C135.475 125.516 132.824 126.191 130.155 126.191C123.285 126.191 116.773 121.496 114.939 114.812C113.824 110.751 114.227 106.592 114.227 102.452C114.227 97.0713 114.173 91.6857 114.165 86.3134C114.165 83.2873 114.155 80.2613 114.149 77.2352C114.149 75.7075 114.144 74.1798 114.141 72.6521C114.141 71.3857 114.309 70.0207 113.792 68.8262C113.168 67.3892 111.701 66.4107 110.133 66.4107C108.811 66.4107 107.549 67.0853 106.813 68.1864C106.157 69.1648 106.104 70.4099 106.128 71.5483C106.221 75.8861 106.24 80.2213 106.237 84.5591C106.237 85.9615 106.237 87.3638 106.237 88.7689V123.858C106.237 126.74 106.368 129.694 105.968 132.579C105.675 134.709 104.856 136.778 103.707 138.591C101.464 142.126 97.8533 144.696 93.7733 145.627C92.6053 145.893 91.408 146.027 90.2107 146.027C84.016 146.027 78.2453 142.313 75.672 136.669C74.2 133.44 74.2853 129.979 74.2853 126.521V67.9357C74.2853 64.9683 74.2907 61.9396 74.3013 58.9509C74.3067 57.4232 74.3147 55.8955 74.3227 54.3651C74.3307 52.9068 74.5307 51.3071 74.3387 49.8647C74.08 47.9318 72.288 46.4121 70.36 46.4121C69.1973 46.4121 68.0747 46.932 67.32 47.8171C66.352 48.9529 66.3813 50.4112 66.3867 51.8216C66.3947 53.7066 66.3867 55.5942 66.3867 57.4818C66.3867 59.1242 66.3813 60.7665 66.3813 62.4089C66.3813 63.23 66.3813 64.0512 66.384 64.8724C66.3867 65.8882 66.296 66.904 66.296 67.9251C66.296 69.0449 66.296 70.162 66.296 71.2817V147.059C66.296 149.549 66.3813 151.972 65.6987 154.396C65.1413 156.366 64.2027 158.219 62.944 159.832C60.416 163.079 56.6613 165.263 52.5867 165.823C51.864 165.921 51.1333 165.972 50.4027 165.972C49.2 165.972 47.9947 165.836 46.8213 165.567C45.8107 165.335 44.824 165.002 43.8773 164.575C42.9467 164.154 42.056 163.645 41.224 163.053C40.3973 162.466 39.624 161.8 38.9227 161.066C38.2213 160.333 37.5893 159.531 37.0373 158.678C36.4827 157.816 36.0107 156.902 35.632 155.95C35.2453 154.98 34.9573 153.972 34.768 152.945C34.5947 151.994 34.5067 151.026 34.5067 150.058C34.5067 149.965 34.5067 149.871 34.5093 149.778C34.5093 149.749 34.5067 149.722 34.5067 149.695V105.79C34.488 105.798 34.472 105.8 34.4533 105.805V99.0175C34.4533 96.0395 34.648 93.0241 34.4587 90.0487C34.328 87.9717 32.5653 86.3054 30.48 86.3054C29.0373 86.3054 27.7493 87.0786 27.0613 88.3477C26.3867 89.5901 26.5067 90.9551 26.5067 92.3175C26.512 92.3629 26.5173 92.4109 26.5173 92.4588V128.193C26.5173 130.558 26.4587 132.827 25.7067 135.09C25.064 137.029 24.0453 138.834 22.728 140.391C20.0587 143.539 16.208 145.571 12.1013 145.968C11.7173 146.005 11.3307 146.029 10.9413 146.037C10.808 146.04 10.6747 146.043 10.5413 146.043H0.565333V134.043H10.5493C10.6107 134.043 10.672 134.043 10.7333 134.037C12.792 133.944 14.4453 132.288 14.5387 130.227C14.5413 130.158 14.544 130.089 14.544 130.022V94.6557C14.544 92.2082 14.336 89.6861 14.8 87.2679C15.184 85.263 15.9573 83.3407 17.064 81.6264C19.2613 78.2217 22.7387 75.7289 26.672 74.7611C27.92 74.4545 29.2053 74.3025 30.4907 74.3025C34.6053 74.3025 38.6187 75.9235 41.5787 78.7842C44.5547 81.6583 46.2907 85.6069 46.456 89.7394C46.496 90.7258 46.496 91.7123 46.496 92.6988V143.449C46.496 144.83 46.5253 146.211 46.5147 147.589C46.504 149.271 46.1973 151.223 47.3627 152.612C48.112 153.505 49.24 154.033 50.4053 154.033C51.5707 154.033 52.8027 153.455 53.5493 152.484C54.5733 151.154 54.3147 149.538 54.3147 147.981V52.1069C54.3147 47.7131 55.24 43.562 58.12 40.1253C60.752 36.9846 64.5573 34.9424 68.6293 34.5024C69.2027 34.4411 69.7813 34.4091 70.36 34.4091C74.6853 34.4091 78.888 36.2034 81.8853 39.3281C83.576 41.0931 84.8347 43.25 85.5707 45.5802C86.3413 48.0251 86.2693 50.3606 86.2667 52.8801C86.2667 53.608 86.2667 54.3385 86.2667 55.0663V124.287C86.2667 125.738 86.2533 127.185 86.2747 128.636C86.296 130.23 86.6 132.688 88.0773 133.403C89.6133 134.144 91.5173 134.269 92.696 133.088C94.088 131.691 94.2533 130.017 94.2533 128.19C94.2533 125.818 94.2533 116.942 94.2533 114.54V76.2914C94.2533 73.8732 94.1093 71.4497 94.2747 69.0342C94.4347 66.7067 95.0933 64.5044 96.2533 62.4755C98.2613 58.9589 101.6 56.2794 105.472 55.101C106.979 54.6424 108.555 54.4105 110.131 54.4105C114.248 54.4105 118.264 56.0341 121.227 58.8976C124.291 61.8596 125.768 65.6775 126.096 69.8687C126.277 72.1856 126.205 74.5211 126.205 76.846V90.3766C126.205 94.1332 126.091 97.8898 126.077 101.646C126.067 104.328 125.728 107.04 126.005 109.719C126.149 111.114 126.645 112.561 127.752 113.42C129.176 114.526 131.485 114.518 132.776 113.215C133.451 112.532 133.941 111.311 134.027 110.357C134.336 106.869 134.027 103.598 134.027 100.095V60.4786C134.027 57.5272 133.992 54.5144 134.059 51.539C134.107 49.2888 134.269 47.1213 135.037 44.983C136.411 41.1704 139.248 37.9604 142.859 36.1288C145.088 34.9983 147.573 34.4091 150.072 34.4091C154.181 34.4091 158.189 36.0275 161.152 38.8829C164.096 41.7223 165.925 45.7135 166.037 49.8194C166.101 52.1736 165.979 54.5438 165.979 56.9006V135.013C165.979 136.029 165.979 137.045 165.979 138.06C165.979 140.673 166.224 143.907 169.6 144.176C171.197 144.304 172.627 143.403 173.379 142.017C174.269 140.375 173.899 138.452 173.899 136.669C173.899 131.432 173.968 126.199 173.968 120.968V93.7919C173.968 91.3817 173.832 88.9449 174.387 86.58C174.851 84.6017 175.701 82.7195 176.875 81.0585C179.229 77.7231 182.837 75.3689 186.829 74.5451C187.789 74.3478 188.765 74.2358 189.744 74.2118C189.88 74.2092 190.013 74.2065 190.149 74.2065H199.963V0H0V200H199.968V86.2067H190.155C190.093 86.2067 190.029 86.2067 189.968 86.2121V86.2148Z" fill="#8CAD6A"/>
</svg>    