
<svg{% if classnames %} class="{{ classnames }}"{% endif %} width="200" height="132" viewBox="0 0 200 132" fill="none" xmlns="http://www.w3.org/2000/svg">
    <path d="M93.8333 80.3499V42.1016C93.8333 39.6833 93.6883 37.2616 93.855 34.8449C94.0217 32.4283 94.6767 30.3166 95.8367 28.2866C97.8483 24.7699 101.192 22.0916 105.07 20.9116C106.58 20.4516 108.157 20.2216 109.735 20.2216C113.858 20.2216 117.88 21.8449 120.847 24.7099C123.915 27.6716 125.395 31.4916 125.723 35.6799C125.905 37.9966 125.832 40.3316 125.832 42.6566V56.1883C125.832 59.9449 125.718 63.7016 125.705 67.4599C125.695 70.1416 125.355 72.8549 125.632 75.5316C125.775 76.9266 126.273 78.3733 127.38 79.2333C128.805 80.3399 131.118 80.3333 132.412 79.0283C133.087 78.3466 133.58 77.1249 133.665 76.1699C133.975 72.6833 133.665 69.4099 133.665 65.9083V26.2916C133.665 23.3383 133.632 20.3266 133.697 17.3516C133.745 15.0999 133.908 12.9333 134.677 10.7966C136.052 6.98326 138.893 3.77493 142.508 1.94159C144.74 0.809928 147.23 0.221596 149.733 0.221596C153.85 0.221596 157.863 1.83993 160.83 4.69493C163.78 7.53493 165.612 11.5266 165.723 15.6316C165.788 17.9866 165.665 20.3549 165.665 22.7116V100.823C165.665 101.84 165.665 102.855 165.665 103.872C165.665 106.485 165.91 109.718 169.292 109.988C170.89 110.117 172.323 109.215 173.075 107.83C173.967 106.188 173.595 104.265 173.595 102.482C173.595 97.2466 173.665 92.0133 173.665 86.7799V59.6049C173.665 57.1949 173.528 54.7583 174.083 52.3933C174.548 50.4133 175.4 48.5316 176.573 46.8716C178.932 43.5366 182.543 41.1816 186.543 40.3583C187.503 40.1599 188.482 40.0499 189.462 40.0266C189.597 40.0233 189.732 40.0216 189.868 40.0216H199.997V52.0216H189.868C189.807 52.0216 189.743 52.0233 189.682 52.0266C187.593 52.1199 185.917 53.7749 185.822 55.8366C185.818 55.9049 185.817 55.9749 185.817 56.0433V62.3249C185.817 67.6633 185.665 73.0016 185.663 78.3383C185.663 79.0133 185.663 79.6883 185.663 80.3633V99.9899C185.663 103.925 185.988 108.037 184.538 111.78C184.172 112.725 183.715 113.635 183.177 114.492C182.643 115.343 182.028 116.143 181.345 116.88C180.663 117.615 179.912 118.287 179.105 118.883C178.293 119.482 177.425 120.005 176.515 120.44C175.592 120.882 174.627 121.235 173.637 121.492C172.62 121.755 171.578 121.917 170.53 121.977C170.223 121.993 169.918 122.003 169.612 122.003C165.492 122.003 161.475 120.383 158.508 117.523C156.495 115.583 155.035 113.11 154.258 110.427C153.4 107.462 153.662 104.48 153.662 101.438V22.5616C153.662 20.3699 154.082 17.8133 153.663 15.6683C153.287 13.7366 151.755 12.2199 149.73 12.2199C148.462 12.2199 147.248 12.8366 146.5 13.8599C145.235 15.5883 145.728 18.1433 145.728 20.1449C145.728 22.8883 145.715 25.6316 145.708 28.3749C145.695 33.8616 145.682 39.3483 145.67 44.8333C145.67 50.7299 145.642 56.6283 145.628 62.5266C145.615 67.9883 146.255 73.9333 145.305 79.3166C145.017 80.9499 144.485 82.5366 143.657 83.9733C142.192 86.5149 140.028 88.6366 137.453 90.0466C135.108 91.3299 132.453 92.0033 129.782 92.0033C122.902 92.0033 116.382 87.3083 114.543 80.6249C113.427 76.5649 113.83 72.4066 113.83 68.2649C113.83 62.8849 113.778 57.4983 113.768 52.1266C113.768 49.1016 113.758 46.0749 113.753 43.0499C113.75 41.5216 113.748 39.9933 113.745 38.4649C113.743 37.1999 113.913 35.8316 113.395 34.6383C112.77 33.2016 111.302 32.2216 109.732 32.2216C108.407 32.2216 107.145 32.8966 106.407 33.9966C105.75 34.9749 105.697 36.2199 105.72 37.3599C105.813 41.6983 105.832 46.0316 105.83 50.3699C105.83 51.7733 105.83 53.1749 105.83 54.5783V89.6666C105.83 92.5483 105.962 95.5033 105.562 98.3883C105.267 100.517 104.447 102.588 103.297 104.4C101.052 107.935 97.4333 110.505 93.3483 111.435C92.1783 111.702 90.98 111.835 89.78 111.835C83.575 111.835 77.7983 108.122 75.2183 102.477C73.7433 99.2483 73.83 95.7866 73.83 92.3299V33.7433C73.83 30.7749 73.835 27.7483 73.845 24.7566C73.85 23.2283 73.8567 21.6999 73.8667 20.1716C73.875 18.7149 74.0767 17.1133 73.8833 15.6699C73.625 13.7366 71.8283 12.2183 69.8983 12.2183C68.7333 12.2183 67.61 12.7383 66.8533 13.6233C65.885 14.7583 65.9133 16.2183 65.9183 17.6266C65.925 19.5133 65.9183 21.3999 65.9183 23.2849C65.9183 24.9283 65.9133 26.5699 65.9133 28.2133C65.9133 29.0349 65.9133 29.8566 65.9167 30.6766C65.92 31.6933 65.83 32.7083 65.83 33.7283C65.83 34.8466 65.83 35.9666 65.83 37.0849V109.368C65.83 110.533 65.83 111.698 65.83 112.863C65.83 115.355 65.9167 117.778 65.2317 120.202C64.675 122.17 63.7317 124.025 62.475 125.638C59.9433 128.885 56.1817 131.068 52.1017 131.628C51.3767 131.728 50.6467 131.777 49.915 131.777C48.71 131.777 47.505 131.642 46.33 131.372C45.3183 131.138 44.33 130.805 43.3833 130.378C42.4517 129.958 41.56 129.448 40.725 128.857C39.8967 128.27 39.1233 127.603 38.42 126.868C37.7167 126.133 37.0833 125.333 36.5317 124.478C35.975 123.617 35.5033 122.702 35.1233 121.75C34.7433 120.798 34.4467 119.773 34.2583 118.747C34.0833 117.795 33.9967 116.828 33.9967 115.86C33.9967 115.767 33.9967 115.673 34 115.58C33.9983 115.552 33.9967 115.525 33.9967 115.497V71.5916C33.9783 71.5983 33.9617 71.6016 33.9433 71.6066V64.8183C33.9433 61.8399 34.1367 58.8233 33.95 55.8483C33.8183 53.7699 32.0533 52.1066 29.965 52.1066C28.52 52.1066 27.23 52.8816 26.5417 54.1499C25.8533 55.4183 25.9867 56.7566 25.9867 58.1199C25.9933 58.1666 25.9967 58.2133 25.9967 58.2616V93.9966C25.9967 96.3616 25.9367 98.6299 25.185 100.895C24.5417 102.832 23.5217 104.64 22.2017 106.195C19.5283 109.345 15.6717 111.375 11.5583 111.773C11.1717 111.81 10.785 111.833 10.3983 111.843C10.265 111.847 10.1317 111.848 9.99667 111.848H0V99.8483H10C10.0617 99.8483 10.1233 99.8466 10.185 99.8433C12.2467 99.7499 13.9017 98.0949 13.995 96.0333C13.9983 95.9649 14 95.8949 14 95.8266V67.2233C14 64.9683 14 62.7149 14 60.4599C14 58.0116 13.7917 55.4899 14.255 53.0716C14.64 51.0666 15.4133 49.1433 16.5217 47.4299C18.7233 44.0249 22.205 41.5316 26.1433 40.5649C27.3933 40.2583 28.68 40.1049 29.9667 40.1049C34.0867 40.1049 38.1067 41.7266 41.0733 44.5866C44.04 47.4466 45.7933 51.4099 45.9583 55.5433C45.9983 56.5299 46 57.5149 46 58.5033V109.252C46 110.632 46.0283 112.013 46.02 113.393C46.01 115.075 45.7017 117.027 46.8683 118.415C47.62 119.31 48.7483 119.835 49.9167 119.835C51.1417 119.835 52.3183 119.257 53.0667 118.287C54.0933 116.958 53.8333 115.34 53.8333 113.785V17.9166C53.8333 13.5216 54.7583 9.3716 57.645 5.93493C60.2817 2.79493 64.0917 0.749928 68.17 0.311595C68.745 0.249928 69.3233 0.218262 69.9017 0.218262C74.2333 0.218262 78.4433 2.01326 81.445 5.13826C83.1383 6.9016 84.4 9.05993 85.1367 11.3899C85.9083 13.8349 85.835 16.1699 85.835 18.6899C85.835 19.4183 85.835 20.1483 85.835 20.8766V90.0983C85.835 91.5466 85.8217 92.9966 85.8433 94.4449C85.865 96.0399 86.1683 98.4983 87.65 99.2116C89.1883 99.9516 91.095 100.078 92.275 98.8966C93.6683 97.4999 93.835 95.8266 93.835 93.9999C93.835 91.6216 93.835 82.7116 93.835 80.3333" fill="#233D90"/>
</svg>