<svg width="24" height="25" viewBox="0 0 24 25" fill="none" xmlns="http://www.w3.org/2000/svg">
  <path d="M12.0482 0C5.46332 0 0.0964826 5.36683 0.0964826 11.9518C0.0964826 14.0623 0.651256 16.1126 1.68844 17.9216L0 24.1206L6.33166 22.4563C8.0804 23.409 10.0462 23.9156 12.0482 23.9156C18.6332 23.9156 24 18.5487 24 11.9638C24 8.76784 22.7578 5.76482 20.5025 3.50955C18.2472 1.24221 15.2442 0 12.0482 0ZM12.0603 2.01407C14.7136 2.01407 17.198 3.05126 19.0794 4.93266C20.9487 6.81407 21.9859 9.31055 21.9859 11.9638C21.9859 17.4392 17.5236 21.8894 12.0482 21.8894C10.2633 21.8894 8.51457 21.4191 6.99497 20.5025L6.63317 20.2975L2.87035 21.2864L3.87136 17.6201L3.63015 17.2342C2.64121 15.6784 2.11055 13.8332 2.11055 11.9518C2.12261 6.47638 6.57286 2.01407 12.0603 2.01407ZM7.81507 6.42814C7.62211 6.42814 7.29648 6.5005 7.01909 6.80201C6.75377 7.10352 5.96985 7.8392 5.96985 9.29849C5.96985 10.7698 7.04322 12.1809 7.17588 12.3859C7.34472 12.591 9.29849 15.606 12.3015 16.8844C13.0131 17.21 13.5678 17.391 14.002 17.5236C14.7136 17.7528 15.3648 17.7166 15.8834 17.6442C16.4623 17.5598 17.6442 16.9206 17.8975 16.2211C18.1508 15.5216 18.1508 14.9307 18.0784 14.798C17.994 14.6774 17.801 14.605 17.4995 14.4724C17.198 14.3035 15.7266 13.5799 15.4613 13.4834C15.1839 13.3869 15.0151 13.3387 14.7859 13.6281C14.593 13.9296 14.0141 14.605 13.8452 14.798C13.6643 15.003 13.4955 15.0271 13.206 14.8824C12.8925 14.7256 11.9276 14.4121 10.794 13.399C9.90151 12.603 9.31055 11.6261 9.12965 11.3246C8.98492 11.0352 9.11759 10.8543 9.26231 10.7216C9.39497 10.5889 9.58794 10.3719 9.70854 10.191C9.86533 10.0221 9.91357 9.88945 10.01 9.69648C10.1065 9.49146 10.0583 9.32261 9.98593 9.17789C9.91357 9.04523 9.31055 7.54975 9.05729 6.95879C8.81608 6.3799 8.57487 6.45226 8.38191 6.4402C8.21306 6.4402 8.0201 6.42814 7.81507 6.42814Z" fill="black"/>
  </svg>
  