<svg width="24" height="24" viewBox="0 0 24 24" fill="none" xmlns="http://www.w3.org/2000/svg">
    <path d="M2.55267 17.356L1 23L6.78824 21.4811C8.38511 22.3566 10.1705 22.8115 12 22.8115C18.0105 22.8115 22.9006 17.9215 22.9006 11.9116C22.9053 10.4778 22.6254 9.05741 22.0772 7.73259C21.529 6.40778 20.7233 5.20493 19.7068 4.19374C17.6446 2.13087 14.9058 1 11.9889 1C5.97908 1 1.08904 5.89004 1.10009 11.9116C1.09764 13.8225 1.59865 15.7003 2.55267 17.356Z" stroke="#F7F7ED" stroke-width="2" stroke-linejoin="round"/>
    <path fill-rule="evenodd" clip-rule="evenodd" d="M9.08419 6.91993C8.86653 6.42363 8.62476 6.41157 8.41914 6.41157C8.23764 6.39952 8.04337 6.39952 7.83775 6.39952C7.6449 6.39952 7.31805 6.47184 7.04012 6.77459C6.76148 7.07663 6 7.7906 6 9.254C6 10.7181 7.06422 12.1333 7.20957 12.3268C7.35421 12.5204 9.2657 15.6167 12.2903 16.8149C14.8059 17.8068 15.3143 17.6132 15.8588 17.5523C16.4026 17.492 17.6129 16.839 17.8667 16.1371C18.1085 15.4479 18.1085 14.8431 18.0362 14.7219C17.9638 14.6014 17.7575 14.5283 17.4675 14.3709C17.1648 14.2263 15.7134 13.5003 15.4355 13.4031C15.1569 13.3067 14.9633 13.2585 14.7697 13.5485C14.5762 13.8512 14.0076 14.5163 13.8268 14.7098C13.6566 14.9034 13.4758 14.9275 13.1851 14.7821C12.8831 14.6375 11.9273 14.3227 10.7901 13.3067C9.90665 12.5197 9.31391 11.5406 9.13241 11.2506C8.96366 10.9478 9.1083 10.7904 9.2657 10.6451C9.39899 10.5125 9.56845 10.2948 9.7138 10.1254C9.85843 9.95521 9.90665 9.82262 10.0158 9.62906C10.1123 9.4355 10.064 9.254 9.99173 9.10936C9.9187 8.97606 9.35078 7.51267 9.08419 6.91993Z" stroke="#F7F7ED" stroke-width="1.5" stroke-linejoin="round"/>
</svg>    