<svg width="{% firstof width 50 %}" height="{% firstof width 50 %}" viewBox="0 0 171 171" fill="none" xmlns="http://www.w3.org/2000/svg">
<g id="icon_09_atv 2">
<g id="Camada_2">
<g id="Group">
<path id="Vector" d="M109.33 37.9969C111.274 37.0434 110.312 31.0973 107.182 24.7158C104.051 18.3344 99.9382 13.9341 97.9945 14.8875C96.0508 15.841 97.0127 21.7871 100.143 28.1686C103.273 34.5501 107.387 38.9503 109.33 37.9969Z" fill="#F6B7C1"/>
<path id="Vector_2" d="M114.902 25.746C115.836 18.6999 114.854 12.7571 112.708 12.4724C110.562 12.1878 108.065 17.6689 107.13 24.715C106.195 31.7611 107.177 37.7038 109.323 37.9885C111.47 38.2732 113.967 32.792 114.902 25.746Z" fill="#F6B7C1"/>
<path id="Vector_3" d="M120.76 30.8965C125.446 25.5521 127.926 20.0625 126.298 18.6351C124.67 17.2077 119.551 20.3832 114.865 25.7276C110.179 31.072 107.7 36.5616 109.327 37.989C110.955 39.4164 116.074 36.2409 120.76 30.8965Z" fill="#F6B7C1"/>
<path id="Vector_4" d="M122.768 38.4241C129.631 36.576 134.739 33.3832 134.176 31.2927C133.613 29.2022 127.593 29.0057 120.73 30.8538C113.866 32.7018 108.759 35.8946 109.321 37.9851C109.884 40.0756 115.905 40.2721 122.768 38.4241Z" fill="#F6B7C1"/>
</g>
<path id="Vector_5" d="M10.5498 12.9399L18.7298 155.41L161 162.25" stroke="#F9AE29" stroke-width="2" stroke-miterlimit="10"/>
<path id="Vector_6" d="M162.98 116.84C155.03 91.2299 143.13 71.6699 125.89 52.3799C123.99 50.2499 122.08 48.1699 119.87 46.3599C95.9198 26.7099 81.0198 17.2199 55.4098 9.26993C41.0698 4.81993 -1.27016 11.0099 7.63984 12.9399C7.63984 12.9399 29.9098 12.3199 40.1398 15.9499C59.7798 22.8999 86.6998 38.6499 108.18 60.6499C109.32 61.8099 110.48 62.9299 111.62 64.0899C130.95 83.6899 149.36 112.49 156.32 132.13C159.94 142.36 159.33 164.63 159.33 164.63C161.25 173.53 167.44 131.19 162.98 116.84Z" fill="#E22737"/>
<path id="Vector_7" d="M133.64 62.44L122.06 74.02C121.07 75.01 119.47 75.01 118.48 74.02L97.68 53.22C96.69 52.23 96.69 50.63 97.68 49.64L109.26 38.06C110.25 37.07 111.85 37.07 112.84 38.06L133.65 58.87C134.63 59.85 134.63 61.45 133.64 62.44Z" fill="#EB603B"/>
<g id="Group_2">
<path id="Vector_8" d="M52.9998 119.7L52.1798 118.88H27.9998C27.9998 118.88 27.0198 118.88 26.5598 118.88C22.9398 118.88 19.5798 121.56 19.5798 124.98C19.5798 125.29 17.8098 125.48 16.5698 125.68C13.0898 126.24 10.6698 129.12 11.1498 132.12C11.2598 132.82 11.5298 133.47 11.9098 134.04C12.0598 134.26 11.9298 134.55 11.6798 134.64C11.0198 134.87 10.3598 135.19 9.71979 135.6C6.27979 137.82 4.91979 141.82 6.66979 144.53C7.08979 145.18 7.64979 145.69 8.30979 146.07C7.81979 146.29 7.33979 146.56 6.89979 146.91C4.16979 149.04 3.53979 152.79 5.49979 155.3C6.00979 155.95 6.63979 156.45 7.34979 156.8C7.06979 156.95 6.78979 157.13 6.52979 157.33C6.48979 157.36 6.44979 157.39 6.41979 157.42C6.15979 157.62 5.90979 157.83 5.66979 158.07C5.02979 158.71 4.52979 159.44 4.16979 160.21C3.80979 160.98 3.60979 161.78 3.55979 162.57C3.44979 164.15 3.94979 165.69 5.06979 166.82C6.04979 167.8 7.35979 168.31 8.72979 168.34H8.73979C9.80979 168.37 10.9198 168.11 11.9498 167.58C12.3798 167.36 12.7998 167.09 13.1898 166.77C13.2498 166.73 13.2998 166.68 13.3598 166.64C13.5198 166.51 13.6698 166.37 13.8198 166.22C14.0598 165.98 14.2698 165.73 14.4698 165.47C14.4998 165.43 14.5298 165.39 14.5598 165.36C14.7598 165.09 14.9298 164.82 15.0898 164.54C15.4398 165.25 15.9398 165.88 16.5898 166.39C19.0998 168.34 22.8498 167.72 24.9798 164.99C25.3298 164.54 25.5998 164.07 25.8198 163.58C26.1998 164.24 26.7098 164.8 27.3598 165.22C30.0698 166.97 34.0698 165.61 36.2898 162.17C36.8098 161.36 37.1798 160.51 37.4198 159.67C38.0898 160.22 38.8798 160.61 39.7698 160.75C42.7698 161.23 45.6498 158.81 46.2098 155.33C46.4098 154.09 46.2798 152.88 45.8998 151.82C46.1998 151.87 46.4998 151.9 46.8098 151.9C50.2298 151.9 53.0098 148.96 53.0098 145.34C53.0098 144.88 52.9598 144.43 52.8798 144L53.0098 143.9V119.7H52.9998Z" fill="#F6B7C1"/>
<g id="Group_3">
<path id="Vector_9" d="M46.3599 147.92C43.1799 141.82 44.9299 128.34 44.9499 128.2C44.9999 127.83 44.7599 127.5 44.4099 127.39C44.4299 127.28 44.4399 127.17 44.4099 127.06C44.3099 126.66 43.9099 126.41 43.4999 126.51C43.3699 126.54 30.9399 129.55 23.9199 125.12C23.5699 124.9 23.1099 125 22.8899 125.35C22.6699 125.7 22.7699 126.16 23.1199 126.38C26.3999 128.45 30.6499 129.05 34.4399 129.05C38.6299 129.05 42.2599 128.33 43.4599 128.06C43.3099 129.19 41.7099 142.23 45.0299 148.6C45.1599 148.86 45.4299 149 45.6999 149C45.8199 149 45.9399 148.97 46.0499 148.92C46.4099 148.74 46.5499 148.28 46.3599 147.92Z" fill="#E22737"/>
<path id="Vector_10" d="M36.8098 136.11C36.8798 135.84 36.7798 135.58 36.5898 135.4C36.5898 135.32 36.5898 135.24 36.5698 135.17C36.4598 134.77 36.0398 134.54 35.6398 134.65C35.5198 134.68 23.4498 138.06 15.2098 134.68C14.8298 134.52 14.3898 134.71 14.2298 135.09C14.0698 135.47 14.2598 135.91 14.6398 136.07C17.6298 137.3 21.0098 137.7 24.1998 137.7C29.0598 137.7 33.4298 136.75 35.2198 136.31C34.6498 138.85 32.5798 149.34 35.3698 157.11C35.4798 157.42 35.7698 157.61 36.0798 157.61C36.1598 157.61 36.2498 157.6 36.3298 157.57C36.7198 157.43 36.9198 157 36.7798 156.61C33.8098 148.33 36.7798 136.23 36.8098 136.11Z" fill="#E22737"/>
<path id="Vector_11" d="M27.8598 144.01C27.7198 143.85 27.5398 143.77 27.3398 143.75C27.1598 143.49 26.8298 143.35 26.5098 143.45C26.4098 143.48 16.8898 146.3 11.7698 144.72C11.3798 144.6 10.9598 144.82 10.8298 145.22C10.7098 145.62 10.9298 146.04 11.3298 146.16C12.5998 146.55 14.0898 146.7 15.6298 146.7C19.2298 146.7 23.1298 145.87 25.2798 145.33C23.9298 146.63 21.8998 148.75 19.9298 151.34C16.5098 154.21 10.2798 155.42 10.2198 155.43C9.80976 155.51 9.54976 155.9 9.61976 156.31C9.68976 156.67 9.99976 156.92 10.3598 156.92C10.4098 156.92 10.4498 156.92 10.4998 156.91C10.7098 156.87 14.3898 156.16 17.7898 154.48C16.3098 156.88 15.0898 159.51 14.5998 162.17C14.5298 162.58 14.7998 162.97 15.1998 163.04C15.2498 163.05 15.2898 163.05 15.3398 163.05C15.6998 163.05 16.0098 162.8 16.0798 162.43C17.1698 156.43 22.4598 150.33 25.5398 147.21C24.6098 149.93 23.6598 154.64 25.2898 160.44C25.3798 160.77 25.6798 160.99 26.0098 160.99C26.0798 160.99 26.1498 160.98 26.2098 160.96C26.6098 160.85 26.8398 160.43 26.7298 160.03C24.3598 151.62 27.8898 145.5 27.9298 145.44C28.0498 145.23 28.0498 144.99 27.9698 144.78C28.0798 144.53 28.0498 144.23 27.8598 144.01Z" fill="#E22737"/>
</g>
<path id="Vector_12" d="M150.93 25.2099L161.99 9.79993L146.26 21.1999L76.4798 90.9999C56.0898 111.05 50.5398 117.75 23.6798 147.22C23.1398 147.81 23.9798 148.64 24.5698 148.1C52.8698 122.3 61.0298 115.3 80.1298 95.9999L150.93 25.2099Z" fill="#E22737"/>
<path id="Vector_13" d="M149.71 26.71L154.89 16.92L145.05 22.17L145.78 20.48C147.73 15.96 151.03 12.16 155.22 9.57998C159.78 6.77998 165.2 3.82998 166.29 4.91998C167.31 5.93998 165.05 10.9 162.67 15.38C160.09 20.24 155.93 24.08 150.86 26.22L149.71 26.71Z" fill="#F9AE29"/>
</g>
<g id="Group_4">
<path id="Vector_14" d="M127.802 94.0957C129.462 93.5947 129.474 88.7692 127.829 83.3177C126.184 77.8662 123.505 73.8531 121.845 74.3541C120.184 74.8551 120.172 79.6805 121.817 85.132C123.462 90.5835 126.141 94.5967 127.802 94.0957Z" fill="#F6B7C1"/>
<path id="Vector_15" d="M121.842 85.1368C123.496 79.6887 123.493 74.8636 121.833 74.3597C120.174 73.8557 117.488 77.8637 115.833 83.3118C114.178 88.7599 114.182 93.5849 115.841 94.0889C117.501 94.5928 120.187 90.5848 121.842 85.1368Z" fill="#F6B7C1"/>
<path id="Vector_16" d="M115.863 83.3209C120.262 79.7052 122.935 75.6881 121.833 74.3484C120.732 73.0088 116.274 74.8539 111.875 78.4696C107.476 82.0854 104.803 86.1025 105.905 87.4421C107.006 88.7818 111.464 86.9367 115.863 83.3209Z" fill="#F6B7C1"/>
<path id="Vector_17" d="M111.896 78.4998C117.562 77.9309 122.014 76.071 121.841 74.3455C121.668 72.62 116.934 71.6823 111.269 72.2512C105.603 72.82 101.151 74.6799 101.324 76.4054C101.497 78.1309 106.23 79.0686 111.896 78.4998Z" fill="#F6B7C1"/>
<path id="Vector_18" d="M121.832 74.3451C122.645 72.8133 119.227 69.4076 114.197 66.7382C109.168 64.0689 104.432 63.1467 103.619 64.6785C102.806 66.2103 106.224 69.616 111.253 72.2854C116.283 74.9547 121.019 75.8769 121.832 74.3451Z" fill="#F6B7C1"/>
<path id="Vector_19" d="M121.837 74.3382C123.364 73.5145 122.408 68.7846 119.703 63.7739C116.999 58.7631 113.569 55.3688 112.043 56.1926C110.517 57.0163 111.472 61.7461 114.177 66.7569C116.882 71.7676 120.311 75.1619 121.837 74.3382Z" fill="#F6B7C1"/>
</g>
<path id="Vector_20" d="M109.323 37.9937C110.411 36.1223 106.313 31.7086 100.169 28.1355C94.0245 24.5623 88.1614 23.1828 87.0731 25.0542C85.9848 26.9256 90.0833 31.3392 96.2274 34.9124C102.371 38.4855 108.234 39.8651 109.323 37.9937Z" fill="#F6B7C1"/>
<g id="Group_5">
<path id="Vector_21" d="M96.7016 51.5852C97.547 51.2601 97.3679 48.7483 96.3015 45.9749C95.2351 43.2015 93.6853 41.2167 92.8399 41.5418C91.9944 41.8668 92.1736 44.3787 93.24 47.1521C94.3064 49.9255 95.8562 51.9102 96.7016 51.5852Z" fill="#EB603B"/>
<path id="Vector_22" d="M96.3419 50.223C96.9812 49.5814 95.7931 47.3612 93.6882 45.2641C91.5834 43.1669 89.3588 41.987 88.7195 42.6286C88.0802 43.2703 89.2683 45.4905 91.3732 47.5876C93.4781 49.6847 95.7026 50.8647 96.3419 50.223Z" fill="#F9AE29"/>
<path id="Vector_23" d="M96.7023 51.5935C97.2255 50.8542 95.6834 48.8635 93.2579 47.1473C90.8324 45.4311 88.4421 44.6392 87.9189 45.3786C87.3958 46.1179 88.9379 48.1086 91.3634 49.8248C93.7888 51.541 96.1792 52.3329 96.7023 51.5935Z" fill="#EB603B"/>
<path id="Vector_24" d="M96.3346 50.2171C96.5105 49.3287 94.2905 48.1404 91.376 47.5631C88.4614 46.9858 85.9561 47.238 85.7801 48.1264C85.6041 49.0149 87.8241 50.2031 90.7387 50.7804C93.6532 51.3578 96.1586 51.1055 96.3346 50.2171Z" fill="#F9AE29"/>
<path id="Vector_25" d="M96.7007 51.5959C96.7259 50.6906 94.3385 49.8896 91.3684 49.807C88.3983 49.7244 85.9702 50.3914 85.945 51.2968C85.9198 52.2022 88.3072 53.0031 91.2773 53.0857C94.2474 53.1683 96.6755 52.5013 96.7007 51.5959Z" fill="#EB603B"/>
<path id="Vector_26" d="M91.9979 53.7947C94.7433 52.6585 96.6882 51.0589 96.3418 50.222C95.9955 49.3851 93.4891 49.6278 90.7436 50.764C87.9981 51.9002 86.0532 53.4997 86.3996 54.3366C86.746 55.1736 89.2524 54.9309 91.9979 53.7947Z" fill="#F9AE29"/>
<path id="Vector_27" d="M93.0125 55.8452C95.5298 54.2666 97.1803 52.3648 96.6991 51.5974C96.2179 50.8301 93.7871 51.4878 91.2698 53.0664C88.7526 54.6451 87.102 56.5469 87.5832 57.3142C88.0645 58.0816 90.4952 57.4239 93.0125 55.8452Z" fill="#EB603B"/>
<path id="Vector_28" d="M94.7144 55.6059C96.3688 53.1377 97.1001 50.7279 96.3477 50.2236C95.5953 49.7193 93.6441 51.3114 91.9897 53.7796C90.3353 56.2479 89.6041 58.6576 90.3565 59.1619C91.1089 59.6663 93.06 58.0742 94.7144 55.6059Z" fill="#F9AE29"/>
<path id="Vector_29" d="M95.9922 57.1696C97.211 54.4598 97.5294 51.9619 96.7034 51.5903C95.8773 51.2188 94.2196 53.1143 93.0008 55.8242C91.782 58.534 91.4636 61.0319 92.2896 61.4034C93.1157 61.775 94.7734 59.8794 95.9922 57.1696Z" fill="#EB603B"/>
<path id="Vector_30" d="M97.5592 56.0934C97.9609 53.1495 97.5591 50.6636 96.6617 50.5412C95.7643 50.4187 94.7111 52.706 94.3094 55.65C93.9077 58.5939 94.3095 61.0797 95.2069 61.2022C96.1044 61.3247 97.1575 59.0374 97.5592 56.0934Z" fill="#F9AE29"/>
<path id="Vector_31" d="M98.4766 62.2098C99.37 62.0609 99.6981 59.5641 99.2093 56.6332C98.7205 53.7024 97.6 51.4472 96.7066 51.5962C95.8131 51.7452 95.4851 54.2419 95.9739 57.1728C96.4627 60.1037 97.5832 62.3588 98.4766 62.2098Z" fill="#EB603B"/>
<path id="Vector_32" d="M102.299 59.1938C103.054 58.6933 102.335 56.2799 100.693 53.8033C99.0508 51.3267 97.1077 49.7248 96.3528 50.2253C95.5978 50.7258 96.3169 53.1392 97.9588 55.6158C99.6008 58.0924 101.544 59.6943 102.299 59.1938Z" fill="#F9AE29"/>
</g>
<g id="Group_6">
<path id="Vector_33" d="M138.88 72.5943C139.911 72.1979 139.691 69.1309 138.388 65.7441C137.086 62.3572 135.195 59.933 134.164 60.3294C133.133 60.7259 133.353 63.7928 134.655 67.1797C135.957 70.5665 137.849 72.9907 138.88 72.5943Z" fill="#EB603B"/>
<path id="Vector_34" d="M143.906 71.2831C144.686 70.5006 143.234 67.7902 140.663 65.2292C138.093 62.6682 135.377 61.2264 134.598 62.0089C133.818 62.7913 135.27 65.5018 137.84 68.0628C140.411 70.6238 143.126 72.0655 143.906 71.2831Z" fill="#F9AE29"/>
<path id="Vector_35" d="M144.882 67.9279C145.52 67.0262 143.636 64.5963 140.674 62.5005C137.713 60.4046 134.794 59.4366 134.156 60.3382C133.518 61.2399 135.402 63.6698 138.364 65.7657C141.326 67.8615 144.244 68.8296 144.882 67.9279Z" fill="#EB603B"/>
<path id="Vector_36" d="M147.483 64.5604C147.698 63.4769 144.986 62.0271 141.427 61.3221C137.868 60.617 134.809 60.9238 134.594 62.0073C134.38 63.0908 137.091 64.5406 140.65 65.2457C144.209 65.9507 147.269 65.6439 147.483 64.5604Z" fill="#F9AE29"/>
<path id="Vector_37" d="M147.295 60.6949C147.326 59.5908 144.411 58.614 140.784 58.5131C137.156 58.4122 134.191 59.2255 134.161 60.3297C134.13 61.4338 137.045 62.4106 140.672 62.5115C144.299 62.6124 147.265 61.7991 147.295 60.6949Z" fill="#EB603B"/>
<path id="Vector_38" d="M141.436 61.3348C144.789 59.9472 147.164 57.995 146.742 56.9744C146.32 55.9538 143.259 56.2512 139.907 57.6388C136.554 59.0263 134.178 60.9785 134.601 61.9991C135.023 63.0197 138.083 62.7223 141.436 61.3348Z" fill="#F9AE29"/>
<path id="Vector_39" d="M140.797 58.5362C143.871 56.6084 145.887 54.287 145.3 53.3512C144.713 52.4154 141.746 53.2196 138.672 55.1474C135.597 57.0753 133.581 59.3967 134.168 60.3325C134.755 61.2683 137.723 60.4641 140.797 58.5362Z" fill="#EB603B"/>
<path id="Vector_40" d="M139.927 57.6495C141.948 54.6353 142.842 51.6932 141.924 51.0782C141.006 50.4632 138.625 52.4081 136.604 55.4223C134.584 58.4365 133.69 61.3786 134.608 61.9936C135.525 62.6086 137.907 60.6637 139.927 57.6495Z" fill="#F9AE29"/>
<path id="Vector_41" d="M138.672 55.1549C140.16 51.8457 140.55 48.7958 139.543 48.3427C138.535 47.8896 136.512 50.2049 135.024 53.5141C133.535 56.8233 133.145 59.8733 134.153 60.3264C135.16 60.7795 137.183 58.4641 138.672 55.1549Z" fill="#EB603B"/>
<path id="Vector_42" d="M137.064 55.3743C137.555 51.7791 137.065 48.7436 135.971 48.5943C134.877 48.445 133.592 51.2383 133.101 54.8335C132.611 58.4286 133.1 61.4641 134.194 61.6134C135.289 61.7628 136.574 58.9694 137.064 55.3743Z" fill="#F9AE29"/>
<path id="Vector_43" d="M134.164 60.333C135.254 60.1513 135.653 57.1025 135.056 53.5233C134.459 49.9442 133.092 47.19 132.003 47.3717C130.913 47.5534 130.514 50.6022 131.111 54.1813C131.707 57.7605 133.075 60.5147 134.164 60.333Z" fill="#EB603B"/>
<path id="Vector_44" d="M134.596 61.9951C135.517 61.3847 134.638 58.4381 132.633 55.4138C130.627 52.3894 128.256 50.4325 127.335 51.0429C126.414 51.6533 127.293 54.5998 129.299 57.6242C131.304 60.6485 133.675 62.6054 134.596 61.9951Z" fill="#F9AE29"/>
</g>
</g>
</g>
</svg>
