<svg width="13" height="24" viewBox="0 0 13 24" fill="none" xmlns="http://www.w3.org/2000/svg">
  <path
    d="M0.415129 12.7824H3.23609V23.6129C3.23609 23.8267 3.42187 24 3.65117 24H8.43423C8.66353 24 8.84931 23.8267 8.84931 23.6129V12.8334H12.0923C12.3031 12.8334 12.4806 12.6859 12.5047 12.4905L12.9972 8.50331C13.0107 8.39363 12.9735 8.28375 12.8947 8.20144C12.816 8.11908 12.7032 8.07192 12.5849 8.07192H8.84951V5.5725C8.84951 4.81908 9.28449 4.437 10.1426 4.437C10.2649 4.437 12.5849 4.437 12.5849 4.437C12.8142 4.437 13 4.26366 13 4.04991V0.389953C13 0.176109 12.8142 0.00285937 12.5849 0.00285937H9.219C9.19528 0.00178125 9.14255 0 9.06484 0C8.48083 0 6.45082 0.106922 4.84725 1.48266C3.07052 3.00722 3.31752 4.83258 3.37653 5.14908V8.07183H0.415079C0.185776 8.07183 0 8.24508 0 8.45892V12.3953C5.02639e-05 12.609 0.185825 12.7824 0.415129 12.7824Z"
    fill="#395AA1" />
</svg>
