<svg width="24" height="24" viewBox="0 0 24 24" fill="none" xmlns="http://www.w3.org/2000/svg">
  <path
    d="M21.1153 1.34429L21.1152 1.34403C19.8655 0.344591 18.2748 -0.127122 16.6822 0.029467C15.0897 0.186056 13.6213 0.958557 12.5901 2.18227L10.7957 4.32991C10.5354 4.64147 10.4095 5.04369 10.4458 5.44806C10.482 5.85244 10.6774 6.22586 10.989 6.48618C11.3005 6.74649 11.7028 6.87237 12.1071 6.83613C12.5115 6.79989 12.8849 6.6045 13.1452 6.29294L14.9397 4.14503C15.2018 3.83234 15.5239 3.57535 15.8869 3.38926C16.25 3.20317 16.6467 3.09175 17.0536 3.06158C17.4604 3.03141 17.8692 3.08311 18.2558 3.21362C18.6423 3.34413 18.9988 3.5508 19.3041 3.82142C19.892 4.3677 20.2465 5.11961 20.294 5.92068C20.3415 6.72176 20.0782 7.51029 19.559 8.12218L15.8283 12.5889L15.7939 12.6269C15.5947 12.858 15.3611 13.0573 15.1015 13.2177C14.5014 13.59 13.7906 13.7424 13.0905 13.6488C12.3905 13.5552 11.7447 13.2215 11.2634 12.7046C10.9864 12.4084 10.6033 12.2342 10.198 12.2202C9.79277 12.2062 9.39851 12.3536 9.10178 12.63C8.80505 12.9063 8.63008 13.2891 8.61528 13.6944C8.60048 14.0996 8.74705 14.4941 9.02282 14.7914C9.71512 15.5343 10.5815 16.093 11.5438 16.4172C12.5061 16.7415 13.5339 16.8209 14.5346 16.6485C14.8476 16.5935 15.1559 16.5147 15.4569 16.4128C16.5202 16.0541 17.4634 15.4079 18.1819 14.546L21.9034 10.0918C22.4327 9.45322 22.8304 8.71629 23.0738 7.92339C23.3172 7.1305 23.4014 6.2973 23.3216 5.47175C23.2486 4.67117 23.0157 3.89338 22.6367 3.18441C22.2578 2.47545 21.7404 1.84973 21.1153 1.34429Z"
    fill="#EDB052" />
  <path
    d="M10.0989 17.8838L8.49521 19.8032C7.98532 20.4229 7.2561 20.8221 6.4593 20.9178C5.66251 21.0134 4.85952 20.7981 4.21746 20.3167C3.89685 20.0644 3.63009 19.7504 3.43293 19.3932C3.23576 19.036 3.11221 18.6429 3.06957 18.2372C3.02693 17.8315 3.06607 17.4213 3.18466 17.0309C3.30326 16.6406 3.49892 16.2779 3.76007 15.9645L7.55506 11.4221L7.58299 11.3909C7.78228 11.1598 8.01582 10.9606 8.27548 10.8003C8.8196 10.461 9.45706 10.3023 10.0968 10.347C10.7365 10.3917 11.3457 10.6375 11.8373 11.0492C11.9551 11.1475 12.0653 11.2545 12.1671 11.3692C12.3129 11.5342 12.4926 11.6657 12.6939 11.7548C12.8952 11.8439 13.1133 11.8885 13.3334 11.8855C13.5509 11.8824 13.7652 11.8324 13.9616 11.7389C14.158 11.6454 14.3319 11.5106 14.4714 11.3438L14.4897 11.3217C14.7239 11.0442 14.8502 10.6917 14.8455 10.3286C14.8408 9.96553 14.7053 9.61634 14.464 9.34503C13.8813 8.6852 13.1629 8.15905 12.358 7.80261C11.5531 7.44618 10.6807 7.26786 9.80047 7.27987C8.92025 7.29187 8.05301 7.49393 7.25813 7.87219C6.46324 8.25045 5.75946 8.796 5.19498 9.47149L1.41057 14.0015C0.389835 15.2339 -0.109132 16.8163 0.0200393 18.4113C0.14921 20.0063 0.896301 21.4878 2.10205 22.54C2.7106 23.0652 3.41836 23.463 4.18341 23.7098C4.94846 23.9566 5.75526 24.0474 6.55603 23.9768C6.74691 23.9614 6.93632 23.9371 7.12427 23.904C8.5795 23.6491 9.89853 22.8901 10.85 21.7599L12.4484 19.8468C12.7087 19.5352 12.8346 19.133 12.7983 18.7286C12.7621 18.3243 12.5667 17.9508 12.2551 17.6905C11.9436 17.4302 11.5413 17.3043 11.137 17.3406C10.7326 17.3768 10.3592 17.5722 10.0989 17.8838Z"
    fill="#EDB052" />
</svg>