<svg width="30" height="24" viewBox="0 0 30 24" fill="none" xmlns="http://www.w3.org/2000/svg">
  <path
    d="M30 2.83958C28.8958 3.32144 27.7111 3.64824 26.4663 3.79413C27.7373 3.04452 28.7102 1.85552 29.1714 0.443097C27.9791 1.13729 26.6631 1.64136 25.2608 1.91462C24.1379 0.734842 22.5407 0 20.7692 0C17.3704 0 14.6147 2.71405 14.6147 6.05954C14.6147 6.53402 14.669 6.99744 14.774 7.44058C9.66002 7.18761 5.12525 4.77452 2.0902 1.10774C1.55966 2.00137 1.25785 3.04264 1.25785 4.15414C1.25785 6.25709 2.34515 8.11262 3.99486 9.1982C2.98628 9.16498 2.0377 8.89173 1.20726 8.43753V8.51323C1.20726 11.4488 3.32937 13.8989 6.1432 14.4565C5.62766 14.5931 5.08403 14.6688 4.52163 14.6688C4.12422 14.6688 3.73991 14.63 3.36309 14.5562C4.14667 16.9656 6.41878 18.7177 9.1108 18.7657C7.00555 20.3905 4.35104 21.3561 1.46785 21.3561C0.97108 21.3561 0.481765 21.3265 0 21.273C2.72388 22.9956 5.95766 24 9.43325 24C20.7542 24 26.9425 14.7648 26.9425 6.75561L26.9219 5.97095C28.131 5.12159 29.177 4.05445 30 2.83958Z"
    fill="#3C9CD8" />
</svg>