<svg width="713" height="593" viewBox="0 0 713 593" fill="none" xmlns="http://www.w3.org/2000/svg">
<path d="M663.284 50.3264C631.325 -2.55982 564.915 -38.9002 502.283 -55.3705C489.893 -58.6192 477.653 -61.1124 465.867 -62.7745C413.585 -70.1786 374.978 -67.6098 345.967 -55.3705C291.569 -32.4027 271.019 24.7899 257.42 114.696C258.478 114.545 259.46 114.394 260.518 114.243C332.518 103.893 381.703 112.052 415.172 139.855C453.854 171.889 472.213 229.988 476.671 333.872H476.067C476.067 343.543 475.991 352.684 475.84 361.373C570.431 348.453 630.796 286.35 663.208 200.901C669.328 184.657 674.541 167.583 678.696 149.904C687.611 112.279 680.434 78.8849 663.284 50.3264Z" fill="#91CEC1"/>
<path d="M412.452 143.179C389.031 123.763 357.526 114.243 315.368 114.243C298.973 114.243 280.992 115.679 261.197 118.55C212.92 125.5 154.216 147.108 110.396 182.089C85.5394 202.865 65.896 227.269 54.7143 254.014C45.1948 278.795 43.5326 305.011 49.879 332.437C60.6829 379.127 80.2508 431.183 115.307 472.509C148.021 509.454 191.236 534.764 246.313 543.15C250.922 543.83 255.606 544.435 260.366 544.888C277.819 546.55 293.836 547.381 308.493 547.381H308.644C328.212 547.381 345.437 545.87 360.623 543.075C407.768 534.386 435.193 512.854 451.21 482.407C469.947 443.875 471.911 391.291 471.911 332.89H472.44C467.907 230.971 449.925 174.231 412.452 143.179Z" fill="#91CEC1"/>
</svg>
