<svg width="869" height="869" viewBox="0 0 869 869" fill="none" xmlns="http://www.w3.org/2000/svg">
<path d="M434.535 606.963C339.393 606.963 262.258 529.828 262.258 434.686C262.258 339.543 339.393 262.408 434.535 262.408C529.678 262.408 606.813 339.543 606.813 434.686C606.813 529.828 529.678 606.963 434.535 606.963ZM434.368 404.405C417.66 404.405 404.112 417.953 404.112 434.661C404.112 451.369 417.66 464.916 434.368 464.916C451.076 464.916 464.623 451.369 464.623 434.661C464.623 417.953 451.076 404.405 434.368 404.405Z" fill="#233D90"/>
<path d="M433.468 702.196C285.368 702.196 165.311 582.138 165.311 434.038C165.311 285.939 285.368 165.881 433.468 165.881C581.568 165.881 701.626 285.939 701.626 434.038C701.626 582.138 581.568 702.196 433.468 702.196ZM433.057 246.403C329.029 246.403 244.692 330.739 244.692 434.768C244.692 538.797 329.029 623.133 433.057 623.133C537.086 623.133 621.423 538.797 621.423 434.768C621.423 330.739 537.086 246.403 433.057 246.403Z" fill="#233D90"/>
<path d="M434.175 794.178C235.565 794.178 74.5547 633.168 74.5547 434.558C74.5547 235.949 235.565 74.9385 434.175 74.9385C632.784 74.9385 793.794 235.949 793.794 434.558C793.794 633.168 632.784 794.178 434.175 794.178ZM434.175 149.575C276.786 149.575 149.191 277.17 149.191 434.558C149.191 591.947 276.786 719.541 434.175 719.541C591.563 719.541 719.158 591.947 719.158 434.558C719.158 277.17 591.563 149.575 434.175 149.575Z" fill="#233D90"/>
<path d="M434.257 868.513C194.426 868.513 0 674.087 0 434.257C0 194.426 194.426 -6.10352e-05 434.257 -6.10352e-05C674.087 -6.10352e-05 868.513 194.426 868.513 434.257C868.513 674.087 674.087 868.513 434.257 868.513ZM434.173 51.1886C222.443 51.1886 50.803 222.829 50.803 434.558C50.803 646.288 222.452 817.928 434.173 817.928C645.894 817.928 817.543 646.288 817.543 434.558C817.543 222.829 645.902 51.1886 434.173 51.1886Z" fill="#233D90"/>
</svg>
