<svg width="96" height="96" viewBox="0 0 96 96" fill="none" xmlns="http://www.w3.org/2000/svg">
<circle cx="20" cy="20" r="20" fill="#233D90"/>
<path d="M23.6782 8C23.0504 8 22.436 8.06232 21.839 8.1822C21.2424 8.06232 20.6277 8 19.9998 8C19.372 8 18.7576 8.06232 18.1607 8.1822C17.564 8.06232 16.9493 8 16.3215 8C10.6211 8 6 13.1487 6 19.5002C6 25.8517 10.6211 31 16.3215 31C16.9493 31 17.5637 30.9377 18.1607 30.8178C18.7573 30.9377 19.372 31 19.9998 31C20.6277 31 21.2421 30.9377 21.839 30.8178C22.4357 30.9377 23.0504 31 23.6782 31C29.3789 31 34 25.8514 34 19.5002C34 13.149 29.3789 8 23.6782 8ZM21.9552 9.86221C21.9937 9.89013 22.0319 9.9184 22.0701 9.94701C25.9417 10.9844 28.8186 14.8678 28.8186 19.5002C28.8186 24.1325 25.9417 28.0153 22.0701 29.053C22.0322 29.0816 21.9937 29.1099 21.9552 29.1378C21.9164 29.1293 21.8779 29.1204 21.8393 29.1112C21.9167 29.0928 21.9934 29.0738 22.0698 29.053C24.8285 26.9888 26.6435 23.4807 26.6435 19.5002C26.6435 15.5197 24.8285 12.0115 22.0698 9.94701C21.9934 9.92623 21.9164 9.90682 21.8393 9.88877C21.8779 9.87957 21.9164 9.87072 21.9552 9.86221ZM20.0005 10.5679C23.0342 12.1212 25.1406 15.5363 25.1406 19.5002C25.1406 23.464 23.0339 26.8792 20.0005 28.4321C16.9667 26.8792 14.8601 23.4637 14.8601 19.5002C14.8601 15.5367 16.9667 12.1208 20.0005 10.5679ZM7.50358 19.4998C7.50358 14.8678 10.3805 10.9844 14.2521 9.94666C11.4938 12.0108 9.6787 15.519 9.6787 19.4998C9.6787 23.4807 11.4938 26.9885 14.2521 29.0527C10.3805 28.0153 7.50358 24.1315 7.50358 19.4998ZM18.0451 29.1375C18.0066 29.1099 17.9681 29.0816 17.9302 29.0527C14.0586 28.0153 11.1817 24.1315 11.1817 19.4998C11.1817 14.8682 14.0586 10.9844 17.9302 9.94666C17.9681 9.91806 18.0066 9.88979 18.0451 9.86186C18.0839 9.87038 18.1227 9.87923 18.1613 9.88843C18.0839 9.90682 18.0069 9.92623 17.9302 9.94666C15.1718 12.0108 13.3568 15.519 13.3568 19.4998C13.3568 23.4807 15.1718 26.9885 17.9302 29.0527C18.0066 29.0731 18.0836 29.0928 18.1613 29.1109C18.1227 29.1201 18.0839 29.1289 18.0451 29.1375ZM25.7479 29.0527C28.5066 26.9885 30.3216 23.4803 30.3216 19.4998C30.3216 15.5193 28.5066 12.0112 25.7479 9.94666C29.6195 10.984 32.4964 14.8675 32.4964 19.4998C32.4964 24.1322 29.6195 28.015 25.7479 29.0527Z" fill="#E02437"/>
</svg>
