<svg width="375" height="294" viewBox="0 0 375 294" fill="none" xmlns="http://www.w3.org/2000/svg">
<path d="M174.19 179.074V93.5988C174.19 88.1944 173.865 82.7826 174.239 77.382C174.597 72.1824 176.079 67.2623 178.678 62.7257C183.184 54.8668 190.673 48.8814 199.361 46.2444C202.743 45.2164 206.275 44.7024 209.81 44.7024C219.047 44.7024 228.056 48.3302 234.701 54.7328C241.574 61.3513 244.889 69.8881 245.625 79.248C246.032 84.4251 245.868 89.6433 245.868 94.8391V125.079C245.868 133.474 245.614 141.869 245.584 150.268C245.561 156.261 244.8 162.325 245.42 168.306C245.741 171.424 246.857 174.657 249.336 176.579C252.528 179.052 257.71 179.037 260.607 176.121C262.119 174.597 263.224 171.867 263.415 169.733C264.109 161.941 263.415 154.626 263.415 146.801V58.2674C263.415 51.6674 263.34 44.9371 263.486 38.2887C263.594 33.2568 263.96 28.4148 265.681 23.6399C268.761 15.1181 275.126 7.94826 283.224 3.85122C288.223 1.32223 293.801 0.00745076 299.408 0.00745076C308.63 0.00745076 317.62 3.62402 324.265 10.0042C330.873 16.3509 334.976 25.2713 335.226 34.445C335.372 39.7078 335.096 45.0004 335.096 50.267V224.827C335.096 227.099 335.096 229.367 335.096 231.639C335.096 237.479 335.645 244.705 343.22 245.309C346.8 245.595 350.011 243.58 351.694 240.485C353.692 236.816 352.859 232.518 352.859 228.533C352.859 216.834 353.016 205.139 353.016 193.444V132.714C353.016 127.329 352.71 121.883 353.953 116.598C354.995 112.173 356.903 107.968 359.531 104.259C364.814 96.8057 372.904 91.5428 381.864 89.7029C384.014 89.2596 386.206 89.0138 388.401 88.9617C388.704 88.9542 389.006 88.9505 389.312 88.9505H412V115.768H389.312C389.174 115.768 389.032 115.771 388.894 115.779C384.216 115.987 380.46 119.686 380.247 124.293C380.24 124.446 380.236 124.602 380.236 124.755V138.793C380.236 150.723 379.897 162.653 379.893 174.579C379.893 176.087 379.893 177.596 379.893 179.104V222.965C379.893 231.758 380.621 240.947 377.373 249.312C376.551 251.424 375.529 253.458 374.323 255.372C373.128 257.276 371.75 259.063 370.22 260.71C368.693 262.352 367.009 263.853 365.202 265.187C363.384 266.524 361.439 267.693 359.4 268.665C357.332 269.652 355.17 270.442 352.953 271.016C350.675 271.604 348.342 271.965 345.994 272.099C345.307 272.137 344.623 272.159 343.936 272.159C334.708 272.159 325.71 268.539 319.065 262.147C314.555 257.812 311.284 252.285 309.544 246.288C307.622 239.662 308.208 232.999 308.208 226.201V49.9318C308.208 45.0339 309.149 39.3204 308.212 34.5269C307.368 30.2101 303.937 26.8207 299.401 26.8207C296.56 26.8207 293.842 28.1988 292.165 30.4857C289.332 34.3481 290.437 40.0579 290.437 44.5311C290.437 50.6618 290.407 56.7925 290.392 62.9231C290.362 75.1844 290.332 87.4458 290.306 99.7034C290.306 112.881 290.243 126.062 290.213 139.244C290.183 151.449 291.617 164.735 289.489 176.765C288.843 180.415 287.652 183.961 285.796 187.172C282.515 192.852 277.669 197.593 271.901 200.744C266.648 203.612 260.7 205.117 254.716 205.117C239.304 205.117 224.699 194.624 220.581 179.689C218.08 170.616 218.983 161.323 218.983 152.067C218.983 140.044 218.868 128.007 218.845 116.002C218.845 109.242 218.823 102.478 218.812 95.7181C218.804 92.3026 218.801 88.8872 218.793 85.4717C218.789 82.6448 219.17 79.5869 218.009 76.9201C216.609 73.7095 213.32 71.5195 209.803 71.5195C206.835 71.5195 204.009 73.0279 202.355 75.4861C200.884 77.6725 200.764 80.4547 200.817 83.0023C201.026 92.6974 201.067 102.381 201.063 112.076C201.063 115.213 201.063 118.345 201.063 121.481V199.895C201.063 206.334 201.358 212.938 200.462 219.385C199.801 224.142 197.964 228.771 195.388 232.82C190.36 240.72 182.254 246.463 173.104 248.541C170.483 249.137 167.799 249.435 165.111 249.435C151.211 249.435 138.271 241.137 132.492 228.522C129.188 221.307 129.382 213.571 129.382 205.847V74.92C129.382 68.2865 129.393 61.5227 129.416 54.8371C129.427 51.4216 129.442 48.0062 129.464 44.5907C129.483 41.3354 129.934 37.7561 129.501 34.5306C128.923 30.2101 124.898 26.817 120.575 26.817C117.965 26.817 115.449 27.9791 113.754 29.9568C111.585 32.4933 111.648 35.756 111.66 38.9033C111.674 43.1195 111.66 47.3357 111.66 51.5482C111.66 55.2207 111.648 58.8894 111.648 62.5618C111.648 64.3981 111.648 66.2343 111.656 68.0668C111.663 70.3388 111.462 72.607 111.462 74.8865C111.462 77.3857 111.462 79.8886 111.462 82.3878V243.923C111.462 246.526 111.462 249.13 111.462 251.733C111.462 257.302 111.656 262.717 110.121 268.133C108.874 272.532 106.761 276.677 103.946 280.282C98.2753 287.538 89.849 292.417 80.7097 293.669C79.0856 293.892 77.4504 294 75.8115 294C73.1122 294 70.413 293.698 67.7809 293.095C65.5148 292.573 63.3008 291.829 61.1803 290.875C59.0933 289.936 57.096 288.797 55.2255 287.475C53.3551 286.152 51.6377 284.674 50.0622 283.031C48.4867 281.389 47.0681 279.601 45.8323 277.69C44.5853 275.764 43.5288 273.72 42.6776 271.593C41.8114 269.425 41.1618 267.176 40.74 264.881C40.3479 262.754 40.1538 260.594 40.1538 258.43C40.1538 258.222 40.1538 258.013 40.1613 257.805C40.1575 257.741 40.1538 257.682 40.1538 257.618V159.502C40.1127 159.516 40.0754 159.524 40.0343 159.535V144.365C40.0343 137.709 40.4674 130.968 40.0493 124.319C39.7543 119.675 35.8007 115.957 31.1227 115.957C27.8859 115.957 24.9962 117.689 23.4543 120.524C21.9423 123.302 22.2111 126.349 22.2111 129.396C22.226 129.5 22.2335 129.604 22.2335 129.712V209.571C22.2335 214.856 22.0991 219.925 20.4153 224.987C18.9743 229.315 16.6894 233.356 13.7326 236.831C7.7442 243.871 -0.894882 248.407 -10.1089 249.298C-10.975 249.38 -11.8412 249.432 -12.7073 249.454C-13.006 249.461 -13.3047 249.465 -13.6071 249.465H-36V222.648H-13.5996C-13.4615 222.648 -13.3234 222.644 -13.1852 222.637C-8.56701 222.428 -4.85975 218.73 -4.65068 214.123C-4.64321 213.97 -4.63948 213.813 -4.63948 213.661V149.739C-4.63948 144.7 -4.63948 139.664 -4.63948 134.625C-4.63948 129.154 -5.10615 123.518 -4.06827 118.114C-3.20585 113.633 -1.47356 109.335 1.00915 105.506C5.94096 97.8969 13.74 92.325 22.562 90.1647C25.3621 89.4794 28.2443 89.1367 31.1265 89.1367C40.3554 89.1367 49.3604 92.7607 56.0058 99.1521C62.6848 105.577 66.5788 114.401 66.9484 123.638C67.038 125.843 67.0417 128.044 67.0417 130.252V243.662C67.0417 246.746 67.1052 249.834 67.0865 252.918C67.0641 256.676 66.3734 261.037 68.9868 264.14C70.6706 266.14 73.1981 267.313 75.8152 267.313C78.5592 267.313 81.195 266.021 82.8713 263.853C85.1711 260.885 84.5887 257.268 84.5887 253.793V39.5514C84.5887 29.7296 86.6607 20.4554 93.127 12.7753C99.0332 5.75821 107.568 1.18814 116.703 0.208576C117.991 0.0707662 119.287 0 120.582 0C130.285 0 139.716 4.01138 146.44 10.995C150.233 14.9356 153.059 19.7589 154.709 24.9659C156.438 30.4298 156.274 35.648 156.274 41.2796C156.274 42.9072 156.274 44.5386 156.274 46.1662V200.859C156.274 204.096 156.244 207.336 156.292 210.573C156.341 214.137 157.02 219.631 160.339 221.225C163.658 222.82 168.056 223.162 170.699 220.521C173.821 217.4 174.194 213.661 174.194 209.579C174.194 204.264 174.194 184.352 174.194 179.037" fill="#E02437"/>
</svg>
