<svg width="64" height="64" viewBox="0 0 64 64" fill="none" xmlns="http://www.w3.org/2000/svg">
    <rect width="64" height="64" fill="#8CAD6A"/>
    <path d="M30.0267 36.5918V24.3524C30.0267 23.5785 29.9803 22.8036 30.0336 22.0302C30.0848 21.2857 30.2965 20.5812 30.6677 19.9316C31.3115 18.8062 32.3813 17.9492 33.6224 17.5716C34.1056 17.4244 34.6101 17.3508 35.1152 17.3508C36.4347 17.3508 37.7216 17.8702 38.6709 18.787C39.6528 19.7348 40.1264 20.9572 40.2315 22.2974C40.2896 23.0388 40.2661 23.786 40.2661 24.53V28.8601C40.2661 30.0622 40.2299 31.2644 40.2256 32.467C40.2224 33.3252 40.1136 34.1934 40.2021 35.05C40.248 35.4964 40.4075 35.9593 40.7616 36.2345C41.2176 36.5886 41.9579 36.5865 42.3717 36.1689C42.5877 35.9508 42.7456 35.5598 42.7728 35.2542C42.872 34.1385 42.7728 33.091 42.7728 31.9705V19.2932C42.7728 18.3481 42.7621 17.3844 42.7829 16.4324C42.7984 15.7118 42.8507 15.0185 43.0965 14.3348C43.5365 13.1145 44.4459 12.0878 45.6027 11.5012C46.3168 11.139 47.1136 10.9508 47.9147 10.9508C49.232 10.9508 50.5163 11.4686 51.4656 12.3822C52.4096 13.291 52.9957 14.5684 53.0315 15.882C53.0523 16.6356 53.0128 17.3934 53.0128 18.1476V43.1433C53.0128 43.4686 53.0128 43.7934 53.0128 44.1188C53.0128 44.955 53.0912 45.9897 54.1733 46.0761C54.6848 46.1172 55.1435 45.8286 55.384 45.3854C55.6693 44.8601 55.5504 44.2446 55.5504 43.674C55.5504 41.9988 55.5728 40.3241 55.5728 38.6494V29.9534C55.5728 29.1822 55.5291 28.4025 55.7067 27.6457C55.8555 27.0121 56.128 26.41 56.5035 25.8788C57.2581 24.8116 58.4139 24.058 59.6939 23.7945C60.0011 23.731 60.3141 23.6958 60.6277 23.6884C60.6709 23.6873 60.7141 23.6868 60.7579 23.6868H63.9989V27.5268H60.7579C60.7381 27.5268 60.7179 27.5273 60.6981 27.5284C60.0299 27.5582 59.4933 28.0878 59.4629 28.7476C59.4619 28.7694 59.4613 28.7918 59.4613 28.8137V30.8238C59.4613 32.5321 59.4128 34.2404 59.4123 35.9481C59.4123 36.1641 59.4123 36.3801 59.4123 36.5961V42.8766C59.4123 44.1358 59.5163 45.4516 59.0523 46.6494C58.9349 46.9518 58.7888 47.243 58.6165 47.5172C58.4459 47.7897 58.2491 48.0457 58.0304 48.2814C57.8123 48.5166 57.5717 48.7316 57.3136 48.9225C57.0539 49.114 56.776 49.2814 56.4848 49.4206C56.1893 49.562 55.8805 49.675 55.5637 49.7572C55.2384 49.8414 54.9051 49.8932 54.5696 49.9124C54.4715 49.9177 54.3739 49.9209 54.2757 49.9209C52.9573 49.9209 51.672 49.4025 50.7227 48.4873C50.0784 47.8665 49.6112 47.075 49.3627 46.2164C49.088 45.2676 49.1717 44.3134 49.1717 43.3401V18.0996C49.1717 17.3982 49.3061 16.5801 49.1723 15.8937C49.0517 15.2756 48.5616 14.7902 47.9136 14.7902C47.5077 14.7902 47.1195 14.9876 46.88 15.315C46.4752 15.8681 46.6331 16.6857 46.6331 17.3262C46.6331 18.2041 46.6288 19.082 46.6267 19.9598C46.6224 21.7156 46.6181 23.4713 46.6144 25.2265C46.6144 27.1134 46.6053 29.0009 46.6011 30.8884C46.5968 32.6361 46.8016 34.5385 46.4976 36.2612C46.4053 36.7838 46.2352 37.2916 45.9701 37.7513C45.5013 38.5646 44.8091 39.2436 43.9851 39.6948C43.2347 40.1054 42.3851 40.3209 41.5301 40.3209C39.3285 40.3209 37.2421 38.8185 36.6539 36.6798C36.2965 35.3806 36.4256 34.05 36.4256 32.7246C36.4256 31.003 36.4091 29.2793 36.4059 27.5604C36.4059 26.5924 36.4027 25.6238 36.4011 24.6558C36.4 24.1668 36.3995 23.6777 36.3984 23.1886C36.3979 22.7838 36.4523 22.346 36.2864 21.9641C36.0864 21.5044 35.6165 21.1908 35.1141 21.1908C34.6901 21.1908 34.2864 21.4068 34.0501 21.7588C33.84 22.0718 33.8229 22.4702 33.8304 22.835C33.8603 24.2233 33.8661 25.61 33.8656 26.9982C33.8656 27.4473 33.8656 27.8958 33.8656 28.3449V39.5732C33.8656 40.4953 33.9077 41.4409 33.7797 42.3641C33.6853 43.0452 33.4229 43.7081 33.0549 44.2878C32.3365 45.419 31.1787 46.2414 29.8715 46.539C29.4971 46.6244 29.1136 46.667 28.7296 46.667C26.744 46.667 24.8955 45.4788 24.0699 43.6724C23.5979 42.6393 23.6256 41.5316 23.6256 40.4254V21.6777C23.6256 20.7278 23.6272 19.7593 23.6304 18.802C23.632 18.3129 23.6341 17.8238 23.6373 17.3348C23.64 16.8686 23.7045 16.3561 23.6427 15.8942C23.56 15.2756 22.9851 14.7897 22.3675 14.7897C21.9947 14.7897 21.6352 14.9561 21.3931 15.2393C21.0832 15.6025 21.0923 16.0697 21.0939 16.5204C21.096 17.1241 21.0939 17.7278 21.0939 18.331C21.0939 18.8569 21.0923 19.3822 21.0923 19.9081C21.0923 20.171 21.0923 20.434 21.0933 20.6964C21.0944 21.0217 21.0656 21.3465 21.0656 21.6729C21.0656 22.0308 21.0656 22.3892 21.0656 22.747V45.8777C21.0656 46.2505 21.0656 46.6233 21.0656 46.9961C21.0656 47.7934 21.0933 48.5689 20.8741 49.3444C20.696 49.9742 20.3941 50.5678 19.992 51.0841C19.1819 52.123 17.9781 52.8217 16.6725 53.0009C16.4405 53.0329 16.2069 53.0484 15.9728 53.0484C15.5872 53.0484 15.2016 53.0052 14.8256 52.9188C14.5019 52.8441 14.1856 52.7374 13.8827 52.6009C13.5845 52.4665 13.2992 52.3033 13.032 52.114C12.7648 51.9246 12.5195 51.7129 12.2944 51.4777C12.0693 51.2425 11.8667 50.9865 11.6901 50.7129C11.512 50.4372 11.3611 50.1444 11.2395 49.8398C11.1157 49.5294 11.0229 49.2073 10.9627 48.8788C10.9067 48.5742 10.8789 48.2649 10.8789 47.955C10.8789 47.9252 10.8789 47.8953 10.88 47.8654C10.8795 47.8564 10.8789 47.8478 10.8789 47.8388V33.7892C10.8731 33.7913 10.8677 33.7924 10.8619 33.794V31.6217C10.8619 30.6686 10.9237 29.7033 10.864 28.7513C10.8219 28.0862 10.2571 27.554 9.5888 27.554C9.1264 27.554 8.7136 27.802 8.49333 28.2078C8.27733 28.6057 8.31573 29.042 8.31573 29.4782C8.31787 29.4932 8.31893 29.5081 8.31893 29.5236V40.9588C8.31893 41.7156 8.29973 42.4414 8.0592 43.1662C7.85333 43.786 7.52693 44.3646 7.10453 44.8622C6.24907 45.8702 5.01493 46.5198 3.69867 46.6473C3.57493 46.659 3.4512 46.6665 3.32747 46.6697C3.2848 46.6708 3.24213 46.6713 3.19893 46.6713H0V42.8313H3.2C3.21973 42.8313 3.23947 42.8308 3.2592 42.8297C3.91893 42.7998 4.44853 42.2702 4.4784 41.6105C4.47947 41.5886 4.48 41.5662 4.48 41.5444V32.3913C4.48 31.6697 4.48 30.9486 4.48 30.227C4.48 29.4436 4.41333 28.6366 4.5616 27.8628C4.6848 27.2212 4.93227 26.6057 5.28693 26.0574C5.99147 24.9678 7.1056 24.17 8.36587 23.8606C8.76587 23.7625 9.1776 23.7134 9.58933 23.7134C10.9077 23.7134 12.1941 24.2324 13.1435 25.1476C14.0976 26.0676 14.6539 27.331 14.7067 28.6537C14.7195 28.9694 14.72 29.2846 14.72 29.6009V45.8404C14.72 46.282 14.7291 46.7241 14.7264 47.1657C14.7232 47.7038 14.6245 48.3284 14.9979 48.7726C15.2384 49.059 15.5995 49.227 15.9733 49.227C16.3653 49.227 16.7419 49.042 16.9813 48.7316C17.3099 48.3065 17.2267 47.7886 17.2267 47.291V16.6132C17.2267 15.2068 17.5227 13.8788 18.4464 12.779C19.2901 11.7742 20.5093 11.1198 21.8144 10.9796C21.9984 10.9598 22.1835 10.9497 22.3685 10.9497C23.7547 10.9497 25.1019 11.5241 26.0624 12.5241C26.6043 13.0884 27.008 13.779 27.2437 14.5246C27.4907 15.307 27.4672 16.0542 27.4672 16.8606C27.4672 17.0937 27.4672 17.3273 27.4672 17.5604V39.7113C27.4672 40.1748 27.4629 40.6388 27.4699 41.1022C27.4768 41.6126 27.5739 42.3993 28.048 42.6276C28.5221 42.8558 29.1504 42.9049 29.528 42.5268C29.9739 42.0798 30.0272 41.5444 30.0272 40.9598C30.0272 40.1988 30.0272 37.3476 30.0272 36.5865" fill="#F6B7C1"/>
</svg>
    