<svg width="180" height="120" viewBox="0 0 180 120" fill="none" xmlns="http://www.w3.org/2000/svg">
<rect x="66" y="27" width="50" height="8" rx="2" fill="#AAAAAA"/>
<rect x="62" y="47" width="16" height="8" rx="2" fill="#AAAAAA"/>
<rect x="41" y="47" width="16" height="8" rx="2" fill="#AAAAAA"/>
<rect x="62" y="60" width="16" height="8" rx="2" fill="#AAAAAA"/>
<rect x="41" y="60" width="16" height="8" rx="2" fill="#AAAAAA"/>
<rect x="62" y="73" width="16" height="8" rx="2" fill="#AAAAAA"/>
<rect x="41" y="73" width="16" height="8" rx="2" fill="#AAAAAA"/>
<rect x="62" y="86" width="16" height="8" rx="2" fill="#AAAAAA"/>
<rect x="41" y="86" width="16" height="8" rx="2" fill="#AAAAAA"/>
<rect x="83" y="47" width="16" height="8" rx="2" fill="#AAAAAA"/>
<rect x="83" y="60" width="16" height="8" rx="2" fill="#AAAAAA"/>
<rect x="83" y="73" width="16" height="8" rx="2" fill="#AAAAAA"/>
<rect x="83" y="86" width="16" height="8" rx="2" fill="#AAAAAA"/>
<rect x="104" y="47" width="16" height="8" rx="2" fill="#AAAAAA"/>
<rect x="125" y="47" width="16" height="8" rx="2" fill="#AAAAAA"/>
<rect x="104" y="60" width="16" height="8" rx="2" fill="#AAAAAA"/>
<rect x="125" y="60" width="16" height="8" rx="2" fill="#AAAAAA"/>
<rect x="104" y="73" width="16" height="8" rx="2" fill="#AAAAAA"/>
<rect x="104" y="86" width="16" height="8" rx="2" fill="#AAAAAA"/>
<rect x="125" y="73" width="16" height="8" rx="2" fill="#AAAAAA"/>
<rect x="125" y="86" width="16" height="8" rx="2" fill="#AAAAAA"/>
<rect x="0.5" y="0.5" width="179" height="119" rx="9.5" stroke="#131313"/>
</svg>
