<svg width="180" height="120" viewBox="0 0 180 120" fill="none" xmlns="http://www.w3.org/2000/svg">
<rect x="20" y="44" width="50" height="18" rx="4" fill="#AAAAAA"/>
<rect x="20" y="67" width="50" height="8" rx="2" fill="#AAAAAA"/>
<rect x="96" y="43" width="16" height="8" rx="2" fill="#AAAAAA"/>
<rect x="96" y="56" width="16" height="8" rx="2" fill="#AAAAAA"/>
<rect x="96" y="69" width="16" height="8" rx="2" fill="#AAAAAA"/>
<rect x="117" y="43" width="16" height="8" rx="2" fill="#AAAAAA"/>
<rect x="117" y="56" width="16" height="8" rx="2" fill="#AAAAAA"/>
<rect x="117" y="69" width="16" height="8" rx="2" fill="#AAAAAA"/>
<rect x="138" y="43" width="16" height="8" rx="2" fill="#AAAAAA"/>
<rect x="138" y="56" width="16" height="8" rx="2" fill="#AAAAAA"/>
<rect x="138" y="69" width="16" height="8" rx="2" fill="#AAAAAA"/>
<rect x="0.5" y="0.5" width="179" height="119" rx="9.5" stroke="#131313"/>
</svg>
