<svg width="24" height="24" viewBox="0 0 24 24" fill="none" xmlns="http://www.w3.org/2000/svg">
  <path
    d="M19.2 0H4.8C3.5274 0.00142927 2.30733 0.507601 1.40747 1.40747C0.507601 2.30733 0.00142927 3.5274 0 4.8V19.2C0.00142927 20.4726 0.507601 21.6927 1.40747 22.5925C2.30733 23.4924 3.5274 23.9986 4.8 24H19.2C20.4726 23.9987 21.6928 23.4925 22.5926 22.5926C23.4925 21.6928 23.9987 20.4726 24 19.2V4.8C23.9987 3.52737 23.4925 2.30725 22.5926 1.40736C21.6928 0.507475 20.4726 0.00133416 19.2 0ZM21.6 19.2C21.5993 19.8363 21.3462 20.4463 20.8963 20.8963C20.4463 21.3462 19.8363 21.5993 19.2 21.6H4.8C4.16368 21.5994 3.5536 21.3463 3.10365 20.8964C2.6537 20.4464 2.40064 19.8363 2.4 19.2V4.8C2.40064 4.16368 2.6537 3.5536 3.10365 3.10365C3.5536 2.6537 4.16368 2.40064 4.8 2.4H19.2C19.8363 2.40073 20.4463 2.65382 20.8963 3.10375C21.3462 3.55368 21.5993 4.1637 21.6 4.8V19.2Z"
    fill="#FF4658" />
  <path
    d="M20.4 5.4C20.4 6.39411 19.5941 7.2 18.6 7.2C17.6059 7.2 16.8 6.39411 16.8 5.4C16.8 4.40589 17.6059 3.6 18.6 3.6C19.5941 3.6 20.4 4.40589 20.4 5.4Z"
    fill="#FF4658" />
  <path fill-rule="evenodd" clip-rule="evenodd"
    d="M12 15.6C13.9882 15.6 15.6 13.9882 15.6 12C15.6 10.0118 13.9882 8.4 12 8.4C10.0118 8.4 8.4 10.0118 8.4 12C8.4 13.9882 10.0118 15.6 12 15.6ZM12 18C15.3137 18 18 15.3137 18 12C18 8.68629 15.3137 6 12 6C8.68629 6 6 8.68629 6 12C6 15.3137 8.68629 18 12 18Z"
    fill="#FF4658" />
</svg>