<svg width="{% firstof width 50 %}" height="{% firstof width 50 %}" viewBox="0 0 171 171" fill="none" xmlns="http://www.w3.org/2000/svg">
<g id="icon_02_atv 2" clip-path="url(#clip0_2474_5079)">
<g id="Camada_2">
<g id="Group">
<path id="Vector" d="M87.8997 167.05L0.469727 104.52L67.3397 11.02C68.9397 8.78003 70.6997 7.65003 73.4097 7.20003L95.1897 3.31003C97.9097 2.86003 100.69 3.51003 102.93 5.11003L169.61 52.8L87.8997 167.05Z" fill="#91CEC1"/>
<path id="Vector_2" d="M102.18 4.62002C102.18 4.62002 97.6298 4.78002 92.9598 8.80002C89.9398 11.4 86.5198 17.24 86.5198 17.24C74.0898 6.82002 67.3398 11.02 67.3398 11.02C67.3398 11.02 68.7398 8.58002 71.5898 7.57002C75.1798 6.29002 88.3899 4.48002 95.1898 3.31002C96.9398 3.01002 98.4698 2.48002 102.18 4.62002Z" fill="#213D90"/>
<g id="Group_2">
<path id="Vector_3" d="M110.704 100.822L162.329 152.447L170.376 144.4L118.751 92.7751L110.704 100.822Z" fill="#EB603B"/>
<path id="Vector_4" d="M96.457 121.173L105.536 112.094L78.235 84.7929L69.1558 93.872L96.457 121.173Z" fill="#213D90"/>
<path id="Vector_5" d="M129.891 87.7359L138.97 78.6567L111.669 51.3556L102.589 60.4348L129.891 87.7359Z" fill="#213D90"/>
<path id="Vector_6" d="M105.536 112.1L130.171 87.4646L102.87 60.1635L78.2344 84.7988L105.536 112.1Z" fill="#EB603B"/>
<path id="Vector_7" d="M111.509 49.9L114.079 45.5C115.119 43.72 117.559 43.4 119.009 44.86L145.229 71.08C146.689 72.54 146.369 74.98 144.589 76.01L140.189 78.58C139.679 78.88 139.019 78.8 138.599 78.37L111.709 51.48C111.289 51.07 111.209 50.42 111.509 49.9Z" fill="#EB603B"/>
<path id="Vector_8" d="M96.5097 122.26L93.9397 126.66C92.8997 128.44 90.4597 128.76 89.0097 127.3L62.7897 101.08C61.3297 99.62 61.6497 97.18 63.4297 96.15L67.8297 93.58C68.3397 93.28 68.9997 93.36 69.4197 93.79L96.3097 120.68C96.7297 121.09 96.8097 121.74 96.5097 122.26Z" fill="#EB603B"/>
</g>
<g id="Group_3">
<path id="Vector_9" d="M54.3899 53.1072L48.6523 58.6251L62.5926 73.1204L68.3302 67.6025L54.3899 53.1072Z" fill="#F9F7ED"/>
<path id="Vector_10" d="M52.7061 106.662L33.9795 109.285L35.0835 117.167L53.8101 114.545L52.7061 106.662Z" fill="#F9F7ED"/>
<path id="Vector_11" d="M37.8266 79.3425L35.8008 87.0406L55.2395 92.1561L57.2653 84.458L37.8266 79.3425Z" fill="#F9F7ED"/>
</g>
</g>
</g>
</g>
<defs>
<clipPath id="clip0_2474_5079">
<rect width="170.08" height="170.08" fill="white"/>
</clipPath>
</defs>
</svg>
