<svg width="28" height="28" viewBox="0 0 28 28" fill="currentColor" xmlns="http://www.w3.org/2000/svg">
<g id="icon-participate">
<path id="Vector" d="M3.48869 28H7.95959V27.8958H11.8096H13.0694H15.8103H17.0513H20.9201V28H25.391V14.4891C25.9518 13.7825 28.084 11.011 27.8642 9.96929C27.8261 9.78802 27.724 9.64883 27.5698 9.56726C26.8144 9.16814 26.1736 10.0632 25.7523 10.7313L25.7408 6.26099C25.7401 5.96254 25.5386 5.51843 24.9874 5.51843C24.7137 5.51843 24.55 5.63043 24.461 5.7243C24.4 5.78872 24.3583 5.85993 24.3298 5.9292L24.3281 5.29507C24.3275 4.99662 24.1263 4.55251 23.5747 4.55251C23.3011 4.55251 23.1373 4.66451 23.0484 4.75838C22.841 4.9772 22.8548 5.27792 22.8568 5.2954V5.46825C22.7626 5.23551 22.5483 5.01831 22.1624 5.01831C21.8888 5.01831 21.725 5.13031 21.6361 5.22418C21.4284 5.44301 21.4425 5.74372 21.4441 5.7612V6.6763C21.3499 6.44356 21.1357 6.22603 20.7498 6.22603C20.4761 6.22603 20.3124 6.33803 20.2234 6.43191C20.0161 6.65073 20.0298 6.95144 20.0318 6.96892L20.0312 11.6959L20.0371 11.748C20.0623 11.861 20.2733 12.7887 20.4988 13.2749C20.2635 13.3031 20.1106 13.4034 20.0249 13.4937C19.8271 13.7025 19.808 13.9783 19.808 14.0715C19.808 14.0884 19.8087 14.0994 19.809 14.1029V18.3706L19.7837 12.9493C19.7831 12.612 19.5557 12.1096 18.9322 12.1096C18.6228 12.1096 18.4387 12.2352 18.3386 12.3404C18.1047 12.5871 18.1201 12.9276 18.1224 12.9496V17.7319L18.0974 13.5047C18.0965 13.1674 17.8691 12.6654 17.2456 12.6654C17.1737 12.6654 17.1104 12.6735 17.0517 12.6851V11.7975C17.5668 11.1482 20.2668 7.67006 20.0049 6.42835C19.9622 6.22603 19.849 6.07098 19.6771 5.98035C18.7622 5.49674 17.9727 6.70446 17.4832 7.49396L17.469 1.99269C17.4681 1.65508 17.2403 1.15302 16.6172 1.15302C16.3078 1.15302 16.1237 1.27861 16.0236 1.38381C15.8257 1.5926 15.8067 1.86807 15.8067 1.96162C15.8067 1.97877 15.8074 1.98978 15.8077 1.99334V6.26035L15.7824 0.839353C15.7814 0.502058 15.554 0 14.9309 0C14.6215 0 14.4374 0.125595 14.3373 0.230798C14.1033 0.477457 14.1188 0.817988 14.121 0.84V5.62266L14.0961 1.39547C14.0955 1.05817 13.8677 0.556116 13.2446 0.556116C12.9352 0.556116 12.7511 0.681711 12.651 0.786913C12.417 1.0339 12.4328 1.3741 12.4351 1.39579V6.03408L12.4101 2.83723C12.4091 2.49993 12.1814 1.99787 11.5583 1.99787C11.2489 1.99787 11.0648 2.12347 10.9647 2.22867C10.7307 2.47533 10.7465 2.81586 10.7484 2.83755L10.7481 8.4806L10.754 8.53272C10.7671 8.59098 11.0753 9.96444 11.3716 10.4843C11.6075 10.8977 11.7795 11.6687 11.8096 11.8111V12.6835C11.7555 12.6738 11.6994 12.6657 11.6344 12.6657C11.0113 12.6657 10.7835 13.1678 10.7826 13.5051L10.7678 17.7319L10.7573 12.9655C10.7599 12.9276 10.7757 12.5871 10.5414 12.3401C10.4416 12.2349 10.2575 12.1093 9.94778 12.1093C9.32432 12.1093 9.09724 12.6113 9.09626 12.9486L9.08116 18.3699L9.07034 14.1188C9.07066 14.1126 9.07132 14.0984 9.07132 14.0783C9.07132 13.9731 9.05065 13.7006 8.85475 13.4937C8.7691 13.4034 8.61619 13.3034 8.38092 13.2749C8.60668 12.789 8.81734 11.861 8.84228 11.748L8.84819 11.7221L8.84786 6.98543C8.85015 6.95177 8.86394 6.65105 8.65655 6.43223C8.56763 6.33836 8.40389 6.22636 8.13022 6.22636C7.74367 6.22636 7.52907 6.44486 7.43522 6.67824V5.77803C7.43752 5.74437 7.4513 5.44365 7.24392 5.22483C7.15499 5.13096 6.99125 5.01896 6.71758 5.01896C6.33136 5.01896 6.11676 5.23681 6.02291 5.46987V5.31191C6.02521 5.27824 6.03899 4.9772 5.83161 4.75871C5.74268 4.66483 5.57894 4.55283 5.30527 4.55283C4.75367 4.55283 4.55252 4.99695 4.55186 5.29507L4.55022 5.92953C4.52168 5.86025 4.48 5.78872 4.41897 5.72462C4.33004 5.63075 4.16597 5.51875 3.89263 5.51875C3.34136 5.51875 3.14021 5.96287 3.13923 6.26132L3.12676 10.7303C2.70608 10.0625 2.0649 9.16781 1.31051 9.56758C1.15596 9.64916 1.0539 9.78835 1.01584 9.96962C0.795988 11.0113 2.92791 13.7828 3.48902 14.4894V28H3.48869ZM8.57911 14.1026V18.4298V18.8558H9.57239L9.58879 12.9499C9.58879 12.8907 9.60684 12.5948 9.94811 12.5948C10.0554 12.5948 10.1315 12.6197 10.1808 12.6706C10.2572 12.7495 10.2684 12.8884 10.2657 12.9493V18.2172H11.2584L11.2748 13.5057C11.2748 13.4465 11.2931 13.1506 11.6344 13.1506C11.7092 13.1506 11.7637 13.1671 11.8096 13.1914C11.8297 13.2021 11.8523 13.2105 11.8671 13.226C11.9435 13.3053 11.9543 13.4439 11.9517 13.5051V18.6289H12.3018H12.9443L12.9611 14.9475C12.9611 14.8879 12.9791 14.592 13.3204 14.592C13.4277 14.592 13.5038 14.6166 13.5527 14.6675C13.6292 14.7468 13.6403 14.886 13.6377 14.9468L13.6384 20.563C13.5484 20.9602 13.2899 21.9837 13.0782 22.3547C12.7806 22.8765 12.5896 23.8081 12.5818 23.8473L12.5768 27.4092H12.3015H11.8093H8.31988V23.7391L8.26672 23.6728C8.16828 23.5501 8.06492 23.4171 7.95926 23.2805C7.80044 23.0743 7.63571 22.8551 7.46869 22.6266C6.37763 21.1324 5.21963 19.2808 5.3558 18.637C5.37188 18.5603 5.40437 18.5341 5.4339 18.5182C5.97139 18.2343 6.65786 19.3423 7.02636 19.9383C7.22193 20.2545 7.34006 20.4419 7.47 20.5112C7.53169 20.5439 7.59568 20.5523 7.67214 20.5313C7.81455 20.4918 7.88674 20.3688 7.88674 20.1662L7.88772 19.7081L7.90216 14.1055C7.90413 14.0104 7.93662 13.8045 8.16369 13.7585C8.19322 13.7524 8.22505 13.7485 8.26147 13.7485C8.36878 13.7485 8.4449 13.7734 8.49412 13.8239C8.56402 13.8964 8.57911 14.0191 8.57911 14.0858C8.57944 14.0919 8.57944 14.0978 8.57911 14.1026ZM17.6049 13.5064L17.6213 18.2175H18.6139L18.6136 12.9334C18.6113 12.9014 18.6195 12.7544 18.6976 12.6722C18.7157 12.6531 18.7708 12.5951 18.9316 12.5951C19.2485 12.5951 19.2883 12.845 19.2909 12.9502L19.3073 18.8558H20.3006V18.4298L20.3002 14.0887C20.3002 14.0851 20.3002 14.0812 20.3002 14.0767C20.3002 14.0217 20.3147 13.8971 20.3855 13.8239C20.4348 13.7731 20.5109 13.7485 20.6182 13.7485C20.6546 13.7485 20.6868 13.7527 20.7163 13.7585C20.9431 13.8048 20.9755 14.0104 20.9775 14.1033L20.9919 19.7078L20.9929 20.1652C20.9929 20.3681 21.0651 20.4915 21.2075 20.531C21.285 20.5523 21.3499 20.5436 21.4123 20.5093C21.5413 20.439 21.6591 20.2519 21.8533 19.9379C22.2218 19.342 22.9076 18.234 23.4458 18.5179C23.4753 18.5334 23.5075 18.5596 23.5239 18.6367C23.6597 19.2799 22.5034 21.1298 21.4126 22.6237C21.2449 22.8532 21.0799 23.0733 20.9204 23.2801C20.8151 23.4171 20.7114 23.5498 20.6129 23.6725L20.5598 23.7388V27.4099H17.0513H16.5591H16.3025V23.8955L16.2976 23.8479C16.2897 23.8084 16.0987 22.8771 15.8011 22.3553C15.5895 21.9844 15.3309 20.9608 15.241 20.5637L15.2416 17.9747L15.2413 14.9335C15.239 14.8866 15.2502 14.7474 15.3266 14.6681C15.3759 14.6173 15.4517 14.5927 15.559 14.5927C15.8763 14.5927 15.916 14.8429 15.9183 14.9488L15.935 18.6295H16.5588H16.9273L16.927 13.4895C16.9247 13.4575 16.9329 13.3105 17.0106 13.2283C17.0172 13.2215 17.0313 13.2092 17.051 13.1966C17.0855 13.1746 17.1422 13.1509 17.2449 13.1509C17.5626 13.1509 17.6023 13.4008 17.6049 13.5064Z" fill="currentColor"/>
</g>
</svg>
