<svg width="28" height="28" viewBox="0 0 28 28" fill="currentColor" xmlns="http://www.w3.org/2000/svg">
<g id="icon-children">
<path id="Vector" d="M20.7779 15.0266C21.912 15.0266 22.8313 14.1073 22.8313 12.9733C22.8313 11.8392 21.912 10.9199 20.7779 10.9199C19.6439 10.9199 18.7246 11.8392 18.7246 12.9733C18.7246 14.1073 19.6439 15.0266 20.7779 15.0266Z" fill="currentColor"/>
<path id="Vector_2" d="M26.9845 14.84C27.3578 14.5133 27.3578 14 26.9845 13.6267C26.6111 13.2533 26.1445 13.2533 25.7711 13.6267L23.2978 16.0533C23.1578 15.82 22.8778 15.68 22.5978 15.68H19.0045C18.7245 15.68 18.4445 15.82 18.3045 16.0533L15.8311 13.6267C15.4578 13.3 14.9445 13.3 14.6178 13.6267C14.2911 13.9533 14.2911 14.5133 14.6178 14.84L18.0711 18.2933V19.6933L16.4845 22.5867C16.4378 22.7267 16.5311 22.82 16.6245 22.82H18.7245V27.16C18.7245 27.6267 19.0978 28 19.5645 28C20.0311 28 20.4045 27.6267 20.4045 27.16V22.82H20.7778H21.1511V27.16C21.1511 27.6267 21.5245 28 21.9911 28C22.4578 28 22.8311 27.6267 22.8311 27.16V22.82H24.9311C25.0711 22.82 25.1645 22.68 25.0711 22.5867L23.4845 19.6933V18.2933L26.9845 14.84Z" fill="currentColor"/>
<path id="Vector_3" d="M6.40514 15.0266C7.53916 15.0266 8.45847 14.1073 8.45847 12.9733C8.45847 11.8392 7.53916 10.9199 6.40514 10.9199C5.27111 10.9199 4.35181 11.8392 4.35181 12.9733C4.35181 14.1073 5.27111 15.0266 6.40514 15.0266Z" fill="currentColor"/>
<path id="Vector_4" d="M12.6117 13.58C12.285 13.2067 11.7717 13.2067 11.3983 13.58L8.925 16.0067C8.785 15.7734 8.505 15.6334 8.225 15.6334H4.63166C4.35167 15.6334 4.07166 15.7734 3.93167 16.0067L1.45833 13.58C1.085 13.2534 0.571666 13.2534 0.245 13.58C-0.0816666 13.9067 -0.0816666 14.4667 0.245 14.7934L3.69833 18.2467V21.8867V21.9334V27.1134C3.69833 27.4867 3.93167 27.86 4.25833 27.9534C4.81833 28.14 5.425 27.72 5.425 27.16V23.7067C5.425 23.1934 5.845 22.82 6.31166 22.82H6.45166C6.965 22.82 7.33833 23.24 7.33833 23.7067V27.1134C7.33833 27.4867 7.57166 27.86 7.89833 27.9534C8.45833 28.14 9.065 27.72 9.065 27.16V21.9334V18.2934L12.5183 14.84C12.8917 14.5134 12.8917 13.9534 12.6117 13.58Z" fill="currentColor"/>
<path id="Vector_5" d="M20.2181 5.22666C20.6047 5.22666 20.9181 4.91326 20.9181 4.52666C20.9181 4.14006 20.6047 3.82666 20.2181 3.82666C19.8315 3.82666 19.5181 4.14006 19.5181 4.52666C19.5181 4.91326 19.8315 5.22666 20.2181 5.22666Z" fill="currentColor"/>
<path id="Vector_6" d="M15.6449 7.60685C15.8768 7.60685 16.0649 7.41881 16.0649 7.18685C16.0649 6.95489 15.8768 6.76685 15.6449 6.76685C15.4129 6.76685 15.2249 6.95489 15.2249 7.18685C15.2249 7.41881 15.4129 7.60685 15.6449 7.60685Z" fill="currentColor"/>
<path id="Vector_7" d="M14.0579 4.66666C14.2899 4.66666 14.4779 4.47862 14.4779 4.24666C14.4779 4.0147 14.2899 3.82666 14.0579 3.82666C13.826 3.82666 13.6379 4.0147 13.6379 4.24666C13.6379 4.47862 13.826 4.66666 14.0579 4.66666Z" fill="currentColor"/>
<path id="Vector_8" d="M8.92537 5.32022C9.15733 5.32022 9.34537 5.13218 9.34537 4.90022C9.34537 4.66826 9.15733 4.48022 8.92537 4.48022C8.69341 4.48022 8.50537 4.66826 8.50537 4.90022C8.50537 5.13218 8.69341 5.32022 8.92537 5.32022Z" fill="currentColor"/>
<path id="Vector_9" d="M24.2313 9.0065C24.4632 9.0065 24.6513 8.81846 24.6513 8.5865C24.6513 8.35454 24.4632 8.1665 24.2313 8.1665C23.9993 8.1665 23.8113 8.35454 23.8113 8.5865C23.8113 8.81846 23.9993 9.0065 24.2313 9.0065Z" fill="currentColor"/>
<path id="Vector_10" d="M3.18489 9.0065C3.41685 9.0065 3.60489 8.81846 3.60489 8.5865C3.60489 8.35454 3.41685 8.1665 3.18489 8.1665C2.95293 8.1665 2.76489 8.35454 2.76489 8.5865C2.76489 8.81846 2.95293 9.0065 3.18489 9.0065Z" fill="currentColor"/>
<path id="Vector_11" d="M8.03841 0.84C8.27037 0.84 8.45841 0.65196 8.45841 0.420001C8.45841 0.188041 8.27037 0 8.03841 0C7.80645 0 7.61841 0.188041 7.61841 0.420001C7.61841 0.65196 7.80645 0.84 8.03841 0.84Z" fill="currentColor"/>
<path id="Vector_12" d="M23.8116 2.0065C24.0436 2.0065 24.2316 1.81846 24.2316 1.5865C24.2316 1.35454 24.0436 1.1665 23.8116 1.1665C23.5796 1.1665 23.3916 1.35454 23.3916 1.5865C23.3916 1.81846 23.5796 2.0065 23.8116 2.0065Z" fill="currentColor"/>
<path id="Vector_13" d="M4.53803 3.82654C4.84731 3.82654 5.09803 3.57582 5.09803 3.26654C5.09803 2.95726 4.84731 2.70654 4.53803 2.70654C4.22875 2.70654 3.97803 2.95726 3.97803 3.26654C3.97803 3.57582 4.22875 3.82654 4.53803 3.82654Z" fill="currentColor"/>
</g>
</svg>
