<svg width="28" height="19" viewBox="0 0 28 19" fill="currentColor" xmlns="http://www.w3.org/2000/svg">
<g id="Group 302">
<path id="Vector" d="M7.71881 7.50587C9.73705 7.50587 11.3732 5.82562 11.3732 3.75293C11.3732 1.68025 9.73705 0 7.71881 0C5.70056 0 4.06445 1.68025 4.06445 3.75293C4.06445 5.82562 5.70056 7.50587 7.71881 7.50587Z" fill="currentColor"/>
<path id="Vector_2" d="M19.5457 7.50587C21.564 7.50587 23.2001 5.82562 23.2001 3.75293C23.2001 1.68025 21.564 0 19.5457 0C17.5275 0 15.8914 1.68025 15.8914 3.75293C15.8914 5.82562 17.5275 7.50587 19.5457 7.50587Z" fill="currentColor"/>
<path id="Vector_3" d="M15.4971 12.586C17.943 13.1637 19.7894 15.3545 19.9194 18.0071H27.2644C27.0724 13.49 23.4165 9.85596 18.973 9.85596H17.0781C16.9978 11.0015 16.388 11.997 15.4971 12.586Z" fill="currentColor"/>
<path id="Vector_4" d="M11.7671 12.586C10.8761 11.9974 10.2663 11.0015 10.186 9.85571H8.29144C3.84793 9.85571 0.192366 13.4901 0 18.0068H7.34506C7.47471 15.3546 9.32113 13.1638 11.7671 12.586Z" fill="currentColor"/>
<path id="Vector_5" d="M13.6322 12.221C15.04 12.221 16.1851 11.045 16.1851 9.59927C16.1851 8.15354 15.04 6.97754 13.6322 6.97754C12.2248 6.97754 11.0793 8.15354 11.0793 9.59927C11.0793 11.045 12.2245 12.221 13.6322 12.221Z" fill="currentColor"/>
<path id="Vector_6" d="M8.25098 18.0071H19.0138C18.8626 15.427 16.7663 13.3628 14.2177 13.3628H13.0474C10.4985 13.3625 8.40214 15.4267 8.25098 18.0071Z" fill="currentColor"/>
</g>
</svg>
