<svg width="22" height="28" viewBox="0 0 22 28" fill="currentColor" xmlns="http://www.w3.org/2000/svg">
<g id="Group">
<path id="Vector" d="M11.0906 24.6944C11.3813 25.3434 11.7554 25.8913 12.2092 26.3563C13.1983 27.3732 14.5654 28 16.0758 28C17.5863 28 18.9533 27.3722 19.9406 26.3573C20.9289 25.3405 21.5411 23.9366 21.5411 22.3863C21.5411 20.8351 20.9298 19.4312 19.9416 18.4173C19.6003 18.0658 19.213 17.7615 18.7911 17.5131L18.7424 17.4842C17.951 17.0297 17.0425 16.7727 16.0749 16.7727C15.1307 16.7727 14.2428 17.0182 13.4665 17.4505C13.4496 17.4611 13.4327 17.4717 13.4159 17.4794C12.9724 17.7336 12.5664 18.0485 12.2101 18.4144C11.8473 18.788 11.535 19.2126 11.2744 19.6999C10.8506 20.4981 10.6096 21.4128 10.6096 22.3854C10.6096 23.2077 10.7812 23.9886 11.0906 24.6925V24.6944ZM13.1852 23.691C13.0024 23.5042 13.0014 23.2 13.1833 23.0122C13.3652 22.8244 13.6615 22.8235 13.8443 23.0103L14.931 24.1253L18.2642 19.6305C18.4208 19.4196 18.7142 19.3792 18.9196 19.54C19.1249 19.7008 19.1643 20.0022 19.0077 20.2131L15.3511 25.1441L15.3108 25.1912C15.1289 25.379 14.8326 25.38 14.6497 25.1932L13.1861 23.6901L13.1852 23.691ZM18.5295 16.3143V1.9566C18.5295 1.41931 18.3148 0.930156 17.9698 0.574848C17.6248 0.220503 17.1485 0 16.6243 0H15.6933V0.446783C15.6933 1.0457 15.4551 1.5907 15.0707 1.98549C14.6872 2.37931 14.1566 2.62485 13.5734 2.62485H5.87755C5.29623 2.62485 4.76461 2.37931 4.38114 1.98452C3.99578 1.59166 3.75763 1.04667 3.75763 0.447746V0.000962916H2.82659C2.30341 0.000962916 1.82617 0.221466 1.48113 0.575811C1.13516 0.931119 0.921387 1.41931 0.921387 1.95756V22.4778C0.921387 23.0151 1.1361 23.5042 1.48113 23.8596C1.82523 24.2149 2.30154 24.4344 2.82659 24.4344H9.98893C9.78359 23.7902 9.67296 23.1037 9.67296 22.3902C9.67296 21.5265 9.83516 20.7013 10.1305 19.9454H6.13539C5.87661 19.9454 5.66659 19.7297 5.66659 19.4639C5.66659 19.1982 5.87661 18.9825 6.13539 18.9825H10.5993C10.8665 18.5299 11.1862 18.113 11.5491 17.7404C11.6194 17.6681 11.6907 17.5979 11.7638 17.5295H6.13445C5.87567 17.5295 5.66565 17.3138 5.66565 17.048C5.66565 16.7823 5.87567 16.5666 6.13445 16.5666H13.099C13.9887 16.0851 15.0023 15.8136 16.0758 15.8136C16.945 15.8136 17.7738 15.9927 18.5305 16.3153L18.5295 16.3143ZM2.90816 5.45287C2.64939 5.45287 2.43936 5.23718 2.43936 4.97142C2.43936 4.70566 2.64939 4.48998 2.90816 4.48998H4.41395C4.67273 4.48998 4.88275 4.70566 4.88275 4.97142C4.88275 5.23718 4.67273 5.45287 4.41395 5.45287H2.90816ZM2.90816 19.9444C2.64939 19.9444 2.43936 19.7287 2.43936 19.463C2.43936 19.1972 2.64939 18.9815 2.90816 18.9815H4.41395C4.67273 18.9815 4.88275 19.1972 4.88275 19.463C4.88275 19.7287 4.67273 19.9444 4.41395 19.9444H2.90816ZM2.90816 17.5295C2.64939 17.5295 2.43936 17.3138 2.43936 17.048C2.43936 16.7823 2.64939 16.5666 2.90816 16.5666H4.41395C4.67273 16.5666 4.88275 16.7823 4.88275 17.048C4.88275 17.3138 4.67273 17.5295 4.41395 17.5295H2.90816ZM2.90816 15.1136C2.64939 15.1136 2.43936 14.8979 2.43936 14.6321C2.43936 14.3664 2.64939 14.1507 2.90816 14.1507H4.41395C4.67273 14.1507 4.88275 14.3664 4.88275 14.6321C4.88275 14.8979 4.67273 15.1136 4.41395 15.1136H2.90816ZM6.13351 15.1136C5.87473 15.1136 5.66471 14.8979 5.66471 14.6321C5.66471 14.3664 5.87473 14.1507 6.13351 14.1507H16.5409C16.7997 14.1507 17.0097 14.3664 17.0097 14.6321C17.0097 14.8979 16.7997 15.1136 16.5409 15.1136H6.13351ZM2.90816 12.6986C2.64939 12.6986 2.43936 12.483 2.43936 12.2172C2.43936 11.9514 2.64939 11.7358 2.90816 11.7358H4.41395C4.67273 11.7358 4.88275 11.9514 4.88275 12.2172C4.88275 12.483 4.67273 12.6986 4.41395 12.6986H2.90816ZM6.13351 12.6986C5.87473 12.6986 5.66471 12.483 5.66471 12.2172C5.66471 11.9514 5.87473 11.7358 6.13351 11.7358H16.5409C16.7997 11.7358 17.0097 11.9514 17.0097 12.2172C17.0097 12.483 16.7997 12.6986 16.5409 12.6986H6.13351ZM2.90816 10.2837C2.64939 10.2837 2.43936 10.068 2.43936 9.80226C2.43936 9.5365 2.64939 9.32082 2.90816 9.32082H4.41395C4.67273 9.32082 4.88275 9.5365 4.88275 9.80226C4.88275 10.068 4.67273 10.2837 4.41395 10.2837H2.90816ZM6.13351 10.2837C5.87473 10.2837 5.66471 10.068 5.66471 9.80226C5.66471 9.5365 5.87473 9.32082 6.13351 9.32082H16.5409C16.7997 9.32082 17.0097 9.5365 17.0097 9.80226C17.0097 10.068 16.7997 10.2837 16.5409 10.2837H6.13351ZM2.90816 7.86781C2.64939 7.86781 2.43936 7.65212 2.43936 7.38636C2.43936 7.1206 2.64939 6.90491 2.90816 6.90491H4.41395C4.67273 6.90491 4.88275 7.1206 4.88275 7.38636C4.88275 7.65212 4.67273 7.86781 4.41395 7.86781H2.90816ZM6.13351 7.86781C5.87473 7.86781 5.66471 7.65212 5.66471 7.38636C5.66471 7.1206 5.87473 6.90491 6.13351 6.90491H16.5409C16.7997 6.90491 17.0097 7.1206 17.0097 7.38636C17.0097 7.65212 16.7997 7.86781 16.5409 7.86781H6.13351ZM6.13351 5.45287C5.87473 5.45287 5.66471 5.23718 5.66471 4.97142C5.66471 4.70566 5.87473 4.48998 6.13351 4.48998H16.5409C16.7997 4.48998 17.0097 4.70566 17.0097 4.97142C17.0097 5.23718 16.7997 5.45287 16.5409 5.45287H6.13351ZM14.7548 0H4.69429V0.446783C4.69429 0.779944 4.82743 1.08422 5.04214 1.30472C5.25498 1.52619 5.55126 1.66196 5.87661 1.66196H13.5724C13.8968 1.66196 14.1922 1.52522 14.4069 1.30472C14.6216 1.08422 14.7548 0.780907 14.7548 0.446783V0Z" fill="currentColor"/>
</g>
</svg>
