<svg width="28" height="28" viewBox="0 0 28 28" fill="currentColor" xmlns="http://www.w3.org/2000/svg">
<g id="icon-plan">
<path id="Vector" fill-rule="evenodd" clip-rule="evenodd" d="M0.973633 24.9427C0.984147 24.9265 0.989404 24.9103 0.999918 24.8941C1.2838 24.3974 1.77269 24.2786 2.28262 24.1544C2.82409 24.0249 3.3971 23.8845 3.3971 22.9721V2.95335V2.50525C3.3971 1.76561 0.973633 1.70083 0.973633 3.25028V4.56759V24.9427ZM20.5349 17.7299V25.0345C20.5349 25.7039 19.9987 26.2546 19.3468 26.2546H2.16171H2.1512C2.03554 26.2546 1.93566 26.2222 1.85681 26.1736C1.76744 26.1196 1.69384 26.0386 1.64127 25.9414C1.5887 25.8443 1.56242 25.7309 1.56242 25.6175C1.56242 25.5041 1.5887 25.3908 1.64653 25.2882C1.76744 25.0776 2.10389 24.9967 2.45085 24.9103C3.27619 24.7105 4.14885 24.5 4.14885 22.9721V3.34206H19.3363C19.6622 3.34206 19.9619 3.47703 20.1774 3.70378C20.3929 3.92513 20.5296 4.23286 20.5296 4.56759V10.1877L12.4181 18.5235C12.376 18.5667 12.3445 18.6153 12.3287 18.6747L10.7359 23.5282C10.7096 23.6038 10.7096 23.6901 10.7359 23.7765C10.8042 23.9817 11.0145 24.0897 11.2142 24.0195L15.914 22.3944C15.9771 22.3782 16.0402 22.3458 16.0875 22.2919L16.1663 22.2109L20.5349 17.7299ZM15.2411 21.8114L12.886 19.3927L11.6926 23.0369L15.2411 21.8114ZM13.3013 18.7125L15.9035 21.3849C19.4993 17.6921 23.095 13.9993 26.6961 10.3011C27.3164 9.66406 27.3795 8.91903 27.1219 8.30356C27.022 8.06062 26.8696 7.83387 26.6803 7.64491C26.4911 7.45055 26.2755 7.29938 26.039 7.19141C25.4397 6.93227 24.7142 6.99165 24.0939 7.62871C20.4928 11.3269 16.897 15.0197 13.3013 18.7125ZM8.45433 18.6585H6.5881C6.50924 18.6585 6.43564 18.6909 6.38307 18.7448C6.3305 18.7988 6.29896 18.8744 6.29896 18.9554V20.872C6.29896 20.953 6.3305 21.0285 6.38307 21.0825C6.43564 21.1365 6.50924 21.1689 6.5881 21.1689H8.45433C8.53318 21.1689 8.60678 21.1365 8.65935 21.0825C8.71192 21.0285 8.74346 20.953 8.74346 20.872V18.9554C8.74346 18.8744 8.71192 18.7988 8.65935 18.7448C8.60678 18.6909 8.53844 18.6585 8.45433 18.6585ZM6.5881 17.881C6.29896 17.881 6.03611 17.9998 5.84686 18.1942C5.65761 18.3885 5.54196 18.6585 5.54196 18.9554V20.872C5.54196 21.1689 5.65761 21.4388 5.84686 21.6332C6.03611 21.8276 6.29896 21.9463 6.5881 21.9463H8.45433C8.74346 21.9463 9.00631 21.8276 9.19556 21.6332C9.38481 21.4388 9.50047 21.1689 9.50047 20.872V18.9554C9.50047 18.6585 9.38481 18.3885 9.19556 18.1942C9.00631 17.9998 8.74346 17.881 8.45433 17.881H6.5881ZM8.45433 5.91189H6.5881C6.50924 5.91189 6.43564 5.94429 6.38307 5.99827C6.3305 6.05226 6.29896 6.12784 6.29896 6.20883V8.1254C6.29896 8.20638 6.3305 8.28197 6.38307 8.33595C6.43564 8.38994 6.50924 8.42234 6.5881 8.42234H8.45433C8.53318 8.42234 8.60678 8.38994 8.65935 8.33595C8.71192 8.28197 8.74346 8.20638 8.74346 8.1254V6.20883C8.74346 6.12784 8.71192 6.05226 8.65935 5.99827C8.60678 5.94429 8.53844 5.91189 8.45433 5.91189ZM6.5881 5.13446C6.29896 5.13446 6.03611 5.25324 5.84686 5.44759C5.65761 5.64195 5.54196 5.91189 5.54196 6.20883V8.1254C5.54196 8.42234 5.65761 8.69228 5.84686 8.88663C6.03611 9.08099 6.29896 9.19976 6.5881 9.19976H8.45433C8.74346 9.19976 9.00631 9.08099 9.19556 8.88663C9.38481 8.69228 9.50047 8.42234 9.50047 8.1254V6.20883C9.50047 5.91189 9.38481 5.64195 9.19556 5.44759C9.00631 5.25324 8.74346 5.13446 8.45433 5.13446H6.5881ZM8.45433 12.2879H6.5881C6.50924 12.2879 6.43564 12.3203 6.38307 12.3743C6.3305 12.4282 6.29896 12.5038 6.29896 12.5848V14.5014C6.29896 14.5824 6.3305 14.658 6.38307 14.7119C6.43564 14.7659 6.50924 14.7983 6.5881 14.7983H8.45433C8.53318 14.7983 8.60678 14.7659 8.65935 14.7119C8.71192 14.658 8.74346 14.5824 8.74346 14.5014V12.5848C8.74346 12.5038 8.71192 12.4282 8.65935 12.3743C8.60678 12.3203 8.53844 12.2879 8.45433 12.2879ZM6.5881 11.5104C6.29896 11.5104 6.03611 11.6292 5.84686 11.8236C5.65761 12.0179 5.54196 12.2879 5.54196 12.5848V14.5014C5.54196 14.7983 5.65761 15.0683 5.84686 15.2626C6.03611 15.457 6.29896 15.5757 6.5881 15.5757H8.45433C8.74346 15.5757 9.00631 15.457 9.19556 15.2626C9.38481 15.0683 9.50047 14.7983 9.50047 14.5014V12.5848C9.50047 12.2879 9.38481 12.0179 9.19556 11.8236C9.00631 11.6292 8.74346 11.5104 8.45433 11.5104H6.5881ZM11.3457 6.51116H17.5069C17.7171 6.51116 17.8854 6.3384 17.8854 6.12245C17.8854 5.90649 17.7171 5.73373 17.5069 5.73373H11.3457C11.1354 5.73373 10.9672 5.90649 10.9672 6.12245C10.9672 6.333 11.1354 6.51116 11.3457 6.51116ZM11.3457 13.7078H14.6891C14.8994 13.7078 15.0676 13.535 15.0676 13.319C15.0676 13.1031 14.8994 12.9303 14.6891 12.9303H11.3457C11.1354 12.9303 10.9672 13.1031 10.9672 13.319C10.9672 13.5296 11.1354 13.7078 11.3457 13.7078ZM14.81 8.24417H17.5016C17.7119 8.24417 17.8801 8.07141 17.8801 7.85546C17.8801 7.63951 17.7119 7.46675 17.5016 7.46675H14.81C14.5997 7.46675 14.4315 7.63951 14.4315 7.85546C14.4315 8.07141 14.605 8.24417 14.81 8.24417ZM11.3457 8.24417H13.2382C13.4485 8.24417 13.6167 8.07141 13.6167 7.85546C13.6167 7.63951 13.4485 7.46675 13.2382 7.46675H11.3457C11.1354 7.46675 10.9672 7.63951 10.9672 7.85546C10.9672 8.07141 11.1354 8.24417 11.3457 8.24417Z" fill="currentColor"/>
</g>
</svg>
