<svg width="171" height="171" viewBox="0 0 171 171" fill="none" xmlns="http://www.w3.org/2000/svg">
<g id="icon_11_atv 2" clip-path="url(#clip0_2474_5424)">
<g id="Camada_2">
<path id="Vector" d="M67.7501 160.5C100.015 160.5 126.17 134.345 126.17 102.08C126.17 69.8156 100.015 43.66 67.7501 43.66C35.4856 43.66 9.33008 69.8156 9.33008 102.08C9.33008 134.345 35.4856 160.5 67.7501 160.5Z" fill="#F9AE29"/>
<g id="Group">
<path id="Vector_2" d="M86.5802 123.93C81.9002 127.54 77.5001 129.38 73.3801 129.43C72.7901 129.45 72.3302 129.3 72.0102 128.97C71.6902 128.65 71.3801 128.08 71.1001 127.26L70.0701 124.24C69.7101 123.27 69.8702 122.44 70.5502 121.76C71.2002 121.11 72.1702 120.62 73.4701 120.29C74.7701 119.96 75.8302 119.63 76.6502 119.31C79.2201 118.38 81.2102 117.2 82.6202 115.79C84.0401 114.37 85.0201 113.17 85.5901 112.17C86.1601 111.17 86.5001 110.19 86.6301 109.22C86.8801 107.15 86.1501 105.27 84.4601 103.57C82.3701 101.48 79.0201 101.31 74.4201 103.06C73.1101 103.57 71.6601 104.2 70.0701 104.93C68.4801 105.66 66.6601 106.29 64.6101 106.83C62.5602 107.36 60.5101 107.62 58.4801 107.6C53.9201 107.56 50.1301 106.03 47.1001 103.01C44.3801 100.29 43.0202 97.03 43.0202 93.23C43.0202 89.77 44.1302 86.4 46.3602 83.11L39.6001 76.35C39.1101 75.86 38.8302 75.27 38.7902 74.6C38.7502 73.93 38.9502 73.36 39.4002 72.9L42.2801 70.02C42.7201 69.58 43.2702 69.39 43.9302 69.45C44.5901 69.51 45.1801 69.78 45.6701 70.28L52.3701 76.98C55.1101 75 58.1301 73.65 61.4401 72.93C62.1101 72.8 62.7801 72.72 63.4501 72.69C64.1201 72.66 64.6101 72.8 64.9201 73.1C65.5501 73.73 66.0902 74.78 66.5502 76.27C67.2902 78.65 67.3901 80.11 66.8401 80.66C66.5901 80.91 66.1302 81.11 65.4402 81.26C61.2802 81.85 57.8101 83.53 55.0301 86.31C52.4101 88.93 51.5001 91.49 52.3201 93.98C52.6101 94.84 53.1502 95.66 53.9502 96.46C54.7502 97.26 55.6802 97.75 56.7402 97.94C57.8001 98.13 58.9202 98.13 60.0802 97.94C61.2402 97.75 62.4301 97.43 63.6401 96.97L67.0601 95.6C71.7001 93.66 75.7101 92.62 79.0901 92.46C83.8201 92.21 87.7101 93.61 90.7501 96.65C93.7001 99.6 95.2601 103.08 95.4501 107.11C95.6201 110.82 94.6402 114.34 92.5102 117.69L99.2701 124.45C99.7601 124.94 100.03 125.52 100.07 126.19C100.11 126.86 99.9002 127.42 99.4402 127.87L96.5601 130.75C96.1201 131.19 95.5701 131.38 94.8901 131.33C94.2201 131.28 93.6301 131.01 93.1401 130.52L86.5802 123.93Z" fill="#ED9200"/>
</g>
<path id="Vector_3" d="M67.8101 160.44C35.5401 160.44 9.39012 134.28 9.39012 102.02C9.39012 85.5001 16.2601 70.5901 27.2801 59.9701C21.6301 64.7301 27.9701 59.2401 17.6101 69.6001C-5.20988 92.4201 -5.20988 129.41 17.6101 152.22C40.4301 175.04 77.4201 175.04 100.23 152.22C108.37 144.08 101.56 150.97 106.48 145.79C96.1801 154.9 82.6401 160.44 67.8101 160.44Z" fill="#C67114"/>
<g id="Group_2">
<path id="Vector_4" d="M106.025 0.00170595L98.1406 26.8993L108.792 30.0217L116.677 3.12414L106.025 0.00170595Z" fill="#8CAD6A"/>
<path id="Vector_5" d="M169.188 59.7312L142.922 61.8497L143.814 72.9142L170.08 70.7957L169.188 59.7312Z" fill="#8CAD6A"/>
<path id="Vector_6" d="M142.554 21.6653L122.802 41.5399L130.675 49.3643L150.427 29.4897L142.554 21.6653Z" fill="#8CAD6A"/>
</g>
<g id="Group_3">
<path id="Vector_7" d="M42.2503 71.14C42.9203 71.2 43.5003 71.47 43.9903 71.97L50.6903 78.67C53.4303 76.69 56.4503 75.34 59.7603 74.62C60.4303 74.49 61.1003 74.41 61.7703 74.38C62.4403 74.35 62.9303 74.49 63.2403 74.79C63.8703 75.42 64.4103 76.47 64.8703 77.96C65.3103 79.38 65.5203 80.47 65.5003 81.24C66.1603 81.09 66.6103 80.89 66.8503 80.65C67.4003 80.1 67.3103 78.63 66.5603 76.26C66.1003 74.78 65.5603 73.72 64.9303 73.09C64.6303 72.79 64.1403 72.65 63.4603 72.68C62.7803 72.71 62.1203 72.79 61.4503 72.92C58.1403 73.64 55.1203 74.99 52.3803 76.97L45.6803 70.27C45.1903 69.78 44.6103 69.5 43.9403 69.44C43.2703 69.38 42.7203 69.57 42.2903 70.01L40.5903 71.71C41.0303 71.27 41.5803 71.08 42.2503 71.14Z" fill="#C67114"/>
<path id="Vector_8" d="M74.9603 121.01C77.5303 120.08 79.5203 118.9 80.9303 117.49C81.3703 117.05 81.7502 116.65 82.1003 116.25C80.7303 117.46 78.9303 118.49 76.6503 119.31C75.8303 119.63 74.7703 119.96 73.4703 120.29C72.1703 120.62 71.1903 121.11 70.5503 121.76C70.2803 122.03 70.1203 122.33 70.0103 122.64C70.5103 122.38 71.1003 122.16 71.7803 121.99C73.0803 121.66 74.1403 121.33 74.9603 121.01Z" fill="#C67114"/>
<path id="Vector_9" d="M99.3002 124.44L92.5402 117.68C94.6702 114.33 95.6502 110.81 95.4802 107.1C95.2902 103.07 93.7202 99.5801 90.7802 96.6401C87.7402 93.6001 83.8502 92.2001 79.1202 92.4501C75.7402 92.6001 71.7302 93.65 67.0902 95.59L63.6702 96.9601C62.4502 97.4201 61.2702 97.7401 60.1102 97.9301C58.9502 98.1201 57.8402 98.1201 56.7702 97.9301C55.7102 97.7401 54.7702 97.2501 53.9802 96.4501C53.1902 95.6501 52.6402 94.8201 52.3502 93.9701C51.6202 91.7601 52.2602 89.4901 54.2502 87.1801C53.9502 87.4401 53.6502 87.7101 53.3602 88.0001C50.7402 90.6201 49.8302 93.1801 50.6502 95.6701C50.9402 96.5301 51.4802 97.3501 52.2802 98.1501C53.0802 98.9501 54.0102 99.4401 55.0702 99.6301C56.1302 99.8201 57.2502 99.8201 58.4102 99.6301C59.5702 99.4401 60.7602 99.1201 61.9702 98.6601L65.3902 97.2901C70.0302 95.3501 74.0402 94.3101 77.4202 94.1501C82.1502 93.9001 86.0402 95.3 89.0802 98.34C92.0302 101.29 93.5902 104.77 93.7802 108.8C93.9502 112.51 92.9702 116.03 90.8402 119.38L97.6002 126.14C98.0902 126.63 98.3602 127.21 98.4002 127.88C98.4402 128.55 98.2302 129.11 97.7702 129.56L99.4702 127.86C99.9302 127.4 100.14 126.84 100.1 126.18C100.06 125.52 99.7902 124.94 99.3002 124.44Z" fill="#C67114"/>
</g>
</g>
</g>
<defs>
<clipPath id="clip0_2474_5424">
<rect width="170.08" height="170.08" fill="white"/>
</clipPath>
</defs>
</svg>
