<svg width="27" height="27" viewBox="0 0 27 27" fill="currentColor" xmlns="http://www.w3.org/2000/svg">
<g id="Group">
<path id="Vector" fill-rule="evenodd" clip-rule="evenodd" d="M17.2884 16.2474C16.1599 15.6972 15.3785 14.5158 15.3785 13.1483C15.3785 11.2566 16.8738 9.72059 18.7162 9.72059C20.0629 9.72059 21.2245 10.5422 21.7522 11.7231C21.9542 12.1756 22.4759 12.3744 22.9165 12.1669C23.3574 11.9591 23.551 11.4233 23.3487 10.9708C22.5441 9.1689 20.7712 7.9165 18.7162 7.9165C15.9045 7.9165 13.6218 10.2611 13.6218 13.1483C13.6218 15.2346 14.8132 17.0376 16.5348 17.8772C16.9729 18.0905 17.4971 17.8989 17.7051 17.4493C17.9131 16.9993 17.7262 16.461 17.2884 16.2474Z" fill="currentColor"/>
<path id="Vector_2" fill-rule="evenodd" clip-rule="evenodd" d="M22.0542 21.3317V22.145C22.0542 22.954 21.7411 23.7301 21.1839 24.3023C20.6267 24.8746 19.8709 25.1961 19.0829 25.1961H19.0435C17.7748 25.1961 16.666 24.3164 16.3456 23.0557C15.8073 20.9373 14.8615 18.951 13.5637 17.2137L13.563 17.213C12.718 16.0872 12.2167 14.6775 12.2167 13.1484C12.2167 9.46445 15.1289 6.47327 18.7164 6.47327C21.3392 6.47327 23.6011 8.07242 24.6281 10.3719C24.8301 10.8244 25.3518 11.0232 25.7928 10.8157C26.2333 10.6082 26.4269 10.0721 26.2245 9.6196C24.9204 6.69951 22.0471 4.66919 18.7164 4.66919C14.1596 4.66919 10.46 8.46859 10.46 13.1484C10.46 15.0914 11.0976 16.8825 12.1703 18.312C13.3251 19.8581 14.1666 21.6258 14.6458 23.5114C15.1683 25.5663 16.9755 27.0002 19.0435 27.0002H19.0829C20.3368 27.0002 21.5394 26.4885 22.4259 25.5782C23.3126 24.6675 23.8108 23.4328 23.8108 22.145V21.3317C23.8108 20.8338 23.417 20.4297 22.9325 20.4297C22.4477 20.4297 22.0542 20.8338 22.0542 21.3317Z" fill="currentColor"/>
<path id="Vector_3" fill-rule="evenodd" clip-rule="evenodd" d="M9.3814 15.7173C9.16779 14.8978 9.0543 14.0366 9.0543 13.1482C9.0543 10.4104 10.1368 7.92975 11.8854 6.1336C12.2283 5.7818 12.2283 5.20991 11.8854 4.85811C11.5428 4.50595 10.986 4.50595 10.6434 4.85811C8.57648 6.9808 7.29761 9.91244 7.29761 13.1482C7.29761 14.1979 7.43217 15.2154 7.68443 16.1838C7.80986 16.6648 8.2919 16.9505 8.76023 16.8221C9.22822 16.6933 9.50683 16.1982 9.3814 15.7173Z" fill="currentColor"/>
<path id="Vector_4" fill-rule="evenodd" clip-rule="evenodd" d="M6.32669 16.5579C6.04316 15.4704 5.89244 14.3274 5.89244 13.1482C5.89244 9.51408 7.32906 6.22162 9.65036 3.8377C9.99292 3.48591 9.99292 2.91437 9.65036 2.56221C9.30745 2.21006 8.75093 2.21006 8.40803 2.56221C5.76877 5.27267 4.13574 9.01615 4.13574 13.1482C4.13574 14.4887 4.30755 15.788 4.62973 17.0245C4.75515 17.5054 5.23719 17.7912 5.70553 17.6624C6.17351 17.534 6.45212 17.0389 6.32669 16.5579Z" fill="currentColor"/>
<path id="Vector_5" fill-rule="evenodd" clip-rule="evenodd" d="M3.27174 17.3979C2.9183 16.0423 2.73033 14.6178 2.73033 13.1482C2.73033 8.61671 4.52216 4.5117 7.41684 1.53965C7.75975 1.18785 7.75975 0.616321 7.41719 0.264163C7.07429 -0.0879941 6.51776 -0.0879943 6.17486 0.263802C2.96186 3.56239 0.973633 8.11879 0.973633 13.1482C0.973633 14.7791 1.18268 16.3598 1.57477 17.8641C1.69985 18.3451 2.18189 18.6308 2.65022 18.5024C3.11856 18.3736 3.39682 17.8785 3.27174 17.3979Z" fill="currentColor"/>
</g>
</svg>
