<svg width="171" height="171" viewBox="0 0 171 171" fill="none" xmlns="http://www.w3.org/2000/svg">
<g id="icon_06_atv 2">
<g id="Camada_2">
<g id="Group">
<path id="Vector" d="M118.219 85.74C111.269 96.89 113.109 113.03 113.109 113.03L123.499 111.41C124.769 111.18 125.809 111.86 125.879 113.14C126.239 119.14 126.959 132.59 123.979 144.69C120.979 156.85 124.359 159.31 127.199 159.77C129.489 160.14 130.459 157.91 130.459 157.91C130.469 157.99 130.479 158.06 130.489 158.14C131.379 155.48 132.179 153.18 132.909 151.08C135.199 144.48 136.579 140.5 137.239 135.57C137.739 131.79 137.559 124.53 137.559 124.45C137.539 123.72 138.119 123.11 138.849 123.09C138.859 123.09 138.869 123.09 138.879 123.09C139.589 123.09 140.179 123.66 140.199 124.38C140.209 124.69 140.389 131.93 139.859 135.91C139.169 141.1 137.669 145.41 135.409 151.94C134.419 154.78 133.299 158.01 132.009 161.98C131.969 162.11 131.889 162.22 131.809 162.33C133.449 164.61 136.109 163.91 137.529 162C138.139 161.17 139.049 159.52 139.899 157.88C141.039 154.39 142.009 151.61 142.859 149.16C145.129 142.65 146.269 139.38 146.609 134.28C146.879 130.19 146.009 122.29 145.999 122.21C145.919 121.48 146.439 120.83 147.169 120.75C147.219 120.74 147.269 120.74 147.319 120.74C147.979 120.74 148.559 121.24 148.629 121.92C148.669 122.25 149.539 130.13 149.249 134.46C148.889 139.91 147.639 143.51 145.359 150.03C144.799 151.64 144.189 153.38 143.519 155.37C145.289 157.04 147.529 156.67 148.279 155.48C148.879 154.52 150.539 150.38 151.699 147.43C152.159 145.9 152.639 144.43 153.119 142.98C154.319 139.33 155.449 135.89 156.089 131.98C156.919 126.89 155.339 119.03 155.319 118.95C155.169 118.23 155.639 117.54 156.349 117.39C156.439 117.37 156.529 117.36 156.619 117.36C157.239 117.36 157.789 117.79 157.909 118.42C157.979 118.76 159.609 126.83 158.699 132.41C158.029 136.53 156.859 140.07 155.629 143.81C155.169 145.2 154.709 146.62 154.259 148.09C155.399 149.03 156.929 149.01 157.589 148.39C159.819 146.29 163.599 138.05 164.809 134.34C166.359 129.56 168.009 118.46 167.619 113.82C166.499 100.8 158.489 88.23 158.489 88.23C158.489 88.23 158.459 56.89 158.489 46.45C158.529 35.2 162.239 38.83 162.059 35.69C161.889 32.55 157.979 29.36 156.729 26.49C155.009 22.55 151.129 17.82 148.169 13.45C145.779 9.91995 139.319 7.42995 135.059 7.42995C127.879 7.42995 107.429 6.62995 106.139 6.81995C105.899 6.84995 111.429 44.78 111.469 45.02L118.219 85.74Z" fill="#8CAD6A"/>
<path id="Vector_2" d="M88.1093 51.92C99.2593 58.87 113.399 56.62 113.399 56.62L111.639 46.03C111.409 44.76 111.679 44.18 112.969 44.1C118.969 43.74 134.959 43.17 147.059 46.15C159.219 49.15 161.679 45.77 162.139 42.93C162.509 40.64 160.279 39.67 160.279 39.67C160.359 39.66 160.429 39.65 160.509 39.64C157.849 38.75 155.549 37.95 153.449 37.22C146.849 34.93 142.869 33.55 137.939 32.89C134.159 32.39 126.899 32.57 126.819 32.57C126.089 32.59 125.479 32.01 125.459 31.28C125.459 31.27 125.459 31.26 125.459 31.25C125.459 30.54 126.029 29.95 126.749 29.93C127.059 29.92 134.299 29.74 138.279 30.27C143.469 30.96 147.779 32.46 154.309 34.72C157.149 35.71 160.379 36.83 164.349 38.12C164.479 38.16 164.589 38.24 164.699 38.32C166.979 36.68 166.279 34.02 164.369 32.6C163.539 31.99 161.889 31.08 160.249 30.23C156.759 29.09 153.979 28.12 151.529 27.27C145.019 25 141.749 23.86 136.649 23.52C132.559 23.25 124.659 24.12 124.579 24.13C123.849 24.21 123.199 23.69 123.119 22.96C123.109 22.91 123.109 22.86 123.109 22.81C123.109 22.15 123.609 21.57 124.289 21.5C124.619 21.46 132.499 20.59 136.829 20.88C142.279 21.24 145.879 22.49 152.399 24.77C154.009 25.33 155.749 25.94 157.739 26.61C159.409 24.84 159.039 22.6 157.849 21.85C156.889 21.25 152.749 19.59 149.799 18.43C148.269 17.97 146.799 17.49 145.349 17.01C141.699 15.81 138.259 14.68 134.349 14.04C129.259 13.21 121.399 14.79 121.319 14.81C120.599 14.96 119.909 14.49 119.759 13.78C119.739 13.69 119.729 13.6 119.729 13.51C119.729 12.89 120.159 12.34 120.789 12.22C121.129 12.15 129.199 10.52 134.779 11.43C138.899 12.1 142.439 13.27 146.179 14.5C147.569 14.96 148.989 15.42 150.459 15.87C151.399 14.73 151.379 13.2 150.759 12.54C148.659 10.31 140.419 6.52997 136.709 5.31997C131.929 3.76997 120.829 2.11997 116.189 2.50997C103.169 3.62997 90.5993 11.64 90.5993 11.64C90.5993 11.64 59.2593 11.67 48.8193 11.64C37.5693 11.6 41.1993 7.88997 38.0593 8.06997C34.9193 8.23997 31.7293 12.15 28.8593 13.4C24.9193 15.12 20.1893 19 15.8193 21.96C12.2893 24.35 9.79934 30.81 9.79934 35.07C9.79934 42.25 8.99934 62.7 9.18934 63.99C9.21934 64.23 47.1493 58.7 47.3893 58.66L88.1093 51.92Z" fill="#F9AE29"/>
<path id="Vector_3" d="M51.8495 84.34C58.7995 73.19 56.9595 57.05 56.9595 57.05L46.5695 58.67C45.2995 58.9 44.2595 58.22 44.1895 56.94C43.8295 50.94 43.1095 37.49 46.0895 25.39C49.0895 13.23 45.7095 10.77 42.8695 10.31C40.5795 9.94003 39.6095 12.17 39.6095 12.17C39.5995 12.09 39.5895 12.02 39.5795 11.94C38.6895 14.6 37.8895 16.9 37.1595 19C34.8695 25.6 33.4895 29.58 32.8295 34.51C32.3295 38.29 32.5095 45.55 32.5095 45.63C32.5295 46.36 31.9495 46.97 31.2195 46.99C31.2095 46.99 31.1995 46.99 31.1895 46.99C30.4795 46.99 29.8895 46.42 29.8695 45.7C29.8595 45.39 29.6795 38.15 30.2095 34.17C30.8995 28.98 32.3995 24.67 34.6595 18.14C35.6495 15.3 36.7695 12.07 38.0595 8.10003C38.0995 7.97003 38.1795 7.86003 38.2595 7.75003C36.6195 5.47003 33.9595 6.17003 32.5395 8.08003C31.9295 8.91003 31.0195 10.56 30.1695 12.2C29.0295 15.69 28.0595 18.47 27.2095 20.92C24.9395 27.43 23.7995 30.7 23.4595 35.8C23.1895 39.89 24.0595 47.79 24.0695 47.87C24.1495 48.6 23.6295 49.25 22.8995 49.33C22.8495 49.34 22.7995 49.34 22.7495 49.34C22.0895 49.34 21.5095 48.84 21.4395 48.16C21.3995 47.83 20.5295 39.95 20.8195 35.62C21.1795 30.17 22.4295 26.57 24.7095 20.05C25.2695 18.44 25.8795 16.7 26.5495 14.71C24.7795 13.04 22.5395 13.41 21.7895 14.6C21.1895 15.56 19.5295 19.7 18.3695 22.65C17.9095 24.18 17.4295 25.65 16.9495 27.1C15.7495 30.75 14.6195 34.19 13.9795 38.1C13.1495 43.19 14.7295 51.05 14.7495 51.13C14.8995 51.85 14.4295 52.54 13.7195 52.69C13.6295 52.71 13.5395 52.72 13.4495 52.72C12.8295 52.72 12.2795 52.29 12.1595 51.66C12.0895 51.32 10.4595 43.25 11.3695 37.67C12.0395 33.55 13.2095 30.01 14.4395 26.27C14.8995 24.88 15.3595 23.46 15.8095 21.99C14.6695 21.05 13.1395 21.07 12.4795 21.69C10.2495 23.79 6.46955 32.03 5.25955 35.74C3.70955 40.52 2.05955 51.62 2.44955 56.26C3.56955 69.28 11.5795 81.85 11.5795 81.85C11.5795 81.85 11.6095 113.19 11.5795 123.63C11.5395 134.88 7.82955 131.25 8.00955 134.39C8.17955 137.53 12.0895 140.72 13.3395 143.59C15.0595 147.53 18.9395 152.26 21.8995 156.63C24.2895 160.16 30.7495 162.65 35.0095 162.65C42.1895 162.65 62.6395 163.45 63.9295 163.26C64.1695 163.23 58.6395 125.3 58.5995 125.06L51.8495 84.34Z" fill="#EB603B"/>
<path id="Vector_4" d="M81.9698 118.16C70.8198 111.21 56.6598 113.3 56.6598 113.3L58.4298 123.99C58.6598 125.26 58.3898 125.9 57.1098 125.97C51.1098 126.33 35.1198 126.9 23.0198 123.92C10.8598 120.92 8.39979 124.3 7.93979 127.14C7.56979 129.43 9.79979 130.4 9.79979 130.4C9.71979 130.41 9.64979 130.42 9.56979 130.43C12.2298 131.32 14.5298 132.12 16.6298 132.85C23.2298 135.14 27.2098 136.52 32.1398 137.18C35.9198 137.68 43.1798 137.5 43.2598 137.5C43.9898 137.48 44.5998 138.06 44.6198 138.79C44.6198 138.8 44.6198 138.81 44.6198 138.82C44.6198 139.53 44.0498 140.12 43.3298 140.14C43.0198 140.15 35.7798 140.33 31.7998 139.8C26.6098 139.11 22.2998 137.61 15.7698 135.35C12.9298 134.36 9.69979 133.24 5.72979 131.95C5.59979 131.91 5.48979 131.83 5.37979 131.75C3.09979 133.39 3.79979 136.05 5.70979 137.47C6.53979 138.08 8.18979 138.99 9.82979 139.84C13.3198 140.98 16.0998 141.95 18.5498 142.8C25.0598 145.07 28.3298 146.21 33.4298 146.55C37.5198 146.82 45.4198 145.95 45.4998 145.94C46.2298 145.86 46.8798 146.38 46.9598 147.11C46.9698 147.16 46.9698 147.21 46.9698 147.26C46.9698 147.92 46.4698 148.5 45.7898 148.57C45.4598 148.61 37.5798 149.48 33.2498 149.19C27.7998 148.83 24.1998 147.58 17.6798 145.3C16.0698 144.74 14.3298 144.13 12.3398 143.46C10.6698 145.23 11.0398 147.47 12.2298 148.22C13.1898 148.82 17.3298 150.48 20.2798 151.64C21.8098 152.1 23.2798 152.58 24.7298 153.06C28.3798 154.26 31.8198 155.39 35.7298 156.03C40.8198 156.86 48.6798 155.28 48.7598 155.26C49.4798 155.11 50.1698 155.58 50.3198 156.29C50.3398 156.38 50.3498 156.47 50.3498 156.56C50.3498 157.18 49.9198 157.73 49.2898 157.85C48.9498 157.92 40.8798 159.55 35.2998 158.64C31.1798 157.97 27.6398 156.8 23.8998 155.57C22.5098 155.11 21.0898 154.65 19.6198 154.2C18.6798 155.34 18.6998 156.87 19.3198 157.53C21.4198 159.76 29.6598 163.54 33.3698 164.75C38.1498 166.3 49.2498 167.95 53.8898 167.56C66.9098 166.44 79.4798 158.43 79.4798 158.43C79.4798 158.43 110.82 158.4 121.26 158.43C132.51 158.47 128.88 162.18 132.02 162C135.16 161.83 138.35 157.92 141.22 156.67C145.16 154.95 149.89 151.07 154.26 148.11C157.79 145.72 160.28 139.26 160.28 135C160.28 127.82 161.08 107.37 160.89 106.08C160.86 105.84 122.93 111.37 122.69 111.41L81.9698 118.16Z" fill="#F6B7C1"/>
<path id="Vector_5" d="M118.219 85.74C111.269 96.89 113.109 113.03 113.109 113.03L123.499 111.41C124.769 111.18 125.809 111.86 125.879 113.14C126.239 119.14 126.959 132.59 123.979 144.69C120.979 156.85 124.359 159.31 127.199 159.77C129.489 160.14 130.459 157.91 130.459 157.91C130.469 157.99 130.479 158.06 130.489 158.14C131.379 155.48 132.179 153.18 132.909 151.08C135.199 144.48 136.579 140.5 137.239 135.57C137.739 131.79 137.559 124.53 137.559 124.45C137.539 123.72 138.119 123.11 138.849 123.09C138.859 123.09 138.869 123.09 138.879 123.09C139.589 123.09 140.179 123.66 140.199 124.38C140.209 124.69 140.389 131.93 139.859 135.91C139.169 141.1 137.669 145.41 135.409 151.94C134.419 154.78 133.299 158.01 132.009 161.98C131.969 162.11 131.889 162.22 131.809 162.33C133.449 164.61 136.109 163.91 137.529 162C138.139 161.17 139.049 159.52 139.899 157.88C141.039 154.39 142.009 151.61 142.859 149.16C145.129 142.65 146.269 139.38 146.609 134.28C146.879 130.19 146.009 122.29 145.999 122.21C145.919 121.48 146.439 120.83 147.169 120.75C147.219 120.74 147.269 120.74 147.319 120.74C147.979 120.74 148.559 121.24 148.629 121.92C148.669 122.25 149.539 130.13 149.249 134.46C148.889 139.91 147.639 143.51 145.359 150.03C144.799 151.64 144.189 153.38 143.519 155.37C145.289 157.04 147.529 156.67 148.279 155.48C148.879 154.52 150.539 150.38 151.699 147.43C152.159 145.9 152.639 144.43 153.119 142.98C154.319 139.33 155.449 135.89 156.089 131.98C156.919 126.89 155.339 119.03 155.319 118.95C155.169 118.23 155.639 117.54 156.349 117.39C156.439 117.37 156.529 117.36 156.619 117.36C157.239 117.36 157.789 117.79 157.909 118.42C157.979 118.76 159.609 126.83 158.699 132.41C158.029 136.53 156.859 140.07 155.629 143.81C155.169 145.2 154.709 146.62 154.259 148.09C155.399 149.03 156.929 149.01 157.589 148.39C159.819 146.29 163.599 138.05 164.809 134.34C166.359 129.56 168.009 118.46 167.619 113.82C166.499 100.8 158.489 88.23 158.489 88.23L118.219 85.74Z" fill="#8CAD6A"/>
</g>
</g>
</g>
</svg>
