<svg width="28" height="28" viewBox="0 0 28 28" fill="currentColor" xmlns="http://www.w3.org/2000/svg">
<g id="icon-network">
<path id="Vector" d="M12.0118 16.2659C12.5107 16.7598 12.8225 17.4841 12.8225 18.2085V23.7073H5.96264V22.8183C5.96264 22.3902 5.83792 21.9951 5.58847 21.6659L4.77775 20.5134L1.09836 15.1134C1.036 14.9817 0.973633 14.85 0.973633 14.7183V0.987805C0.973633 0.428049 1.37899 0 1.90907 0C2.43915 0 2.84451 0.428049 2.84451 0.987805V10.8659C2.84451 10.8988 2.84451 10.9646 2.84451 10.9976C2.90687 11.5902 3.15632 12.15 3.56168 12.5451L3.68641 12.6768L9.64204 18.472C9.89149 18.7024 10.2968 18.7024 10.5151 18.439C10.6398 18.3073 10.671 18.1427 10.671 18.011C10.671 17.8463 10.6087 17.6488 10.4839 17.5171L4.43476 11.5902C4.06058 11.228 3.96704 10.6354 4.27885 10.2073C4.43476 9.97683 4.68421 9.84512 4.93366 9.8122C5.18311 9.77927 5.46374 9.87805 5.65083 10.0756L12.0118 16.2659ZM16.5643 11.1951C16.5643 9.38415 15.1611 7.90244 13.4462 7.90244C11.7312 7.90244 10.328 9.38415 10.328 11.1951V12.8415L12.8537 15.311C13.0096 15.4756 13.1655 15.6402 13.2903 15.8049C13.3526 15.8707 13.3838 15.9695 13.4462 16.0354C13.5085 15.9695 13.5397 15.8707 13.6021 15.8049C13.7268 15.6402 13.8827 15.4427 14.0386 15.311L16.5643 12.8415V11.1951ZM5.96264 8.72561V4.28049C5.96264 3.72073 5.55729 3.29268 5.0272 3.29268C4.49712 3.29268 4.09176 3.72073 4.09176 4.28049V8.72561C4.31003 8.62683 4.55948 8.52805 4.80893 8.52805C5.21429 8.49512 5.61965 8.56098 5.96264 8.72561ZM5.96264 26.3415C5.96264 26.7037 6.24327 27 6.58627 27H12.1989C12.5419 27 12.8225 26.7037 12.8225 26.3415V25.0244H5.96264V26.3415ZM22.0834 8.52805C22.3328 8.56098 22.5823 8.62683 22.8006 8.72561V4.28049C22.8006 3.72073 22.3952 3.29268 21.8651 3.29268C21.335 3.29268 20.9297 3.72073 20.9297 4.28049V8.72561C21.2727 8.56098 21.678 8.49512 22.0834 8.52805ZM14.0698 26.3415C14.0698 26.7037 14.3504 27 14.6934 27H20.306C20.649 27 20.9297 26.7037 20.9297 26.3415V25.0244H14.0698V26.3415ZM24.9832 0C24.4532 0 24.0478 0.428049 24.0478 0.987805V10.8659C24.0478 10.8988 24.0478 10.9646 24.0478 10.9976C23.9854 11.5902 23.736 12.15 23.3306 12.5451L23.2059 12.6768L17.2191 18.472C17.0944 18.6037 16.9385 18.6366 16.8137 18.6366C16.6578 18.6366 16.4707 18.5707 16.346 18.439C16.1278 18.1756 16.1278 17.7476 16.3772 17.5171L22.4576 11.6232C22.8317 11.261 22.9253 10.6683 22.6135 10.2402C22.4576 10.0098 22.2081 9.87805 21.9587 9.84512C21.7092 9.8122 21.4286 9.91098 21.2415 10.1085L14.8805 16.2659C14.3816 16.7598 14.0698 17.4841 14.0698 18.2085V23.7073H20.9297V22.8183C20.9297 22.3902 21.0544 21.9951 21.3038 21.6659L22.1146 20.5134L25.8251 15.1463C25.8875 15.0146 25.9499 14.8829 25.9499 14.7512V0.987805C25.9187 0.428049 25.5133 0 24.9832 0ZM13.4462 6.58537C14.3192 6.58537 15.0052 5.86098 15.0052 4.93902C15.0052 4.01707 14.3192 3.29268 13.4462 3.29268C12.5731 3.29268 11.8871 4.01707 11.8871 4.93902C11.8871 5.86098 12.5731 6.58537 13.4462 6.58537Z" fill="currentColor"/>
</g>
</svg>
