<svg width="171" height="171" viewBox="0 0 171 171" fill="none" xmlns="http://www.w3.org/2000/svg">
<g id="icon_10_atv 2" clip-path="url(#clip0_2474_5394)">
<g id="Camada_2">
<path id="Vector" d="M141.553 23.6839C144.009 12.9316 138.479 2.49719 129.202 0.378006C119.925 -1.74118 110.414 5.25734 107.958 16.0096C105.501 26.7619 111.031 37.1963 120.308 39.3155C129.585 41.4347 139.096 34.4362 141.553 23.6839Z" fill="#EB603B"/>
<path id="Vector_2" d="M168.52 27.2C161.19 12.64 151.12 38.59 125.11 41.72C100.91 44.63 88.1999 12.86 76.2799 27.39C65.1099 41 105.22 60.23 105.22 60.23C105.22 60.23 106.09 77.33 98.4799 85.63C87.7699 98.18 80.5799 115.48 89.6899 137.08C93.6699 146.53 97.6299 150.03 100.55 149.35C106.35 148.01 106.37 140.52 104.59 129.15C102.33 114.7 105.16 111.32 109.12 105.87C112.49 101.2 119.51 96.14 119.51 96.14C119.51 96.14 124.6 109.97 123.65 124.11C122.7 138.25 114.25 165.24 127.75 169.48C141.25 173.71 146.32 119.29 142.31 93.05C138.04 65 140.47 59.71 140.47 59.71C140.47 59.71 175.84 43.98 168.52 27.2Z" fill="#EB603B"/>
<path id="Vector_3" d="M32.33 43.2799H9.39C4.21 43.2799 0 39.0699 0 33.8899V10.9499C0 5.75994 4.21 1.55994 9.39 1.55994H32.32C37.51 1.55994 41.71 5.76994 41.71 10.9499V33.8799C41.72 39.0699 37.51 43.2799 32.33 43.2799Z" fill="#8CAD6A"/>
<path id="Vector_4" d="M8.50977 18.6099L24.5998 34.6999L53.5298 5.77991" stroke="#3F722F" stroke-width="8" stroke-miterlimit="10" stroke-linejoin="round"/>
<path id="Vector_5" d="M32.33 105.9H9.39C4.2 105.9 0 101.69 0 96.5099V73.5699C0 68.3799 4.21 64.1799 9.39 64.1799H32.32C37.51 64.1799 41.71 68.3899 41.71 73.5699V96.4999C41.72 101.69 37.51 105.9 32.33 105.9Z" fill="#8CAD6A"/>
<path id="Vector_6" d="M8.50977 81.2299L24.5998 97.3199L53.5298 68.3999" stroke="#3F722F" stroke-width="8" stroke-miterlimit="10" stroke-linejoin="round"/>
<path id="Vector_7" d="M32.33 168.52H9.39C4.2 168.52 0 164.31 0 159.13V136.2C0 131.01 4.21 126.81 9.39 126.81H32.32C37.51 126.81 41.71 131.02 41.71 136.2V159.13C41.72 164.31 37.51 168.52 32.33 168.52Z" fill="#8CAD6A"/>
<path id="Vector_8" d="M8.50977 143.85L24.5998 159.94L53.5298 131.01" stroke="#3F722F" stroke-width="8" stroke-miterlimit="10" stroke-linejoin="round"/>
<g id="Group">
<path id="Vector_9" d="M97.38 76.3C97.49 76.67 100.04 85.46 89.81 91.18C79.46 96.97 71.89 90.51 71.57 90.23L69.04 93.08L66.48 95.91C66.96 96.34 78.31 106.35 93.54 97.84C94.14 97.5 94.71 97.16 95.26 96.8C105.98 89.79 106.18 79.02 104.68 74.09L97.38 76.3Z" fill="#F9AE29"/>
<path id="Vector_10" d="M72.2967 69.4344L65.9951 73.7362L71.4358 81.7061L77.7374 77.4044L72.2967 69.4344Z" fill="#F9AE29"/>
<path id="Vector_11" d="M85.0979 62.9512L78.2056 66.2012L82.3213 74.9296L89.2136 71.6797L85.0979 62.9512Z" fill="#F9AE29"/>
</g>
</g>
</g>
<defs>
<clipPath id="clip0_2474_5394">
<rect width="170.08" height="170.08" fill="white"/>
</clipPath>
</defs>
</svg>
