<svg width="171" height="171" viewBox="0 0 171 171" fill="none" xmlns="http://www.w3.org/2000/svg">
<g id="icon_07_atv 2" clip-path="url(#clip0_2474_5228)">
<g id="Camada_2">
<path id="Vector" d="M147.77 30.61C147.77 30.61 156.73 36.99 163.34 26.83C170.17 16.34 155.14 6.24997 144.99 10.89C144.99 10.89 130.28 -9.41003 112.26 10.06C112.26 10.06 83.8 -6.56003 69.54 25.19L108.27 64.55L145.8 44.6L147.77 30.61Z" fill="#EB603B"/>
<path id="Vector_2" d="M110.85 56.07C110.85 56.07 129.83 54.43 124.25 38.42C124.25 38.42 141 41.14 147.77 30.6C147.77 30.6 149.87 31.92 151.43 32.24C151.43 32.24 155.1 46.65 162.79 51.34C170.48 56.03 162.26 61.64 162.26 61.64C162.26 61.64 162.75 65.93 165.04 68.85C167.92 72.52 164.16 73.69 164.16 73.69C164.16 73.69 167.34 77.05 164.12 79.87C162.45 81.33 164.45 90.7 158.16 94.61C153.06 97.79 142.36 101.37 119.57 95.47C110.9 93.23 129.62 116.88 120.22 136.89C110.82 156.9 80.9199 161.62 66.2199 140.16C51.5199 118.7 52.1199 127.74 22.2799 103.94C-7.56009 80.14 -2.21009 30.38 29.0999 15.83C60.4099 1.27996 94.7599 38.96 110.85 56.07Z" fill="#F9AE29"/>
<path id="Vector_3" d="M39.0498 81.34C39.0498 81.34 17.4898 64.19 33.7498 46.33C50.0098 28.47 93.4898 58.2799 83.8498 72.3399C83.8498 72.3399 57.9698 66.27 61.6098 85.98C65.2498 105.69 86.9398 114.93 93.9298 102.51" stroke="#EB603B" stroke-width="4" stroke-miterlimit="10" stroke-linecap="round" stroke-linejoin="round"/>
<path id="Vector_4" d="M157.98 73.58C157.98 73.58 161.28 74.24 164.08 74.24" stroke="#EB603B" stroke-width="2" stroke-miterlimit="10" stroke-linecap="round" stroke-linejoin="round"/>
<path id="Vector_5" d="M160.31 62.36L161.83 61.4" stroke="#EB603B" stroke-width="2" stroke-miterlimit="10" stroke-linecap="round" stroke-linejoin="round"/>
<g id="Group">
<path id="Vector_6" d="M59.7434 152.651L39.3975 162.023L43.1087 170.08L63.4546 160.708L59.7434 152.651Z" fill="#91CEC1"/>
<path id="Vector_7" d="M8.85586 117.738L0.00537109 118.323L1.39533 139.337L10.2458 138.751L8.85586 117.738Z" fill="#91CEC1"/>
<path id="Vector_8" d="M34.956 129.038L21.5488 146.97L28.6528 152.282L42.06 134.35L34.956 129.038Z" fill="#91CEC1"/>
</g>
<path id="Vector_9" d="M144.46 54.14C144.46 54.14 148.18 55.54 150.32 52.25" stroke="#EB603B" stroke-width="2" stroke-miterlimit="10" stroke-linecap="round" stroke-linejoin="round"/>
</g>
</g>
<defs>
<clipPath id="clip0_2474_5228">
<rect width="170.08" height="170.08" fill="white"/>
</clipPath>
</defs>
</svg>
