<svg width="{% firstof width 50 %}" height="{% firstof width 50 %}" viewBox="0 0 171 171" fill="none" xmlns="http://www.w3.org/2000/svg">
<g id="icon_04_atv 2">
<g id="Camada_2">
<g id="Group">
<path id="Vector" d="M99.2259 0.00517829L93.3887 25.259L104.252 27.77L110.089 2.51616L99.2259 0.00517829Z" fill="#90CCC0"/>
<path id="Vector_2" d="M145.509 19.7109L124.352 37.3713L131.496 45.9312L152.654 28.2707L145.509 19.7109Z" fill="#90CCC0"/>
<path id="Vector_3" d="M4.61031 61.3477L3.11621 72.3973L31.003 76.1681L32.4971 65.1184L4.61031 61.3477Z" fill="#90CCC0"/>
<path id="Vector_4" d="M165.67 61.3555L137.783 65.1262L139.277 76.1759L167.164 72.4051L165.67 61.3555Z" fill="#90CCC0"/>
<path id="Vector_5" d="M64.5469 0.0034398L53.7871 2.9292L60.7302 28.4631L71.49 25.5373L64.5469 0.0034398Z" fill="#90CCC0"/>
<path id="Vector_6" d="M25.2037 19.2695L17.499 27.3287L37.4194 46.3727L45.124 38.3135L25.2037 19.2695Z" fill="#90CCC0"/>
</g>
<g id="Group_2">
<path id="Vector_7" d="M2.05029 132.3C2.02029 127.85 5.78029 119.88 12.7403 118.08C17.4403 116.86 22.5903 117.94 30.6103 114.36C35.6903 112.09 36.8503 105.37 41.7103 108.9C48.0303 113.49 31.3703 125.27 31.3703 125.27C31.3703 125.27 30.6503 128 32.3703 146.52C34.0903 165.04 34.2403 167.48 29.9303 168.05C25.6203 168.62 25.7703 160.87 25.3403 155.13C24.9103 149.39 22.6103 146.09 22.6103 146.09C19.1603 152.69 24.1903 168.06 17.4403 168.06C10.6903 168.06 12.4203 146.53 13.4203 142.08C14.4203 137.63 13.4203 128.01 13.4203 128.01C13.4203 128.01 9.26029 130.16 9.26029 135.91C9.26029 141.66 8.09029 144.5 4.95029 144.09C1.65029 143.64 2.09029 137.06 2.05029 132.3Z" fill="#EB603B"/>
<path id="Vector_8" d="M30.9304 106.98C30.9304 108.33 29.8304 109.43 28.4804 109.43C28.4704 109.43 28.4604 109.43 28.4604 109.43C28.2104 114.36 24.6404 118.27 20.2604 118.27C17.3404 118.27 14.7804 116.53 13.3204 113.9C12.9304 114.17 12.4504 114.32 11.9404 114.32C10.5904 114.32 9.49036 113.22 9.49036 111.87C9.49036 111.41 9.63036 110.98 9.85036 110.61C8.21036 110.26 7.13036 108.68 7.41036 107.01C7.65036 105.62 8.77036 104.62 10.1004 104.44C9.88036 104 9.80036 103.48 9.89036 102.96C10.1004 101.75 11.1704 100.91 12.3604 100.94C12.3304 100.76 12.3004 100.57 12.3004 100.38C12.3004 98.18 14.0804 96.4 16.2804 96.4C17.2104 96.4 18.0504 96.73 18.7304 97.27C19.2104 96.15 20.3204 95.36 21.6204 95.36C23.1904 95.36 24.4904 96.52 24.7204 98.03C24.9304 97.97 25.1504 97.93 25.3804 97.93C26.7304 97.93 27.8304 99.03 27.8304 100.38C27.8304 100.42 27.8204 100.45 27.8204 100.49C28.0404 100.43 28.2604 100.38 28.4904 100.38C29.8404 100.38 30.9404 101.48 30.9404 102.83C30.9404 103.7 30.4804 104.46 29.7904 104.9C30.4704 105.35 30.9304 106.11 30.9304 106.98Z" fill="#EB603B"/>
</g>
<g id="Group_3">
<path id="Vector_9" d="M77.8998 56.79C72.7698 57.9 78.1898 61.11 76.5198 63.97C75.0398 66.52 72.6598 66.11 70.9498 65.35C68.9898 67.65 66.2598 69.09 63.2298 69.09C60.5198 69.09 58.0498 67.94 56.1498 66.04C54.9698 67.28 52.6398 68.85 49.7098 66.23C45.1998 62.19 51.8598 58.2 48.8498 56.09C46.1498 54.2 45.9098 50.04 49.1598 47.79C52.4098 45.54 50.4798 44.7 51.0998 42.45C51.7298 40.2 53.4898 39.14 59.1098 40.7C61.3598 41.33 62.4898 36.07 65.7498 37.45C69.0098 38.83 66.7498 41.71 69.7598 41.71C72.7698 41.71 76.0198 40.46 76.3998 44.53C76.7798 48.6 75.8998 48.72 78.7798 50.1C81.6498 51.45 81.7798 55.95 77.8998 56.79Z" fill="#F9AE29"/>
<path id="Vector_10" d="M159.58 118.81C159.34 120.5 157.73 120.96 156.05 120.45C154.65 122.02 152.72 123 150.6 123C146.3 123 142.82 119.02 142.82 114.11C142.82 113.01 143 111.97 143.32 111C141.7 110.5 140.08 109.59 140.15 107.96C140.28 104.72 143.33 106.02 143.58 103.17C143.84 100.32 146.22 99.1901 148.69 100.35C151.15 101.52 150.53 98.6801 154 98.8901C158.17 99.1401 156.86 102.94 159.32 103.08C162.04 103.24 162.9 104.24 161.4 107.96C160.07 111.26 163.44 108.93 163.35 113.1C163.25 117.26 160.12 114.97 159.58 118.81Z" fill="#F9AE29"/>
<path id="Vector_11" d="M132.06 114.86C136.43 111.68 137.47 117.72 142.04 119.77C149.25 123 153.88 122.03 158.11 123.12C164.37 124.74 167.75 131.91 167.72 135.91C167.69 140.19 168.08 146.11 165.11 146.5C162.29 146.87 161.24 144.31 161.24 139.14C161.24 133.98 157.5 132.04 157.5 132.04C157.5 132.04 156.6 140.69 157.5 144.69C158.4 148.69 159.95 168.06 153.88 168.06C147.81 168.06 152.33 154.24 149.23 148.31C149.23 148.31 147.16 151.28 146.78 156.44C146.39 161.6 146.52 168.58 142.65 168.06C138.78 167.54 138.91 165.35 140.46 148.69C142.01 132.03 141.36 129.58 141.36 129.58C141.36 129.58 126.38 118.99 132.06 114.86Z" fill="#F9AE29"/>
<path id="Vector_12" d="M37.81 93.9C38.81 85.03 39.21 82.53 47.31 73.15C51.2 68.65 62.54 68.42 69.3 67.62C76.06 66.82 79.12 70.68 82.5 75.51C85.88 80.34 94.6 89.09 94.6 89.09L92.68 101.07L78.59 89.09C78.59 89.09 82.85 113.02 83.25 127.21C83.65 141.4 87.51 168.08 79.8 168.08C72.09 168.08 72.91 157.02 72.1 146.88C71.29 136.74 68.65 128.02 68.65 128.02C68.65 128.02 68.65 128.02 65.79 141.01C61.78 159.26 60.54 168.16 55.67 168.07C50.8 167.98 50.6 165.73 51.82 154.78C53.04 143.83 56.48 120.11 55.67 111.33C54.86 102.55 52.14 86.83 52.14 86.83C50.93 87.89 49.84 88.46 49.3 89.63C46.09 96.59 47.79 110.64 41.36 108.55C34.92 106.46 36.91 101.92 37.81 93.9Z" fill="#F9AE29"/>
</g>
<path id="Vector_13" d="M78.5898 89.09C78.5898 89.09 87.2998 80.34 90.6798 75.51C94.0598 70.68 97.1198 66.82 103.88 67.62C110.64 68.42 122.18 68.5 125.87 73.15C133.34 82.59 135.41 90.11 135.9 98.16C136.39 106.21 138.86 113.87 132.14 114.66C125.99 115.39 128.06 99.41 124.85 92.45C124.31 91.28 122.26 87.9 121.05 86.83C121.05 86.83 118.33 102.55 117.52 111.33C116.71 120.11 120.16 143.83 121.37 154.78C122.59 165.73 122.38 167.98 117.52 168.07C112.66 168.16 111.42 159.26 107.4 141.01C104.54 128.02 104.54 128.02 104.54 128.02C104.54 128.02 101.9 136.74 101.09 146.88C100.28 157.02 101.09 168.08 93.3898 168.08C85.6898 168.08 89.5399 141.4 89.9398 127.21C90.3498 113.02 94.5998 89.09 94.5998 89.09L80.5098 101.05L78.5898 89.09Z" fill="#EB603B"/>
<path id="Vector_14" d="M92.1798 58.5901C92.2998 58.5701 92.4098 58.5401 92.5298 58.5101C91.8998 59.3801 91.5898 60.4701 91.7398 61.6201C92.0498 64.0001 94.2398 65.6701 96.6098 65.3601C97.7498 65.2101 98.7298 64.6201 99.3998 63.7901C101.61 67.4301 105.46 69.6201 109.51 69.0901C112.7 68.6701 115.33 66.6501 116.89 63.8101C117.63 64.4801 118.63 64.8401 119.7 64.7001C121.62 64.4501 122.97 62.6801 122.72 60.7601C122.67 60.3801 122.55 60.0401 122.39 59.7101C122.45 59.7001 122.51 59.7101 122.58 59.7001C124.96 59.3901 126.63 57.2001 126.32 54.8301C126.17 53.6901 125.58 52.7101 124.75 52.0401C125.73 51.1201 126.27 49.7601 126.08 48.3301C125.84 46.4801 124.46 45.0701 122.75 44.6801C123.13 44.0301 123.31 43.2601 123.21 42.4601C122.96 40.5401 121.19 39.1901 119.27 39.4401C119.02 39.4701 118.79 39.5301 118.56 39.6101C118.81 39.1101 118.93 38.5301 118.85 37.9401C118.64 36.3701 117.2 35.2601 115.63 35.4701C114.85 35.5701 114.18 35.9801 113.74 36.5601C113.02 34.7601 111.16 33.6001 109.15 33.8601C108.22 33.9801 107.41 34.3901 106.77 34.9901C106.05 34.4101 105.11 34.1101 104.11 34.2401C103.19 34.3601 102.42 34.8301 101.87 35.4901C101.16 35.2401 100.39 35.1501 99.5998 35.2501C96.8998 35.6101 94.9998 38.0801 95.3598 40.7801C95.3698 40.8301 95.3798 40.8701 95.3798 40.9201C94.8598 40.8101 94.3098 40.8201 93.7598 40.9701C91.8898 41.4801 90.7898 43.4101 91.2998 45.2801C91.4198 45.7201 91.6298 46.1201 91.8898 46.4701C91.6198 46.4801 91.3498 46.5101 91.0798 46.5801C89.2098 47.0901 88.1098 49.0201 88.6198 50.8901C88.9098 51.9501 89.6698 52.7501 90.5998 53.1601C89.4998 53.6801 88.7898 54.8501 88.9598 56.1301C89.1698 57.6901 90.6098 58.8001 92.1798 58.5901Z" fill="#EB603B"/>
</g>
</g>
</svg>
