<svg width="22" height="27" viewBox="0 0 22 27" fill="currentColor" xmlns="http://www.w3.org/2000/svg">
<g id="Group">
<path id="Vector" d="M10.8768 5.97119H10.2732C10.1431 5.97086 10.0143 5.99688 9.89398 6.04777C9.7737 6.09866 9.66438 6.17342 9.57229 6.26776C9.48019 6.36211 9.40712 6.47418 9.35726 6.59757C9.3074 6.72097 9.28174 6.85325 9.28174 6.98684C9.28174 7.12043 9.3074 7.25271 9.35726 7.3761C9.40712 7.4995 9.48019 7.61157 9.57229 7.70592C9.66438 7.80026 9.7737 7.87502 9.89398 7.92591C10.0143 7.9768 10.1431 8.00282 10.2732 8.00248H10.8768V5.97119Z" fill="currentColor"/>
<path id="Vector_2" d="M13.4803 10.0564C13.4799 9.78715 13.3756 9.52902 13.1902 9.33862C13.0048 9.14822 12.7535 9.04111 12.4913 9.04077H11.8877V11.0721H12.4913C12.7535 11.0717 13.0048 10.9646 13.1902 10.7742C13.3756 10.5838 13.4799 10.3257 13.4803 10.0564Z" fill="currentColor"/>
<path id="Vector_3" d="M21.3374 2.14715e-08H1.42698C1.36058 -1.78858e-05 1.29483 0.0134002 1.23348 0.0394877C1.17213 0.0655751 1.11638 0.103821 1.06943 0.152039C1.02248 0.200258 0.985239 0.257504 0.959837 0.320509C0.934435 0.383513 0.921369 0.451039 0.921387 0.519231V26.4808C0.921382 26.5835 0.951032 26.6838 1.00658 26.7692C1.06214 26.8546 1.1411 26.9212 1.23348 26.9605C1.32587 26.9998 1.42752 27.01 1.52559 26.99C1.62367 26.97 1.71375 26.9205 1.78445 26.8479L3.41799 25.1705L5.05153 26.8479C5.09847 26.8961 5.1542 26.9344 5.21553 26.9605C5.27687 26.9866 5.34261 27 5.409 27C5.4754 27 5.54114 26.9866 5.60247 26.9605C5.66381 26.9344 5.71954 26.8961 5.76647 26.8479L7.40001 25.1705L9.03356 26.8479C9.08049 26.8961 9.13622 26.9344 9.19755 26.9605C9.25889 26.9866 9.32463 27 9.39103 27C9.45742 27 9.52316 26.9866 9.5845 26.9605C9.64583 26.9344 9.70156 26.8961 9.74849 26.8479L11.3823 25.1705L13.0159 26.8479C13.0628 26.8961 13.1185 26.9344 13.1799 26.9605C13.2412 26.9866 13.3069 27 13.3733 27C13.4397 27 13.5055 26.9866 13.5668 26.9605C13.6281 26.9344 13.6839 26.8961 13.7308 26.8479L15.3643 25.1705L16.9979 26.8479C17.0448 26.8961 17.1005 26.9344 17.1619 26.9605C17.2232 26.9866 17.289 27 17.3554 27C17.4217 27 17.4875 26.9866 17.5488 26.9605C17.6102 26.9344 17.6659 26.8961 17.7128 26.8479L19.3464 25.1705L20.9799 26.8479C21.0506 26.9205 21.1407 26.97 21.2388 26.99C21.3368 27.01 21.4385 26.9998 21.5309 26.9605C21.6233 26.9212 21.7022 26.8546 21.7578 26.7692C21.8133 26.6838 21.843 26.5835 21.843 26.4808V0.519231C21.843 0.451038 21.8299 0.38351 21.8045 0.320506C21.7791 0.257501 21.7419 0.200253 21.6949 0.152035C21.648 0.103816 21.5922 0.0655706 21.5309 0.0394839C21.4695 0.0133973 21.4038 -1.95914e-05 21.3374 2.14715e-08ZM10.2731 9.0409C10.0101 9.04138 9.74967 8.98861 9.50659 8.88559C9.26351 8.78258 9.0426 8.63135 8.85649 8.44056C8.67038 8.24977 8.52273 8.02317 8.42199 7.77371C8.32125 7.52426 8.2694 7.25685 8.2694 6.9868C8.2694 6.71674 8.32125 6.44933 8.42199 6.19988C8.52273 5.95043 8.67038 5.72382 8.85649 5.53303C9.0426 5.34224 9.26351 5.19102 9.50659 5.088C9.74967 4.98499 10.0101 4.93221 10.2731 4.93269H10.8767V4.11227C10.8767 3.97456 10.93 3.84249 11.0248 3.74512C11.1196 3.64774 11.2482 3.59304 11.3823 3.59304C11.5164 3.59304 11.645 3.64774 11.7398 3.74512C11.8346 3.84249 11.8879 3.97456 11.8879 4.11227V4.93269H13.986C14.1201 4.93269 14.2487 4.9874 14.3436 5.08477C14.4384 5.18215 14.4916 5.31421 14.4916 5.45192C14.4916 5.58963 14.4384 5.7217 14.3436 5.81907C14.2487 5.91645 14.1201 5.97115 13.986 5.97115H11.8879V8.00244H12.4915C12.7545 8.00196 13.0149 8.05474 13.258 8.15775C13.5011 8.26077 13.722 8.41199 13.9081 8.60278C14.0942 8.79357 14.2419 9.02018 14.3426 9.26963C14.4433 9.51908 14.4952 9.78649 14.4952 10.0565C14.4952 10.3266 14.4433 10.594 14.3426 10.8435C14.2419 11.0929 14.0942 11.3195 13.9081 11.5103C13.722 11.7011 13.5011 11.8523 13.258 11.9553C13.0149 12.0584 12.7545 12.1111 12.4915 12.1107H11.8879V12.9311C11.8879 13.0688 11.8346 13.2009 11.7398 13.2982C11.645 13.3956 11.5164 13.4503 11.3823 13.4503C11.2482 13.4503 11.1196 13.3956 11.0248 13.2982C10.93 13.2009 10.8767 13.0688 10.8767 12.9311V12.1107H8.7783C8.64421 12.1107 8.51561 12.0559 8.42079 11.9586C8.32598 11.8612 8.27271 11.7291 8.27271 11.5914C8.27271 11.4537 8.32598 11.3216 8.42079 11.2243C8.51561 11.1269 8.64421 11.0722 8.7783 11.0722H10.8767V9.0409H10.2731ZM17.2926 20.8559H5.47171C5.33762 20.8559 5.20902 20.8012 5.1142 20.7039C5.01939 20.6065 4.96612 20.4744 4.96612 20.3367C4.96612 20.199 5.01939 20.0669 5.1142 19.9696C5.20902 19.8722 5.33762 19.8175 5.47171 19.8175H17.2926C17.4267 19.8175 17.5553 19.8722 17.6501 19.9696C17.745 20.0669 17.7982 20.199 17.7982 20.3367C17.7982 20.4744 17.745 20.6065 17.6501 20.7039C17.5553 20.8012 17.4267 20.8559 17.2926 20.8559ZM17.2926 17.4591H5.47171C5.33762 17.4591 5.20902 17.4044 5.1142 17.3071C5.01939 17.2097 4.96612 17.0776 4.96612 16.9399C4.96612 16.8022 5.01939 16.6701 5.1142 16.5727C5.20902 16.4754 5.33762 16.4207 5.47171 16.4207H17.2926C17.4267 16.4207 17.5553 16.4754 17.6501 16.5727C17.745 16.6701 17.7982 16.8022 17.7982 16.9399C17.7982 17.0776 17.745 17.2097 17.6501 17.3071C17.5553 17.4044 17.4267 17.4591 17.2926 17.4591Z" fill="currentColor"/>
</g>
</svg>
