<svg width="26" height="26" viewBox="0 0 26 26" fill="currentColor" xmlns="http://www.w3.org/2000/svg">
<g id="Group 305">
<path id="Vector" d="M5.4489 3.40438C6.14652 3.22186 6.87755 3.22186 7.57517 3.40438C7.89016 3.1731 8.1255 2.84507 8.24726 2.46758C8.36902 2.09009 8.37092 1.68264 8.25266 1.30397C8.13441 0.925306 7.90213 0.594986 7.5893 0.360633C7.27647 0.126279 6.89925 0 6.51204 0C6.12482 0 5.7476 0.126279 5.43477 0.360633C5.12194 0.594986 4.88966 0.925306 4.77141 1.30397C4.65316 1.68264 4.65505 2.09009 4.77681 2.46758C4.89857 2.84507 5.13391 3.1731 5.4489 3.40438Z" fill="currentColor"/>
<path id="Vector_2" d="M1.42807 17.3437C1.40702 17.3468 1.38564 17.3468 1.3646 17.3437C1.09462 18.4386 0.963416 19.5647 0.974253 20.6941L3.63367 19.5469L1.4122 22.5844C2.63634 24.2266 4.34002 25.4235 6.27405 26V15.3784L1.51375 17.3339C1.48582 17.3415 1.45694 17.3448 1.42807 17.3437Z" fill="currentColor"/>
<path id="Vector_3" d="M6.75 12.4551V14.8505L11.5103 16.806C10.6185 14.0032 8.82549 12.8168 7.64811 12.3247C7.35372 12.3988 7.05285 12.4425 6.75 12.4551Z" fill="currentColor"/>
<path id="Vector_4" d="M1.52002 16.7995L6.28032 14.844V12.4551C5.9793 12.4386 5.6806 12.3917 5.38855 12.3149C4.20483 12.8071 2.41813 13.9934 1.52002 16.7995Z" fill="currentColor"/>
<path id="Vector_5" d="M6.75 26C8.68067 25.4185 10.3798 24.2183 11.5992 22.5747L9.37768 19.5372L12.0371 20.6844C12.0477 19.5539 11.9165 18.4268 11.6468 17.3307C11.5983 17.3471 11.546 17.3471 11.4976 17.3307L6.7373 15.3752L6.75 26Z" fill="currentColor"/>
<path id="Vector_6" d="M18.8415 3.40438C19.5391 3.22186 20.2701 3.22186 20.9677 3.40438C21.2827 3.1731 21.5181 2.84507 21.6398 2.46758C21.7616 2.09009 21.7635 1.68264 21.6452 1.30397C21.527 0.925306 21.2947 0.594986 20.9819 0.360633C20.669 0.126279 20.2918 0 19.9046 0C19.5174 0 19.1402 0.126279 18.8274 0.360633C18.5145 0.594986 18.2822 0.925306 18.164 1.30397C18.0457 1.68264 18.0476 2.09009 18.1694 2.46758C18.2911 2.84507 18.5265 3.1731 18.8415 3.40438Z" fill="currentColor"/>
<path id="Vector_7" d="M14.7567 17.3306C14.4869 18.4267 14.3557 19.5538 14.3663 20.6843L17.0162 19.5371L14.7947 22.5746C16.0199 24.2222 17.7273 25.4227 19.6661 26V15.3784L14.9058 17.3339C14.857 17.3493 14.8048 17.3481 14.7567 17.3306Z" fill="currentColor"/>
<path id="Vector_8" d="M14.9126 16.7995L19.6729 14.844V12.4551C19.3719 12.4389 19.0731 12.3919 18.7811 12.3149C17.5974 12.8071 15.8044 13.9934 14.9126 16.7995Z" fill="currentColor"/>
<path id="Vector_9" d="M20.1426 12.4551V14.8506L24.9029 16.806C23.9984 13.9934 22.2117 12.8071 21.0343 12.3149C20.7423 12.3917 20.4436 12.4386 20.1426 12.4551Z" fill="currentColor"/>
<path id="Vector_10" d="M20.1423 25.9999C22.073 25.4183 23.7721 24.2181 24.9915 22.5745L22.77 19.537L25.4294 20.6842C25.4403 19.5548 25.3091 18.4287 25.0391 17.3338C25.018 17.337 24.9967 17.337 24.9756 17.3338C24.9454 17.3328 24.9155 17.3273 24.8868 17.3175L20.1265 15.3621L20.1423 25.9999Z" fill="currentColor"/>
<path id="Vector_11" d="M10.5173 7.86621C10.5173 7.05273 10.2824 6.25752 9.84235 5.58113C9.40228 4.90475 8.77678 4.37757 8.04497 4.06626C7.31315 3.75496 6.50788 3.6735 5.73099 3.83221C4.95409 3.99091 4.24047 4.38264 3.68036 4.95786C3.12025 5.53307 2.73881 6.26595 2.58428 7.0638C2.42975 7.86165 2.50906 8.68864 2.81219 9.4402C3.11532 10.1918 3.62865 10.8341 4.28727 11.2861C4.94588 11.738 5.72021 11.9792 6.51232 11.9792C7.03827 11.9792 7.55906 11.8729 8.04497 11.6662C8.53088 11.4595 8.97238 11.1565 9.34428 10.7746C9.71618 10.3926 10.0112 9.93922 10.2125 9.4402C10.4137 8.94119 10.5173 8.40634 10.5173 7.86621ZM3.83386 7.86621C3.83386 7.32217 3.99095 6.79035 4.28526 6.338C4.57958 5.88564 4.9979 5.53308 5.48732 5.32488C5.97674 5.11669 6.51529 5.06221 7.03486 5.16835C7.55443 5.27449 8.03169 5.53647 8.40628 5.92116C8.78087 6.30586 9.03597 6.79599 9.13932 7.32957C9.24266 7.86316 9.18962 8.41624 8.9869 8.91887C8.78417 9.42149 8.44086 9.85109 8.00039 10.1533C7.55992 10.4556 7.04207 10.6169 6.51232 10.6169C5.80221 10.6161 5.12142 10.326 4.61929 9.81031C4.11717 9.29464 3.8347 8.59548 3.83386 7.86621Z" fill="currentColor"/>
<path id="Vector_12" d="M6.512 10.1279C7.72837 10.1279 8.71443 9.11527 8.71443 7.86609C8.71443 6.61691 7.72837 5.60425 6.512 5.60425C5.29563 5.60425 4.30957 6.61691 4.30957 7.86609C4.30957 9.11527 5.29563 10.1279 6.512 10.1279Z" fill="currentColor"/>
<path id="Vector_13" d="M23.9094 7.86621C23.9094 7.05273 23.6745 6.25752 23.2344 5.58113C22.7944 4.90475 22.1689 4.37757 21.4371 4.06626C20.7052 3.75496 19.9 3.6735 19.1231 3.83221C18.3462 3.99091 17.6326 4.38264 17.0725 4.95786C16.5123 5.53307 16.1309 6.26595 15.9764 7.0638C15.8218 7.86165 15.9011 8.68864 16.2043 9.4402C16.5074 10.1918 17.0207 10.8341 17.6794 11.2861C18.338 11.738 19.1123 11.9792 19.9044 11.9792C20.9666 11.9792 21.9853 11.5459 22.7364 10.7746C23.4875 10.0032 23.9094 8.95706 23.9094 7.86621ZM17.226 7.86621C17.226 7.32217 17.383 6.79035 17.6774 6.338C17.9717 5.88564 18.39 5.53308 18.8794 5.32488C19.3688 5.11669 19.9074 5.06221 20.427 5.16835C20.9465 5.27449 21.4238 5.53647 21.7984 5.92116C22.173 6.30586 22.4281 6.79599 22.5314 7.32957C22.6348 7.86316 22.5817 8.41624 22.379 8.91887C22.1763 9.42149 21.833 9.85109 21.3925 10.1533C20.952 10.4556 20.4342 10.6169 19.9044 10.6169C19.1943 10.6161 18.5135 10.326 18.0114 9.81031C17.5093 9.29464 17.2268 8.59548 17.226 7.86621Z" fill="currentColor"/>
<path id="Vector_14" d="M19.9046 10.1279C21.1209 10.1279 22.107 9.11527 22.107 7.86609C22.107 6.61691 21.1209 5.60425 19.9046 5.60425C18.6882 5.60425 17.7021 6.61691 17.7021 7.86609C17.7021 9.11527 18.6882 10.1279 19.9046 10.1279Z" fill="currentColor"/>
</g>
</svg>
