<svg width="28" height="15" viewBox="0 0 28 15" fill="currentColor" xmlns="http://www.w3.org/2000/svg">
<g id="Group">
<path id="Vector" d="M9.63253 9.77954C8.07182 10.9587 7.1054 12.7739 6.99683 14.7177H8.60825C8.726 13.1243 9.60547 11.6732 10.9496 10.8236C10.6061 10.5779 10.2486 10.3052 9.88925 10.0034C9.80107 9.92935 9.71761 9.85427 9.63253 9.77954Z" fill="currentColor"/>
<path id="Vector_2" d="M9.08478 9.27563C8.69163 8.89253 8.33824 8.50162 8.02504 8.10449C5.99068 9.7388 4.78982 12.1201 4.68604 14.7179H6.2628C6.36989 12.5884 7.40344 10.5945 9.08478 9.27563Z" fill="currentColor"/>
<path id="Vector_3" d="M7.59187 7.51068C7.27458 7.04239 7.01118 6.56698 6.80562 6.08643C4.09979 8.14348 2.45541 11.3287 2.34399 14.7179H3.95148C4.05608 11.8839 5.36658 9.28561 7.59187 7.51068Z" fill="currentColor"/>
<path id="Vector_4" d="M6.54179 5.36302C6.36407 4.78349 6.26765 4.19899 6.25585 3.61328C2.48307 6.04674 0.122915 10.2311 0 14.7181H1.60981C1.72382 11.024 3.54571 7.55233 6.54179 5.36302Z" fill="currentColor"/>
<path id="Vector_5" d="M17.6323 9.77979C17.5473 9.8545 17.4638 9.92958 17.3756 10.0036C17.0165 10.3052 16.6592 10.5778 16.3159 10.8234C17.6758 11.677 18.5422 13.1107 18.657 14.7179H20.2681C20.1595 12.7743 19.1932 10.9592 17.6323 9.77979Z" fill="currentColor"/>
<path id="Vector_6" d="M21.0089 3.61328C20.9971 4.1996 20.9005 4.78472 20.7224 5.36482C23.72 7.55543 25.5411 11.0199 25.6549 14.7181H27.2648C27.1418 10.2312 24.7815 6.04692 21.0089 3.61328Z" fill="currentColor"/>
<path id="Vector_7" d="M20.2788 3.49026C20.2788 1.56578 18.7131 0 16.7884 0C15.6543 0 14.5869 0.55467 13.9326 1.48366C13.7956 1.67908 13.4693 1.67908 13.3323 1.48366C12.678 0.55467 11.6106 0 10.4765 0C8.55185 0 6.98608 1.56578 6.98608 3.49026C6.98608 8.02875 12.6185 11.0868 13.6325 11.6002C14.6464 11.0868 20.2788 8.02875 20.2788 3.49026Z" fill="currentColor"/>
<path id="Vector_8" d="M20.4586 6.08643C20.253 6.56696 19.9897 7.04233 19.6724 7.51062C21.8978 9.28522 23.2082 11.8834 23.3128 14.7178H24.9202C24.809 11.3245 23.1656 8.14443 20.4586 6.08643Z" fill="currentColor"/>
<path id="Vector_9" d="M19.2392 8.10449C18.926 8.50164 18.5726 8.89253 18.1794 9.27563C19.8609 10.5947 20.8944 12.5887 21.0014 14.7179H22.5782C22.4745 12.1197 21.2734 9.73854 19.2392 8.10449Z" fill="currentColor"/>
</g>
</svg>
