<svg width="171" height="171" viewBox="0 0 171 171" fill="none" xmlns="http://www.w3.org/2000/svg">
<g id="icon_12_atv 3" clip-path="url(#clip0_2474_5454)">
<g id="Camada_2">
<path id="Vector" d="M110.95 112.21H60.3398V131.14H110.95V112.21Z" fill="#8CAD6A"/>
<path id="Vector_2" d="M160.59 114.21H8.64982C6.11982 114.21 4.06982 112.16 4.06982 109.63V5.41997C4.06982 2.88997 6.11982 0.839966 8.64982 0.839966H160.59C163.12 0.839966 165.17 2.88997 165.17 5.41997V109.62C165.17 112.16 163.12 114.21 160.59 114.21Z" fill="#91CEC1"/>
<path id="Vector_3" d="M155.72 10.0299H13.52V91.3899H155.72V10.0299Z" fill="#3F722F"/>
<path id="Vector_4" d="M160.09 150.41V143.4C160.09 141.62 158.64 140.17 156.86 140.17H148.99V133C148.99 131.22 147.54 129.77 145.76 129.77H24.1998C22.4198 129.77 20.9698 131.22 20.9698 133V140.17H13.0998C11.3198 140.17 9.8698 141.62 9.8698 143.4V150.41H3.5298C1.7498 150.41 0.299805 151.86 0.299805 153.64V166.85C0.299805 168.63 1.7498 170.08 3.5298 170.08H166.42C168.2 170.08 169.65 168.63 169.65 166.85V153.64C169.65 151.86 168.2 150.41 166.42 150.41H160.09Z" fill="#91CEC1"/>
<g id="Group">
<g id="Group_2">
<path id="Vector_5" d="M34.9294 135.51H26.1494V142.9H34.9294V135.51Z" fill="#F9F7ED"/>
<path id="Vector_6" d="M45.8293 135.51H37.0493V142.9H45.8293V135.51Z" fill="#F9F7ED"/>
<path id="Vector_7" d="M56.7292 135.51H47.9492V142.9H56.7292V135.51Z" fill="#F9F7ED"/>
<path id="Vector_8" d="M67.6296 135.51H58.8496V142.9H67.6296V135.51Z" fill="#F9F7ED"/>
<path id="Vector_9" d="M78.5295 135.51H69.7495V142.9H78.5295V135.51Z" fill="#F9F7ED"/>
<path id="Vector_10" d="M89.4294 135.51H80.6494V142.9H89.4294V135.51Z" fill="#F9F7ED"/>
<path id="Vector_11" d="M100.329 135.51H91.5493V142.9H100.329V135.51Z" fill="#F9F7ED"/>
<path id="Vector_12" d="M111.229 135.51H102.449V142.9H111.229V135.51Z" fill="#F9F7ED"/>
<path id="Vector_13" d="M122.13 135.51H113.35V142.9H122.13V135.51Z" fill="#F9F7ED"/>
<path id="Vector_14" d="M133.019 135.51H124.239V142.9H133.019V135.51Z" fill="#F9F7ED"/>
<path id="Vector_15" d="M143.92 135.51H135.14V142.9H143.92V135.51Z" fill="#F9F7ED"/>
</g>
<g id="Group_3">
<path id="Vector_16" d="M24.0295 145.17H15.2495V152.56H24.0295V145.17Z" fill="#F9F7ED"/>
<path id="Vector_17" d="M34.9294 145.17H26.1494V152.56H34.9294V145.17Z" fill="#F9F7ED"/>
<path id="Vector_18" d="M45.8293 145.17H37.0493V152.56H45.8293V145.17Z" fill="#F9F7ED"/>
<path id="Vector_19" d="M56.7297 145.17H47.9497V152.56H56.7297V145.17Z" fill="#F9F7ED"/>
<path id="Vector_20" d="M67.6296 145.17H58.8496V152.56H67.6296V145.17Z" fill="#F9F7ED"/>
<path id="Vector_21" d="M78.5295 145.17H69.7495V152.56H78.5295V145.17Z" fill="#F9F7ED"/>
<path id="Vector_22" d="M89.4294 145.17H80.6494V152.56H89.4294V145.17Z" fill="#F9F7ED"/>
<path id="Vector_23" d="M100.329 145.17H91.5493V152.56H100.329V145.17Z" fill="#F9F7ED"/>
<path id="Vector_24" d="M111.23 145.17H102.45V152.56H111.23V145.17Z" fill="#F9F7ED"/>
<path id="Vector_25" d="M122.13 145.17H113.35V152.56H122.13V145.17Z" fill="#F9F7ED"/>
<path id="Vector_26" d="M133.02 145.17H124.24V152.56H133.02V145.17Z" fill="#F9F7ED"/>
<path id="Vector_27" d="M143.92 145.17H135.14V152.56H143.92V145.17Z" fill="#F9F7ED"/>
<path id="Vector_28" d="M154.82 145.17H146.04V152.56H154.82V145.17Z" fill="#F9F7ED"/>
</g>
<g id="Group_4">
<path id="Vector_29" d="M24.0295 154.83H15.2495V162.22H24.0295V154.83Z" fill="#F9F7ED"/>
<path id="Vector_30" d="M34.9294 154.83H26.1494V162.22H34.9294V154.83Z" fill="#F9F7ED"/>
<path id="Vector_31" d="M13.1296 154.83H4.34961V162.22H13.1296V154.83Z" fill="#F9F7ED"/>
<path id="Vector_32" d="M45.8298 154.83H37.0498V162.22H45.8298V154.83Z" fill="#F9F7ED"/>
<path id="Vector_33" d="M100.33 154.83H47.9497V162.22H100.33V154.83Z" fill="#F9F7ED"/>
<path id="Vector_34" d="M111.23 154.83H102.45V162.22H111.23V154.83Z" fill="#F9F7ED"/>
<path id="Vector_35" d="M122.13 154.83H113.35V162.22H122.13V154.83Z" fill="#F9F7ED"/>
<path id="Vector_36" d="M133.02 154.83H124.24V162.22H133.02V154.83Z" fill="#F9F7ED"/>
<path id="Vector_37" d="M143.92 154.83H135.14V162.22H143.92V154.83Z" fill="#F9F7ED"/>
<path id="Vector_38" d="M154.82 154.83H146.04V162.22H154.82V154.83Z" fill="#F9F7ED"/>
<path id="Vector_39" d="M165.56 154.83H156.78V162.22H165.56V154.83Z" fill="#F9F7ED"/>
</g>
</g>
<g id="Group_5">
<g id="Group_6">
<path id="Vector_40" d="M97.3795 67.33C97.2895 67.64 95.0295 75.02 85.1695 74.34C75.1895 73.64 72.8295 65.59 72.7295 65.25L69.6295 66.09L66.5195 66.9C66.6595 67.42 70.0495 79.73 84.7195 80.75C85.2995 80.79 85.8595 80.81 86.4095 80.81C97.2095 80.81 102.33 73.3 103.55 69.13L97.3795 67.33Z" fill="#F9AE29"/>
<path id="Vector_41" d="M82.8501 50.9055L76.4214 51.0309L76.5801 59.1693L83.0088 59.0439L82.8501 50.9055Z" fill="#F9AE29"/>
<path id="Vector_42" d="M88.5128 51.3532L87.3862 59.415L93.7545 60.305L94.8811 52.2431L88.5128 51.3532Z" fill="#F9AE29"/>
</g>
<g id="Group_7">
<path id="Vector_43" d="M93.6837 20.6109L90.103 36.1023L96.7575 37.6404L100.338 22.149L93.6837 20.6109Z" fill="#F9AE29"/>
<path id="Vector_44" d="M123.89 33.8095L109.734 43.042L113.471 48.7712L127.627 39.5387L123.89 33.8095Z" fill="#F9AE29"/>
<path id="Vector_45" d="M35.6594 58.2421L34.7441 65.0106L51.8488 67.3235L52.764 60.5549L35.6594 58.2421Z" fill="#F9AE29"/>
<path id="Vector_46" d="M134.426 58.2349L117.322 60.5477L118.237 67.3163L135.342 65.0034L134.426 58.2349Z" fill="#F9AE29"/>
<path id="Vector_47" d="M72.4039 20.6131L65.813 22.4053L70.0691 38.0576L76.6601 36.2654L72.4039 20.6131Z" fill="#F9AE29"/>
<path id="Vector_48" d="M46.6112 33.2919L42.4258 38.689L55.7802 49.0453L59.9656 43.6482L46.6112 33.2919Z" fill="#F9AE29"/>
</g>
</g>
<path id="Vector_49" d="M107.95 83.65L106.3 66.25L120.4 76.45H113.35L116.95 82.3L115.49 83.31L111.79 77.63L107.95 83.65Z" fill="#F9F7ED"/>
</g>
</g>
<defs>
<clipPath id="clip0_2474_5454">
<rect width="170.08" height="170.08" fill="white"/>
</clipPath>
</defs>
</svg>
