<svg width="19" height="28" viewBox="0 0 19 28" fill="currentColor" xmlns="http://www.w3.org/2000/svg">
<g id="Group 303">
<path id="Vector" d="M5.75531 6.21877C6.02564 6.21877 6.29597 6.10772 6.5663 5.94114C7.2151 6.99611 8.40455 7.71793 9.70214 7.71793C10.9997 7.71793 12.2433 6.99611 12.838 5.94114C13.1083 6.10772 13.3246 6.21877 13.649 6.21877C14.46 6.21877 15.0547 5.55247 15.0547 4.77512C15.0547 3.94225 14.4059 3.33148 13.649 3.33148C13.5408 3.33148 13.4868 3.33148 13.3786 3.33148C13.1083 1.44364 11.5404 0 9.64807 0C7.70169 0 6.18784 1.44364 5.91751 3.33148C5.80938 3.33148 5.75531 3.33148 5.64718 3.33148C4.83618 3.33148 4.24146 3.99778 4.24146 4.77512C4.40365 5.55247 4.94432 6.21877 5.75531 6.21877Z" fill="currentColor"/>
<path id="Vector_2" d="M17.8661 13.8256L13.8111 9.66128C13.4867 9.2726 12.892 8.88393 12.1351 8.66183C11.3782 9.0505 10.5672 9.2726 9.70211 9.2726C8.78298 9.2726 7.91792 8.99498 7.10693 8.55078C6.1878 8.8284 5.48494 9.2726 5.10648 9.77232L1.15965 13.8256C0.781186 14.2143 0.781184 14.8251 1.10558 15.2137C1.48404 15.6579 2.18691 15.6024 2.56537 15.2137L5.21461 12.493L4.29549 20.9328C4.24142 21.2104 4.51175 21.488 4.78208 21.488H5.21461V26.9295C5.21461 27.4292 5.53901 27.9289 6.02561 27.9844C6.62033 28.0955 7.161 27.5958 7.161 26.985V21.4325H11.7566V26.8739C11.7566 27.3737 12.081 27.8734 12.5676 27.9289C13.1623 28.0399 13.703 27.5402 13.703 26.9295V21.4325H14.1896C14.4599 21.4325 14.7303 21.1549 14.6762 20.8773L13.7571 12.4375L16.4063 15.1582C16.7848 15.5469 17.3795 15.5469 17.812 15.1582C18.2446 14.8806 18.2446 14.2698 17.8661 13.8256Z" fill="currentColor"/>
</g>
</svg>
