<svg width="{% firstof width 50 %}" height="{% firstof width 50 %}" viewBox="0 0 171 171" fill="none" xmlns="http://www.w3.org/2000/svg">
<g id="icon_01_atv 3" clip-path="url(#clip0_2474_5045)">
<g id="Camada_2_00000147203092383322938560000017329930775807839931_">
<path id="Vector" d="M145.9 95.49C151.528 95.49 156.09 90.2025 156.09 83.68C156.09 77.1575 151.528 71.87 145.9 71.87C140.272 71.87 135.71 77.1575 135.71 83.68C135.71 90.2025 140.272 95.49 145.9 95.49Z" fill="#F9AE29"/>
<path id="Vector_2" d="M20.8095 110.78C25.6641 110.78 29.5995 106.218 29.5995 100.59C29.5995 94.9622 25.6641 90.4 20.8095 90.4C15.9549 90.4 12.0195 94.9622 12.0195 100.59C12.0195 106.218 15.9549 110.78 20.8095 110.78Z" fill="#EB603B"/>
<path id="Vector_3" d="M82.3697 69.1499C88.9419 69.1499 94.2697 62.976 94.2697 55.3599C94.2697 47.7439 88.9419 41.5699 82.3697 41.5699C75.7975 41.5699 70.4697 47.7439 70.4697 55.3599C70.4697 62.976 75.7975 69.1499 82.3697 69.1499Z" fill="#8CAD6A"/>
<path id="Vector_4" d="M45.3598 99.28C38.5298 95.68 41.1598 109.82 25.1298 111.7C6.02976 113.93 -4.11023 132.83 1.58977 136.43C7.21977 139.99 9.11977 127.47 17.9098 126.92C17.9098 126.92 17.8598 130.84 16.2698 137.04C14.6798 143.23 14.7998 148.89 19.3698 157.86C23.9398 166.83 26.8798 168.84 30.7198 166.1C34.5598 163.36 23.7598 150.36 27.4298 140.84C27.4298 140.84 32.1898 154.02 39.8798 157.5C47.5698 160.98 47.0598 152.16 43.9098 148.16C34.0998 135.73 36.2198 119.97 36.2198 119.97C46.4598 115.49 51.3798 102.45 45.3598 99.28Z" fill="#EB603B"/>
<path id="Vector_5" d="M170.029 100.61C167.859 89.19 157.469 101.49 144.039 100.61C130.609 99.73 129.149 79.59 119.509 86.89C109.869 94.19 132.069 107.91 132.069 107.91C132.069 107.91 131.609 115.54 124.299 120.98C116.989 126.42 110.989 134.85 113.239 147.6C114.219 153.18 115.919 155.55 117.579 155.54C120.869 155.53 121.799 151.5 122.239 145.16C122.799 137.1 124.739 135.63 127.539 133.18C129.929 131.08 134.329 129.22 134.329 129.22C134.329 129.22 135.369 137.29 133.119 144.79C130.869 152.29 122.999 165.78 129.749 169.72C136.499 173.66 145.919 144.98 146.989 130.36C148.139 114.73 149.049 113.68 149.049 113.68C149.049 113.68 171.309 107.35 170.029 100.61Z" fill="#F9AE29"/>
<path id="Vector_6" d="M83.4397 71.19C76.2197 71.4 68.4697 66.9 59.7897 78.41C51.1097 89.92 46.7597 93.28 50.4997 97.77C56.6897 105.2 64.0897 85.3 73.2997 83.67C73.2997 83.67 76.2497 92.93 72.0597 101.08C64.8297 115.12 61.9997 122.79 63.4197 139.14C64.8297 155.48 68.8697 155.08 72.6997 153.47C76.5297 151.86 73.3097 129.05 78.5497 118.56C83.7897 108.07 85.5597 111.3 85.2797 113.31C84.9997 115.33 80.4697 132.68 87.5797 146C94.6897 159.32 101.35 149.43 98.5197 143.18C95.6997 136.92 93.6797 119.94 96.9097 110.78C100.14 101.62 96.2997 81.03 96.2997 81.03C96.2997 81.03 100.74 80.22 106.59 82.64C112.44 85.06 118.29 88.09 120.51 82.64C122.73 77.19 115.99 75.39 108.81 71.87C93.1397 64.17 92.6897 70.91 83.4397 71.19Z" fill="#8CAD6A"/>
<g id="Group">
<path id="Vector_7" d="M95.9505 5.15518L92.1367 24.9916L99.9927 26.502L103.806 6.66558L95.9505 5.15518Z" fill="#8FCCC0"/>
<path id="Vector_8" d="M141.356 44.3066L123.156 49.7283L125.44 57.3955L143.64 51.9738L141.356 44.3066Z" fill="#8FCCC0"/>
<path id="Vector_9" d="M125.204 19.508L110.763 33.0256L116.23 38.8664L130.671 25.3488L125.204 19.508Z" fill="#8FCCC0"/>
<path id="Vector_10" d="M27.7439 49.0467L26.6719 56.9747L46.6901 59.6815L47.7621 51.7535L27.7439 49.0467Z" fill="#8FCCC0"/>
<path id="Vector_11" d="M70.7642 6.7872L63.2354 9.4928L69.6578 27.3643L77.1866 24.6587L70.7642 6.7872Z" fill="#8FCCC0"/>
<path id="Vector_12" d="M44.9118 21.2265L39.3838 27.0089L53.6808 40.6769L59.2088 34.8945L44.9118 21.2265Z" fill="#8FCCC0"/>
</g>
</g>
</g>
<defs>
<clipPath id="clip0_2474_5045">
<rect width="170.08" height="170.08" fill="white"/>
</clipPath>
</defs>
</svg>
