<svg width="25" height="28" viewBox="0 0 25 28" fill="currentColor" xmlns="http://www.w3.org/2000/svg">
<g id="Group">
<path id="Vector" d="M13.6819 3.1226V1.08997C13.6819 0.471336 13.1811 0 12.5919 0C11.9733 0 11.502 0.500795 11.502 1.08997V3.1226C11.502 3.74123 12.0027 4.21257 12.5919 4.21257C13.2105 4.24203 13.6819 3.74123 13.6819 3.1226Z" fill="currentColor"/>
<path id="Vector_2" d="M8.08559 4.62494C8.2918 4.97845 8.6453 5.18466 9.02826 5.18466C9.23447 5.18466 9.41122 5.12574 9.58798 5.03736C10.1182 4.74278 10.295 4.06523 10.0004 3.53498L8.9988 1.76747C8.70422 1.23721 8.02667 1.06046 7.49642 1.35505C7.23129 1.50234 7.05454 1.73801 6.99562 2.03259C6.90725 2.32718 6.96617 2.62176 7.11346 2.85743L8.08559 4.62494Z" fill="currentColor"/>
<path id="Vector_3" d="M15.5974 5.03736C15.7741 5.12574 15.9509 5.18466 16.1571 5.18466C16.54 5.18466 16.923 4.97845 17.0997 4.62494L18.1013 2.85743C18.2486 2.5923 18.2781 2.29772 18.2192 2.03259C18.1308 1.73801 17.954 1.50234 17.7184 1.35505C17.1881 1.06046 16.5106 1.23721 16.216 1.76747L15.2144 3.53498C14.8904 4.03577 15.0671 4.71332 15.5974 5.03736Z" fill="currentColor"/>
<path id="Vector_4" d="M0.720605 23.0955C0.484937 23.2428 0.42602 23.5668 0.602771 23.8025L3.37187 27.7794C3.51917 28.0151 3.84321 28.074 4.07888 27.8972L6.19989 26.4243L2.84162 21.6226L0.720605 23.0955Z" fill="currentColor"/>
<path id="Vector_5" d="M10.648 6.27466C10.324 6.27466 9.99994 6.42195 9.79373 6.68708L4.07878 13.4625C3.54852 14.1106 3.25394 14.9355 3.31285 15.7603L3.57798 20.562L7.08355 25.5995L10.6775 21.0039C11.0604 20.5031 11.2961 19.8845 11.2961 19.2659L11.3256 13.5804C11.3256 13.3152 11.2077 13.0501 11.031 12.8734C10.8248 12.6966 10.5891 12.5788 10.324 12.5788C9.85265 12.5788 9.46969 12.9028 9.35185 13.3447L9.29294 13.5804C8.99835 14.7882 8.79214 16.0549 8.67431 17.2921L8.58593 18.3821C8.55647 18.7062 8.26189 18.9713 7.93784 18.9418C7.6138 18.9124 7.34867 18.6178 7.37813 18.2937L7.46651 17.2038C7.55488 15.8781 7.79055 14.5525 8.11459 13.2858L8.17351 13.0501C8.40918 12.078 9.29294 11.4004 10.2945 11.371C10.3829 11.371 10.4713 11.371 10.5597 11.371L11.7969 7.86542C11.9442 7.453 11.8558 6.98166 11.5318 6.65762C11.2961 6.39249 11.0015 6.27466 10.648 6.27466Z" fill="currentColor"/>
<path id="Vector_6" d="M24.4645 23.0955L22.3435 21.6226L19.0146 26.4243L21.1357 27.8972C21.3713 28.0445 21.6659 27.9856 21.8427 27.7794L24.6118 23.8025C24.7591 23.5668 24.7001 23.2428 24.4645 23.0955Z" fill="currentColor"/>
<path id="Vector_7" d="M21.8715 15.7898C21.9304 14.9355 21.6358 14.1402 21.1055 13.4921L15.3906 6.71662C15.1844 6.45149 14.8603 6.3042 14.5363 6.3042C14.2122 6.3042 13.8882 6.42203 13.6525 6.6577C13.3285 6.98175 13.2401 7.45308 13.3874 7.8655L14.6247 11.3711C14.713 11.3711 14.8014 11.3711 14.8898 11.3711C15.8914 11.3711 16.7751 12.0781 17.0108 13.0502L17.0697 13.2859C17.3938 14.582 17.6 15.8782 17.7178 17.2039L17.8062 18.2938C17.8356 18.6179 17.5705 18.9125 17.2465 18.9419C16.9224 18.9714 16.6278 18.7062 16.5984 18.3822L16.51 17.2922C16.4216 16.055 16.2154 14.7883 15.8914 13.5805L15.8325 13.3153C15.7146 12.8735 15.3317 12.5494 14.8603 12.5494C14.5952 12.5494 14.3301 12.6378 14.1533 12.844C13.9766 13.0207 13.8587 13.2859 13.8587 13.551L13.8882 19.2365C13.8882 19.8551 14.0944 20.5032 14.5068 20.9745L18.1008 25.5701L21.6063 20.5327L21.8715 15.7898Z" fill="currentColor"/>
</g>
</svg>
