<svg width="18" height="18" viewBox="0 0 18 18" fill="none" xmlns="http://www.w3.org/2000/svg">
<g id="wrapper">
<g id="Union">
<path d="M5.30554 7.36174L3.76204 8.90524C3.12905 9.53823 2.77344 10.3967 2.77344 11.2919C2.77344 12.1871 3.12905 13.0456 3.76204 13.6786C4.39502 14.3116 5.25354 14.6672 6.14872 14.6672C7.0439 14.6672 7.90242 14.3116 8.53541 13.6786L10.5919 11.621C10.9736 11.2392 11.2582 10.7715 11.4217 10.257C11.5852 9.74249 11.6229 9.19628 11.5317 8.66419C11.4404 8.13211 11.2229 7.62967 10.8973 7.19907C10.5717 6.76846 10.1475 6.42225 9.66041 6.18949L9.00116 6.84874C8.93423 6.91579 8.87602 6.991 8.82791 7.07261C9.20425 7.1808 9.54585 7.38534 9.81892 7.666C10.092 7.94667 10.2871 8.29374 10.3849 8.67291C10.4827 9.05207 10.4799 9.45021 10.3767 9.82795C10.2735 10.2057 10.0736 10.55 9.79654 10.8267L7.74116 12.8832C7.31897 13.3054 6.74635 13.5426 6.14929 13.5426C5.55222 13.5426 4.9796 13.3054 4.55741 12.8832C4.13522 12.461 3.89803 11.8884 3.89803 11.2914C3.89803 10.6943 4.13522 10.1217 4.55741 9.69949L5.44954 8.80849C5.32367 8.33681 5.27504 7.84897 5.30554 7.36174Z" fill="white"/>
<path d="M7.41041 5.25799C7.0287 5.63975 6.74415 6.10751 6.58062 6.622C6.4171 7.13649 6.37938 7.6827 6.47063 8.21479C6.56188 8.74687 6.77944 9.2493 7.10505 9.67991C7.43066 10.1105 7.85481 10.4567 8.34191 10.6895L9.21379 9.81649C8.83235 9.71418 8.48457 9.51327 8.20537 9.23397C7.92618 8.95466 7.72543 8.60679 7.62327 8.22531C7.52112 7.84384 7.52117 7.44219 7.62342 7.06074C7.72567 6.67929 7.92652 6.33147 8.20579 6.05224L10.2612 3.99574C10.6834 3.57355 11.256 3.33636 11.853 3.33636C12.4501 3.33636 13.0227 3.57355 13.4449 3.99574C13.8671 4.41793 14.1043 4.99055 14.1043 5.58761C14.1043 6.18468 13.8671 6.7573 13.4449 7.17949L12.5528 8.07049C12.6788 8.54299 12.7272 9.03236 12.6968 9.51836L14.2403 7.97486C14.8733 7.34187 15.2289 6.48336 15.2289 5.58818C15.2289 4.69299 14.8733 3.83448 14.2403 3.20149C13.6073 2.5685 12.7488 2.21289 11.8536 2.21289C10.9584 2.21289 10.0999 2.5685 9.46691 3.20149L7.41041 5.25799Z" fill="white"/>
</g>
</g>
</svg>
