<svg width="32" height="32" viewBox="0 0 32 32" fill="none" xmlns="http://www.w3.org/2000/svg">
<path d="M0 16C0 8.45753 0 4.68629 2.34315 2.34315C4.68629 0 8.45753 0 16 0C23.5425 0 27.3137 0 29.6569 2.34315C32 4.68629 32 8.45753 32 16C32 23.5425 32 27.3137 29.6569 29.6569C27.3137 32 23.5425 32 16 32C8.45753 32 4.68629 32 2.34315 29.6569C0 27.3137 0 23.5425 0 16Z" fill="#003B4A"/>
<g clip-path="url(#clip0_2568_38871)">
<path d="M24.002 16.05C24.002 11.604 20.42 8 16.002 8C11.582 8.001 8 11.604 8 16.051C8 20.068 10.926 23.398 14.75 24.002V18.377H12.72V16.051H14.752V14.276C14.752 12.259 15.947 11.145 17.774 11.145C18.65 11.145 19.565 11.302 19.565 11.302V13.282H18.556C17.563 13.282 17.253 13.903 17.253 14.54V16.05H19.471L19.117 18.376H17.252V24.001C21.076 23.397 24.002 20.067 24.002 16.05Z" fill="white"/>
</g>
<defs>
<clipPath id="clip0_2568_38871">
<rect width="16" height="16" fill="white" transform="translate(8 8)"/>
</clipPath>
</defs>
</svg>
