<svg width="32" height="32" viewBox="0 0 32 32" fill="none" xmlns="http://www.w3.org/2000/svg">
<path d="M0 16C0 8.45753 0 4.68629 2.34315 2.34315C4.68629 0 8.45753 0 16 0C23.5425 0 27.3137 0 29.6569 2.34315C32 4.68629 32 8.45753 32 16C32 23.5425 32 27.3137 29.6569 29.6569C27.3137 32 23.5425 32 16 32C8.45753 32 4.68629 32 2.34315 29.6569C0 27.3137 0 23.5425 0 16Z" fill="#003B4A"/>
<g clip-path="url(#clip0_2368_66563)">
<path d="M16 8.00098C13.829 8.00098 13.556 8.01098 12.703 8.04898C11.85 8.08898 11.269 8.22298 10.76 8.42098C10.2261 8.6218 9.74249 8.9368 9.343 9.34398C8.93608 9.74367 8.62111 10.2272 8.42 10.761C8.222 11.269 8.087 11.851 8.048 12.701C8.01 13.556 8 13.828 8 16.002C8 18.174 8.01 18.446 8.048 19.299C8.088 20.151 8.222 20.732 8.42 21.241C8.625 21.767 8.898 22.213 9.343 22.658C9.787 23.103 10.233 23.377 10.759 23.581C11.269 23.779 11.849 23.914 12.701 23.953C13.555 23.991 13.827 24.001 16 24.001C18.173 24.001 18.444 23.991 19.298 23.953C20.149 23.913 20.732 23.779 21.241 23.581C21.7746 23.3801 22.2578 23.0651 22.657 22.658C23.102 22.213 23.375 21.767 23.58 21.241C23.777 20.732 23.912 20.151 23.952 19.299C23.99 18.446 24 18.174 24 16.001C24 13.828 23.99 13.556 23.952 12.702C23.912 11.851 23.777 11.269 23.58 10.761C23.3789 10.2272 23.0639 9.74365 22.657 9.34398C22.2576 8.93665 21.774 8.62162 21.24 8.42098C20.73 8.22298 20.148 8.08798 19.297 8.04898C18.443 8.01098 18.172 8.00098 15.998 8.00098H16.001H16ZM15.283 9.44298H16.001C18.137 9.44298 18.39 9.44998 19.233 9.48898C20.013 9.52398 20.437 9.65498 20.719 9.76398C21.092 9.90898 21.359 10.083 21.639 10.363C21.919 10.643 22.092 10.909 22.237 11.283C22.347 11.564 22.477 11.988 22.512 12.768C22.551 13.611 22.559 13.864 22.559 15.999C22.559 18.134 22.551 18.388 22.512 19.231C22.477 20.011 22.346 20.434 22.237 20.716C22.1087 21.0633 21.904 21.3774 21.638 21.635C21.358 21.915 21.092 22.088 20.718 22.233C20.438 22.343 20.014 22.473 19.233 22.509C18.39 22.547 18.137 22.556 16.001 22.556C13.865 22.556 13.611 22.547 12.768 22.509C11.988 22.473 11.565 22.343 11.283 22.233C10.9355 22.1049 10.6211 21.9006 10.363 21.635C10.0968 21.377 9.89172 21.0626 9.763 20.715C9.654 20.434 9.523 20.01 9.488 19.23C9.45 18.387 9.442 18.134 9.442 15.997C9.442 13.861 9.45 13.609 9.488 12.766C9.524 11.986 9.654 11.562 9.764 11.28C9.909 10.907 10.083 10.64 10.363 10.36C10.643 10.08 10.909 9.90698 11.283 9.76198C11.565 9.65198 11.988 9.52198 12.768 9.48598C13.506 9.45198 13.792 9.44198 15.283 9.44098V9.44298ZM20.271 10.771C20.1449 10.771 20.0201 10.7958 19.9036 10.8441C19.7872 10.8923 19.6813 10.963 19.5922 11.0522C19.503 11.1413 19.4323 11.2471 19.3841 11.3636C19.3358 11.4801 19.311 11.6049 19.311 11.731C19.311 11.857 19.3358 11.9819 19.3841 12.0984C19.4323 12.2148 19.503 12.3207 19.5922 12.4098C19.6813 12.4989 19.7872 12.5697 19.9036 12.6179C20.0201 12.6661 20.1449 12.691 20.271 12.691C20.5256 12.691 20.7698 12.5898 20.9498 12.4098C21.1299 12.2298 21.231 11.9856 21.231 11.731C21.231 11.4764 21.1299 11.2322 20.9498 11.0522C20.7698 10.8721 20.5256 10.771 20.271 10.771ZM16.001 11.893C15.4561 11.8845 14.9149 11.9845 14.409 12.1871C13.9031 12.3898 13.4425 12.691 13.0542 13.0734C12.6658 13.4558 12.3574 13.9115 12.1468 14.4142C11.9363 14.9169 11.8279 15.4565 11.8279 16.0015C11.8279 16.5465 11.9363 17.086 12.1468 17.5887C12.3574 18.0914 12.6658 18.5472 13.0542 18.9296C13.4425 19.3119 13.9031 19.6132 14.409 19.8158C14.9149 20.0185 15.4561 20.1185 16.001 20.11C17.0795 20.0932 18.1082 19.6529 18.865 18.8842C19.6217 18.1156 20.0459 17.0801 20.0459 16.0015C20.0459 14.9228 19.6217 13.8874 18.865 13.1187C18.1082 12.3501 17.0795 11.9098 16.001 11.893ZM16.001 13.334C16.7083 13.334 17.3867 13.615 17.8869 14.1151C18.387 14.6153 18.668 15.2936 18.668 16.001C18.668 16.7083 18.387 17.3867 17.8869 17.8868C17.3867 18.387 16.7083 18.668 16.001 18.668C15.2937 18.668 14.6153 18.387 14.1151 17.8868C13.615 17.3867 13.334 16.7083 13.334 16.001C13.334 15.2936 13.615 14.6153 14.1151 14.1151C14.6153 13.615 15.2937 13.334 16.001 13.334Z" fill="white"/>
</g>
<defs>
<clipPath id="clip0_2368_66563">
<rect width="16" height="16" fill="white" transform="translate(8 8)"/>
</clipPath>
</defs>
</svg>
