<svg width="16" height="16" viewBox="0 0 16 16" fill="none" xmlns="http://www.w3.org/2000/svg">
<g id="wrapper">
<path id="Union" d="M8.00391 0.00195312C5.83291 0.00195312 5.55991 0.0119531 4.70691 0.0499531C3.85391 0.0899531 3.27291 0.223953 2.76391 0.421953C2.23 0.622772 1.7464 0.937779 1.34691 1.34495C0.939982 1.74465 0.625014 2.22819 0.423906 2.76195C0.225906 3.26995 0.0909062 3.85195 0.0519063 4.70195C0.0139063 5.55695 0.00390625 5.82895 0.00390625 8.00295C0.00390625 10.175 0.0139063 10.447 0.0519063 11.3C0.0919062 12.152 0.225906 12.733 0.423906 13.242C0.628906 13.768 0.901906 14.214 1.34691 14.659C1.79091 15.104 2.23691 15.378 2.76291 15.582C3.27291 15.78 3.85291 15.915 4.70491 15.954C5.55891 15.992 5.83091 16.002 8.00391 16.002C10.1769 16.002 10.4479 15.992 11.3019 15.954C12.1529 15.914 12.7359 15.78 13.2449 15.582C13.7785 15.381 14.2617 15.066 14.6609 14.659C15.1059 14.214 15.3789 13.768 15.5839 13.242C15.7809 12.733 15.9159 12.152 15.9559 11.3C15.9939 10.447 16.0039 10.175 16.0039 8.00195C16.0039 5.82895 15.9939 5.55695 15.9559 4.70295C15.9159 3.85195 15.7809 3.26995 15.5839 2.76195C15.3828 2.22818 15.0679 1.74463 14.6609 1.34495C14.2615 0.937629 13.7779 0.622599 13.2439 0.421953C12.7339 0.223953 12.1519 0.0889531 11.3009 0.0499531C10.4469 0.0119531 10.1759 0.00195312 8.00191 0.00195312H8.00491H8.00391ZM7.28691 1.44395H8.00491C10.1409 1.44395 10.3939 1.45095 11.2369 1.48995C12.0169 1.52495 12.4409 1.65595 12.7229 1.76495C13.0959 1.90995 13.3629 2.08395 13.6429 2.36395C13.9229 2.64395 14.0959 2.90995 14.2409 3.28395C14.3509 3.56495 14.4809 3.98895 14.5159 4.76895C14.5549 5.61195 14.5629 5.86495 14.5629 7.99995C14.5629 10.135 14.5549 10.389 14.5159 11.232C14.4809 12.012 14.3499 12.435 14.2409 12.717C14.1126 13.0643 13.9079 13.3784 13.6419 13.636C13.3619 13.916 13.0959 14.089 12.7219 14.234C12.4419 14.344 12.0179 14.474 11.2369 14.51C10.3939 14.548 10.1409 14.557 8.00491 14.557C5.86891 14.557 5.61491 14.548 4.77191 14.51C3.99191 14.474 3.56891 14.344 3.28691 14.234C2.93941 14.1059 2.62503 13.9015 2.36691 13.636C2.10066 13.378 1.89563 13.0636 1.76691 12.716C1.65791 12.435 1.52691 12.011 1.49191 11.231C1.45391 10.388 1.44591 10.135 1.44591 7.99795C1.44591 5.86195 1.45391 5.60995 1.49191 4.76695C1.52791 3.98695 1.65791 3.56295 1.76791 3.28095C1.91291 2.90795 2.08691 2.64095 2.36691 2.36095C2.64691 2.08095 2.91291 1.90795 3.28691 1.76295C3.56891 1.65295 3.99191 1.52295 4.77191 1.48695C5.50991 1.45295 5.79591 1.44295 7.28691 1.44195V1.44395ZM12.2749 2.77195C12.1488 2.77195 12.024 2.79678 11.9075 2.84503C11.7911 2.89327 11.6852 2.96399 11.5961 3.05313C11.5069 3.14227 11.4362 3.2481 11.388 3.36458C11.3397 3.48105 11.3149 3.60588 11.3149 3.73195C11.3149 3.85802 11.3397 3.98286 11.388 4.09933C11.4362 4.2158 11.5069 4.32163 11.5961 4.41078C11.6852 4.49992 11.7911 4.57063 11.9075 4.61888C12.024 4.66712 12.1488 4.69195 12.2749 4.69195C12.5295 4.69195 12.7737 4.59081 12.9537 4.41078C13.1338 4.23074 13.2349 3.98656 13.2349 3.73195C13.2349 3.47735 13.1338 3.23317 12.9537 3.05313C12.7737 2.8731 12.5295 2.77195 12.2749 2.77195ZM8.00491 3.89395C7.45998 3.88545 6.9188 3.98544 6.41288 4.18809C5.90697 4.39075 5.44642 4.69202 5.05806 5.07438C4.66969 5.45673 4.36127 5.91252 4.15075 6.41521C3.94022 6.91791 3.83181 7.45746 3.83181 8.00245C3.83181 8.54745 3.94022 9.087 4.15075 9.58969C4.36127 10.0924 4.66969 10.5482 5.05806 10.9305C5.44642 11.3129 5.90697 11.6142 6.41288 11.8168C6.9188 12.0195 7.45998 12.1195 8.00491 12.111C9.08345 12.0941 10.1121 11.6539 10.8689 10.8852C11.6256 10.1165 12.0498 9.08113 12.0498 8.00245C12.0498 6.92378 11.6256 5.88837 10.8689 5.1197C10.1121 4.35104 9.08345 3.91078 8.00491 3.89395ZM8.00491 5.33495C8.71224 5.33495 9.3906 5.61594 9.89076 6.1161C10.3909 6.61626 10.6719 7.29462 10.6719 8.00195C10.6719 8.70929 10.3909 9.38765 9.89076 9.88781C9.3906 10.388 8.71224 10.669 8.00491 10.669C7.29757 10.669 6.61921 10.388 6.11905 9.88781C5.61889 9.38765 5.33791 8.70929 5.33791 8.00195C5.33791 7.29462 5.61889 6.61626 6.11905 6.1161C6.61921 5.61594 7.29757 5.33495 8.00491 5.33495Z" fill="white"/>
</g>
</svg>
