<svg width="16" height="16" viewBox="0 0 16 16" fill="none" xmlns="http://www.w3.org/2000/svg">
<g id="wrapper">
<path id="Union" d="M0.00390625 1.14795C0.00390625 0.514953 0.529906 0.00195312 1.17891 0.00195312H14.8289C15.4779 0.00195312 16.0039 0.514953 16.0039 1.14795V14.856C16.0039 15.489 15.4779 16.002 14.8289 16.002H1.17891C0.529906 16.002 0.00390625 15.489 0.00390625 14.856V1.14795ZM4.94691 13.396V6.17095H2.54591V13.396H4.94691ZM3.74691 5.18395C4.58391 5.18395 5.10491 4.62995 5.10491 3.93595C5.08991 3.22695 4.58491 2.68795 3.76291 2.68795C2.94091 2.68795 2.40391 3.22795 2.40391 3.93595C2.40391 4.62995 2.92491 5.18395 3.73091 5.18395H3.74691ZM8.65491 13.396V9.36095C8.65491 9.14495 8.67091 8.92895 8.73491 8.77495C8.90791 8.34395 9.30291 7.89695 9.96691 7.89695C10.8359 7.89695 11.1829 8.55895 11.1829 9.53095V13.396H13.5839V9.25195C13.5839 7.03195 12.3999 5.99995 10.8199 5.99995C9.54591 5.99995 8.97491 6.69995 8.65491 7.19295V7.21795H8.63891C8.64422 7.20961 8.64955 7.20127 8.65491 7.19295V6.17095H6.25491C6.28491 6.84895 6.25491 13.396 6.25491 13.396H8.65491Z" fill="white"/>
</g>
</svg>
