<svg width="30" height="24" viewBox="0 0 30 24" fill="none" xmlns="http://www.w3.org/2000/svg">
  <rect x="0" y="0" width="30" height="24" fill="#0288D1"></rect>
  <path fill="#FFF" d="M7.56 7.98H12.73V22.35H7.56zM10.12 6.72h-.02C8.82 6.72 7.9 5.75 7.9 4.55 7.9 3.32 8.82 2.32 10.13 2.32c1.32 0 2.25 1 2.27 2.23C12.4 5.74 11.46 6.72 10.12 6.72zM22.32 22.35h-5.17v-7.54c0-1.82-.99-3.06-2.58-3.06-1.2 0-1.86.8-2.18 1.58-.11.26-.14.62-.14.99v8.03H7.56v-14.36h5.16v2.17c.68-1.04 1.88-2.52 4.6-2.52 3.11 0 5.4 2 5.4 6.29V22.35H22.32z"></path>
</svg>
