<svg width="32" height="32" viewBox="0 0 32 32" fill="none" xmlns="http://www.w3.org/2000/svg">
<path d="M0 16C0 8.45753 0 4.68629 2.34315 2.34315C4.68629 0 8.45753 0 16 0C23.5425 0 27.3137 0 29.6569 2.34315C32 4.68629 32 8.45753 32 16C32 23.5425 32 27.3137 29.6569 29.6569C27.3137 32 23.5425 32 16 32C8.45753 32 4.68629 32 2.34315 29.6569C0 27.3137 0 23.5425 0 16Z" fill="#003B4A"/>
<g clip-path="url(#clip0_2368_66561)">
<path d="M8 9.14698C8 8.51398 8.526 8.00098 9.175 8.00098H22.825C23.474 8.00098 24 8.51398 24 9.14698V22.855C24 23.488 23.474 24.001 22.825 24.001H9.175C8.526 24.001 8 23.488 8 22.855V9.14698ZM12.943 21.395V14.17H10.542V21.395H12.943ZM11.743 13.183C12.58 13.183 13.101 12.629 13.101 11.935C13.086 11.226 12.581 10.687 11.759 10.687C10.937 10.687 10.4 11.227 10.4 11.935C10.4 12.629 10.921 13.183 11.727 13.183H11.743ZM16.651 21.395V17.36C16.651 17.144 16.667 16.928 16.731 16.774C16.904 16.343 17.299 15.896 17.963 15.896C18.832 15.896 19.179 16.558 19.179 17.53V21.395H21.58V17.251C21.58 15.031 20.396 13.999 18.816 13.999C17.542 13.999 16.971 14.699 16.651 15.192V15.217H16.635C16.6403 15.2086 16.6456 15.2003 16.651 15.192V14.17H14.251C14.281 14.848 14.251 21.395 14.251 21.395H16.651Z" fill="white"/>
</g>
<defs>
<clipPath id="clip0_2368_66561">
<rect width="16" height="16" fill="white" transform="translate(8 8)"/>
</clipPath>
</defs>
</svg>
