<svg width="18" height="18" viewBox="0 0 18 18" fill="none" xmlns="http://www.w3.org/2000/svg">
<g id="wrapper">
<path id="Union" d="M15.305 2.61876C14.4798 1.78589 13.4971 1.1256 12.4141 0.676339C11.3312 0.227083 10.1696 -0.00214668 8.99716 0.00200862C4.08428 0.00200862 0.0804063 4.00476 0.0759063 8.91876C0.0759063 10.4926 0.487656 12.0238 1.26503 13.3794L0.00390625 18.002L4.73341 16.7623C6.04179 17.4743 7.50758 17.8475 8.99716 17.8479H9.00166C13.9157 17.8479 17.9184 13.8451 17.9229 8.92663C17.924 7.75443 17.6932 6.59359 17.2437 5.511C16.7942 4.4284 16.135 3.44544 15.3039 2.61876H15.305ZM8.99716 16.3381C7.66853 16.3386 6.36432 15.9811 5.22166 15.3031L4.95166 15.1411L2.14591 15.8769L2.89516 13.1398L2.71966 12.8574C1.97694 11.6765 1.58413 10.3093 1.58678 8.91426C1.58678 4.83501 4.91341 1.50726 9.00166 1.50726C9.97561 1.50551 10.9403 1.69657 11.8401 2.06941C12.7398 2.44226 13.5569 2.98951 14.2442 3.67963C14.9338 4.36706 15.4806 5.18424 15.8528 6.08402C16.2251 6.9838 16.4155 7.94838 16.4132 8.92213C16.4087 13.016 13.082 16.3381 8.99716 16.3381V16.3381ZM13.064 10.7874C12.8424 10.676 11.7478 10.1371 11.5419 10.0606C11.3372 9.98751 11.1875 9.94926 11.0413 10.172C10.8917 10.3936 10.4642 10.8988 10.3359 11.0439C10.2077 11.1935 10.0749 11.2104 9.85216 11.1001C9.63053 10.9876 8.91166 10.7536 8.06116 9.99201C7.39741 9.40138 6.95303 8.67013 6.82028 8.44851C6.69203 8.22576 6.80791 8.10651 6.91928 7.99513C7.01716 7.89613 7.14091 7.73413 7.25228 7.60588C7.36478 7.47763 7.40191 7.38313 7.47503 7.23463C7.54816 7.08388 7.51328 6.95563 7.45816 6.84426C7.40191 6.73288 6.95753 5.63376 6.76966 5.19051C6.58966 4.75288 6.40628 4.81363 6.26903 4.80801C6.14078 4.80013 5.99116 4.80013 5.84153 4.80013C5.72854 4.80294 5.61735 4.82908 5.51494 4.87689C5.41252 4.92471 5.3211 4.99318 5.24641 5.07801C5.04166 5.30076 4.46903 5.83963 4.46903 6.93876C4.46903 8.03788 5.26778 9.09426 5.38028 9.24388C5.49053 9.39351 6.94853 11.6424 9.18616 12.6099C9.71491 12.8405 10.1312 12.9766 10.4563 13.0801C10.9907 13.2511 11.4733 13.2253 11.858 13.1701C12.2855 13.1049 13.1754 12.6301 13.3633 12.1093C13.5478 11.5873 13.5478 11.1418 13.4915 11.0484C13.4364 10.9539 13.2868 10.8988 13.064 10.7874V10.7874Z" fill="white"/>
</g>
</svg>
