<svg width="32" height="32" viewBox="0 0 32 32" fill="none" xmlns="http://www.w3.org/2000/svg">
<path d="M0 16C0 8.45753 0 4.68629 2.34315 2.34315C4.68629 0 8.45753 0 16 0C23.5425 0 27.3137 0 29.6569 2.34315C32 4.68629 32 8.45753 32 16C32 23.5425 32 27.3137 29.6569 29.6569C27.3137 32 23.5425 32 16 32C8.45753 32 4.68629 32 2.34315 29.6569C0 27.3137 0 23.5425 0 16Z" fill="#003B4A"/>
<g clip-path="url(#clip0_2368_66562)">
<path d="M13.026 23.0012C19.064 23.0012 22.367 17.9982 22.367 13.6672C22.367 13.5272 22.367 13.3852 22.361 13.2452C23.0041 12.7797 23.5591 12.2033 24 11.5432C23.3993 11.808 22.7628 11.9826 22.111 12.0612C22.7975 11.6508 23.3117 11.0051 23.558 10.2442C22.913 10.6263 22.207 10.8946 21.471 11.0372C20.9762 10.5102 20.3214 10.1611 19.6081 10.0439C18.8948 9.92678 18.1627 10.0481 17.5253 10.3891C16.888 10.7301 16.3808 11.2718 16.0824 11.9302C15.7841 12.5887 15.7112 13.3271 15.875 14.0312C14.5697 13.9657 13.2928 13.6266 12.127 13.0359C10.9613 12.4452 9.93268 11.616 9.108 10.6022C8.68934 11.3253 8.56157 12.1806 8.75065 12.9944C8.93972 13.8083 9.43145 14.5197 10.126 14.9842C9.60554 14.9665 9.09652 14.8267 8.64 14.5762V14.6212C8.6409 15.3787 8.90331 16.1126 9.38287 16.6989C9.86244 17.2853 10.5297 17.6881 11.272 17.8392C10.9903 17.9168 10.6992 17.9555 10.407 17.9542C10.201 17.9548 9.99538 17.9357 9.793 17.8972C10.0028 18.5492 10.4113 19.1193 10.9612 19.5277C11.5112 19.936 12.1751 20.162 12.86 20.1742C11.6966 21.088 10.2594 21.5836 8.78 21.5812C8.51932 21.5823 8.25882 21.5673 8 21.5362C9.50151 22.4934 11.2453 23.0017 13.026 23.0012Z" fill="white"/>
</g>
<defs>
<clipPath id="clip0_2368_66562">
<rect width="16" height="16" fill="white" transform="translate(8 8)"/>
</clipPath>
</defs>
</svg>
