<svg width="16" height="16" viewBox="0 0 16 16" fill="none" xmlns="http://www.w3.org/2000/svg">
  aaa
<g id="wrapper">
<path id="Union" d="M5.02991 15.0007C11.0679 15.0007 14.3709 9.99769 14.3709 5.66669C14.3709 5.52669 14.3709 5.38469 14.3649 5.24469C15.008 4.77918 15.563 4.20284 16.0039 3.54269C15.4032 3.80754 14.7667 3.9821 14.1149 4.06069C14.8014 3.65033 15.3156 3.00466 15.5619 2.24369C14.9169 2.62582 14.2109 2.89407 13.4749 3.03669C12.9801 2.50972 12.3253 2.16061 11.612 2.04345C10.8987 1.92629 10.1666 2.04761 9.52924 2.38863C8.89186 2.72965 8.38471 3.27132 8.08636 3.92975C7.788 4.58818 7.71509 5.32663 7.87891 6.03069C6.57365 5.96524 5.29672 5.62616 4.13095 5.03544C2.96518 4.44471 1.93659 3.61554 1.11191 2.60169C0.693246 3.32478 0.56548 4.18009 0.754552 4.99396C0.943625 5.80782 1.43536 6.51922 2.12991 6.98369C1.60945 6.96601 1.10043 6.82625 0.643906 6.57569V6.62069C0.644804 7.37817 0.907213 8.11211 1.38678 8.69845C1.86635 9.28479 2.53365 9.68757 3.27591 9.83869C2.99417 9.91631 2.70314 9.955 2.41091 9.95369C2.20489 9.95432 1.99929 9.93523 1.79691 9.89669C2.00669 10.5487 2.41518 11.1189 2.96515 11.5272C3.51513 11.9355 4.17904 12.1615 4.86391 12.1737C3.70046 13.0875 2.26331 13.5831 0.783906 13.5807C0.523227 13.5818 0.262729 13.5668 0.00390625 13.5357C1.50542 14.493 3.2492 15.0012 5.02991 15.0007Z" fill="white"/>
</g>
</svg>
