<svg width="214" height="60" viewBox="0 0 214 60" fill="none" xmlns="http://www.w3.org/2000/svg">
    <path d="M214 59.3515H150.119L139.872 10.8517L208.902 0.594727L214 59.3515Z" fill="{% if line_color %}{{ line_color }}{% else %}white{% endif %}"/>
    <path d="M0.106445 52.9495V16.9143H3.51659L13.6964 40.8585V16.9143H17.8493V52.9495H14.6586L4.36068 28.343V52.9495H0.106445Z" fill="{% if line_color %}{{ line_color }}{% else %}white{% endif %}"/>
    <path d="M33.4988 53.3571C31.0847 53.3571 29.1433 52.8816 27.7083 51.9306C26.2565 50.9797 25.2267 49.6211 24.6189 47.855C23.9943 46.0889 23.6904 44.0171 23.6904 41.6567V28.0034C23.6904 25.6259 24.0112 23.5881 24.6358 21.89C25.2773 20.1918 26.3071 18.8842 27.7252 17.9672C29.1602 17.0671 31.0847 16.6086 33.4988 16.6086C35.9129 16.6086 37.8375 17.0671 39.2555 17.9842C40.6736 18.9012 41.7034 20.2088 42.328 21.9069C42.9695 23.6051 43.2734 25.6259 43.2734 28.0034V41.7076C43.2734 44.0511 42.9527 46.1059 42.328 47.855C41.6865 49.6041 40.6736 50.9627 39.2555 51.9306C37.8375 52.8816 35.9129 53.3571 33.4988 53.3571ZM33.4988 49.4004C34.8325 49.4004 35.8285 49.1287 36.5038 48.5852C37.1791 48.0418 37.6349 47.2607 37.8712 46.2757C38.1076 45.2738 38.2257 44.119 38.2257 42.7775V26.9845C38.2257 25.6429 38.1076 24.5051 37.8712 23.5372C37.6349 22.5692 37.1791 21.839 36.5038 21.3126C35.8285 20.7861 34.8156 20.5314 33.4988 20.5314C32.182 20.5314 31.1691 20.7861 30.4769 21.3126C29.7848 21.839 29.3121 22.5692 29.0758 23.5372C28.8394 24.5051 28.7212 25.6429 28.7212 26.9845V42.7775C28.7212 44.119 28.8394 45.2738 29.0758 46.2757C29.3121 47.2776 29.7679 48.0418 30.4769 48.5852C31.1691 49.1287 32.182 49.4004 33.4988 49.4004Z" fill="{% if line_color %}{{ line_color }}{% else %}white{% endif %}"/>
    <path d="M57.5218 53.3571C55.4623 53.3571 53.7403 52.9156 52.3729 52.0155C51.0054 51.1155 49.9588 49.8928 49.2497 48.3305C48.5407 46.7512 48.1355 44.9342 48.0173 42.8624L52.4404 41.6567C52.5248 42.9303 52.7274 44.17 53.0313 45.3417C53.3351 46.5304 53.8416 47.4984 54.5506 48.2626C55.2597 49.0268 56.2388 49.4004 57.5218 49.4004C58.8049 49.4004 59.8009 49.0437 60.4593 48.3135C61.1177 47.5833 61.4553 46.5474 61.4553 45.1719C61.4553 43.5417 61.0839 42.2341 60.358 41.2321C59.6152 40.2472 58.6867 39.2453 57.5725 38.2264L51.5625 32.8941C50.3808 31.8582 49.5198 30.7205 48.9458 29.4978C48.3887 28.2751 48.1017 26.7467 48.1017 24.9297C48.1017 22.2975 48.8614 20.2427 50.3639 18.7823C51.8664 17.3219 53.9091 16.6086 56.5089 16.6086C57.927 16.6086 59.1763 16.7954 60.2398 17.169C61.3203 17.5426 62.215 18.103 62.9409 18.8842C63.6668 19.6484 64.2408 20.6333 64.6629 21.805C65.0849 22.9768 65.3719 24.3523 65.5239 25.9146L61.2696 27.0694C61.1852 25.8807 60.9995 24.7938 60.7463 23.7919C60.4762 22.807 60.0204 21.9918 59.3451 21.3975C58.6867 20.7861 57.7244 20.4805 56.492 20.4805C55.2597 20.4805 54.2805 20.8201 53.5884 21.4824C52.8962 22.1447 52.5417 23.1296 52.5417 24.4372C52.5417 25.541 52.7274 26.4411 53.0988 27.1543C53.4702 27.8675 54.0611 28.5977 54.8883 29.328L60.9489 34.6602C62.2994 35.8489 63.498 37.2584 64.5278 38.9057C65.5576 40.5529 66.081 42.5058 66.081 44.7643C66.081 46.5474 65.7096 48.0758 64.9836 49.3664C64.2408 50.657 63.2448 51.6419 61.9618 52.3212C60.6788 53.0005 59.1931 53.3571 57.5218 53.3571Z" fill="{% if line_color %}{{ line_color }}{% else %}white{% endif %}"/>
    <path d="M79.3163 53.3571C77.2567 53.3571 75.5347 52.9156 74.1673 52.0155C72.7999 51.1155 71.7532 49.8928 71.0441 48.3305C70.3351 46.7512 69.9299 44.9342 69.8118 42.8624L74.2348 41.6567C74.3192 42.9303 74.5218 44.17 74.8257 45.3417C75.1296 46.5304 75.636 47.4984 76.3451 48.2626C77.0541 49.0268 78.0332 49.4004 79.3163 49.4004C80.5993 49.4004 81.5953 49.0437 82.2537 48.3135C82.9121 47.5833 83.2497 46.5474 83.2497 45.1719C83.2497 43.5417 82.8783 42.2341 82.1524 41.2321C81.4096 40.2472 80.4811 39.2453 79.3669 38.2264L73.357 32.8941C72.1752 31.8582 71.3143 30.7205 70.7403 29.4978C70.1832 28.2751 69.8962 26.7467 69.8962 24.9297C69.8962 22.2975 70.6559 20.2427 72.1583 18.7823C73.6608 17.3219 75.7035 16.6086 78.3034 16.6086C79.7214 16.6086 80.9707 16.7954 82.0342 17.169C83.1147 17.5426 84.0094 18.103 84.7354 18.8842C85.4613 19.6484 86.0353 20.6333 86.4573 21.805C86.8794 22.9768 87.1663 24.3523 87.3183 25.9146L83.0641 27.0694C82.9796 25.8807 82.7939 24.7938 82.5407 23.7919C82.2706 22.807 81.8148 21.9918 81.1395 21.3975C80.4811 20.7861 79.5188 20.4805 78.2865 20.4805C77.0541 20.4805 76.0749 20.8201 75.3828 21.4824C74.6906 22.1447 74.3361 23.1296 74.3361 24.4372C74.3361 25.541 74.5218 26.4411 74.8932 27.1543C75.2646 27.8675 75.8555 28.5977 76.6827 29.328L82.7433 34.6602C84.0938 35.8489 85.2925 37.2584 86.3223 38.9057C87.352 40.5529 87.8754 42.5058 87.8754 44.7643C87.8754 46.5474 87.504 48.0758 86.7781 49.3664C86.0353 50.657 85.0392 51.6419 83.7562 52.3212C82.4732 53.0005 81.0045 53.3571 79.3163 53.3571Z" fill="{% if line_color %}{{ line_color }}{% else %}white{% endif %}"/>
    <path d="M90.7283 52.9495L98.342 16.9143H103.17L110.818 52.9495H106.091L104.453 43.8813H97.1603L95.4383 52.9495H90.7283ZM97.8187 40.2812H103.795L100.773 24.0296L97.8187 40.2812Z" fill="{% if line_color %}{{ line_color }}{% else %}white{% endif %}"/>
    <path d="M123.766 53.3571C121.707 53.3571 119.985 52.9156 118.617 52.0155C117.25 51.1155 116.203 49.8928 115.494 48.3305C114.785 46.7512 114.38 44.9342 114.262 42.8624L118.685 41.6567C118.769 42.9303 118.972 44.17 119.276 45.3417C119.58 46.5304 120.086 47.4984 120.795 48.2626C121.504 49.0268 122.483 49.4004 123.766 49.4004C125.049 49.4004 126.045 49.0437 126.704 48.3135C127.362 47.5833 127.7 46.5474 127.7 45.1719C127.7 43.5417 127.328 42.2341 126.602 41.2321C125.86 40.2472 124.931 39.2453 123.817 38.2264L117.807 32.8941C116.625 31.8582 115.764 30.7205 115.19 29.4978C114.633 28.2751 114.346 26.7467 114.346 24.9297C114.346 22.2975 115.106 20.2427 116.608 18.7823C118.111 17.3219 120.153 16.6086 122.753 16.6086C124.171 16.6086 125.421 16.7954 126.484 17.169C127.565 17.5426 128.459 18.103 129.185 18.8842C129.911 19.6484 130.485 20.6333 130.907 21.805C131.329 22.9768 131.616 24.3523 131.768 25.9146L127.514 27.0694C127.43 25.8807 127.244 24.7938 126.991 23.7919C126.721 22.807 126.265 21.9918 125.589 21.3975C124.931 20.7861 123.969 20.4805 122.736 20.4805C121.504 20.4805 120.525 20.8201 119.833 21.4824C119.141 22.1447 118.786 23.1296 118.786 24.4372C118.786 25.541 118.972 26.4411 119.343 27.1543C119.715 27.8675 120.305 28.5977 121.133 29.328L127.193 34.6602C128.544 35.8489 129.742 37.2584 130.772 38.9057C131.802 40.5529 132.325 42.5058 132.325 44.7643C132.325 46.5474 131.954 48.0758 131.228 49.3664C130.485 50.657 129.489 51.6419 128.206 52.3212C126.923 53.0005 125.454 53.3571 123.766 53.3571Z" fill="{% if line_color %}{{ line_color }}{% else %}white{% endif %}"/>
    </svg>
    