<svg width="40" height="40" viewBox="0 0 40 40" fill="none" xmlns="http://www.w3.org/2000/svg">
<circle cx="20" cy="20" r="20" fill="{% if bg_color %}{{ bg_color }}{% else %}#8CAD6A{% endif %}"/>
<path d="M19.1367 22.009V16.6542C19.1367 16.3156 19.1164 15.9766 19.1397 15.6383C19.1621 15.3125 19.2547 15.0043 19.4171 14.7201C19.6988 14.2278 20.1668 13.8528 20.7098 13.6876C20.9212 13.6232 21.1419 13.591 21.3629 13.591C21.9402 13.591 22.5032 13.8183 22.9185 14.2194C23.3481 14.634 23.5553 15.1688 23.6013 15.7552C23.6267 16.0795 23.6164 16.4064 23.6164 16.7319V18.6263C23.6164 19.1523 23.6006 19.6782 23.5987 20.2044C23.5973 20.5798 23.5497 20.9597 23.5884 21.3344C23.6085 21.5297 23.6783 21.7322 23.8332 21.8526C24.0327 22.0076 24.3566 22.0066 24.5376 21.8239C24.6321 21.7285 24.7012 21.5575 24.7131 21.4238C24.7565 20.9356 24.7131 20.4774 24.7131 19.9871V14.4408C24.7131 14.0273 24.7084 13.6057 24.7175 13.1892C24.7243 12.874 24.7472 12.5706 24.8547 12.2715C25.0472 11.7376 25.4451 11.2885 25.9512 11.0318C26.2636 10.8734 26.6122 10.791 26.9627 10.791C27.539 10.791 28.1009 11.0176 28.5162 11.4173C28.9292 11.8149 29.1856 12.3737 29.2013 12.9484C29.2104 13.2781 29.1931 13.6097 29.1931 13.9396V24.8752C29.1931 25.0176 29.1931 25.1597 29.1931 25.302C29.1931 25.6679 29.2274 26.1205 29.7008 26.1583C29.9246 26.1763 30.1253 26.0501 30.2305 25.8562C30.3553 25.6263 30.3033 25.3571 30.3033 25.1074C30.3033 24.3745 30.3131 23.6418 30.3131 22.9092V19.1047C30.3131 18.7673 30.294 18.4261 30.3717 18.095C30.4368 17.8178 30.556 17.5544 30.7203 17.322C31.0504 16.8551 31.5561 16.5254 32.1161 16.4101C32.2505 16.3824 32.3874 16.367 32.5246 16.3637C32.5435 16.3632 32.5624 16.363 32.5816 16.363H33.9995V18.043H32.5816C32.5729 18.043 32.5641 18.0432 32.5554 18.0437C32.2631 18.0568 32.0283 18.2885 32.015 18.5771C32.0146 18.5867 32.0143 18.5965 32.0143 18.606V19.4855C32.0143 20.2328 31.9931 20.9802 31.9929 21.7273C31.9929 21.8218 31.9929 21.9163 31.9929 22.0108V24.7586C31.9929 25.3095 32.0384 25.8851 31.8354 26.4092C31.784 26.5415 31.7201 26.6689 31.6447 26.7888C31.5701 26.908 31.484 27.02 31.3883 27.1232C31.2929 27.2261 31.1876 27.3201 31.0747 27.4036C30.9611 27.4874 30.8395 27.5607 30.7121 27.6216C30.5828 27.6834 30.4477 27.7329 30.3091 27.7688C30.1668 27.8057 30.021 27.8283 29.8742 27.8367C29.8313 27.839 29.7886 27.8404 29.7456 27.8404C29.1688 27.8404 28.6065 27.6136 28.1912 27.2132C27.9093 26.9416 27.7049 26.5954 27.5962 26.2197C27.476 25.8046 27.5126 25.3872 27.5126 24.9613V13.9186C27.5126 13.6118 27.5714 13.2538 27.5129 12.9535C27.4601 12.6831 27.2457 12.4708 26.9622 12.4708C26.7846 12.4708 26.6148 12.5571 26.51 12.7004C26.3329 12.9423 26.402 13.3 26.402 13.5803C26.402 13.9643 26.4001 14.3484 26.3992 14.7325C26.3973 15.5006 26.3954 16.2687 26.3938 17.0366C26.3938 17.8622 26.3898 18.6879 26.388 19.5137C26.3861 20.2783 26.4757 21.1106 26.3427 21.8643C26.3023 22.093 26.2279 22.3151 26.1119 22.5162C25.9068 22.8721 25.604 23.1691 25.2435 23.3665C24.9152 23.5462 24.5435 23.6404 24.1694 23.6404C23.2062 23.6404 22.2934 22.9831 22.0361 22.0475C21.8797 21.4791 21.9362 20.8969 21.9362 20.3171C21.9362 19.5639 21.929 18.8097 21.9276 18.0577C21.9276 17.6342 21.9262 17.2105 21.9255 16.787C21.925 16.573 21.9248 16.359 21.9243 16.1451C21.9241 15.968 21.9479 15.7764 21.8753 15.6093C21.7878 15.4082 21.5822 15.271 21.3624 15.271C21.1769 15.271 21.0003 15.3655 20.8969 15.5195C20.805 15.6565 20.7975 15.8308 20.8008 15.9904C20.8139 16.5977 20.8164 17.2044 20.8162 17.8118C20.8162 18.0082 20.8162 18.2045 20.8162 18.4009V23.3133C20.8162 23.7167 20.8346 24.1304 20.7786 24.5343C20.7373 24.8323 20.6225 25.1223 20.4615 25.376C20.1472 25.8709 19.6407 26.2307 19.0688 26.3609C18.905 26.3982 18.7372 26.4169 18.5692 26.4169C17.7005 26.4169 16.8918 25.897 16.5306 25.1067C16.3241 24.6547 16.3362 24.1701 16.3362 23.6862V15.484C16.3362 15.0685 16.3369 14.6447 16.3383 14.2259C16.339 14.0119 16.3399 13.798 16.3413 13.584C16.3425 13.3801 16.3707 13.1558 16.3437 12.9538C16.3075 12.6831 16.056 12.4705 15.7858 12.4705C15.6227 12.4705 15.4654 12.5433 15.3595 12.6672C15.2239 12.8261 15.2279 13.0305 15.2286 13.2277C15.2295 13.4918 15.2286 13.756 15.2286 14.0199C15.2286 14.2499 15.2279 14.4798 15.2279 14.7098C15.2279 14.8249 15.2279 14.9399 15.2283 15.0547C15.2288 15.197 15.2162 15.3391 15.2162 15.4819C15.2162 15.6385 15.2162 15.7953 15.2162 15.9519V26.0715C15.2162 26.2346 15.2162 26.3977 15.2162 26.5608C15.2162 26.9097 15.2283 27.2489 15.1324 27.5882C15.0545 27.8638 14.9224 28.1235 14.7465 28.3493C14.3921 28.8039 13.8654 29.1095 13.2942 29.1879C13.1927 29.2019 13.0905 29.2087 12.9881 29.2087C12.8194 29.2087 12.6507 29.1898 12.4862 29.152C12.3446 29.1193 12.2062 29.0727 12.0737 29.0129C11.9432 28.9541 11.8184 28.8827 11.7015 28.7999C11.5846 28.7171 11.4773 28.6244 11.3788 28.5215C11.2803 28.4186 11.1917 28.3066 11.1144 28.1869C11.0365 28.0663 10.9705 27.9382 10.9173 27.805C10.8631 27.6692 10.8225 27.5282 10.7962 27.3845C10.7717 27.2513 10.7595 27.1159 10.7595 26.9804C10.7595 26.9673 10.7595 26.9542 10.76 26.9412C10.7598 26.9372 10.7595 26.9335 10.7595 26.9295V20.7828C10.757 20.7837 10.7546 20.7842 10.7521 20.7849V19.8345C10.7521 19.4176 10.7791 18.9952 10.753 18.5787C10.7346 18.2878 10.4875 18.0549 10.1951 18.0549C9.9928 18.0549 9.8122 18.1634 9.71583 18.341C9.62133 18.515 9.63813 18.7059 9.63813 18.8968C9.63907 18.9033 9.63953 18.9098 9.63953 18.9166V23.9195C9.63953 24.2506 9.63113 24.5682 9.5259 24.8853C9.43583 25.1564 9.29303 25.4096 9.10823 25.6273C8.73397 26.0683 8.19403 26.3525 7.61817 26.4082C7.56403 26.4134 7.5099 26.4166 7.45577 26.418C7.4371 26.4185 7.41843 26.4187 7.39953 26.4187H6V24.7387H7.4C7.40863 24.7387 7.41727 24.7385 7.4259 24.738C7.71453 24.725 7.94623 24.4933 7.9593 24.2046C7.95977 24.1951 7.96 24.1853 7.96 24.1757V20.1712C7.96 19.8555 7.96 19.5401 7.96 19.2244C7.96 18.8816 7.93083 18.5286 7.9957 18.19C8.0496 17.9093 8.15787 17.64 8.31303 17.4002C8.62127 16.9235 9.1087 16.5744 9.66007 16.4391C9.83507 16.3961 10.0152 16.3747 10.1953 16.3747C10.7721 16.3747 11.3349 16.6017 11.7503 17.0021C12.1677 17.4046 12.4111 17.9574 12.4342 18.536C12.4398 18.6742 12.44 18.8121 12.44 18.9504V26.0552C12.44 26.2484 12.444 26.4418 12.4428 26.635C12.4414 26.8705 12.3982 27.1437 12.5616 27.3381C12.6668 27.4634 12.8248 27.5369 12.9883 27.5369C13.1598 27.5369 13.3246 27.4559 13.4293 27.3201C13.5731 27.1341 13.5367 26.9076 13.5367 26.6899V13.2683C13.5367 12.653 13.6662 12.072 14.0703 11.5909C14.4394 11.1513 14.9728 10.865 15.5438 10.8036C15.6243 10.795 15.7053 10.7905 15.7862 10.7905C16.3927 10.7905 16.9821 11.0418 17.4023 11.4793C17.6394 11.7262 17.816 12.0284 17.9191 12.3546C18.0272 12.6969 18.0169 13.0238 18.0169 13.3766C18.0169 13.4785 18.0169 13.5807 18.0169 13.6827V23.3737C18.0169 23.5765 18.015 23.7795 18.0181 23.9823C18.0211 24.2056 18.0636 24.5497 18.271 24.6496C18.4784 24.7495 18.7533 24.7709 18.9185 24.6055C19.1136 24.41 19.1369 24.1757 19.1369 23.92C19.1369 23.587 19.1369 22.3396 19.1369 22.0066" fill="{% if line_color %}{{ line_color }}{% else %}white{% endif %}"/>
</svg>
