<svg width="72" height="73" viewBox="0 0 72 73" fill="none" xmlns="http://www.w3.org/2000/svg">
  <path d="M33.78 41.666V27.8966C33.78 27.026 33.7278 26.1542 33.7878 25.2842C33.8454 24.4466 34.0836 23.654 34.5012 22.9232C35.2254 21.6572 36.429 20.693 37.8252 20.2682C38.3688 20.1026 38.9364 20.0198 39.5046 20.0198C40.989 20.0198 42.4368 20.6042 43.5048 21.6356C44.6094 22.7018 45.1422 24.077 45.2604 25.5848C45.3258 26.4188 45.2994 27.2594 45.2994 28.0964V32.9678C45.2994 34.3202 45.2586 35.6726 45.2538 37.0256C45.2502 37.991 45.1278 38.9678 45.2274 39.9314C45.279 40.4336 45.4584 40.9544 45.8568 41.264C46.3698 41.6624 47.2026 41.66 47.6682 41.1902C47.9112 40.9448 48.0888 40.505 48.1194 40.1612C48.231 38.906 48.1194 37.7276 48.1194 36.467V22.205C48.1194 21.1418 48.1074 20.0576 48.1308 18.9866C48.1482 18.176 48.207 17.396 48.4836 16.6268C48.9786 15.254 50.0016 14.099 51.303 13.439C52.1064 13.0316 53.0028 12.8198 53.904 12.8198C55.386 12.8198 56.8308 13.4024 57.8988 14.4302C58.9608 15.4526 59.6202 16.8896 59.6604 18.3674C59.6838 19.2152 59.6394 20.0678 59.6394 20.9162V49.0364C59.6394 49.4024 59.6394 49.7678 59.6394 50.1338C59.6394 51.0746 59.7276 52.2386 60.945 52.3358C61.5204 52.382 62.0364 52.0574 62.307 51.5588C62.628 50.9678 62.4942 50.2754 62.4942 49.6334C62.4942 47.7488 62.5194 45.8648 62.5194 43.9808V34.1978C62.5194 33.3302 62.4702 32.453 62.67 31.6016C62.8374 30.8888 63.144 30.2114 63.5664 29.6138C64.4154 28.4132 65.7156 27.5654 67.1556 27.269C67.5012 27.1976 67.8534 27.158 68.2062 27.1496C68.2548 27.1484 68.3034 27.1478 68.3526 27.1478H71.9988V31.4678H68.3526C68.3304 31.4678 68.3076 31.4684 68.2854 31.4696C67.5336 31.5032 66.93 32.099 66.8958 32.8412C66.8946 32.8658 66.894 32.891 66.894 32.9156V35.177C66.894 37.0988 66.8394 39.0206 66.8388 40.9418C66.8388 41.1848 66.8388 41.4278 66.8388 41.6708V48.7364C66.8388 50.153 66.9558 51.6332 66.4338 52.9808C66.3018 53.321 66.1374 53.6486 65.9436 53.957C65.7516 54.2636 65.5302 54.5516 65.2842 54.8168C65.0388 55.0814 64.7682 55.3232 64.4778 55.538C64.1856 55.7534 63.873 55.9418 63.5454 56.0984C63.213 56.2574 62.8656 56.3846 62.5092 56.477C62.1432 56.5718 61.7682 56.63 61.3908 56.6516C61.2804 56.6576 61.1706 56.6612 61.0602 56.6612C59.577 56.6612 58.131 56.078 57.063 55.0484C56.3382 54.35 55.8126 53.4596 55.533 52.4936C55.224 51.4262 55.3182 50.3528 55.3182 49.2578V20.8622C55.3182 20.0732 55.4694 19.1528 55.3188 18.3806C55.1832 17.6852 54.6318 17.1392 53.9028 17.1392C53.4462 17.1392 53.0094 17.3612 52.74 17.7296C52.2846 18.3518 52.4622 19.2716 52.4622 19.9922C52.4622 20.9798 52.4574 21.9674 52.455 22.955C52.4502 24.9302 52.4454 26.9054 52.4412 28.88C52.4412 31.0028 52.431 33.1262 52.4262 35.2496C52.4214 37.2158 52.6518 39.356 52.3098 41.294C52.206 41.882 52.0146 42.4532 51.7164 42.9704C51.189 43.8854 50.4102 44.6492 49.4832 45.1568C48.639 45.6188 47.6832 45.8612 46.7214 45.8612C44.2446 45.8612 41.8974 44.171 41.2356 41.765C40.8336 40.3034 40.9788 38.8064 40.9788 37.3154C40.9788 35.3786 40.9602 33.4394 40.9566 31.5056C40.9566 30.4166 40.953 29.327 40.9512 28.238C40.95 27.6878 40.9494 27.1376 40.9482 26.5874C40.9476 26.132 41.0088 25.6394 40.8222 25.2098C40.5972 24.6926 40.0686 24.3398 39.5034 24.3398C39.0264 24.3398 38.5722 24.5828 38.3064 24.9788C38.07 25.331 38.0508 25.7792 38.0592 26.1896C38.0928 27.7514 38.0994 29.3114 38.0988 30.8732C38.0988 31.3784 38.0988 31.883 38.0988 32.3882V45.02C38.0988 46.0574 38.1462 47.1212 38.0022 48.1598C37.896 48.926 37.6008 49.6718 37.1868 50.324C36.3786 51.5966 35.076 52.5218 33.6054 52.8566C33.1842 52.9526 32.7528 53.0006 32.3208 53.0006C30.087 53.0006 28.0074 51.6638 27.0786 49.6316C26.5476 48.4694 26.5788 47.2232 26.5788 45.9788V24.8876C26.5788 23.819 26.5806 22.7294 26.5842 21.6524C26.586 21.1022 26.5884 20.552 26.592 20.0018C26.595 19.4774 26.6676 18.9008 26.598 18.3812C26.505 17.6852 25.8582 17.1386 25.1634 17.1386C24.744 17.1386 24.3396 17.3258 24.0672 17.6444C23.7186 18.053 23.7288 18.5786 23.7306 19.0856C23.733 19.7648 23.7306 20.444 23.7306 21.1226C23.7306 21.7142 23.7288 22.3052 23.7288 22.8968C23.7288 23.1926 23.7288 23.4884 23.73 23.7836C23.7312 24.1496 23.6988 24.515 23.6988 24.8822C23.6988 25.2848 23.6988 25.688 23.6988 26.0906V52.1126C23.6988 52.532 23.6988 52.9514 23.6988 53.3708C23.6988 54.2678 23.73 55.1402 23.4834 56.0126C23.283 56.7212 22.9434 57.389 22.491 57.9698C21.5796 59.1386 20.2254 59.9246 18.7566 60.1262C18.4956 60.1622 18.2328 60.1796 17.9694 60.1796C17.5356 60.1796 17.1018 60.131 16.6788 60.0338C16.3146 59.9498 15.9588 59.8298 15.618 59.6762C15.2826 59.525 14.9616 59.3414 14.661 59.1284C14.3604 58.9154 14.0844 58.6772 13.8312 58.4126C13.578 58.148 13.35 57.86 13.1514 57.5522C12.951 57.242 12.7812 56.9126 12.6444 56.57C12.5052 56.2208 12.4008 55.8584 12.333 55.4888C12.27 55.1462 12.2388 54.7982 12.2388 54.4496C12.2388 54.416 12.2388 54.3824 12.24 54.3488C12.2394 54.3386 12.2388 54.329 12.2388 54.3188V38.513C12.2322 38.5154 12.2262 38.5166 12.2196 38.5184V36.0746C12.2196 35.0024 12.2892 33.9164 12.222 32.8454C12.1746 32.0972 11.5392 31.4984 10.7874 31.4984C10.2672 31.4984 9.8028 31.7774 9.555 32.234C9.312 32.6816 9.3552 33.1724 9.3552 33.6632C9.3576 33.68 9.3588 33.6968 9.3588 33.7142V46.5788C9.3588 47.4302 9.3372 48.2468 9.0666 49.0622C8.835 49.7594 8.4678 50.4104 7.9926 50.9702C7.0302 52.1042 5.6418 52.835 4.161 52.9784C4.0218 52.9916 3.8826 53 3.7434 53.0036C3.6954 53.0048 3.6474 53.0054 3.5988 53.0054H0V48.6854H3.6C3.6222 48.6854 3.6444 48.6848 3.6666 48.6836C4.4088 48.65 5.0046 48.0542 5.0382 47.312C5.0394 47.2874 5.04 47.2622 5.04 47.2376V36.9404C5.04 36.1286 5.04 35.3174 5.04 34.5056C5.04 33.6242 4.965 32.7164 5.1318 31.8458C5.2704 31.124 5.5488 30.4316 5.9478 29.8148C6.7404 28.589 7.9938 27.6914 9.4116 27.3434C9.8616 27.233 10.3248 27.1778 10.788 27.1778C12.2712 27.1778 13.7184 27.7616 14.7864 28.7912C15.8598 29.8262 16.4856 31.2476 16.545 32.7356C16.5594 33.0908 16.56 33.4454 16.56 33.8012V52.0706C16.56 52.5674 16.5702 53.0648 16.5672 53.5616C16.5636 54.167 16.4526 54.8696 16.8726 55.3694C17.1432 55.6916 17.5494 55.8806 17.97 55.8806C18.411 55.8806 18.8346 55.6724 19.104 55.3232C19.4736 54.845 19.38 54.2624 19.38 53.7026V19.19C19.38 17.6078 19.713 16.1138 20.7522 14.8766C21.7014 13.7462 23.073 13.01 24.5412 12.8522C24.7482 12.83 24.9564 12.8186 25.1646 12.8186C26.724 12.8186 28.2396 13.4648 29.3202 14.5898C29.9298 15.2246 30.384 16.0016 30.6492 16.8404C30.927 17.7206 30.9006 18.5612 30.9006 19.4684C30.9006 19.7306 30.9006 19.9934 30.9006 20.2556V45.1754C30.9006 45.6968 30.8958 46.2188 30.9036 46.7402C30.9114 47.3144 31.0206 48.1994 31.554 48.4562C32.0874 48.713 32.7942 48.7682 33.219 48.3428C33.7206 47.84 33.7806 47.2376 33.7806 46.58C33.7806 45.7238 33.7806 42.5162 33.7806 41.66" fill="#233D90"/>
</svg>
