<svg width="375" height="371" viewBox="0 0 375 371" fill="none" xmlns="http://www.w3.org/2000/svg">
<path d="M368.488 46.6084C349.385 14.9949 309.687 -6.72815 272.248 -16.5735C264.841 -18.5155 257.525 -20.0058 250.479 -20.9994C219.227 -25.4253 196.149 -23.8898 178.807 -16.5735C146.29 -2.8442 134.006 31.3436 125.877 85.0866C126.509 84.9963 127.096 84.9059 127.729 84.8156C170.768 78.6284 200.169 83.5059 220.176 100.126C243.299 119.274 254.273 154.004 256.938 216.102H256.576C256.576 221.883 256.531 227.348 256.441 232.541C312.984 224.818 349.069 187.695 368.443 136.617C372.101 126.907 375.217 116.7 377.701 106.132C383.031 83.6414 378.74 63.6797 368.488 46.6084Z" fill="#8CAD6A"/>
<path d="M218.549 102.113C204.549 90.5059 185.717 84.8154 160.516 84.8154C150.716 84.8154 139.967 85.6735 128.135 87.3897C99.2761 91.5446 64.185 104.461 37.9909 125.371C23.1326 137.791 11.3904 152.378 4.7064 168.365C-0.984038 183.179 -1.97761 198.85 1.81601 215.244C8.27421 243.154 19.9712 274.271 40.9265 298.975C60.4817 321.059 86.3145 336.188 119.238 341.201C121.993 341.608 124.793 341.969 127.638 342.24C138.07 343.234 147.645 343.73 156.406 343.73H156.497C168.194 343.73 178.491 342.827 187.568 341.156C215.749 335.962 232.143 323.091 241.718 304.891C252.918 281.858 254.092 250.425 254.092 215.515H254.408C251.699 154.591 240.95 120.674 218.549 102.113Z" fill="#F6B7C1"/>
</svg>
