<svg width="716" height="716" viewBox="0 0 716 716" fill="none" xmlns="http://www.w3.org/2000/svg">
<path d="M663.284 173.326C631.325 120.44 564.915 84.0999 502.283 67.6297C489.893 64.3809 477.653 61.8877 465.867 60.2256C413.585 52.8215 374.978 55.3903 345.967 67.6297C291.569 90.5974 271.019 147.79 257.42 237.697C258.478 237.545 259.46 237.394 260.518 237.243C332.518 226.893 381.703 235.052 415.172 262.855C453.854 294.889 472.213 352.988 476.671 456.872H476.067C476.067 466.543 475.991 475.684 475.84 484.373C570.431 471.454 630.796 409.35 663.208 323.901C669.328 307.657 674.541 290.583 678.696 272.904C687.611 235.279 680.434 201.885 663.284 173.326Z" fill="#91CEC1"/>
<path d="M412.452 266.18C389.031 246.763 357.526 237.243 315.368 237.243C298.973 237.243 280.992 238.679 261.197 241.55C212.92 248.5 154.216 270.108 110.396 305.089C85.5394 325.865 65.896 350.269 54.7143 377.014C45.1948 401.795 43.5326 428.011 49.879 455.437C60.6829 502.128 80.2508 554.183 115.307 595.509C148.021 632.454 191.236 657.764 246.313 666.15C250.922 666.83 255.606 667.435 260.366 667.888C277.819 669.55 293.836 670.381 308.493 670.381H308.644C328.212 670.381 345.437 668.87 360.623 666.075C407.768 657.386 435.193 635.854 451.21 605.407C469.947 566.875 471.911 514.291 471.911 455.89H472.44C467.907 353.971 449.925 297.231 412.452 266.18Z" fill="#91CEC1"/>
</svg>
