<svg width="375" height="303" viewBox="0 0 375 303" fill="none" xmlns="http://www.w3.org/2000/svg">
<path d="M416 63.7727H244.581L403.011 -1.67792L394.439 -22.4312L235.75 43.1275L357.16 -78.2825L341.282 -94.1604L220.11 27.0121L285.897 -131.219L265.162 -139.838L199.227 18.7471V-153H176.773V18.4189L111.322 -140.011L90.5689 -131.439L156.127 27.2495L34.7175 -94.1604L18.8395 -78.2825L140.012 42.89L-18.2191 -22.8975L-26.8382 -2.16156L131.747 63.7727H-40V86.2273H131.419L-27.0109 151.678L-18.4393 172.431L140.25 106.873L18.8395 228.283L34.7175 244.16L155.89 122.988L90.1025 281.219L110.838 289.838L176.773 131.253V303H199.227V131.581L264.678 290.011L285.431 281.439L219.872 122.75L341.282 244.16L357.16 228.283L235.988 107.11L394.219 172.898L402.838 152.162L244.253 86.2273H416V63.7727Z" fill="#233D90"/>
</svg>
