<svg width="766" height="445" viewBox="0 0 766 445" fill="none" xmlns="http://www.w3.org/2000/svg">
<g clip-path="url(#clip0_460_10293)">
<path d="M835 -0.583313H520.732L811.187 -120.576L795.472 -158.624L504.542 -38.4329L727.127 -261.018L698.018 -290.127L475.868 -67.9779L596.479 -358.068L558.463 -373.87L437.583 -83.1304V-398H396.417V-83.7321L276.424 -374.187L238.376 -358.472L358.567 -67.5425L135.982 -290.127L106.872 -261.018L329.022 -38.8683L38.9317 -159.479L23.13 -121.463L313.87 -0.583313H-1V40.5833H313.268L22.8133 160.576L38.5279 198.624L329.457 78.433L106.872 301.018L135.982 330.128L358.132 107.978L237.521 398.068L275.537 413.87L396.417 123.13V438H437.583V123.732L557.576 414.187L595.624 398.472L475.433 107.543L698.018 330.128L727.127 301.018L504.978 78.8683L795.068 199.479L810.87 161.463L520.13 40.5833H835V-0.583313Z" fill="#233D90"/>
</g>
<defs>
<clipPath id="clip0_460_10293">
<rect width="766" height="445" fill="white"/>
</clipPath>
</defs>
</svg>
