<svg width="835" height="836" viewBox="0 0 835 836" fill="none" xmlns="http://www.w3.org/2000/svg">
<path d="M836.568 397.417H522.3L812.755 277.424L797.04 239.376L506.111 359.567L728.696 136.982L699.586 107.873L477.437 330.022L598.047 39.9317L560.031 24.13L439.152 314.87V0H397.985V314.268L277.992 23.8134L239.945 39.528L360.135 330.458L137.55 107.873L108.441 136.982L330.59 359.132L40.5 238.521L24.6983 276.537L315.438 397.417H0.568293V438.583H314.836L24.3816 558.576L40.0962 596.624L331.026 476.433L108.441 699.018L137.55 728.128L359.7 505.978L239.09 796.068L277.105 811.87L397.985 521.13V836H439.152V521.732L559.144 812.187L597.192 796.472L477.001 505.543L699.586 728.128L728.696 699.018L506.546 476.868L796.637 597.479L812.438 559.463L521.699 438.583H836.568V397.417Z" fill="#233D90"/>
</svg>
