<svg width="375" height="305" viewBox="0 0 375 305" fill="none" xmlns="http://www.w3.org/2000/svg">
<path d="M188.454 162.338C136.722 162.338 94.7803 120.397 94.7803 68.6641C94.7803 16.9316 136.722 -25.0096 188.454 -25.0096C240.187 -25.0096 282.128 16.9316 282.128 68.6641C282.128 120.397 240.187 162.338 188.454 162.338ZM188.363 52.1994C179.278 52.1994 171.912 59.5657 171.912 68.6505C171.912 77.7352 179.278 85.1015 188.363 85.1015C197.448 85.1015 204.814 77.7352 204.814 68.6505C204.814 59.5657 197.448 52.1994 188.363 52.1994Z" fill="#233D90"/>
<path d="M188.071 214.189C107.544 214.189 42.2637 148.909 42.2637 68.3815C42.2637 -12.146 107.544 -77.4259 188.071 -77.4259C268.599 -77.4259 333.879 -12.146 333.879 68.3815C333.879 148.909 268.599 214.189 188.071 214.189ZM187.848 -33.6431C131.283 -33.6431 85.4265 12.2138 85.4265 68.7781C85.4265 125.342 131.283 171.199 187.848 171.199C244.412 171.199 290.269 125.342 290.269 68.7781C290.269 12.2138 244.412 -33.6431 187.848 -33.6431Z" fill="#233D90"/>
<path d="M188.455 264.203C80.4634 264.203 -7.08398 176.655 -7.08398 68.6638C-7.08398 -39.3277 80.4634 -126.875 188.455 -126.875C296.446 -126.875 383.994 -39.3277 383.994 68.6638C383.994 176.655 296.446 264.203 188.455 264.203ZM188.455 -86.2922C102.877 -86.2922 33.4989 -16.9143 33.4989 68.6638C33.4989 154.242 102.877 223.62 188.455 223.62C274.033 223.62 343.411 154.242 343.411 68.6638C343.411 -16.9143 274.033 -86.2922 188.455 -86.2922Z" fill="#233D90"/>
<path d="M188.5 304.622C58.0948 304.622 -47.6221 198.905 -47.6221 68.4999C-47.6221 -61.9049 58.0948 -167.622 188.5 -167.622C318.904 -167.622 424.621 -61.9049 424.621 68.4999C424.621 198.905 318.904 304.622 188.5 304.622ZM188.454 -139.789C73.3288 -139.789 -19.9986 -46.4612 -19.9986 68.664C-19.9986 183.789 73.3333 277.117 188.454 277.117C303.575 277.117 396.907 183.789 396.907 68.664C396.907 -46.4612 303.579 -139.789 188.454 -139.789Z" fill="#233D90"/>
</svg>
