<svg width="785" height="527" viewBox="0 0 785 527" fill="none" xmlns="http://www.w3.org/2000/svg">
<path d="M435.278 264.555C340.135 264.555 263 187.42 263 92.2775C263 -2.8649 340.135 -80 435.278 -80C530.42 -80 607.555 -2.8649 607.555 92.2775C607.555 187.42 530.42 264.555 435.278 264.555ZM435.11 61.9969C418.402 61.9969 404.854 75.5444 404.854 92.2524C404.854 108.96 418.402 122.508 435.11 122.508C451.818 122.508 465.365 108.96 465.365 92.2524C465.365 75.5444 451.818 61.9969 435.11 61.9969Z" fill="#233D90"/>
<path d="M434.21 359.788C286.11 359.788 166.053 239.73 166.053 91.6303C166.053 -56.4697 286.11 -176.527 434.21 -176.527C582.31 -176.527 702.368 -56.4697 702.368 91.6303C702.368 239.73 582.31 359.788 434.21 359.788ZM433.8 -96.0055C329.771 -96.0055 245.435 -11.6692 245.435 92.3596C245.435 196.388 329.771 280.725 433.8 280.725C537.828 280.725 622.165 196.388 622.165 92.3596C622.165 -11.6692 537.828 -96.0055 433.8 -96.0055Z" fill="#233D90"/>
<path d="M434.917 451.77C236.307 451.77 75.2969 290.76 75.2969 92.1501C75.2969 -106.459 236.307 -267.47 434.917 -267.47C633.526 -267.47 794.537 -106.459 794.537 92.1501C794.537 290.76 633.526 451.77 434.917 451.77ZM434.917 -192.833C277.528 -192.833 149.934 -65.2385 149.934 92.1501C149.934 249.539 277.528 377.133 434.917 377.133C592.305 377.133 719.9 249.539 719.9 92.1501C719.9 -65.2385 592.305 -192.833 434.917 -192.833Z" fill="#233D90"/>
<path d="M434.999 526.105C195.168 526.105 0.742188 331.679 0.742188 91.8484C0.742188 -147.982 195.168 -342.408 434.999 -342.408C674.829 -342.408 869.255 -147.982 869.255 91.8484C869.255 331.679 674.829 526.105 434.999 526.105ZM434.915 -291.22C223.186 -291.22 51.5452 -119.579 51.5452 92.1501C51.5452 303.88 223.194 475.52 434.915 475.52C646.636 475.52 818.285 303.88 818.285 92.1501C818.285 -119.579 646.644 -291.22 434.915 -291.22Z" fill="#233D90"/>
</svg>
