<svg width="741" height="486" viewBox="0 0 741 486" fill="none" xmlns="http://www.w3.org/2000/svg">
<path d="M347.658 296.021V154.725C347.658 145.791 347.121 136.845 347.739 127.917C348.331 119.322 350.783 111.189 355.081 103.689C362.534 90.6982 374.921 80.804 389.291 76.4449C394.885 74.7456 400.727 73.8959 406.575 73.8959C421.852 73.8959 436.753 79.8928 447.744 90.4766C459.113 101.418 464.596 115.529 465.813 131.002C466.486 139.56 466.214 148.186 466.214 156.775V206.763C466.214 220.641 465.794 234.519 465.745 248.403C465.708 258.309 464.448 268.333 465.473 278.221C466.004 283.374 467.851 288.719 471.951 291.896C477.231 295.984 485.802 295.959 490.593 291.138C493.094 288.62 494.922 284.107 495.237 280.579C496.386 267.699 495.237 255.606 495.237 242.671V96.3196C495.237 85.4094 495.114 74.2838 495.354 63.2936C495.534 54.9755 496.139 46.9715 498.985 39.0783C504.08 24.9911 514.608 13.139 528.002 6.3663C536.271 2.18572 545.496 0.0123166 554.771 0.0123166C570.024 0.0123166 584.893 5.99073 595.885 16.5376C606.815 27.0291 613.601 41.775 614.015 56.9396C614.256 65.6394 613.799 74.3884 613.799 83.0944V371.653C613.799 375.409 613.799 379.158 613.799 382.914C613.799 392.568 614.707 404.513 627.236 405.51C633.158 405.984 638.469 402.653 641.254 397.537C644.557 391.472 643.18 384.367 643.18 377.779C643.18 358.44 643.44 339.107 643.44 319.774V219.385C643.44 210.482 642.933 201.481 644.99 192.744C646.712 185.429 649.868 178.478 654.215 172.346C662.953 160.026 676.334 151.326 691.155 148.284C694.711 147.552 698.336 147.145 701.967 147.059C702.467 147.047 702.968 147.041 703.474 147.041H741V191.371H703.474C703.245 191.371 703.011 191.377 702.782 191.389C695.045 191.734 688.833 197.848 688.481 205.464C688.468 205.717 688.462 205.975 688.462 206.228V229.433C688.462 249.154 687.9 268.875 687.894 288.589C687.894 291.083 687.894 293.576 687.894 296.07V368.574C687.894 383.111 689.098 398.3 683.726 412.129C682.367 415.62 680.675 418.981 678.681 422.146C676.705 425.292 674.426 428.248 671.894 430.969C669.369 433.684 666.584 436.166 663.595 438.37C660.588 440.58 657.371 442.513 653.999 444.12C650.578 445.752 647.003 447.057 643.335 448.005C639.568 448.978 635.708 449.575 631.824 449.797C630.688 449.859 629.558 449.896 628.422 449.896C613.157 449.896 598.275 443.911 587.283 433.346C579.824 426.179 574.414 417.042 571.537 407.129C568.357 396.176 569.326 385.161 569.326 373.925V82.5403C569.326 74.4439 570.882 64.9991 569.332 57.0751C567.937 49.9392 562.262 44.3363 554.759 44.3363C550.06 44.3363 545.564 46.6144 542.792 50.3948C538.105 56.7795 539.932 66.2182 539.932 73.6127C539.932 83.747 539.883 93.8814 539.858 104.016C539.809 124.284 539.76 144.553 539.716 164.816C539.716 186.599 539.611 208.389 539.562 230.178C539.513 250.354 541.884 272.316 538.364 292.203C537.296 298.237 535.326 304.099 532.257 309.406C526.829 318.795 518.814 326.633 509.273 331.842C500.585 336.583 490.748 339.07 480.849 339.07C455.358 339.07 431.201 321.726 424.39 297.037C420.253 282.038 421.747 266.677 421.747 251.377C421.747 231.502 421.556 211.603 421.519 191.759C421.519 180.584 421.482 169.403 421.463 158.228C421.451 152.582 421.445 146.936 421.432 141.29C421.426 136.617 422.056 131.562 420.135 127.154C417.82 121.846 412.38 118.226 406.563 118.226C401.653 118.226 396.979 120.72 394.243 124.783C391.81 128.397 391.613 132.997 391.699 137.208C392.045 153.235 392.113 169.243 392.107 185.269C392.107 190.453 392.107 195.631 392.107 200.816V330.438C392.107 341.084 392.595 352 391.113 362.658C390.02 370.52 386.981 378.173 382.721 384.866C374.403 397.925 360.997 407.419 345.861 410.854C341.526 411.839 337.087 412.332 332.64 412.332C309.651 412.332 288.248 398.614 278.689 377.761C273.224 365.835 273.545 353.047 273.545 340.277V123.847C273.545 112.882 273.563 101.701 273.6 90.649C273.619 85.0031 273.644 79.3571 273.681 73.7112C273.711 68.33 274.459 62.4131 273.742 57.0812C272.785 49.9391 266.128 44.3301 258.978 44.3301C254.661 44.3301 250.499 46.2511 247.696 49.5205C244.108 53.7134 244.213 59.1069 244.232 64.3095C244.256 71.2792 244.232 78.2489 244.232 85.2124C244.232 91.2832 244.213 97.3478 244.213 103.419C244.213 106.454 244.213 109.489 244.225 112.519C244.238 116.274 243.904 120.024 243.904 123.792C243.904 127.923 243.904 132.061 243.904 136.192V403.22C243.904 407.523 243.904 411.827 243.904 416.131C243.904 425.335 244.225 434.288 241.687 443.24C239.625 450.511 236.13 457.364 231.474 463.324C222.094 475.318 208.157 483.383 193.04 485.452C190.354 485.821 187.649 486 184.938 486C180.474 486 176.009 485.501 171.656 484.504C167.907 483.642 164.245 482.411 160.738 480.834C157.286 479.283 153.982 477.399 150.889 475.213C147.795 473.027 144.954 470.583 142.348 467.868C139.743 465.153 137.396 462.197 135.352 459.039C133.29 455.856 131.542 452.475 130.134 448.96C128.702 445.376 127.627 441.658 126.929 437.865C126.281 434.349 125.96 430.778 125.96 427.201C125.96 426.856 125.96 426.511 125.972 426.167C125.966 426.062 125.96 425.963 125.96 425.859V263.666C125.892 263.69 125.83 263.703 125.762 263.721V238.644C125.762 227.641 126.478 216.497 125.787 205.507C125.299 197.829 118.76 191.685 111.022 191.685C105.668 191.685 100.889 194.548 98.3385 199.233C95.8376 203.826 96.2822 208.863 96.2822 213.899C96.3069 214.071 96.3193 214.244 96.3193 214.422V346.434C96.3193 355.171 96.097 363.55 93.312 371.918C90.9284 379.072 87.1492 385.752 82.2586 391.497C72.3537 403.133 58.0645 410.633 42.8243 412.104C41.3917 412.24 39.9591 412.326 38.5265 412.363C38.0325 412.375 37.5385 412.381 37.0383 412.381H0V368.051H37.0506C37.2791 368.051 37.5076 368.045 37.7361 368.033C45.3747 367.688 51.5065 361.574 51.8523 353.958C51.8647 353.705 51.8709 353.447 51.8709 353.194V247.528C51.8709 239.198 51.8709 230.874 51.8709 222.544C51.8709 213.499 51.099 204.183 52.8157 195.25C54.2421 187.843 57.1074 180.738 61.2138 174.408C69.3711 161.83 82.2709 152.619 96.8627 149.048C101.494 147.915 106.261 147.348 111.028 147.348C126.293 147.348 141.188 153.339 152.179 163.905C163.227 174.525 169.667 189.111 170.278 204.38C170.427 208.025 170.433 211.664 170.433 215.315V402.789C170.433 407.887 170.538 412.991 170.507 418.089C170.47 424.301 169.327 431.511 173.65 436.64C176.435 439.946 180.616 441.885 184.944 441.885C189.483 441.885 193.843 439.749 196.615 436.166C200.419 431.258 199.456 425.28 199.456 419.536V65.3808C199.456 49.1449 202.883 33.8141 213.578 21.1184C223.347 9.51867 237.464 1.96407 252.574 0.344789C254.704 0.116981 256.847 0 258.99 0C275.039 0 290.637 6.63105 301.759 18.1754C308.033 24.6894 312.707 32.6627 315.437 41.2701C318.296 50.3024 318.024 58.9283 318.024 68.2377C318.024 70.9282 318.024 73.625 318.024 76.3156V332.033C318.024 337.383 317.975 342.74 318.055 348.09C318.135 353.982 319.259 363.064 324.749 365.699C330.238 368.334 337.513 368.901 341.885 364.535C347.047 359.376 347.664 353.194 347.664 346.446C347.664 337.66 347.664 304.745 347.664 295.959" fill="#E02437"/>
</svg>
