<svg width="96" height="96" viewBox="0 0 96 96" fill="none" xmlns="http://www.w3.org/2000/svg">
  <circle cx="48" cy="48" r="48" fill="#F6B7C1"/>
  <g clip-path="url(#clip0_460_10562)">
  <path d="M45.9284 52.8222V39.9707C45.9284 39.1582 45.8797 38.3445 45.9357 37.5325C45.9894 36.7507 46.2117 36.011 46.6015 35.3289C47.2774 34.1473 48.4008 33.2474 49.7039 32.8509C50.2113 32.6963 50.741 32.6191 51.2713 32.6191C52.6568 32.6191 54.0081 33.1645 55.0049 34.1271C56.0358 35.1223 56.5331 36.4058 56.6434 37.8131C56.7045 38.5915 56.6798 39.376 56.6798 40.1572V44.7039C56.6798 45.9661 56.6417 47.2283 56.6373 48.4911C56.6339 49.3922 56.5197 50.3039 56.6126 51.2032C56.6608 51.6719 56.8282 52.158 57.2001 52.447C57.6789 52.8188 58.4561 52.8166 58.8907 52.3781C59.1175 52.1491 59.2833 51.7386 59.3118 51.4177C59.416 50.2462 59.3118 49.1463 59.3118 47.9698V34.6586C59.3118 33.6663 59.3006 32.6543 59.3225 31.6547C59.3387 30.8982 59.3936 30.1702 59.6517 29.4523C60.1137 28.171 61.0685 27.093 62.2832 26.477C63.033 26.0967 63.8697 25.8991 64.7108 25.8991C66.094 25.8991 67.4425 26.4428 68.4393 27.4021C69.4305 28.3563 70.0459 29.6975 70.0834 31.0768C70.1053 31.8681 70.0638 32.6639 70.0638 33.4557V59.7012C70.0638 60.0428 70.0638 60.3839 70.0638 60.7255C70.0638 61.6035 70.1461 62.6899 71.2824 62.7807C71.8194 62.8238 72.301 62.5208 72.5536 62.0555C72.8532 61.5039 72.7283 60.8576 72.7283 60.2584C72.7283 58.4995 72.7518 56.7411 72.7518 54.9827V45.8519C72.7518 45.0421 72.7059 44.2234 72.8924 43.4287C73.0486 42.7635 73.3348 42.1312 73.729 41.5735C74.5214 40.4529 75.7349 39.6616 77.0789 39.385C77.4015 39.3183 77.7302 39.2814 78.0595 39.2735C78.1049 39.2724 78.1502 39.2719 78.1961 39.2719H81.5993V43.3039H78.1961C78.1754 43.3039 78.1541 43.3044 78.1334 43.3055C77.4317 43.3369 76.8684 43.893 76.8365 44.5857C76.8353 44.6087 76.8348 44.6322 76.8348 44.6551V46.7658C76.8348 48.5595 76.7838 50.3531 76.7833 52.1463C76.7833 52.3731 76.7833 52.5999 76.7833 52.8267V59.4212C76.7833 60.7434 76.8925 62.1249 76.4053 63.3827C76.2821 63.7002 76.1286 64.0059 75.9477 64.2938C75.7685 64.5799 75.5619 64.8488 75.3323 65.0963C75.1033 65.3432 74.8507 65.5689 74.5797 65.7694C74.3069 65.9704 74.0152 66.1463 73.7094 66.2924C73.3992 66.4408 73.0749 66.5595 72.7423 66.6458C72.4007 66.7343 72.0507 66.7886 71.6985 66.8087C71.5954 66.8143 71.4929 66.8177 71.3899 66.8177C70.0056 66.8177 68.656 66.2734 67.6592 65.3124C66.9827 64.6606 66.4921 63.8295 66.2312 62.9279C65.9428 61.9317 66.0307 60.9299 66.0307 59.9079V33.4053C66.0307 32.6689 66.1718 31.8099 66.0313 31.0891C65.9047 30.4401 65.3901 29.9305 64.7097 29.9305C64.2835 29.9305 63.8758 30.1377 63.6244 30.4815C63.1993 31.0623 63.3651 31.9207 63.3651 32.5933C63.3651 33.5151 63.3606 34.4368 63.3584 35.3586C63.3539 37.2021 63.3494 39.0456 63.3455 40.8886C63.3455 42.8699 63.336 44.8517 63.3315 46.8335C63.327 48.6687 63.5421 50.6662 63.2229 52.475C63.126 53.0238 62.9473 53.5569 62.669 54.0396C62.1768 54.8936 61.4499 55.6065 60.5847 56.0803C59.7968 56.5115 58.9047 56.7377 58.007 56.7377C55.6953 56.7377 53.5046 55.1602 52.8869 52.9146C52.5117 51.5504 52.6473 50.1532 52.6473 48.7616C52.6473 46.954 52.6299 45.144 52.6265 43.3391C52.6265 42.3228 52.6232 41.3058 52.6215 40.2894C52.6204 39.7759 52.6198 39.2623 52.6187 38.7488C52.6181 38.3238 52.6753 37.864 52.5011 37.4631C52.2911 36.9803 51.7977 36.6511 51.2702 36.6511C50.825 36.6511 50.4011 36.8779 50.153 37.2475C49.9324 37.5762 49.9145 37.9945 49.9223 38.3775C49.9537 39.8352 49.9598 41.2912 49.9593 42.7489C49.9593 43.2204 49.9593 43.6914 49.9593 44.1629V55.9526C49.9593 56.9208 50.0035 57.9137 49.8691 58.8831C49.77 59.5982 49.4945 60.2943 49.1081 60.903C48.3537 62.0907 47.138 62.9543 45.7654 63.2667C45.3723 63.3563 44.9697 63.4011 44.5665 63.4011C42.4816 63.4011 40.5406 62.1535 39.6737 60.2567C39.1781 59.172 39.2073 58.0089 39.2073 56.8475V37.1623C39.2073 36.165 39.2089 35.148 39.2123 34.1428C39.214 33.6293 39.2162 33.1158 39.2196 32.6023C39.2224 32.1128 39.2901 31.5747 39.2252 31.0897C39.1384 30.4401 38.5347 29.9299 37.8862 29.9299C37.4948 29.9299 37.1173 30.1047 36.8631 30.402C36.5377 30.7834 36.5473 31.2739 36.5489 31.7471C36.5512 32.3811 36.5489 33.015 36.5489 33.6483C36.5489 34.2005 36.5473 34.7521 36.5473 35.3043C36.5473 35.5803 36.5473 35.8564 36.5484 36.1319C36.5495 36.4735 36.5193 36.8146 36.5193 37.1573C36.5193 37.5331 36.5193 37.9094 36.5193 38.2851V62.5723C36.5193 62.9638 36.5193 63.3552 36.5193 63.7467C36.5193 64.5839 36.5484 65.3981 36.3182 66.2123C36.1312 66.8737 35.8142 67.497 35.392 68.0391C34.5413 69.1299 33.2774 69.8635 31.9065 70.0517C31.6629 70.0853 31.4177 70.1015 31.1718 70.1015C30.7669 70.1015 30.3621 70.0562 29.9673 69.9655C29.6273 69.8871 29.2953 69.7751 28.9772 69.6317C28.6641 69.4906 28.3645 69.3192 28.084 69.1204C27.8034 68.9216 27.5458 68.6993 27.3095 68.4524C27.0732 68.2054 26.8604 67.9366 26.675 67.6493C26.488 67.3598 26.3295 67.0523 26.2018 66.7326C26.0719 66.4067 25.9745 66.0684 25.9112 65.7235C25.8524 65.4037 25.8233 65.0789 25.8233 64.7535C25.8233 64.7222 25.8233 64.6908 25.8244 64.6595C25.8238 64.6499 25.8233 64.641 25.8233 64.6315V49.8794C25.8171 49.8816 25.8115 49.8827 25.8053 49.8844V47.6035C25.8053 46.6028 25.8703 45.5892 25.8076 44.5896C25.7633 43.8913 25.1703 43.3324 24.4686 43.3324C23.9831 43.3324 23.5497 43.5928 23.3184 44.019C23.0916 44.4368 23.1319 44.8948 23.1319 45.3529C23.1341 45.3686 23.1353 45.3843 23.1353 45.4005V57.4075C23.1353 58.2021 23.1151 58.9643 22.8625 59.7253C22.6464 60.376 22.3037 60.9836 21.8601 61.5061C20.9619 62.5645 19.6661 63.2466 18.284 63.3804C18.1541 63.3927 18.0241 63.4006 17.8942 63.4039C17.8494 63.4051 17.8046 63.4056 17.7593 63.4056H14.4004V59.3736H17.7604C17.7811 59.3736 17.8018 59.3731 17.8226 59.3719C18.5153 59.3406 19.0714 58.7845 19.1027 58.0918C19.1038 58.0688 19.1044 58.0453 19.1044 58.0224V48.4116C19.1044 47.6539 19.1044 46.8968 19.1044 46.1391C19.1044 45.3165 19.0344 44.4692 19.1901 43.6567C19.3194 42.983 19.5793 42.3367 19.9517 41.7611C20.6914 40.617 21.8613 39.7792 23.1845 39.4544C23.6045 39.3514 24.0369 39.2999 24.4692 39.2999C25.8535 39.2999 27.2042 39.8447 28.201 40.8057C29.2029 41.7717 29.7869 43.0983 29.8424 44.4872C29.8558 44.8187 29.8564 45.1496 29.8564 45.4817V62.5331C29.8564 62.9968 29.8659 63.4611 29.8631 63.9247C29.8597 64.4898 29.7561 65.1455 30.1481 65.612C30.4007 65.9127 30.7798 66.0891 31.1724 66.0891C31.584 66.0891 31.9793 65.8948 32.2308 65.5689C32.5757 65.1226 32.4884 64.5788 32.4884 64.0564V31.8446C32.4884 30.3679 32.7992 28.9735 33.7691 27.8187C34.655 26.7637 35.9352 26.0766 37.3055 25.9293C37.4987 25.9086 37.693 25.8979 37.8873 25.8979C39.3428 25.8979 40.7573 26.5011 41.7659 27.5511C42.3349 28.1435 42.7588 28.8687 43.0063 29.6516C43.2656 30.4731 43.2409 31.2577 43.2409 32.1044C43.2409 32.3491 43.2409 32.5944 43.2409 32.8391V56.0976C43.2409 56.5843 43.2365 57.0715 43.2437 57.5581C43.251 58.094 43.3529 58.92 43.8508 59.1597C44.3486 59.3994 45.0083 59.4509 45.4048 59.0539C45.8729 58.5846 45.9289 58.0223 45.9289 57.4086C45.9289 56.6095 45.9289 53.6157 45.9289 52.8166" fill="#E02437"/>
  </g>
  <defs>
  <clipPath id="clip0_460_10562">
  <rect width="67.2" height="67.2" fill="white" transform="translate(14.4004 14.4006)"/>
  </clipPath>
  </defs>
  </svg>
  