<svg width="40" height="34" viewBox="0 0 40 34" fill="none" xmlns="http://www.w3.org/2000/svg">
    <rect x="0.5" y="0.5" width="39" height="33" rx="3.5" fill="white"/>
    <rect x="0.5" y="0.5" width="39" height="33" rx="3.5" stroke="#DEE2E6"/>
    <path d="M19 26C19 26.5523 19.4477 27 20 27C20.5523 27 21 26.5523 21 26H19ZM20.7071 7.29289C20.3166 6.90237 19.6834 6.90237 19.2929 7.29289L12.9289 13.6569C12.5384 14.0474 12.5384 14.6805 12.9289 15.0711C13.3195 15.4616 13.9526 15.4616 14.3431 15.0711L20 9.41421L25.6569 15.0711C26.0474 15.4616 26.6805 15.4616 27.0711 15.0711C27.4616 14.6805 27.4616 14.0474 27.0711 13.6569L20.7071 7.29289ZM21 26V8H19V26H21Z" fill="#ADB5BD"/>
</svg>    