<svg width="40" height="34" viewBox="0 0 40 34" fill="none" xmlns="http://www.w3.org/2000/svg">
    <rect x="0.5" y="0.5" width="39" height="33" rx="3.5" fill="white"/>
    <rect x="0.5" y="0.5" width="39" height="33" rx="3.5" stroke="#DEE2E6"/>
    <path d="M19.2929 26.7071C19.6834 27.0976 20.3166 27.0976 20.7071 26.7071L27.0711 20.3431C27.4616 19.9526 27.4616 19.3195 27.0711 18.9289C26.6805 18.5384 26.0474 18.5384 25.6569 18.9289L20 24.5858L14.3431 18.9289C13.9526 18.5384 13.3195 18.5384 12.9289 18.9289C12.5384 19.3195 12.5384 19.9526 12.9289 20.3431L19.2929 26.7071ZM21 8C21 7.44772 20.5523 7 20 7C19.4477 7 19 7.44772 19 8H21ZM21 26V8H19V26H21Z" fill="#ADB5BD"/>
</svg>    