<svg width="40" height="34" viewBox="0 0 40 34" fill="none" xmlns="http://www.w3.org/2000/svg">
    <rect x="0.5" y="0.5" width="39" height="33" rx="3.5" fill="white"/>
    <rect x="0.5" y="0.5" width="39" height="33" rx="3.5" stroke="#DEE2E6"/>
    <path d="M7.29289 16.2929C6.90237 16.6834 6.90237 17.3166 7.29289 17.7071L13.6569 24.0711C14.0474 24.4616 14.6805 24.4616 15.0711 24.0711C15.4616 23.6805 15.4616 23.0474 15.0711 22.6569L9.41421 17L15.0711 11.3431C15.4616 10.9526 15.4616 10.3195 15.0711 9.92893C14.6805 9.53841 14.0474 9.53841 13.6569 9.92893L7.29289 16.2929ZM32 18C32.5523 18 33 17.5523 33 17C33 16.4477 32.5523 16 32 16V18ZM8 18H32V16H8V18Z" fill="#ADB5BD"/>
</svg>    