<svg width="98" height="34" viewBox="0 0 98 34" fill="none" xmlns="http://www.w3.org/2000/svg">
    <rect x="0.5" y="0.5" width="97" height="33" rx="3.5" fill="white"/>
    <rect x="0.5" y="0.5" width="97" height="33" rx="3.5" stroke="#DEE2E6"/>
    <g clip-path="url(#clip0_3384_2597)">
    <rect x="8" y="10" width="14" height="14" rx="7" fill="white"/>
    <g clip-path="url(#clip1_3384_2597)">
    <path d="M22 17C22 18.8565 21.2625 20.637 19.9497 21.9497C18.637 23.2625 16.8565 24 15 24C13.1435 24 11.363 23.2625 10.0503 21.9497C8.7375 20.637 8 18.8565 8 17C8 15.1435 8.7375 13.363 10.0503 12.0503C11.363 10.7375 13.1435 10 15 10C16.8565 10 18.637 10.7375 19.9497 12.0503C21.2625 13.363 22 15.1435 22 17ZM12.6848 14.0652C12.6026 13.9831 12.4912 13.9369 12.375 13.9369C12.2588 13.9369 12.1474 13.9831 12.0652 14.0652C11.9831 14.1474 11.9369 14.2588 11.9369 14.375C11.9369 14.4912 11.9831 14.6026 12.0652 14.6848L14.3814 17L12.0652 19.3153C12.0246 19.3559 11.9923 19.4042 11.9703 19.4574C11.9483 19.5105 11.9369 19.5675 11.9369 19.625C11.9369 19.6825 11.9483 19.7395 11.9703 19.7926C11.9923 19.8458 12.0246 19.8941 12.0652 19.9347C12.1474 20.0169 12.2588 20.0631 12.375 20.0631C12.4325 20.0631 12.4895 20.0517 12.5426 20.0297C12.5958 20.0077 12.6441 19.9754 12.6848 19.9347L15 17.6186L17.3153 19.9347C17.3559 19.9754 17.4042 20.0077 17.4574 20.0297C17.5105 20.0517 17.5675 20.0631 17.625 20.0631C17.6825 20.0631 17.7395 20.0517 17.7926 20.0297C17.8458 20.0077 17.8941 19.9754 17.9347 19.9347C17.9754 19.8941 18.0077 19.8458 18.0297 19.7926C18.0517 19.7395 18.0631 19.6825 18.0631 19.625C18.0631 19.5675 18.0517 19.5105 18.0297 19.4574C18.0077 19.4042 17.9754 19.3559 17.9347 19.3153L15.6186 17L17.9347 14.6848C17.9754 14.6441 18.0077 14.5958 18.0297 14.5426C18.0517 14.4895 18.0631 14.4325 18.0631 14.375C18.0631 14.3175 18.0517 14.2605 18.0297 14.2074C18.0077 14.1542 17.9754 14.1059 17.9347 14.0652C17.8941 14.0246 17.8458 13.9923 17.7926 13.9703C17.7395 13.9483 17.6825 13.9369 17.625 13.9369C17.5675 13.9369 17.5105 13.9483 17.4574 13.9703C17.4042 13.9923 17.3559 14.0246 17.3153 14.0652L15 16.3814L12.6848 14.0652Z" fill="#ADB5BD"/>
    </g>
    </g>
    <path d="M28.924 12.432H30.136L34.648 19.38H34.672V12.432H35.752V21H34.504L30.028 14.124H30.004V21H28.924V12.432ZM42.9242 20.976C42.7482 21.08 42.5042 21.132 42.1922 21.132C41.9282 21.132 41.7162 21.06 41.5562 20.916C41.4042 20.764 41.3282 20.52 41.3282 20.184C41.0482 20.52 40.7202 20.764 40.3442 20.916C39.9762 21.06 39.5762 21.132 39.1442 21.132C38.8642 21.132 38.5962 21.1 38.3402 21.036C38.0922 20.972 37.8762 20.872 37.6922 20.736C37.5082 20.6 37.3602 20.424 37.2482 20.208C37.1442 19.984 37.0922 19.716 37.0922 19.404C37.0922 19.052 37.1522 18.764 37.2722 18.54C37.3922 18.316 37.5482 18.136 37.7402 18C37.9402 17.856 38.1642 17.748 38.4122 17.676C38.6682 17.604 38.9282 17.544 39.1922 17.496C39.4722 17.44 39.7362 17.4 39.9842 17.376C40.2402 17.344 40.4642 17.304 40.6562 17.256C40.8482 17.2 41.0002 17.124 41.1122 17.028C41.2242 16.924 41.2802 16.776 41.2802 16.584C41.2802 16.36 41.2362 16.18 41.1482 16.044C41.0682 15.908 40.9602 15.804 40.8242 15.732C40.6962 15.66 40.5482 15.612 40.3802 15.588C40.2202 15.564 40.0602 15.552 39.9002 15.552C39.4682 15.552 39.1082 15.636 38.8202 15.804C38.5322 15.964 38.3762 16.272 38.3522 16.728H37.3322C37.3482 16.344 37.4282 16.02 37.5722 15.756C37.7162 15.492 37.9082 15.28 38.1482 15.12C38.3882 14.952 38.6602 14.832 38.9642 14.76C39.2762 14.688 39.6082 14.652 39.9602 14.652C40.2402 14.652 40.5162 14.672 40.7882 14.712C41.0682 14.752 41.3202 14.836 41.5442 14.964C41.7682 15.084 41.9482 15.256 42.0842 15.48C42.2202 15.704 42.2882 15.996 42.2882 16.356V19.548C42.2882 19.788 42.3002 19.964 42.3242 20.076C42.3562 20.188 42.4522 20.244 42.6122 20.244C42.7002 20.244 42.8042 20.224 42.9242 20.184V20.976ZM41.2682 17.796C41.1402 17.892 40.9722 17.964 40.7642 18.012C40.5562 18.052 40.3362 18.088 40.1042 18.12C39.8802 18.144 39.6522 18.176 39.4202 18.216C39.1882 18.248 38.9802 18.304 38.7962 18.384C38.6122 18.464 38.4602 18.58 38.3402 18.732C38.2282 18.876 38.1722 19.076 38.1722 19.332C38.1722 19.5 38.2042 19.644 38.2682 19.764C38.3402 19.876 38.4282 19.968 38.5322 20.04C38.6442 20.112 38.7722 20.164 38.9162 20.196C39.0602 20.228 39.2122 20.244 39.3722 20.244C39.7082 20.244 39.9962 20.2 40.2362 20.112C40.4762 20.016 40.6722 19.9 40.8242 19.764C40.9762 19.62 41.0882 19.468 41.1602 19.308C41.2322 19.14 41.2682 18.984 41.2682 18.84V17.796ZM40.8482 12.804C41.0242 12.804 41.1602 12.748 41.2562 12.636C41.3602 12.516 41.4242 12.352 41.4482 12.144H42.0362C41.9562 12.704 41.8042 13.088 41.5802 13.296C41.3642 13.496 41.1002 13.596 40.7882 13.596C40.6282 13.596 40.4762 13.564 40.3322 13.5C40.1882 13.436 40.0442 13.364 39.9002 13.284C39.7562 13.204 39.6122 13.132 39.4682 13.068C39.3322 13.004 39.1922 12.972 39.0482 12.972C38.6802 12.972 38.4602 13.176 38.3882 13.584H37.8242C37.9042 13.096 38.0442 12.74 38.2442 12.516C38.4522 12.292 38.7242 12.18 39.0602 12.18C39.2202 12.18 39.3762 12.212 39.5282 12.276C39.6802 12.34 39.8282 12.412 39.9722 12.492C40.1162 12.572 40.2602 12.644 40.4042 12.708C40.5562 12.772 40.7042 12.804 40.8482 12.804ZM44.6175 17.904C44.6175 18.28 44.6655 18.616 44.7615 18.912C44.8655 19.2 45.0055 19.444 45.1815 19.644C45.3575 19.836 45.5615 19.984 45.7935 20.088C46.0335 20.192 46.2855 20.244 46.5495 20.244C46.8135 20.244 47.0615 20.192 47.2935 20.088C47.5335 19.984 47.7415 19.836 47.9175 19.644C48.0935 19.444 48.2295 19.2 48.3255 18.912C48.4295 18.616 48.4815 18.28 48.4815 17.904C48.4815 17.528 48.4295 17.196 48.3255 16.908C48.2295 16.612 48.0935 16.364 47.9175 16.164C47.7415 15.964 47.5335 15.812 47.2935 15.708C47.0615 15.604 46.8135 15.552 46.5495 15.552C46.2855 15.552 46.0335 15.604 45.7935 15.708C45.5615 15.812 45.3575 15.964 45.1815 16.164C45.0055 16.364 44.8655 16.612 44.7615 16.908C44.6655 17.196 44.6175 17.528 44.6175 17.904ZM43.5375 17.904C43.5375 17.448 43.6015 17.024 43.7295 16.632C43.8575 16.232 44.0495 15.888 44.3055 15.6C44.5615 15.304 44.8775 15.072 45.2535 14.904C45.6295 14.736 46.0615 14.652 46.5495 14.652C47.0455 14.652 47.4775 14.736 47.8455 14.904C48.2215 15.072 48.5375 15.304 48.7935 15.6C49.0495 15.888 49.2415 16.232 49.3695 16.632C49.4975 17.024 49.5615 17.448 49.5615 17.904C49.5615 18.36 49.4975 18.784 49.3695 19.176C49.2415 19.568 49.0495 19.912 48.7935 20.208C48.5375 20.496 48.2215 20.724 47.8455 20.892C47.4775 21.052 47.0455 21.132 46.5495 21.132C46.0615 21.132 45.6295 21.052 45.2535 20.892C44.8775 20.724 44.5615 20.496 44.3055 20.208C44.0495 19.912 43.8575 19.568 43.7295 19.176C43.6015 18.784 43.5375 18.36 43.5375 17.904ZM59.5999 20.976C59.4239 21.08 59.1799 21.132 58.8679 21.132C58.6039 21.132 58.3919 21.06 58.2319 20.916C58.0799 20.764 58.0039 20.52 58.0039 20.184C57.7239 20.52 57.3959 20.764 57.0199 20.916C56.6519 21.06 56.2519 21.132 55.8199 21.132C55.5399 21.132 55.2719 21.1 55.0159 21.036C54.7679 20.972 54.5519 20.872 54.3679 20.736C54.1839 20.6 54.0359 20.424 53.9239 20.208C53.8199 19.984 53.7679 19.716 53.7679 19.404C53.7679 19.052 53.8279 18.764 53.9479 18.54C54.0679 18.316 54.2239 18.136 54.4159 18C54.6159 17.856 54.8399 17.748 55.0879 17.676C55.3439 17.604 55.6039 17.544 55.8679 17.496C56.1479 17.44 56.4119 17.4 56.6599 17.376C56.9159 17.344 57.1399 17.304 57.3319 17.256C57.5239 17.2 57.6759 17.124 57.7879 17.028C57.8999 16.924 57.9559 16.776 57.9559 16.584C57.9559 16.36 57.9119 16.18 57.8239 16.044C57.7439 15.908 57.6359 15.804 57.4999 15.732C57.3719 15.66 57.2239 15.612 57.0559 15.588C56.8959 15.564 56.7359 15.552 56.5759 15.552C56.1439 15.552 55.7839 15.636 55.4959 15.804C55.2079 15.964 55.0519 16.272 55.0279 16.728H54.0079C54.0239 16.344 54.1039 16.02 54.2479 15.756C54.3919 15.492 54.5839 15.28 54.8239 15.12C55.0639 14.952 55.3359 14.832 55.6399 14.76C55.9519 14.688 56.2839 14.652 56.6359 14.652C56.9159 14.652 57.1919 14.672 57.4639 14.712C57.7439 14.752 57.9959 14.836 58.2199 14.964C58.4439 15.084 58.6239 15.256 58.7599 15.48C58.8959 15.704 58.9639 15.996 58.9639 16.356V19.548C58.9639 19.788 58.9759 19.964 58.9999 20.076C59.0319 20.188 59.1279 20.244 59.2879 20.244C59.3759 20.244 59.4799 20.224 59.5999 20.184V20.976ZM57.9439 17.796C57.8159 17.892 57.6479 17.964 57.4399 18.012C57.2319 18.052 57.0119 18.088 56.7799 18.12C56.5559 18.144 56.3279 18.176 56.0959 18.216C55.8639 18.248 55.6559 18.304 55.4719 18.384C55.2879 18.464 55.1359 18.58 55.0159 18.732C54.9039 18.876 54.8479 19.076 54.8479 19.332C54.8479 19.5 54.8799 19.644 54.9439 19.764C55.0159 19.876 55.1039 19.968 55.2079 20.04C55.3199 20.112 55.4479 20.164 55.5919 20.196C55.7359 20.228 55.8879 20.244 56.0479 20.244C56.3839 20.244 56.6719 20.2 56.9119 20.112C57.1519 20.016 57.3479 19.9 57.4999 19.764C57.6519 19.62 57.7639 19.468 57.8359 19.308C57.9079 19.14 57.9439 18.984 57.9439 18.84V17.796ZM60.5853 14.796H61.6053V15.636H61.6293C61.7973 15.292 62.0613 15.044 62.4213 14.892C62.7813 14.732 63.1773 14.652 63.6093 14.652C64.0893 14.652 64.5053 14.74 64.8573 14.916C65.2173 15.092 65.5133 15.332 65.7453 15.636C65.9853 15.932 66.1653 16.276 66.2853 16.668C66.4053 17.06 66.4653 17.476 66.4653 17.916C66.4653 18.356 66.4053 18.772 66.2853 19.164C66.1733 19.556 65.9973 19.9 65.7573 20.196C65.5253 20.484 65.2293 20.712 64.8693 20.88C64.5173 21.048 64.1053 21.132 63.6333 21.132C63.4813 21.132 63.3093 21.116 63.1173 21.084C62.9333 21.052 62.7493 21 62.5653 20.928C62.3813 20.856 62.2053 20.76 62.0373 20.64C61.8773 20.512 61.7413 20.356 61.6293 20.172H61.6053V23.364H60.5853V14.796ZM65.3853 17.844C65.3853 17.556 65.3453 17.276 65.2653 17.004C65.1933 16.724 65.0773 16.476 64.9173 16.26C64.7653 16.044 64.5653 15.872 64.3173 15.744C64.0773 15.616 63.7933 15.552 63.4653 15.552C63.1213 15.552 62.8293 15.62 62.5893 15.756C62.3493 15.892 62.1533 16.072 62.0013 16.296C61.8493 16.512 61.7373 16.76 61.6653 17.04C61.6013 17.32 61.5693 17.604 61.5693 17.892C61.5693 18.196 61.6053 18.492 61.6773 18.78C61.7493 19.06 61.8613 19.308 62.0133 19.524C62.1733 19.74 62.3773 19.916 62.6253 20.052C62.8733 20.18 63.1733 20.244 63.5253 20.244C63.8773 20.244 64.1693 20.176 64.4013 20.04C64.6413 19.904 64.8333 19.724 64.9773 19.5C65.1213 19.276 65.2253 19.02 65.2893 18.732C65.3533 18.444 65.3853 18.148 65.3853 17.844ZM67.7225 12.432H68.7425V21H67.7225V12.432ZM71.4027 13.68H70.3827V12.432H71.4027V13.68ZM70.3827 14.796H71.4027V21H70.3827V14.796ZM77.1948 16.788C77.1148 16.396 76.9468 16.092 76.6908 15.876C76.4348 15.66 76.0908 15.552 75.6588 15.552C75.2908 15.552 74.9828 15.62 74.7348 15.756C74.4868 15.892 74.2868 16.072 74.1348 16.296C73.9908 16.52 73.8868 16.78 73.8228 17.076C73.7588 17.364 73.7268 17.664 73.7268 17.976C73.7268 18.264 73.7588 18.544 73.8228 18.816C73.8948 19.088 74.0028 19.332 74.1468 19.548C74.2908 19.756 74.4788 19.924 74.7108 20.052C74.9428 20.18 75.2188 20.244 75.5388 20.244C76.0428 20.244 76.4348 20.112 76.7148 19.848C77.0028 19.584 77.1788 19.212 77.2428 18.732H78.2868C78.1748 19.5 77.8868 20.092 77.4228 20.508C76.9668 20.924 76.3428 21.132 75.5508 21.132C75.0788 21.132 74.6588 21.056 74.2908 20.904C73.9308 20.752 73.6268 20.536 73.3788 20.256C73.1388 19.976 72.9548 19.644 72.8268 19.26C72.7068 18.868 72.6468 18.44 72.6468 17.976C72.6468 17.512 72.7068 17.08 72.8268 16.68C72.9468 16.272 73.1268 15.92 73.3668 15.624C73.6148 15.32 73.9228 15.084 74.2908 14.916C74.6588 14.74 75.0868 14.652 75.5748 14.652C75.9268 14.652 76.2548 14.696 76.5588 14.784C76.8708 14.864 77.1428 14.992 77.3748 15.168C77.6148 15.344 77.8108 15.568 77.9628 15.84C78.1148 16.104 78.2108 16.42 78.2508 16.788H77.1948ZM84.9242 20.976C84.7482 21.08 84.5042 21.132 84.1922 21.132C83.9282 21.132 83.7162 21.06 83.5562 20.916C83.4042 20.764 83.3282 20.52 83.3282 20.184C83.0482 20.52 82.7202 20.764 82.3442 20.916C81.9762 21.06 81.5762 21.132 81.1442 21.132C80.8642 21.132 80.5962 21.1 80.3402 21.036C80.0922 20.972 79.8762 20.872 79.6922 20.736C79.5082 20.6 79.3602 20.424 79.2482 20.208C79.1442 19.984 79.0922 19.716 79.0922 19.404C79.0922 19.052 79.1522 18.764 79.2722 18.54C79.3922 18.316 79.5482 18.136 79.7402 18C79.9402 17.856 80.1642 17.748 80.4122 17.676C80.6682 17.604 80.9282 17.544 81.1922 17.496C81.4722 17.44 81.7362 17.4 81.9842 17.376C82.2402 17.344 82.4642 17.304 82.6562 17.256C82.8482 17.2 83.0002 17.124 83.1122 17.028C83.2242 16.924 83.2802 16.776 83.2802 16.584C83.2802 16.36 83.2362 16.18 83.1482 16.044C83.0682 15.908 82.9602 15.804 82.8242 15.732C82.6962 15.66 82.5482 15.612 82.3802 15.588C82.2202 15.564 82.0602 15.552 81.9002 15.552C81.4682 15.552 81.1082 15.636 80.8202 15.804C80.5322 15.964 80.3762 16.272 80.3522 16.728H79.3322C79.3482 16.344 79.4282 16.02 79.5722 15.756C79.7162 15.492 79.9082 15.28 80.1482 15.12C80.3882 14.952 80.6602 14.832 80.9642 14.76C81.2762 14.688 81.6082 14.652 81.9602 14.652C82.2402 14.652 82.5162 14.672 82.7882 14.712C83.0682 14.752 83.3202 14.836 83.5442 14.964C83.7682 15.084 83.9482 15.256 84.0842 15.48C84.2202 15.704 84.2882 15.996 84.2882 16.356V19.548C84.2882 19.788 84.3002 19.964 84.3242 20.076C84.3562 20.188 84.4522 20.244 84.6122 20.244C84.7002 20.244 84.8042 20.224 84.9242 20.184V20.976ZM83.2682 17.796C83.1402 17.892 82.9722 17.964 82.7642 18.012C82.5562 18.052 82.3362 18.088 82.1042 18.12C81.8802 18.144 81.6522 18.176 81.4202 18.216C81.1882 18.248 80.9802 18.304 80.7962 18.384C80.6122 18.464 80.4602 18.58 80.3402 18.732C80.2282 18.876 80.1722 19.076 80.1722 19.332C80.1722 19.5 80.2042 19.644 80.2682 19.764C80.3402 19.876 80.4282 19.968 80.5322 20.04C80.6442 20.112 80.7722 20.164 80.9162 20.196C81.0602 20.228 81.2122 20.244 81.3722 20.244C81.7082 20.244 81.9962 20.2 82.2362 20.112C82.4762 20.016 82.6722 19.9 82.8242 19.764C82.9762 19.62 83.0882 19.468 83.1602 19.308C83.2322 19.14 83.2682 18.984 83.2682 18.84V17.796ZM85.8375 14.796H86.7975V16.104H86.8215C87.0695 15.6 87.3735 15.228 87.7335 14.988C88.0935 14.748 88.5495 14.636 89.1015 14.652V15.732C88.6935 15.732 88.3455 15.788 88.0575 15.9C87.7695 16.012 87.5375 16.176 87.3615 16.392C87.1855 16.608 87.0575 16.872 86.9775 17.184C86.8975 17.488 86.8575 17.84 86.8575 18.24V21H85.8375V14.796Z" fill="#6C757D"/>
    <defs>
    <clipPath id="clip0_3384_2597">
    <rect x="8" y="10" width="14" height="14" rx="7" fill="white"/>
    </clipPath>
    <clipPath id="clip1_3384_2597">
    <rect width="14" height="14" fill="white" transform="translate(8 10)"/>
    </clipPath>
    </defs>
</svg>    