<svg width="40" height="34" viewBox="0 0 40 34" fill="none" xmlns="http://www.w3.org/2000/svg">
    <rect x="0.5" y="0.5" width="39" height="33" rx="3.5" fill="white"/>
    <rect x="0.5" y="0.5" width="39" height="33" rx="3.5" stroke="#DEE2E6"/>
    <path d="M8 16C7.44772 16 7 16.4477 7 17C7 17.5523 7.44772 18 8 18V16ZM32.7071 17.7071C33.0976 17.3166 33.0976 16.6834 32.7071 16.2929L26.3431 9.92893C25.9526 9.53841 25.3195 9.53841 24.9289 9.92893C24.5384 10.3195 24.5384 10.9526 24.9289 11.3431L30.5858 17L24.9289 22.6569C24.5384 23.0474 24.5384 23.6805 24.9289 24.0711C25.3195 24.4616 25.9526 24.4616 26.3431 24.0711L32.7071 17.7071ZM8 18H32V16H8V18Z" fill="#ADB5BD"/>
    <rect x="21" y="6" width="1" height="9" fill="#D9D9D9"/>
    <rect x="21" y="19" width="1" height="9" fill="#D9D9D9"/>
</svg>    