<svg width="168" height="80" viewBox="0 0 168 80" fill="none" xmlns="http://www.w3.org/2000/svg">
<rect x="0.5" y="0.5" width="167" height="79" rx="7.5" fill="#F8F9FA"/>
<rect x="0.5" y="0.5" width="167" height="79" rx="7.5" stroke="#CED4DA"/>
<rect x="26.5" y="21.5" width="16" height="16" rx="8" fill="#CED4DA"/>
<rect x="24" y="43.5" width="21" height="6" rx="3" fill="#CED4DA"/>
<rect x="24" y="52.5" width="21" height="6" rx="3" fill="#CED4DA"/>
<rect x="59.5" y="21.5" width="16" height="16" rx="8" fill="#CED4DA"/>
<rect x="57" y="43.5" width="21" height="6" rx="3" fill="#CED4DA"/>
<rect x="57" y="52.5" width="21" height="6" rx="3" fill="#CED4DA"/>
<rect x="92.5" y="21.5" width="16" height="16" rx="8" fill="#CED4DA"/>
<rect x="90" y="43.5" width="21" height="6" rx="3" fill="#CED4DA"/>
<rect x="90" y="52.5" width="21" height="6" rx="3" fill="#CED4DA"/>
<rect x="125.5" y="21.5" width="16" height="16" rx="8" fill="#CED4DA"/>
<rect x="123" y="43.5" width="21" height="6" rx="3" fill="#CED4DA"/>
<rect x="123" y="52.5" width="21" height="6" rx="3" fill="#CED4DA"/>
</svg>
