<svg width="12" height="14" viewBox="0 0 12 14" fill="none" xmlns="http://www.w3.org/2000/svg">
    <g clip-path="url(#clip0_3354_115841)">
    <rect width="12" height="12" transform="translate(0 2)" fill="white" fill-opacity="0.01"/>
    <path d="M6.00195 14.0001C7.59325 14.0001 9.11938 13.368 10.2446 12.2428C11.3698 11.1175 12.002 9.59142 12.002 8.00012C12.002 6.40882 11.3698 4.8827 10.2446 3.75748C9.11938 2.63226 7.59325 2.00012 6.00195 2.00012C4.41065 2.00012 2.88453 2.63226 1.75931 3.75748C0.634094 4.8827 0.00195313 6.40882 0.00195312 8.00012C0.00195313 9.59142 0.634094 11.1175 1.75931 12.2428C2.88453 13.368 4.41065 14.0001 6.00195 14.0001ZM6.69945 6.94112L5.94945 10.4699C5.89695 10.7249 5.9712 10.8696 6.17745 10.8696C6.32295 10.8696 6.5427 10.8171 6.69195 10.6851L6.62595 10.9971C6.4107 11.2566 5.93595 11.4456 5.5272 11.4456C4.99995 11.4456 4.7757 11.1291 4.9212 10.4564L5.4747 7.85537C5.5227 7.63562 5.4792 7.55612 5.25945 7.50287L4.9212 7.44212L4.9827 7.15637L6.7002 6.94112H6.69945ZM6.00195 6.12512C5.80304 6.12512 5.61228 6.0461 5.47162 5.90545C5.33097 5.7648 5.25195 5.57403 5.25195 5.37512C5.25195 5.17621 5.33097 4.98544 5.47162 4.84479C5.61228 4.70414 5.80304 4.62512 6.00195 4.62512C6.20087 4.62512 6.39163 4.70414 6.53228 4.84479C6.67294 4.98544 6.75195 5.17621 6.75195 5.37512C6.75195 5.57403 6.67294 5.7648 6.53228 5.90545C6.39163 6.0461 6.20087 6.12512 6.00195 6.12512Z" fill="#ADB5BD"/>
    </g>
    <defs>
    <clipPath id="clip0_3354_115841">
    <rect width="12" height="12" fill="white" transform="translate(0 2)"/>
    </clipPath>
    </defs>
</svg>