<svg width="40" height="34" viewBox="0 0 40 34" fill="none" xmlns="http://www.w3.org/2000/svg">
    <rect x="0.5" y="0.5" width="39" height="33" rx="3.5" fill="white"/>
    <rect x="0.5" y="0.5" width="39" height="33" rx="3.5" stroke="#DEE2E6"/>
    <path d="M8 8C7.44772 8 7 8.44772 7 9C7 9.55228 7.44772 10 8 10V8ZM26.0001 22.0001L26.0001 23.0001L26.0001 22.0001ZM16.9179 21.2931C16.5274 21.6837 16.5274 22.3168 16.9179 22.7074L23.282 29.0712C23.6725 29.4617 24.3057 29.4617 24.6962 29.0712C25.0867 28.6806 25.0867 28.0475 24.6962 27.657L19.0392 22.0002L24.696 16.3432C25.0865 15.9527 25.0865 15.3196 24.6959 14.929C24.3054 14.5385 23.6722 14.5385 23.2817 14.9291L16.9179 21.2931ZM8 10H26V8H8V10ZM29 13V18.0001H31V13H29ZM26.0001 21.0001L17.625 21.0002L17.625 23.0002L26.0001 23.0001L26.0001 21.0001ZM29 18.0001C29 19.6569 27.6569 21 26.0001 21.0001L26.0001 23.0001C28.7615 23 31 20.7615 31 18.0001H29ZM26 10C27.6569 10 29 11.3431 29 13H31C31 10.2386 28.7614 8 26 8V10Z" fill="#ADB5BD"/>
    <rect x="34" y="5" width="1" height="23" fill="#D9D9D9"/>
</svg>