<svg width="88" height="34" viewBox="0 0 88 34" fill="none" xmlns="http://www.w3.org/2000/svg">
    <rect x="0.5" y="0.5" width="87" height="33" rx="3.5" fill="white"/>
    <rect x="0.5" y="0.5" width="87" height="33" rx="3.5" stroke="#DEE2E6"/>
    <path d="M21.5 30C20.9477 30 20.5 29.5523 20.5 29C20.5 28.4477 20.9477 28 21.5 28V30ZM26.2501 21.5002L26.2501 20.5002L26.2501 20.5002L26.2501 21.5002ZM12 21.5001L12 20.5001L12 20.5001L12 21.5001ZM20.7071 10.2929C21.0976 10.6834 21.0976 11.3166 20.7071 11.7071L14.3431 18.0711C13.9526 18.4616 13.3195 18.4616 12.9289 18.0711C12.5384 17.6805 12.5384 17.0474 12.9289 16.6569L18.5858 11L12.9289 5.34315C12.5384 4.95262 12.5384 4.31946 12.9289 3.92893C13.3195 3.53841 13.9526 3.53841 14.3431 3.92893L20.7071 10.2929ZM21.5 28H26.2501V30H21.5V28ZM26.2501 22.5002L12 22.5001L12 20.5001L26.2501 20.5002L26.2501 22.5002ZM7 17.5001V15H9V17.5001H7ZM12 10H20V12H12V10ZM7 15C7 12.2386 9.23858 10 12 10V12C10.3431 12 9 13.3431 9 15H7ZM12 22.5001C9.23856 22.5001 7 20.2616 7 17.5001H9C9 19.157 10.3431 20.5001 12 20.5001L12 22.5001ZM29 25.2501C29 23.7314 27.7688 22.5002 26.2501 22.5002L26.2501 20.5002C28.8734 20.5002 31 22.6268 31 25.2501H29ZM26.2501 28C27.7688 28 29 26.7688 29 25.2501H31C31 27.8734 28.8734 30 26.2501 30V28Z" fill="#ADB5BD"/>
    <path d="M36.936 12.432H40.968C41.784 12.432 42.42 12.632 42.876 13.032C43.34 13.432 43.572 13.98 43.572 14.676C43.572 15.196 43.452 15.652 43.212 16.044C42.98 16.436 42.604 16.704 42.084 16.848V16.872C42.332 16.92 42.532 17 42.684 17.112C42.844 17.224 42.968 17.36 43.056 17.52C43.152 17.672 43.22 17.844 43.26 18.036C43.308 18.228 43.344 18.428 43.368 18.636C43.384 18.844 43.396 19.056 43.404 19.272C43.412 19.488 43.432 19.7 43.464 19.908C43.496 20.116 43.54 20.316 43.596 20.508C43.66 20.692 43.752 20.856 43.872 21H42.6C42.52 20.912 42.464 20.792 42.432 20.64C42.408 20.488 42.392 20.32 42.384 20.136C42.376 19.944 42.368 19.74 42.36 19.524C42.352 19.308 42.328 19.096 42.288 18.888C42.256 18.68 42.216 18.484 42.168 18.3C42.12 18.108 42.044 17.944 41.94 17.808C41.836 17.664 41.7 17.552 41.532 17.472C41.364 17.384 41.14 17.34 40.86 17.34H38.076V21H36.936V12.432ZM40.452 16.38C40.716 16.38 40.968 16.36 41.208 16.32C41.448 16.28 41.656 16.204 41.832 16.092C42.016 15.972 42.16 15.816 42.264 15.624C42.376 15.424 42.432 15.168 42.432 14.856C42.432 14.424 42.312 14.072 42.072 13.8C41.832 13.528 41.444 13.392 40.908 13.392H38.076V16.38H40.452ZM49.2908 17.304C49.2748 17.064 49.2188 16.836 49.1228 16.62C49.0348 16.404 48.9108 16.22 48.7508 16.068C48.5988 15.908 48.4148 15.784 48.1988 15.696C47.9908 15.6 47.7588 15.552 47.5028 15.552C47.2388 15.552 46.9988 15.6 46.7828 15.696C46.5748 15.784 46.3948 15.908 46.2428 16.068C46.0908 16.228 45.9708 16.416 45.8828 16.632C45.7948 16.84 45.7428 17.064 45.7268 17.304H49.2908ZM50.2748 19.032C50.1388 19.728 49.8388 20.252 49.3748 20.604C48.9108 20.956 48.3268 21.132 47.6228 21.132C47.1268 21.132 46.6948 21.052 46.3268 20.892C45.9668 20.732 45.6628 20.508 45.4148 20.22C45.1668 19.932 44.9788 19.588 44.8508 19.188C44.7308 18.788 44.6628 18.352 44.6468 17.88C44.6468 17.408 44.7188 16.976 44.8628 16.584C45.0068 16.192 45.2068 15.852 45.4628 15.564C45.7268 15.276 46.0348 15.052 46.3868 14.892C46.7468 14.732 47.1388 14.652 47.5628 14.652C48.1148 14.652 48.5708 14.768 48.9308 15C49.2988 15.224 49.5908 15.512 49.8068 15.864C50.0308 16.216 50.1828 16.6 50.2628 17.016C50.3508 17.432 50.3868 17.828 50.3708 18.204H45.7268C45.7188 18.476 45.7508 18.736 45.8228 18.984C45.8948 19.224 46.0108 19.44 46.1708 19.632C46.3308 19.816 46.5348 19.964 46.7828 20.076C47.0308 20.188 47.3228 20.244 47.6588 20.244C48.0908 20.244 48.4428 20.144 48.7148 19.944C48.9948 19.744 49.1788 19.44 49.2668 19.032H50.2748ZM54.2242 21H53.1322L50.8282 14.796H51.9682L53.7082 19.968H53.7322L55.4242 14.796H56.4922L54.2242 21ZM61.7362 17.304C61.7202 17.064 61.6642 16.836 61.5682 16.62C61.4802 16.404 61.3562 16.22 61.1962 16.068C61.0442 15.908 60.8602 15.784 60.6442 15.696C60.4362 15.6 60.2042 15.552 59.9482 15.552C59.6842 15.552 59.4442 15.6 59.2282 15.696C59.0202 15.784 58.8402 15.908 58.6882 16.068C58.5362 16.228 58.4162 16.416 58.3282 16.632C58.2402 16.84 58.1882 17.064 58.1722 17.304H61.7362ZM62.7202 19.032C62.5842 19.728 62.2842 20.252 61.8202 20.604C61.3562 20.956 60.7722 21.132 60.0682 21.132C59.5722 21.132 59.1402 21.052 58.7722 20.892C58.4122 20.732 58.1082 20.508 57.8602 20.22C57.6122 19.932 57.4242 19.588 57.2962 19.188C57.1762 18.788 57.1082 18.352 57.0922 17.88C57.0922 17.408 57.1642 16.976 57.3082 16.584C57.4522 16.192 57.6522 15.852 57.9082 15.564C58.1722 15.276 58.4802 15.052 58.8322 14.892C59.1922 14.732 59.5842 14.652 60.0082 14.652C60.5602 14.652 61.0162 14.768 61.3762 15C61.7442 15.224 62.0362 15.512 62.2522 15.864C62.4762 16.216 62.6282 16.6 62.7082 17.016C62.7962 17.432 62.8322 17.828 62.8162 18.204H58.1722C58.1642 18.476 58.1962 18.736 58.2682 18.984C58.3402 19.224 58.4562 19.44 58.6162 19.632C58.7762 19.816 58.9802 19.964 59.2282 20.076C59.4762 20.188 59.7682 20.244 60.1042 20.244C60.5362 20.244 60.8882 20.144 61.1602 19.944C61.4402 19.744 61.6242 19.44 61.7122 19.032H62.7202ZM63.8375 14.796H64.7975V16.104H64.8215C65.0695 15.6 65.3735 15.228 65.7335 14.988C66.0935 14.748 66.5495 14.636 67.1015 14.652V15.732C66.6935 15.732 66.3455 15.788 66.0575 15.9C65.7695 16.012 65.5375 16.176 65.3615 16.392C65.1855 16.608 65.0575 16.872 64.9775 17.184C64.8975 17.488 64.8575 17.84 64.8575 18.24V21H63.8375V14.796ZM68.4936 19.044C68.5016 19.268 68.5536 19.46 68.6496 19.62C68.7456 19.772 68.8696 19.896 69.0216 19.992C69.1816 20.08 69.3576 20.144 69.5496 20.184C69.7496 20.224 69.9536 20.244 70.1616 20.244C70.3216 20.244 70.4896 20.232 70.6656 20.208C70.8416 20.184 71.0016 20.14 71.1456 20.076C71.2976 20.012 71.4216 19.92 71.5176 19.8C71.6136 19.672 71.6616 19.512 71.6616 19.32C71.6616 19.056 71.5616 18.856 71.3616 18.72C71.1616 18.584 70.9096 18.476 70.6056 18.396C70.3096 18.308 69.9856 18.232 69.6336 18.168C69.2816 18.096 68.9536 18 68.6496 17.88C68.3536 17.752 68.1056 17.576 67.9056 17.352C67.7056 17.128 67.6056 16.816 67.6056 16.416C67.6056 16.104 67.6736 15.836 67.8096 15.612C67.9536 15.388 68.1336 15.208 68.3496 15.072C68.5736 14.928 68.8216 14.824 69.0936 14.76C69.3736 14.688 69.6496 14.652 69.9216 14.652C70.2736 14.652 70.5976 14.684 70.8936 14.748C71.1896 14.804 71.4496 14.908 71.6736 15.06C71.9056 15.204 72.0896 15.404 72.2256 15.66C72.3616 15.908 72.4416 16.22 72.4656 16.596H71.4456C71.4296 16.396 71.3776 16.232 71.2896 16.104C71.2016 15.968 71.0896 15.86 70.9536 15.78C70.8176 15.7 70.6656 15.644 70.4976 15.612C70.3376 15.572 70.1736 15.552 70.0056 15.552C69.8536 15.552 69.6976 15.564 69.5376 15.588C69.3856 15.612 69.2456 15.656 69.1176 15.72C68.9896 15.776 68.8856 15.856 68.8056 15.96C68.7256 16.056 68.6856 16.184 68.6856 16.344C68.6856 16.52 68.7456 16.668 68.8656 16.788C68.9936 16.9 69.1536 16.996 69.3456 17.076C69.5376 17.148 69.7536 17.212 69.9936 17.268C70.2336 17.316 70.4736 17.368 70.7136 17.424C70.9696 17.48 71.2176 17.548 71.4576 17.628C71.7056 17.708 71.9216 17.816 72.1056 17.952C72.2976 18.08 72.4496 18.244 72.5616 18.444C72.6816 18.644 72.7416 18.892 72.7416 19.188C72.7416 19.564 72.6616 19.876 72.5016 20.124C72.3496 20.372 72.1456 20.572 71.8896 20.724C71.6416 20.876 71.3576 20.98 71.0376 21.036C70.7256 21.1 70.4136 21.132 70.1016 21.132C69.7576 21.132 69.4296 21.096 69.1176 21.024C68.8056 20.952 68.5296 20.836 68.2896 20.676C68.0496 20.508 67.8576 20.292 67.7136 20.028C67.5696 19.756 67.4896 19.428 67.4736 19.044H68.4936ZM74.6136 17.904C74.6136 18.28 74.6616 18.616 74.7576 18.912C74.8616 19.2 75.0016 19.444 75.1776 19.644C75.3536 19.836 75.5576 19.984 75.7896 20.088C76.0296 20.192 76.2816 20.244 76.5456 20.244C76.8096 20.244 77.0576 20.192 77.2896 20.088C77.5296 19.984 77.7376 19.836 77.9136 19.644C78.0896 19.444 78.2256 19.2 78.3216 18.912C78.4256 18.616 78.4776 18.28 78.4776 17.904C78.4776 17.528 78.4256 17.196 78.3216 16.908C78.2256 16.612 78.0896 16.364 77.9136 16.164C77.7376 15.964 77.5296 15.812 77.2896 15.708C77.0576 15.604 76.8096 15.552 76.5456 15.552C76.2816 15.552 76.0296 15.604 75.7896 15.708C75.5576 15.812 75.3536 15.964 75.1776 16.164C75.0016 16.364 74.8616 16.612 74.7576 16.908C74.6616 17.196 74.6136 17.528 74.6136 17.904ZM73.5336 17.904C73.5336 17.448 73.5976 17.024 73.7256 16.632C73.8536 16.232 74.0456 15.888 74.3016 15.6C74.5576 15.304 74.8736 15.072 75.2496 14.904C75.6256 14.736 76.0576 14.652 76.5456 14.652C77.0416 14.652 77.4736 14.736 77.8416 14.904C78.2176 15.072 78.5336 15.304 78.7896 15.6C79.0456 15.888 79.2376 16.232 79.3656 16.632C79.4936 17.024 79.5576 17.448 79.5576 17.904C79.5576 18.36 79.4936 18.784 79.3656 19.176C79.2376 19.568 79.0456 19.912 78.7896 20.208C78.5336 20.496 78.2176 20.724 77.8416 20.892C77.4736 21.052 77.0416 21.132 76.5456 21.132C76.0576 21.132 75.6256 21.052 75.2496 20.892C74.8736 20.724 74.5576 20.496 74.3016 20.208C74.0456 19.912 73.8536 19.568 73.7256 19.176C73.5976 18.784 73.5336 18.36 73.5336 17.904Z" fill="#6C757D"/>
    </svg>    