<svg width="109" height="30" viewBox="0 0 109 30" fill="none" xmlns="http://www.w3.org/2000/svg">
    <path d="M109 29.9424H76.4461L71.2241 5.22694L106.402 0L109 29.9424Z" fill="white"/>
    <path d="M0 26.6799V8.31641H1.73781L6.92541 20.5184V8.31641H9.04175V26.6799H7.41578L2.16796 14.1405V26.6799H0Z" fill="white"/>
    <path d="M17.0169 26.8876C15.7867 26.8876 14.7973 26.6453 14.0661 26.1607C13.3262 25.6761 12.8014 24.9838 12.4917 24.0838C12.1734 23.1838 12.0186 22.128 12.0186 20.9251V13.9674C12.0186 12.7559 12.182 11.7174 12.5003 10.852C12.8272 9.98661 13.352 9.32026 14.0747 8.85295C14.8059 8.3943 15.7867 8.16064 17.0169 8.16064C18.2471 8.16064 19.2279 8.3943 19.9505 8.86161C20.6732 9.32892 21.198 9.99527 21.5163 10.8607C21.8432 11.726 21.998 12.7559 21.998 13.9674V20.9511C21.998 22.1453 21.8346 23.1924 21.5163 24.0838C21.1894 24.9751 20.6732 25.6674 19.9505 26.1607C19.2279 26.6453 18.2471 26.8876 17.0169 26.8876ZM17.0169 24.8713C17.6965 24.8713 18.2041 24.7328 18.5482 24.4559C18.8924 24.179 19.1246 23.7809 19.2451 23.279C19.3655 22.7684 19.4257 22.1799 19.4257 21.4963V13.4482C19.4257 12.7645 19.3655 12.1847 19.2451 11.6914C19.1246 11.1982 18.8924 10.826 18.5482 10.5578C18.2041 10.2895 17.6879 10.1597 17.0169 10.1597C16.3459 10.1597 15.8297 10.2895 15.477 10.5578C15.1242 10.826 14.8834 11.1982 14.7629 11.6914C14.6425 12.1847 14.5822 12.7645 14.5822 13.4482V21.4963C14.5822 22.1799 14.6425 22.7684 14.7629 23.279C14.8834 23.7895 15.1156 24.179 15.477 24.4559C15.8297 24.7328 16.3459 24.8713 17.0169 24.8713Z" fill="white"/>
    <path d="M29.259 26.8876C28.2095 26.8876 27.3319 26.6626 26.6351 26.204C25.9383 25.7453 25.4049 25.1222 25.0435 24.3261C24.6822 23.5213 24.4757 22.5953 24.4155 21.5395L26.6695 20.9251C26.7125 21.5742 26.8158 22.2059 26.9706 22.803C27.1255 23.4088 27.3836 23.902 27.7449 24.2915C28.1062 24.6809 28.6052 24.8713 29.259 24.8713C29.9128 24.8713 30.4204 24.6895 30.7559 24.3174C31.0915 23.9453 31.2635 23.4174 31.2635 22.7165C31.2635 21.8857 31.0742 21.2193 30.7043 20.7088C30.3258 20.2068 29.8526 19.6963 29.2848 19.177L26.2222 16.4597C25.6199 15.9318 25.1812 15.352 24.8887 14.7289C24.6048 14.1059 24.4585 13.327 24.4585 12.401C24.4585 11.0597 24.8457 10.0126 25.6113 9.26834C26.377 8.52411 27.418 8.16064 28.7428 8.16064C29.4655 8.16064 30.1021 8.25584 30.6441 8.44622C31.1947 8.63661 31.6507 8.92219 32.0206 9.32026C32.3905 9.70969 32.683 10.2116 32.8981 10.8087C33.1132 11.4058 33.2594 12.1068 33.3368 12.903L31.1689 13.4914C31.1259 12.8857 31.0312 12.3318 30.9022 11.8212C30.7645 11.3193 30.5323 10.9039 30.1881 10.601C29.8526 10.2895 29.3623 10.1337 28.7342 10.1337C28.1062 10.1337 27.6072 10.3068 27.2545 10.6443C26.9018 10.9818 26.7211 11.4837 26.7211 12.1501C26.7211 12.7126 26.8158 13.1712 27.005 13.5347C27.1943 13.8982 27.4954 14.2703 27.9169 14.6424L31.0054 17.3597C31.6937 17.9655 32.3045 18.6838 32.8293 19.5232C33.354 20.3626 33.6207 21.3578 33.6207 22.5088C33.6207 23.4174 33.4315 24.1963 33.0615 24.854C32.683 25.5117 32.1754 26.0136 31.5216 26.3597C30.8678 26.7059 30.1107 26.8876 29.259 26.8876Z" fill="white"/>
    <path d="M40.3655 26.8876C39.3159 26.8876 38.4384 26.6626 37.7415 26.204C37.0447 25.7453 36.5113 25.1222 36.15 24.3261C35.7887 23.5213 35.5822 22.5953 35.522 21.5395L37.776 20.9251C37.819 21.5742 37.9222 22.2059 38.0771 22.803C38.2319 23.4088 38.49 23.902 38.8513 24.2915C39.2127 24.6809 39.7116 24.8713 40.3655 24.8713C41.0193 24.8713 41.5269 24.6895 41.8624 24.3174C42.1979 23.9453 42.37 23.4174 42.37 22.7165C42.37 21.8857 42.1807 21.2193 41.8108 20.7088C41.4322 20.2068 40.9591 19.6963 40.3913 19.177L37.3286 16.4597C36.7264 15.9318 36.2876 15.352 35.9951 14.7289C35.7112 14.1059 35.565 13.327 35.565 12.401C35.565 11.0597 35.9521 10.0126 36.7178 9.26834C37.4835 8.52411 38.5244 8.16064 39.8493 8.16064C40.5719 8.16064 41.2086 8.25584 41.7505 8.44622C42.3011 8.63661 42.7571 8.92219 43.127 9.32026C43.4969 9.70969 43.7895 10.2116 44.0045 10.8087C44.2196 11.4058 44.3659 12.1068 44.4433 12.903L42.2753 13.4914C42.2323 12.8857 42.1377 12.3318 42.0086 11.8212C41.871 11.3193 41.6387 10.9039 41.2946 10.601C40.9591 10.2895 40.4687 10.1337 39.8407 10.1337C39.2127 10.1337 38.7137 10.3068 38.361 10.6443C38.0082 10.9818 37.8276 11.4837 37.8276 12.1501C37.8276 12.7126 37.9222 13.1712 38.1115 13.5347C38.3007 13.8982 38.6018 14.2703 39.0234 14.6424L42.1119 17.3597C42.8001 17.9655 43.4109 18.6838 43.9357 19.5232C44.4605 20.3626 44.7272 21.3578 44.7272 22.5088C44.7272 23.4174 44.5379 24.1963 44.168 24.854C43.7895 25.5117 43.2819 26.0136 42.628 26.3597C41.9742 26.7059 41.2258 26.8876 40.3655 26.8876Z" fill="white"/>
    <path d="M46.1807 26.6799L50.0606 8.31641H52.5211L56.4182 26.6799H54.0094L53.1749 22.0588H49.4584L48.5809 26.6799H46.1807ZM49.7939 20.2241H52.8394L51.2994 11.9424L49.7939 20.2241Z" fill="white"/>
    <path d="M63.0171 26.8876C61.9675 26.8876 61.09 26.6626 60.3932 26.204C59.6963 25.7453 59.1629 25.1222 58.8016 24.3261C58.4403 23.5213 58.2338 22.5953 58.1736 21.5395L60.4276 20.9251C60.4706 21.5742 60.5738 22.2059 60.7287 22.803C60.8835 23.4088 61.1416 23.902 61.5029 24.2915C61.8643 24.6809 62.3632 24.8713 63.0171 24.8713C63.6709 24.8713 64.1785 24.6895 64.514 24.3174C64.8495 23.9453 65.0216 23.4174 65.0216 22.7165C65.0216 21.8857 64.8323 21.2193 64.4624 20.7088C64.0838 20.2068 63.6107 19.6963 63.0429 19.177L59.9802 16.4597C59.378 15.9318 58.9393 15.352 58.6467 14.7289C58.3628 14.1059 58.2166 13.327 58.2166 12.401C58.2166 11.0597 58.6037 10.0126 59.3694 9.26834C60.1351 8.52411 61.176 8.16064 62.5009 8.16064C63.2235 8.16064 63.8602 8.25584 64.4022 8.44622C64.9527 8.63661 65.4087 8.92219 65.7786 9.32026C66.1486 9.70969 66.4411 10.2116 66.6561 10.8087C66.8712 11.4058 67.0175 12.1068 67.0949 12.903L64.9269 13.4914C64.8839 12.8857 64.7893 12.3318 64.6602 11.8212C64.5226 11.3193 64.2903 10.9039 63.9462 10.601C63.6107 10.2895 63.1203 10.1337 62.4923 10.1337C61.8643 10.1337 61.3653 10.3068 61.0126 10.6443C60.6599 10.9818 60.4792 11.4837 60.4792 12.1501C60.4792 12.7126 60.5738 13.1712 60.7631 13.5347C60.9524 13.8982 61.2535 14.2703 61.675 14.6424L64.7635 17.3597C65.4517 17.9655 66.0625 18.6838 66.5873 19.5232C67.1121 20.3626 67.3788 21.3578 67.3788 22.5088C67.3788 23.4174 67.1895 24.1963 66.8196 24.854C66.4411 25.5117 65.9335 26.0136 65.2797 26.3597C64.6258 26.7059 63.8774 26.8876 63.0171 26.8876Z" fill="{% if line_color %}{{ line_color }}{% else %}white{% endif %}"/>
    </svg>
    