<svg width="24" height="25" viewBox="0 0 24 25" fill="none" xmlns="http://www.w3.org/2000/svg">
<g id="linkedin">
<path id="Vector" d="M16 8.59961C17.5913 8.59961 19.1174 9.23175 20.2426 10.357C21.3679 11.4822 22 13.0083 22 14.5996V21.5996H18V14.5996C18 14.0692 17.7893 13.5605 17.4142 13.1854C17.0391 12.8103 16.5304 12.5996 16 12.5996C15.4696 12.5996 14.9609 12.8103 14.5858 13.1854C14.2107 13.5605 14 14.0692 14 14.5996V21.5996H10V14.5996C10 13.0083 10.6321 11.4822 11.7574 10.357C12.8826 9.23175 14.4087 8.59961 16 8.59961Z" stroke="#F7F7ED" stroke-width="2" stroke-linecap="round" stroke-linejoin="round"/>
<path id="Vector_2" d="M6 9.59961H2V21.5996H6V9.59961Z" stroke="#F7F7ED" stroke-width="2" stroke-linecap="round" stroke-linejoin="round"/>
<path id="Vector_3" d="M4 6.59961C5.10457 6.59961 6 5.70418 6 4.59961C6 3.49504 5.10457 2.59961 4 2.59961C2.89543 2.59961 2 3.49504 2 4.59961C2 5.70418 2.89543 6.59961 4 6.59961Z" stroke="#F7F7ED" stroke-width="2" stroke-linecap="round" stroke-linejoin="round"/>
</g>
</svg>
