<svg width="24" height="25" viewBox="0 0 24 25" fill="none" xmlns="http://www.w3.org/2000/svg">
<g id="twitter">
<path id="Vector" d="M23 3.59966C22.0424 4.27513 20.9821 4.79176 19.86 5.12966C19.2577 4.43717 18.4573 3.94635 17.567 3.72358C16.6767 3.50082 15.7395 3.55685 14.8821 3.88411C14.0247 4.21137 13.2884 4.79406 12.773 5.55337C12.2575 6.31269 11.9877 7.21199 12 8.12966V9.12965C10.2426 9.17522 8.50127 8.78547 6.93101 7.9951C5.36074 7.20473 4.01032 6.03829 3 4.59966C3 4.59966 -1 13.5997 8 17.5997C5.94053 18.9976 3.48716 19.6986 1 19.5997C10 24.5997 21 19.5997 21 8.09966C20.9991 7.82111 20.9723 7.54325 20.92 7.26966C21.9406 6.26315 22.6608 4.99237 23 3.59966Z" stroke="#F7F7ED" stroke-width="2" stroke-linecap="round" stroke-linejoin="round"/>
</g>
</svg>
