<svg{% if classnames %} class="{{classnames}}"{% endif %} width="200" height="200" viewBox="0 0 200 200" fill="none" xmlns="http://www.w3.org/2000/svg">
    <g clip-path="url(#clip0_716_6085)">
    <path d="M99.355 157.128C128.338 157.128 151.833 133.633 151.833 104.65C151.833 75.667 128.338 52.1716 99.355 52.1716C70.372 52.1716 46.8766 75.667 46.8766 104.65C46.8766 133.633 70.372 157.128 99.355 157.128Z" fill="#233D90"/>
    <path d="M0 0V200H200V0H0ZM99.355 178.815C58.395 178.815 25.19 145.61 25.19 104.65C25.19 63.69 58.395 30.485 99.355 30.485C140.315 30.485 173.52 63.69 173.52 104.65C173.52 145.61 140.315 178.815 99.355 178.815Z" fill="#233D90"/>
    </g>
    <defs>
    <clipPath id="clip0_716_6085">
    <rect width="200" height="200" fill="white"/>
    </clipPath>
    </defs>
</svg>    