
<svg{% if classnames %} class="{{ classnames }}"{% endif %} width="176" height="176" viewBox="0 0 176 176" fill="none" xmlns="http://www.w3.org/2000/svg">
    <path d="M176 92.3333H109.838L170.987 117.595L167.678 125.605L106.43 100.302L153.29 147.162L147.162 153.29L100.393 106.522L125.785 167.593L117.782 170.92L92.3333 109.712V176H83.6667V109.838L58.405 170.987L50.395 167.678L75.6983 106.43L28.8383 153.29L22.71 147.162L69.4783 100.393L8.40667 125.785L5.08 117.782L66.2883 92.3333H0V83.6667H66.1617L5.01333 58.405L8.32167 50.395L69.57 75.6983L22.71 28.8383L28.8383 22.71L75.6067 69.4783L50.215 8.40667L58.2183 5.08L83.6667 66.2883V0H92.3333V66.1617L117.595 5.01333L125.605 8.32167L100.302 69.57L147.162 22.71L153.29 28.8383L106.522 75.6067L167.593 50.215L170.92 58.2183L109.712 83.6667H176V92.3333Z" fill="#233D90"/>
</svg>
