
<svg{% if classnames %} class="{{classnames}}"{% endif %} width="200" height="200" viewBox="0 0 200 200" fill="none" xmlns="http://www.w3.org/2000/svg">
    <path fill-rule="evenodd" clip-rule="evenodd" d="M22.0818 100C22.0818 142.571 56.593 177.083 99.1658 177.083C141.739 177.083 176.25 142.571 176.25 100C176.25 57.4292 141.739 22.9175 99.1658 22.9175C56.593 22.9175 22.0818 57.4292 22.0818 100ZM65.5208 99.9067C65.5208 81.4429 80.4897 66.4722 98.9553 66.4722C117.421 66.4722 132.39 81.4429 132.39 99.9067C132.39 118.371 117.421 133.341 98.9553 133.341C80.4897 133.341 65.5208 118.371 65.5208 99.9067ZM68.572 99.9438C68.572 116.834 82.2646 130.525 99.1526 130.525C116.043 130.525 129.733 116.834 129.733 99.9438C129.733 83.0532 116.043 69.3628 99.1526 69.3628C82.262 69.3628 68.572 83.0532 68.572 99.9438ZM99.1526 49.3599C71.2158 49.3599 48.5662 72.0078 48.5662 99.9468C48.5662 127.885 71.2131 150.533 99.1526 150.533C127.092 150.533 149.739 127.885 149.739 99.9468C149.739 72.0078 127.092 49.3599 99.1526 49.3599ZM99.0273 147.64C72.7375 147.64 51.4285 126.328 51.4285 100.04C51.4285 73.752 72.74 52.4399 99.0273 52.4399C125.314 52.4399 146.626 73.752 146.626 100.04C146.626 126.328 125.314 147.64 99.0273 147.64ZM104.493 99.9521C104.493 102.918 102.089 105.323 99.1233 105.323C96.1575 105.323 93.7532 102.918 93.7532 99.9521C93.7532 96.9858 96.1575 94.5815 99.1233 94.5815C102.089 94.5815 104.493 96.9858 104.493 99.9521ZM99.1526 31.896C61.5686 31.896 31.1028 62.3628 31.1028 99.9468C31.1028 137.531 61.5686 167.997 99.1526 167.997C136.737 167.997 167.202 137.531 167.202 99.9468C167.202 62.3628 136.737 31.896 99.1526 31.896ZM99.1526 163.781C63.8977 163.781 35.3188 135.203 35.3188 99.9468C35.3188 64.6904 63.8977 36.1118 99.1526 36.1118C134.407 36.1118 162.986 64.6904 162.986 99.9468C162.986 135.203 134.407 163.781 99.1526 163.781Z" fill="#F7F7ED"/>
    <path class="background" d="M98.9553 66.4719C80.4898 66.4719 65.5207 81.4426 65.5207 99.9066C65.5207 118.371 80.4898 133.341 98.9553 133.341C117.421 133.341 132.39 118.371 132.39 99.9066C132.39 81.4426 117.421 66.4719 98.9553 66.4719ZM99.1525 130.525C82.2646 130.525 68.5721 116.835 68.5721 99.9439C68.5721 83.0533 82.262 69.3626 99.1525 69.3626C116.043 69.3626 129.733 83.0533 129.733 99.9439C129.733 116.835 116.043 130.525 99.1525 130.525Z" fill="#F8AD39"/>
    <path class="background" d="M99.1525 49.3601C71.2157 49.3601 48.5663 72.0081 48.5663 99.9468C48.5663 127.885 71.2131 150.533 99.1525 150.533C127.092 150.533 149.739 127.885 149.739 99.9468C149.739 72.0081 127.092 49.3601 99.1525 49.3601ZM99.0273 147.64C72.7374 147.64 51.4284 126.328 51.4284 100.04C51.4284 73.7521 72.7401 52.4401 99.0273 52.4401C125.314 52.4401 146.626 73.7521 146.626 100.04C146.626 126.328 125.314 147.64 99.0273 147.64Z" fill="#F8AD39"/>
    <path class="background" d="M99.1232 105.323C102.089 105.323 104.493 102.918 104.493 99.952C104.493 96.9858 102.089 94.5813 99.1232 94.5813C96.1575 94.5813 93.7533 96.9858 93.7533 99.952C93.7533 102.918 96.1575 105.323 99.1232 105.323Z" fill="#F8AD39"/>
    <path class="background" d="M99.1525 31.896C61.5686 31.896 31.1028 62.3627 31.1028 99.9467C31.1028 137.531 61.5686 167.997 99.1525 167.997C136.736 167.997 167.202 137.531 167.202 99.9467C167.202 62.3627 136.736 31.896 99.1525 31.896ZM99.1525 163.781C63.8978 163.781 35.3187 135.203 35.3187 99.9467C35.3187 64.6907 63.8978 36.112 99.1525 36.112C134.407 36.112 162.986 64.6907 162.986 99.9467C162.986 135.203 134.407 163.781 99.1525 163.781Z" fill="#F8AD39"/>
    <path class="background" d="M0 0V200H200V0H0ZM99.1659 177.083C56.5931 177.083 22.0819 142.571 22.0819 100C22.0819 57.4293 56.5931 22.9173 99.1659 22.9173C141.739 22.9173 176.25 57.4293 176.25 100C176.25 142.571 141.739 177.083 99.1659 177.083Z" fill="#F8AD39"/>
</svg>