<svg{% if classnames %} class="{{ classnames }}"{% endif %} width="96" height="96" viewBox="0 0 96 96" fill="none" xmlns="http://www.w3.org/2000/svg">
    <g clip-path="url(#clip0_128_1738)">
    <circle cx="48" cy="48" r="48" fill="#F8AD39"/>
    <path d="M47.9943 36.8723C41.8597 36.8723 36.8862 41.8458 36.8862 47.9804C36.8862 54.115 41.8597 59.0885 47.9943 59.0885C54.1289 59.0885 59.1024 54.115 59.1024 47.9804C59.1024 41.8458 54.1289 36.8723 47.9943 36.8723ZM47.9835 49.9329C46.9062 49.9329 46.0327 49.0593 46.0327 47.982C46.0327 46.9047 46.9062 46.0312 47.9835 46.0312C49.0608 46.0312 49.9343 46.9047 49.9343 47.982C49.9343 49.0593 49.0608 49.9329 47.9835 49.9329Z" fill="#233D90"/>
    <path d="M47.949 30.7236C38.3998 30.7236 30.6587 38.4647 30.6587 48.0139C30.6587 57.5631 38.3998 65.3042 47.949 65.3042C57.4982 65.3042 65.2392 57.5631 65.2392 48.0139C65.2392 38.4647 57.4982 30.7236 47.949 30.7236ZM47.9225 60.1123C41.2149 60.1123 35.7771 54.6744 35.7771 47.9669C35.7771 41.2593 41.2149 35.8215 47.9225 35.8215C54.63 35.8215 60.0679 41.2593 60.0679 47.9669C60.0679 54.6744 54.63 60.1123 47.9225 60.1123Z" fill="#233D90"/>
    <path d="M47.9947 24.793C35.1888 24.793 24.8071 35.1746 24.8071 47.9805C24.8071 60.7865 35.1888 71.1681 47.9947 71.1681C60.8006 71.1681 71.1823 60.7865 71.1823 47.9805C71.1823 35.1746 60.8006 24.793 47.9947 24.793ZM47.9947 66.3557C37.8466 66.3557 29.6196 58.1286 29.6196 47.9805C29.6196 37.8324 37.8466 29.6054 47.9947 29.6054C58.1428 29.6054 66.3698 37.8324 66.3698 47.9805C66.3698 58.1286 58.1428 66.3557 47.9947 66.3557Z" fill="#233D90"/>
    <path d="M48 20C32.5362 20 20 32.5362 20 48C20 63.4638 32.5362 76 48 76C63.4638 76 76 63.4638 76 48C76 32.5362 63.4638 20 48 20ZM47.9946 72.6995C34.3427 72.6995 23.2757 61.6324 23.2757 47.9805C23.2757 34.3286 34.3432 23.2616 47.9946 23.2616C61.646 23.2616 72.7135 34.3286 72.7135 47.9805C72.7135 61.6324 61.6465 72.6995 47.9946 72.6995Z" fill="#233D90"/>
    </g>
    <defs>
    <clipPath id="clip0_128_1738">
    <rect width="96" height="96" fill="white"/>
    </clipPath>
    </defs>
</svg>    