<svg{% if classnames %} class="{{ classnames }}"{% endif %} width="96" height="96" viewBox="0 0 96 96" fill="none" xmlns="http://www.w3.org/2000/svg">
    <g clip-path="url(#clip0_128_1724)">
    <circle cx="48" cy="48" r="48" fill="#EB5E3B"/>
    <path d="M55.3565 27C54.1008 27 52.872 27.1119 51.6781 27.3271C50.4848 27.1119 49.2554 27 47.9997 27C46.744 27 45.5152 27.1119 44.3213 27.3271C43.128 27.1119 41.8986 27 40.6429 27C29.2421 27 20 36.2421 20 47.6435C20 59.0449 29.2421 68.2864 40.6429 68.2864C41.8986 68.2864 43.1274 68.1745 44.3213 67.9594C45.5146 68.1745 46.744 68.2864 47.9997 68.2864C49.2554 68.2864 50.4842 68.1745 51.6781 67.9594C52.8714 68.1745 54.1008 68.2864 55.3565 68.2864C66.7579 68.2864 76 59.0443 76 47.6435C76 36.2428 66.7579 27 55.3565 27ZM51.9104 30.3428C51.9874 30.3929 52.0638 30.4436 52.1403 30.495C59.8834 32.3571 65.6373 39.3282 65.6373 47.6435C65.6373 55.9589 59.8834 62.9287 52.1403 64.7914C52.0644 64.8428 51.9874 64.8935 51.9104 64.9436C51.8328 64.9284 51.7557 64.9125 51.6787 64.896C51.8334 64.8629 51.9868 64.8287 52.1396 64.7914C57.6569 61.0861 61.287 54.7888 61.287 47.6435C61.287 40.4982 57.6569 34.2009 52.1396 30.495C51.9868 30.4577 51.8328 30.4229 51.6787 30.3905C51.7557 30.374 51.8328 30.3581 51.9104 30.3428ZM48.0009 31.6095C54.0684 34.3977 58.2811 40.5282 58.2811 47.6435C58.2811 54.7588 54.0678 60.8893 48.0009 63.677C41.9334 60.8893 37.7201 54.7582 37.7201 47.6435C37.7201 40.5288 41.9334 34.3971 48.0009 31.6095ZM23.0072 47.6429C23.0072 39.3282 28.761 32.3571 36.5042 30.4944C30.9875 34.1997 27.3574 40.497 27.3574 47.6429C27.3574 54.7888 30.9875 61.0855 36.5042 64.7908C28.761 62.9287 23.0072 55.957 23.0072 47.6429ZM44.0902 64.943C44.0132 64.8935 43.9362 64.8428 43.8604 64.7908C36.1172 62.9287 30.3633 55.957 30.3633 47.6429C30.3633 39.3288 36.1172 32.3571 43.8604 30.4944C43.9362 30.443 44.0132 30.3923 44.0902 30.3422C44.1679 30.3574 44.2455 30.3733 44.3225 30.3898C44.1679 30.4229 44.0138 30.4577 43.8604 30.4944C38.3437 34.1997 34.7136 40.497 34.7136 47.6429C34.7136 54.7888 38.3437 61.0855 43.8604 64.7908C44.0132 64.8275 44.1672 64.8629 44.3225 64.8953C44.2455 64.9119 44.1679 64.9277 44.0902 64.943ZM59.4958 64.7908C65.0131 61.0855 68.6432 54.7882 68.6432 47.6429C68.6432 40.4976 65.0131 34.2003 59.4958 30.4944C67.239 32.3565 72.9928 39.3275 72.9928 47.6429C72.9928 55.9583 67.239 62.9281 59.4958 64.7908Z" fill="#233D90"/>
    </g>
    <defs>
    <clipPath id="clip0_128_1724">
    <rect width="96" height="96" fill="white"/>
    </clipPath>
    </defs>
</svg>    