<svg{% if classnames %} class="{{ classnames }}"{% endif %} width="200" height="200" viewBox="0 0 200 200" fill="none" xmlns="http://www.w3.org/2000/svg">
    <path d="M190.127 58.8118H100V94.8618H190.127V58.8118Z" fill="#233D90"/>
    <path d="M190.127 105.137H181.113V141.188H190.127V105.137Z" fill="#233D90"/>
    <path d="M154.075 105.137H145.063V141.188H154.075V105.137Z" fill="#233D90"/>
    <path d="M90.9868 58.8118H81.9751V94.8618H90.9868V58.8118Z" fill="#233D90"/>
    <path d="M136.052 105.137H127.038V141.188H136.052V105.137Z" fill="#233D90"/>
    <path d="M54.9367 58.8118H45.925V94.8618H54.9367V58.8118Z" fill="#233D90"/>
    <path d="M118.025 105.137H109.013V141.188H118.025V105.137Z" fill="#233D90"/>
    <path d="M36.9118 58.8118H27.8984V94.8618H36.9118V58.8118Z" fill="#233D90"/>
    <path d="M100 105.137H9.87329V141.188H100V105.137Z" fill="#233D90"/>
    <path d="M72.9616 58.8118H63.95V94.8618H72.9616V58.8118Z" fill="#233D90"/>
    <path d="M172.1 105.137H163.088V141.188H172.1V105.137Z" fill="#233D90"/>
    <path d="M18.885 58.8118H9.87329V94.8618H18.885V58.8118Z" fill="#233D90"/>
</svg>    